solid flsun-cube-linear-rail-xy-gantry
facet normal 0.0 7.993605777301127e-15 1.0
  outer loop
    vertex 1150.2335562077149 189.286375362731 565.6619999999995
    vertex 1150.2335562077149 207.7431457505076 565.6619999999995
    vertex 1131.7767858199377 189.286375362731 565.6619999999995
  endloop
endfacet
facet normal -0.10112033530911398 -0.10112033530910439 0.9897218576822211
  outer loop
    vertex 1131.858691573502 195.0427415339704 568.0621986408906
    vertex 1135.0707716156624 192.5979673266381 568.1405946293194
    vertex 1132.242344490916 195.4263944513843 568.1405946293194
  endloop
endfacet
facet normal -0.10112033530911398 -0.10112033530910439 0.9897218576822211
  outer loop
    vertex 1135.0707716156624 192.5979673266381 568.1405946293194
    vertex 1131.858691573502 195.0427415339704 568.0621986408906
    vertex 1134.6871186982482 192.2143144092242 568.0621986408906
  endloop
endfacet
facet normal 0.7071067811865386 -0.7071067811865565 1.400656942142748e-14
  outer loop
    vertex 1131.7767858199377 189.286375362731 565.6619999999995
    vertex 1133.2390629226534 190.7662586336294 569.5929780947104
    vertex 1133.1836285876177 190.71082429859374 570.135545253761
  endloop
endfacet
facet normal 0.7071067811865386 -0.7071067811865565 1.400656942142748e-14
  outer loop
    vertex 1133.2390629226534 190.7662586336294 569.5929780947104
    vertex 1131.7767858199377 189.286375362731 565.6619999999995
    vertex 1133.3919050602635 190.9191007712394 569.0891888381519
  endloop
endfacet
facet normal 0.7071067811865386 -0.7071067811865565 1.400656942142748e-14
  outer loop
    vertex 1133.3919050602635 190.9191007712394 569.0891888381519
    vertex 1131.7767858199377 189.286375362731 565.6619999999995
    vertex 1133.6317390613533 191.1589347723292 568.6585098893692
  endloop
endfacet
facet normal 0.7071067811865386 -0.7071067811865565 1.400656942142748e-14
  outer loop
    vertex 1133.6317390613533 191.1589347723292 568.6585098893692
    vertex 1131.7767858199377 189.286375362731 565.6619999999995
    vertex 1133.942220635093 191.46941634606884 568.330291306991
  endloop
endfacet
facet normal 0.7071067811865386 -0.7071067811865565 1.400656942142748e-14
  outer loop
    vertex 1133.942220635093 191.46941634606884 568.330291306991
    vertex 1131.7767858199377 189.286375362731 565.6619999999995
    vertex 1134.3021909753272 191.82938668630308 568.1269006449995
  endloop
endfacet
facet normal 0.7071067811865386 -0.7071067811865565 1.400656942142748e-14
  outer loop
    vertex 1134.3021909753272 191.82938668630308 568.1269006449995
    vertex 1131.7767858199377 189.286375362731 565.6619999999995
    vertex 1134.6871186982482 192.2143144092242 568.0621986408906
  endloop
endfacet
facet normal 0.7071067811865386 -0.7071067811865565 1.400656942142748e-14
  outer loop
    vertex 1134.6871186982482 192.2143144092242 568.0621986408906
    vertex 1131.7767858199377 189.286375362731 565.6619999999995
    vertex 1150.2335562077149 207.7431457505076 565.6619999999995
  endloop
endfacet
facet normal 0.7071067811865386 -0.7071067811865565 1.400656942142748e-14
  outer loop
    vertex 1134.6871186982482 192.2143144092242 568.0621986408906
    vertex 1150.2335562077149 207.7431457505076 565.6619999999995
    vertex 1135.0707716156624 192.5979673266381 568.1405946293194
  endloop
endfacet
facet normal 0.7071067811865386 -0.7071067811865565 1.400656942142748e-14
  outer loop
    vertex 1135.0707716156624 192.5979673266381 568.1405946293194
    vertex 1150.2335562077149 207.7431457505076 565.6619999999995
    vertex 1135.4270044152636 192.95420012623947 568.3567460532296
  endloop
endfacet
facet normal 0.7071067811865386 -0.7071067811865565 1.400656942142748e-14
  outer loop
    vertex 1135.4270044152636 192.95420012623947 568.3567460532296
    vertex 1150.2335562077149 207.7431457505076 565.6619999999995
    vertex 1135.7315404204621 193.25873613143807 568.6959225502889
  endloop
endfacet
facet normal 0.7071067811865386 -0.7071067811865565 1.400656942142748e-14
  outer loop
    vertex 1135.7315404204621 193.25873613143807 568.6959225502889
    vertex 1150.2335562077149 207.7431457505076 565.6619999999995
    vertex 1135.9636260057732 193.49082171674917 569.1350098027384
  endloop
endfacet
facet normal 0.7071067811865386 -0.7071067811865565 1.400656942142748e-14
  outer loop
    vertex 1135.9636260057732 193.49082171674917 569.1350098027384
    vertex 1150.2335562077149 207.7431457505076 565.6619999999995
    vertex 1136.1074449220973 193.6346406330733 569.6440847399499
  endloop
endfacet
facet normal 0.7071067811865386 -0.7071067811865565 1.400656942142748e-14
  outer loop
    vertex 1136.1074449220973 193.6346406330733 569.6440847399499
    vertex 1150.2335562077149 207.7431457505076 565.6619999999995
    vertex 1136.153196147959 193.68039185893502 570.1884547462382
  endloop
endfacet
facet normal 0.7071067811865386 -0.7071067811865565 1.400656942142748e-14
  outer loop
    vertex 1131.7767858199377 189.286375362731 565.6619999999995
    vertex 1133.8981061634975 191.40769570629118 595.1619999999998
    vertex 1131.7767858199377 189.28637536273158 595.1619999999998
  endloop
endfacet
facet normal 0.7071067811865386 -0.7071067811865565 1.400656942142748e-14
  outer loop
    vertex 1133.8981061634975 191.40769570629118 595.1619999999998
    vertex 1131.7767858199377 189.286375362731 565.6619999999995
    vertex 1133.1836285876177 190.71082429859374 570.135545253761
  endloop
endfacet
facet normal 0.7071067811865386 -0.7071067811865565 1.400656942142748e-14
  outer loop
    vertex 1133.8981061634975 191.40769570629118 595.1619999999998
    vertex 1133.1836285876177 190.71082429859374 570.135545253761
    vertex 1133.2293798134792 190.75657552445549 570.6799152600495
  endloop
endfacet
facet normal 0.7071067811865386 -0.7071067811865565 1.400656942142748e-14
  outer loop
    vertex 1133.8981061634975 191.40769570629118 595.1619999999998
    vertex 1133.2293798134792 190.75657552445549 570.6799152600495
    vertex 1133.3731987298036 190.90039444077962 571.1889901972609
  endloop
endfacet
facet normal 0.7071067811865386 -0.7071067811865565 1.400656942142748e-14
  outer loop
    vertex 1133.8981061634975 191.40769570629118 595.1619999999998
    vertex 1133.3731987298036 190.90039444077962 571.1889901972609
    vertex 1133.6052843151144 191.13248002609072 571.6280774497105
  endloop
endfacet
facet normal 0.7071067811865386 -0.7071067811865565 1.400656942142748e-14
  outer loop
    vertex 1133.8981061634975 191.40769570629118 595.1619999999998
    vertex 1133.6052843151144 191.13248002609072 571.6280774497105
    vertex 1133.8981061634975 191.40769570629075 575.1619999999997
  endloop
endfacet
facet normal 0.7071067811865386 -0.7071067811865565 1.400656942142748e-14
  outer loop
    vertex 1133.8981061634975 191.40769570629075 575.1619999999997
    vertex 1133.6052843151144 191.13248002609072 571.6280774497105
    vertex 1133.9098203203132 191.43701603128932 571.9672539467699
  endloop
endfacet
facet normal 0.7071067811865386 -0.7071067811865565 1.400656942142748e-14
  outer loop
    vertex 1133.8981061634975 191.40769570629075 575.1619999999997
    vertex 1133.9098203203132 191.43701603128932 571.9672539467699
    vertex 1134.2660531199144 191.7932488308907 572.18340537068
  endloop
endfacet
facet normal 0.7071067811865386 -0.7071067811865565 1.400656942142748e-14
  outer loop
    vertex 1133.8981061634975 191.40769570629075 575.1619999999997
    vertex 1134.2660531199144 191.7932488308907 572.18340537068
    vertex 1134.6497060373285 192.1769017483046 572.2618013591086
  endloop
endfacet
facet normal 0.7071067811865386 -0.7071067811865565 1.400656942142748e-14
  outer loop
    vertex 1133.8981061634975 191.40769570629075 575.1619999999997
    vertex 1134.6497060373285 192.1769017483046 572.2618013591086
    vertex 1150.2335562077149 207.7431457505076 575.1619999999994
  endloop
endfacet
facet normal 0.7071067811865386 -0.7071067811865565 1.400656942142748e-14
  outer loop
    vertex 1150.2335562077149 207.7431457505076 575.1619999999994
    vertex 1134.6497060373285 192.1769017483046 572.2618013591086
    vertex 1135.0346337602496 192.5618294712257 572.1970993549999
  endloop
endfacet
facet normal 0.7071067811865386 -0.7071067811865565 1.400656942142748e-14
  outer loop
    vertex 1150.2335562077149 207.7431457505076 575.1619999999994
    vertex 1135.0346337602496 192.5618294712257 572.1970993549999
    vertex 1135.3946041004838 192.92179981145995 571.9937086930084
  endloop
endfacet
facet normal 0.7071067811865386 -0.7071067811865565 1.400656942142748e-14
  outer loop
    vertex 1150.2335562077149 207.7431457505076 575.1619999999994
    vertex 1135.3946041004838 192.92179981145995 571.9937086930084
    vertex 1135.7050856742235 193.2322813851996 571.6654901106302
  endloop
endfacet
facet normal 0.7071067811865386 -0.7071067811865565 1.400656942142748e-14
  outer loop
    vertex 1150.2335562077149 207.7431457505076 575.1619999999994
    vertex 1135.7050856742235 193.2322813851996 571.6654901106302
    vertex 1135.9449196753135 193.47211538628937 571.2348111618473
  endloop
endfacet
facet normal 0.7071067811865386 -0.7071067811865565 1.400656942142748e-14
  outer loop
    vertex 1150.2335562077149 207.7431457505076 575.1619999999994
    vertex 1135.9449196753135 193.47211538628937 571.2348111618473
    vertex 1136.0977618129234 193.62495752389938 570.731021905289
  endloop
endfacet
facet normal 0.7071067811865386 -0.7071067811865565 1.400656942142748e-14
  outer loop
    vertex 1150.2335562077149 207.7431457505076 575.1619999999994
    vertex 1136.0977618129234 193.62495752389938 570.731021905289
    vertex 1136.153196147959 193.68039185893502 570.1884547462382
  endloop
endfacet
facet normal 0.7071067811865386 -0.7071067811865565 1.400656942142748e-14
  outer loop
    vertex 1150.2335562077149 207.7431457505076 575.1619999999994
    vertex 1136.153196147959 193.68039185893502 570.1884547462382
    vertex 1150.2335562077149 207.7431457505076 565.6619999999995
  endloop
endfacet
facet normal -9.86175475618773e-16 -7.20768784676937e-15 -1.0
  outer loop
    vertex 1159.2335562077149 190.99999999999997 563.1619999999995
    vertex 1154.2753093407941 194.99999999999997 563.1619999999995
    vertex 1159.2335562077149 194.99999999999997 563.1619999999995
  endloop
endfacet
facet normal -9.86175475618773e-16 -7.20768784676937e-15 -1.0
  outer loop
    vertex 1125.2739702306374 189.28637536273098 563.1619999999996
    vertex 1123.5756305569819 190.9847150363865 563.1619999999996
    vertex 1150.2335562077149 189.28637536273098 563.1619999999996
  endloop
endfacet
facet normal -9.86175475618773e-16 -7.20768784676937e-15 -1.0
  outer loop
    vertex 1154.2753093407941 194.99999999999997 563.1619999999995
    vertex 1150.2335562077149 213.39999999999992 563.1619999999994
    vertex 1154.2753093407941 213.39999999999992 563.1619999999994
  endloop
endfacet
facet normal -9.86175475618773e-16 -7.20768784676937e-15 -1.0
  outer loop
    vertex 1150.2335562077149 213.39999999999992 563.1619999999994
    vertex 1154.2753093407941 194.99999999999997 563.1619999999995
    vertex 1145.9909155205955 209.15735931288071 563.1619999999994
  endloop
endfacet
facet normal -9.86175475618773e-16 -7.20768784676937e-15 -1.0
  outer loop
    vertex 1150.2335562077149 213.39999999999992 563.1619999999994
    vertex 1145.9909155205955 209.15735931288071 563.1619999999994
    vertex 1143.869595177036 211.2786796564404 563.1619999999994
  endloop
endfacet
facet normal -9.86175475618773e-16 -7.20768784676937e-15 -1.0
  outer loop
    vertex 1145.9909155205955 209.15735931288071 563.1619999999994
    vertex 1154.2753093407941 194.99999999999997 563.1619999999995
    vertex 1127.818271244101 190.98471503638658 563.1619999999996
  endloop
endfacet
facet normal -9.86175475618773e-16 -7.20768784676937e-15 -1.0
  outer loop
    vertex 1127.818271244101 190.98471503638658 563.1619999999996
    vertex 1154.2753093407941 194.99999999999997 563.1619999999995
    vertex 1154.2335562077149 190.99999999999997 563.1619999999995
  endloop
endfacet
facet normal -9.86175475618773e-16 -7.20768784676937e-15 -1.0
  outer loop
    vertex 1154.2335562077149 190.99999999999997 563.1619999999995
    vertex 1154.2753093407941 194.99999999999997 563.1619999999995
    vertex 1159.2335562077149 190.99999999999997 563.1619999999995
  endloop
endfacet
facet normal -9.86175475618773e-16 -7.20768784676937e-15 -1.0
  outer loop
    vertex 1127.818271244101 190.98471503638658 563.1619999999996
    vertex 1154.2335562077149 190.99999999999997 563.1619999999995
    vertex 1150.2335562077149 189.28637536273098 563.1619999999996
  endloop
endfacet
facet normal -9.86175475618773e-16 -7.20768784676937e-15 -1.0
  outer loop
    vertex 1150.2335562077149 189.28637536273098 563.1619999999996
    vertex 1154.2335562077149 190.99999999999997 563.1619999999995
    vertex 1154.233556207715 181.00000000000009 563.1619999999996
  endloop
endfacet
facet normal -9.86175475618773e-16 -7.20768784676937e-15 -1.0
  outer loop
    vertex 1127.818271244101 190.98471503638658 563.1619999999996
    vertex 1150.2335562077149 189.28637536273098 563.1619999999996
    vertex 1123.5756305569819 190.9847150363865 563.1619999999996
  endloop
endfacet
facet normal -9.86175475618773e-16 -7.20768784676937e-15 -1.0
  outer loop
    vertex 1150.2335562077149 189.28637536273098 563.1619999999996
    vertex 1154.233556207715 181.00000000000009 563.1619999999996
    vertex 1150.233556207715 181.00000000000009 563.1619999999996
  endloop
endfacet
facet normal -9.86175475618773e-16 -7.20768784676937e-15 -1.0
  outer loop
    vertex 1123.5756305569819 190.9847150363865 563.1619999999996
    vertex 1125.6969509005414 193.10603537994618 563.1619999999995
    vertex 1127.818271244101 190.98471503638658 563.1619999999996
  endloop
endfacet
facet normal -9.86175475618773e-16 -7.20768784676937e-15 -1.0
  outer loop
    vertex 1143.869595177036 211.2786796564404 563.1619999999994
    vertex 1148.112235864155 215.5213203435596 563.1619999999994
    vertex 1150.2335562077149 213.39999999999992 563.1619999999994
  endloop
endfacet
facet normal 1.0151879337172543e-14 -1.0 7.993605777301127e-15
  outer loop
    vertex 1154.233556207715 181.00000000000009 563.1619999999996
    vertex 1150.233556207715 181.00000000000037 599.1619999999995
    vertex 1150.233556207715 181.00000000000009 563.1619999999996
  endloop
endfacet
facet normal 1.0151879337172543e-14 -1.0 7.993605777301127e-15
  outer loop
    vertex 1150.233556207715 181.00000000000037 599.1619999999995
    vertex 1154.233556207715 181.00000000000009 563.1619999999996
    vertex 1154.233556207715 181.00000000000037 599.1619999999995
  endloop
endfacet
facet normal 0.649820731512183 0.6498207315121689 0.3942918129938295
  outer loop
    vertex 1130.4106357979072 193.59468575837562 569.5929780947104
    vertex 1133.3919050602635 190.9191007712394 569.0891888381519
    vertex 1130.5634779355173 193.7475278959856 569.0891888381518
  endloop
endfacet
facet normal 0.649820731512183 0.6498207315121689 0.3942918129938295
  outer loop
    vertex 1133.3919050602635 190.9191007712394 569.0891888381519
    vertex 1130.4106357979072 193.59468575837562 569.5929780947104
    vertex 1133.2390629226534 190.7662586336294 569.5929780947104
  endloop
endfacet
facet normal 0.555518216995682 0.5555182169956719 0.6187075409043339
  outer loop
    vertex 1130.5634779355173 193.7475278959856 569.0891888381518
    vertex 1133.6317390613533 191.1589347723292 568.6585098893692
    vertex 1130.803311936607 193.98736189707537 568.658509889369
  endloop
endfacet
facet normal 0.555518216995682 0.5555182169956719 0.6187075409043339
  outer loop
    vertex 1133.6317390613533 191.1589347723292 568.6585098893692
    vertex 1130.5634779355173 193.7475278959856 569.0891888381518
    vertex 1133.3919050602635 190.9191007712394 569.0891888381519
  endloop
endfacet
facet normal -0.649820731512183 -0.6498207315121689 -0.3942918129938295
  outer loop
    vertex 1135.9449196753135 193.47211538628937 571.2348111618473
    vertex 1133.2693346881772 196.45338464864557 570.731021905289
    vertex 1136.0977618129234 193.62495752389938 570.731021905289
  endloop
endfacet
facet normal -0.649820731512183 -0.6498207315121689 -0.3942918129938295
  outer loop
    vertex 1133.2693346881772 196.45338464864557 570.731021905289
    vertex 1135.9449196753135 193.47211538628937 571.2348111618473
    vertex 1133.1164925505673 196.3005425110356 571.2348111618473
  endloop
endfacet
facet normal 0.10112033530911398 0.10112033530910439 -0.9897218576822211
  outer loop
    vertex 1134.6497060373285 192.1769017483046 572.2618013591086
    vertex 1131.4376259951682 194.62167595563687 572.18340537068
    vertex 1131.8212789125823 195.0053288730508 572.2618013591086
  endloop
endfacet
facet normal 0.10112033530911398 0.10112033530910439 -0.9897218576822211
  outer loop
    vertex 1131.4376259951682 194.62167595563687 572.18340537068
    vertex 1134.6497060373285 192.1769017483046 572.2618013591086
    vertex 1134.2660531199144 191.7932488308907 572.18340537068
  endloop
endfacet
facet normal 0.2788064147342766 0.2788064147342629 -0.9189852916157283
  outer loop
    vertex 1134.2660531199144 191.7932488308907 572.18340537068
    vertex 1131.0813931955668 194.2654431560355 571.9672539467698
    vertex 1131.4376259951682 194.62167595563687 572.18340537068
  endloop
endfacet
facet normal 0.2788064147342766 0.2788064147342629 -0.9189852916157283
  outer loop
    vertex 1131.0813931955668 194.2654431560355 571.9672539467698
    vertex 1134.2660531199144 191.7932488308907 572.18340537068
    vertex 1133.9098203203132 191.43701603128932 571.9672539467699
  endloop
endfacet
facet normal -0.4233580540281836 -0.4233580540281782 -0.8009593723647559
  outer loop
    vertex 1135.7050856742235 193.2322813851996 571.6654901106302
    vertex 1132.5661769757378 195.75022693620616 571.9937086930083
    vertex 1132.8766585494773 196.0607085099458 571.6654901106302
  endloop
endfacet
facet normal -0.4233580540281836 -0.4233580540281782 -0.8009593723647559
  outer loop
    vertex 1132.5661769757378 195.75022693620616 571.9937086930083
    vertex 1135.7050856742235 193.2322813851996 571.6654901106302
    vertex 1135.3946041004838 192.92179981145995 571.9937086930084
  endloop
endfacet
facet normal -0.2623467393109824 -0.2623467393109822 -0.9286271462464315
  outer loop
    vertex 1135.3946041004838 192.92179981145995 571.9937086930084
    vertex 1132.2062066355033 195.3902565959719 572.1970993549999
    vertex 1132.5661769757378 195.75022693620616 571.9937086930083
  endloop
endfacet
facet normal -0.2623467393109824 -0.2623467393109822 -0.9286271462464315
  outer loop
    vertex 1132.2062066355033 195.3902565959719 572.1970993549999
    vertex 1135.3946041004838 192.92179981145995 571.9937086930084
    vertex 1135.0346337602496 192.5618294712257 572.1970993549999
  endloop
endfacet
facet normal 0.4233580540281836 0.4233580540281782 0.8009593723647559
  outer loop
    vertex 1130.803311936607 193.98736189707537 568.658509889369
    vertex 1133.942220635093 191.46941634606884 568.330291306991
    vertex 1131.1137935103468 194.29784347081502 568.3302913069908
  endloop
endfacet
facet normal 0.4233580540281836 0.4233580540281782 0.8009593723647559
  outer loop
    vertex 1133.942220635093 191.46941634606884 568.330291306991
    vertex 1130.803311936607 193.98736189707537 568.658509889369
    vertex 1133.6317390613533 191.1589347723292 568.6585098893692
  endloop
endfacet
facet normal 0.6998390370556594 0.6998390370556423 0.14300574962580603
  outer loop
    vertex 1130.3552014628715 193.53925142333995 570.135545253761
    vertex 1133.2390629226534 190.7662586336294 569.5929780947104
    vertex 1130.4106357979072 193.59468575837562 569.5929780947104
  endloop
endfacet
facet normal 0.6998390370556594 0.6998390370556423 0.14300574962580603
  outer loop
    vertex 1133.2390629226534 190.7662586336294 569.5929780947104
    vertex 1130.3552014628715 193.53925142333995 570.135545253761
    vertex 1133.1836285876177 190.71082429859374 570.135545253761
  endloop
endfacet
facet normal 0.2623467393109824 0.2623467393109822 0.9286271462464315
  outer loop
    vertex 1131.1137935103468 194.29784347081502 568.3302913069908
    vertex 1134.3021909753272 191.82938668630308 568.1269006449995
    vertex 1131.473763850581 194.6578138110493 568.1269006449995
  endloop
endfacet
facet normal 0.2623467393109824 0.2623467393109822 0.9286271462464315
  outer loop
    vertex 1134.3021909753272 191.82938668630308 568.1269006449995
    vertex 1131.1137935103468 194.29784347081502 568.3302913069908
    vertex 1133.942220635093 191.46941634606884 568.330291306991
  endloop
endfacet
facet normal 0.0834569278581145 0.0834569278581193 0.9930105147403879
  outer loop
    vertex 1131.473763850581 194.6578138110493 568.1269006449995
    vertex 1134.6871186982482 192.2143144092242 568.0621986408906
    vertex 1131.858691573502 195.0427415339704 568.0621986408906
  endloop
endfacet
facet normal 0.0834569278581145 0.0834569278581193 0.9930105147403879
  outer loop
    vertex 1134.6871186982482 192.2143144092242 568.0621986408906
    vertex 1131.473763850581 194.6578138110493 568.1269006449995
    vertex 1134.3021909753272 191.82938668630308 568.1269006449995
  endloop
endfacet
facet normal -0.2788064147342766 -0.2788064147342629 0.9189852916157283
  outer loop
    vertex 1132.242344490916 195.4263944513843 568.1405946293194
    vertex 1135.4270044152636 192.95420012623947 568.3567460532296
    vertex 1132.5985772905174 195.78262725098568 568.3567460532295
  endloop
endfacet
facet normal -0.2788064147342766 -0.2788064147342629 0.9189852916157283
  outer loop
    vertex 1135.4270044152636 192.95420012623947 568.3567460532296
    vertex 1132.242344490916 195.4263944513843 568.1405946293194
    vertex 1135.0707716156624 192.5979673266381 568.1405946293194
  endloop
endfacet
facet normal -0.5663638036540298 -0.5663638036540111 0.5987187017465719
  outer loop
    vertex 1132.9031132957161 196.08716325618425 568.6959225502889
    vertex 1135.9636260057732 193.49082171674917 569.1350098027384
    vertex 1133.1351988810272 196.31924884149538 569.1350098027384
  endloop
endfacet
facet normal -0.5663638036540298 -0.5663638036540111 0.5987187017465719
  outer loop
    vertex 1135.9636260057732 193.49082171674917 569.1350098027384
    vertex 1132.9031132957161 196.08716325618425 568.6959225502889
    vertex 1135.7315404204621 193.25873613143807 568.6959225502889
  endloop
endfacet
facet normal -0.4374922977447063 -0.4374922977446895 0.7856213966206175
  outer loop
    vertex 1132.5985772905174 195.78262725098568 568.3567460532295
    vertex 1135.7315404204621 193.25873613143807 568.6959225502889
    vertex 1132.9031132957161 196.08716325618425 568.6959225502889
  endloop
endfacet
facet normal -0.4374922977447063 -0.4374922977446895 0.7856213966206175
  outer loop
    vertex 1135.7315404204621 193.25873613143807 568.6959225502889
    vertex 1132.5985772905174 195.78262725098568 568.3567460532295
    vertex 1135.4270044152636 192.95420012623947 568.3567460532296
  endloop
endfacet
facet normal -0.65663855230479 -0.6566385523047702 0.37101431677789076
  outer loop
    vertex 1136.1074449220973 193.6346406330733 569.6440847399499
    vertex 1133.1351988810272 196.31924884149538 569.1350098027384
    vertex 1135.9636260057732 193.49082171674917 569.1350098027384
  endloop
endfacet
facet normal -0.65663855230479 -0.6566385523047702 0.37101431677789076
  outer loop
    vertex 1133.1351988810272 196.31924884149538 569.1350098027384
    vertex 1136.1074449220973 193.6346406330733 569.6440847399499
    vertex 1133.2790177973513 196.46306775781952 569.6440847399499
  endloop
endfacet
facet normal 0.5663638036540298 0.5663638036540111 -0.5987187017465719
  outer loop
    vertex 1133.6052843151144 191.13248002609072 571.6280774497105
    vertex 1130.5447716050573 193.7288215655258 571.1889901972609
    vertex 1130.7768571903684 193.96090715083693 571.6280774497105
  endloop
endfacet
facet normal 0.5663638036540298 0.5663638036540111 -0.5987187017465719
  outer loop
    vertex 1130.5447716050573 193.7288215655258 571.1889901972609
    vertex 1133.6052843151144 191.13248002609072 571.6280774497105
    vertex 1133.3731987298036 190.90039444077962 571.1889901972609
  endloop
endfacet
facet normal -0.0834569278581145 -0.0834569278581193 -0.9930105147403879
  outer loop
    vertex 1135.0346337602496 192.5618294712257 572.1970993549999
    vertex 1131.8212789125823 195.0053288730508 572.2618013591086
    vertex 1132.2062066355033 195.3902565959719 572.1970993549999
  endloop
endfacet
facet normal -0.0834569278581145 -0.0834569278581193 -0.9930105147403879
  outer loop
    vertex 1131.8212789125823 195.0053288730508 572.2618013591086
    vertex 1135.0346337602496 192.5618294712257 572.1970993549999
    vertex 1134.6497060373285 192.1769017483046 572.2618013591086
  endloop
endfacet
facet normal 0.4374922977447063 0.4374922977446895 -0.7856213966206175
  outer loop
    vertex 1133.9098203203132 191.43701603128932 571.9672539467699
    vertex 1130.7768571903684 193.96090715083693 571.6280774497105
    vertex 1131.0813931955668 194.2654431560355 571.9672539467698
  endloop
endfacet
facet normal 0.4374922977447063 0.4374922977446895 -0.7856213966206175
  outer loop
    vertex 1130.7768571903684 193.96090715083693 571.6280774497105
    vertex 1133.9098203203132 191.43701603128932 571.9672539467699
    vertex 1133.6052843151144 191.13248002609072 571.6280774497105
  endloop
endfacet
facet normal -0.6998390370556594 -0.6998390370556423 -0.14300574962580603
  outer loop
    vertex 1136.0977618129234 193.62495752389938 570.731021905289
    vertex 1133.3247690232129 196.5088189836812 570.1884547462382
    vertex 1136.153196147959 193.68039185893502 570.1884547462382
  endloop
endfacet
facet normal -0.6998390370556594 -0.6998390370556423 -0.14300574962580603
  outer loop
    vertex 1133.3247690232129 196.5088189836812 570.1884547462382
    vertex 1136.0977618129234 193.62495752389938 570.731021905289
    vertex 1133.2693346881772 196.45338464864557 570.731021905289
  endloop
endfacet
facet normal -0.555518216995682 -0.5555182169956719 -0.6187075409043339
  outer loop
    vertex 1135.9449196753135 193.47211538628937 571.2348111618473
    vertex 1132.8766585494773 196.0607085099458 571.6654901106302
    vertex 1133.1164925505673 196.3005425110356 571.2348111618473
  endloop
endfacet
facet normal -0.555518216995682 -0.5555182169956719 -0.6187075409043339
  outer loop
    vertex 1132.8766585494773 196.0607085099458 571.6654901106302
    vertex 1135.9449196753135 193.47211538628937 571.2348111618473
    vertex 1135.7050856742235 193.2322813851996 571.6654901106302
  endloop
endfacet
facet normal 0.65663855230479 0.6566385523047702 -0.37101431677789076
  outer loop
    vertex 1130.5447716050573 193.7288215655258 571.1889901972609
    vertex 1133.2293798134792 190.75657552445549 570.6799152600495
    vertex 1130.4009526887332 193.58500264920167 570.6799152600495
  endloop
endfacet
facet normal 0.65663855230479 0.6566385523047702 -0.37101431677789076
  outer loop
    vertex 1133.2293798134792 190.75657552445549 570.6799152600495
    vertex 1130.5447716050573 193.7288215655258 571.1889901972609
    vertex 1133.3731987298036 190.90039444077962 571.1889901972609
  endloop
endfacet
facet normal 0.7021644687624815 0.7021644687624625 -0.1180259192509475
  outer loop
    vertex 1130.4009526887332 193.58500264920167 570.6799152600495
    vertex 1133.1836285876177 190.71082429859374 570.135545253761
    vertex 1130.3552014628715 193.53925142333995 570.135545253761
  endloop
endfacet
facet normal 0.7021644687624815 0.7021644687624625 -0.1180259192509475
  outer loop
    vertex 1133.1836285876177 190.71082429859374 570.135545253761
    vertex 1130.4009526887332 193.58500264920167 570.6799152600495
    vertex 1133.2293798134792 190.75657552445549 570.6799152600495
  endloop
endfacet
facet normal -0.7021644687624815 -0.7021644687624625 0.1180259192509475
  outer loop
    vertex 1136.153196147959 193.68039185893502 570.1884547462382
    vertex 1133.2790177973513 196.46306775781952 569.6440847399499
    vertex 1136.1074449220973 193.6346406330733 569.6440847399499
  endloop
endfacet
facet normal -0.7021644687624815 -0.7021644687624625 0.1180259192509475
  outer loop
    vertex 1133.2790177973513 196.46306775781952 569.6440847399499
    vertex 1136.153196147959 193.68039185893502 570.1884547462382
    vertex 1133.3247690232129 196.5088189836812 570.1884547462382
  endloop
endfacet
facet normal -1.0 -1.1505657137169208e-14 6.922799177672053e-15
  outer loop
    vertex 1150.233556207715 181.00000000000037 599.1619999999995
    vertex 1150.2335562077149 189.28637536273098 563.1619999999996
    vertex 1150.233556207715 181.00000000000009 563.1619999999996
  endloop
endfacet
facet normal -1.0 -1.1505657137169208e-14 6.922799177672053e-15
  outer loop
    vertex 1150.2335562077149 189.28637536273098 563.1619999999996
    vertex 1150.233556207715 181.00000000000037 599.1619999999995
    vertex 1150.2335562077149 189.286375362731 565.6619999999995
  endloop
endfacet
facet normal -1.0 -1.1505657137169208e-14 6.922799177672053e-15
  outer loop
    vertex 1150.2335562077149 189.286375362731 565.6619999999995
    vertex 1150.233556207715 181.00000000000037 599.1619999999995
    vertex 1150.2335562077149 195.00000000000006 575.1619999999995
  endloop
endfacet
facet normal -1.0 -1.1505657137169208e-14 6.922799177672053e-15
  outer loop
    vertex 1150.2335562077149 189.286375362731 565.6619999999995
    vertex 1150.2335562077149 195.00000000000006 575.1619999999995
    vertex 1150.2335562077149 207.7431457505076 565.6619999999995
  endloop
endfacet
facet normal -1.0 -1.1505657137169208e-14 6.922799177672053e-15
  outer loop
    vertex 1150.2335562077149 195.00000000000006 575.1619999999995
    vertex 1150.233556207715 181.00000000000037 599.1619999999995
    vertex 1150.233556207715 184.7009618943236 593.4119999999995
  endloop
endfacet
facet normal -1.0 -1.1505657137169208e-14 6.922799177672053e-15
  outer loop
    vertex 1150.2335562077149 195.00000000000006 575.1619999999995
    vertex 1150.233556207715 184.7009618943236 593.4119999999995
    vertex 1150.233556207715 184.93933982822045 593.1013398282197
  endloop
endfacet
facet normal -1.0 -1.1505657137169208e-14 6.922799177672053e-15
  outer loop
    vertex 1150.2335562077149 195.00000000000006 575.1619999999995
    vertex 1150.233556207715 184.93933982822045 593.1013398282197
    vertex 1150.233556207715 185.25000000000023 592.8629618943228
  endloop
endfacet
facet normal -1.0 -1.1505657137169208e-14 6.922799177672053e-15
  outer loop
    vertex 1150.2335562077149 195.00000000000006 575.1619999999995
    vertex 1150.233556207715 185.25000000000023 592.8629618943228
    vertex 1150.233556207715 185.61177143234644 592.7131112605658
  endloop
endfacet
facet normal -1.0 -1.1505657137169208e-14 6.922799177672053e-15
  outer loop
    vertex 1150.2335562077149 195.00000000000006 575.1619999999995
    vertex 1150.233556207715 185.61177143234644 592.7131112605658
    vertex 1150.233556207715 186.00000000000026 592.6619999999995
  endloop
endfacet
facet normal -1.0 -1.1505657137169208e-14 6.922799177672053e-15
  outer loop
    vertex 1150.233556207715 184.7009618943236 593.4119999999995
    vertex 1150.233556207715 181.00000000000037 599.1619999999995
    vertex 1150.233556207715 184.55111126056667 593.7737714323456
  endloop
endfacet
facet normal -1.0 -1.1505657137169208e-14 6.922799177672053e-15
  outer loop
    vertex 1150.233556207715 184.55111126056667 593.7737714323456
    vertex 1150.233556207715 181.00000000000037 599.1619999999995
    vertex 1150.233556207715 184.50000000000026 594.1619999999995
  endloop
endfacet
facet normal -1.0 -1.1505657137169208e-14 6.922799177672053e-15
  outer loop
    vertex 1150.233556207715 184.50000000000026 594.1619999999995
    vertex 1150.233556207715 181.00000000000037 599.1619999999995
    vertex 1150.233556207715 184.55111126056667 594.5502285676532
  endloop
endfacet
facet normal -1.0 -1.1505657137169208e-14 6.922799177672053e-15
  outer loop
    vertex 1150.233556207715 184.55111126056667 594.5502285676532
    vertex 1150.233556207715 181.00000000000037 599.1619999999995
    vertex 1150.233556207715 184.7009618943236 594.9119999999995
  endloop
endfacet
facet normal -1.0 -1.1505657137169208e-14 6.922799177672053e-15
  outer loop
    vertex 1150.233556207715 184.7009618943236 594.9119999999995
    vertex 1150.233556207715 181.00000000000037 599.1619999999995
    vertex 1150.233556207715 184.93933982822045 595.2226601717794
  endloop
endfacet
facet normal -1.0 -1.1505657137169208e-14 6.922799177672053e-15
  outer loop
    vertex 1150.233556207715 184.93933982822045 595.2226601717794
    vertex 1150.233556207715 181.00000000000037 599.1619999999995
    vertex 1150.233556207715 185.25000000000028 595.4610381056762
  endloop
endfacet
facet normal -1.0 -1.1505657137169208e-14 6.922799177672053e-15
  outer loop
    vertex 1150.233556207715 185.25000000000028 595.4610381056762
    vertex 1150.233556207715 181.00000000000037 599.1619999999995
    vertex 1150.233556207715 185.6117714323465 595.610888739433
  endloop
endfacet
facet normal -1.0 -1.1505657137169208e-14 6.922799177672053e-15
  outer loop
    vertex 1150.233556207715 185.6117714323465 595.610888739433
    vertex 1150.233556207715 181.00000000000037 599.1619999999995
    vertex 1150.233556207715 186.00000000000028 595.6619999999995
  endloop
endfacet
facet normal -1.0 -1.1505657137169208e-14 6.922799177672053e-15
  outer loop
    vertex 1150.2335562077149 195.00000000000006 575.1619999999995
    vertex 1150.233556207715 186.75000000000026 592.8629618943228
    vertex 1150.233556207715 195.00000000000026 599.1619999999994
  endloop
endfacet
facet normal -1.0 -1.1505657137169208e-14 6.922799177672053e-15
  outer loop
    vertex 1150.233556207715 186.75000000000026 592.8629618943228
    vertex 1150.2335562077149 195.00000000000006 575.1619999999995
    vertex 1150.233556207715 186.38822856765404 592.7131112605658
  endloop
endfacet
facet normal -1.0 -1.1505657137169208e-14 6.922799177672053e-15
  outer loop
    vertex 1150.233556207715 186.38822856765404 592.7131112605658
    vertex 1150.2335562077149 195.00000000000006 575.1619999999995
    vertex 1150.233556207715 186.00000000000026 592.6619999999995
  endloop
endfacet
facet normal -1.0 -1.1505657137169208e-14 6.922799177672053e-15
  outer loop
    vertex 1150.233556207715 195.00000000000026 599.1619999999994
    vertex 1150.233556207715 186.75000000000026 592.8629618943228
    vertex 1150.233556207715 187.06066017178006 593.1013398282196
  endloop
endfacet
facet normal -1.0 -1.1505657137169208e-14 6.922799177672053e-15
  outer loop
    vertex 1150.233556207715 195.00000000000026 599.1619999999994
    vertex 1150.233556207715 187.06066017178006 593.1013398282196
    vertex 1150.233556207715 187.29903810567694 593.4119999999995
  endloop
endfacet
facet normal -1.0 -1.1505657137169208e-14 6.922799177672053e-15
  outer loop
    vertex 1150.233556207715 195.00000000000026 599.1619999999994
    vertex 1150.233556207715 187.29903810567694 593.4119999999995
    vertex 1150.233556207715 187.44888873943387 593.7737714323456
  endloop
endfacet
facet normal -1.0 -1.1505657137169208e-14 6.922799177672053e-15
  outer loop
    vertex 1150.233556207715 195.00000000000026 599.1619999999994
    vertex 1150.233556207715 187.44888873943387 593.7737714323456
    vertex 1150.233556207715 187.50000000000028 594.1619999999995
  endloop
endfacet
facet normal -1.0 -1.1505657137169208e-14 6.922799177672053e-15
  outer loop
    vertex 1150.233556207715 195.00000000000026 599.1619999999994
    vertex 1150.233556207715 187.50000000000028 594.1619999999995
    vertex 1150.233556207715 187.44888873943387 594.5502285676532
  endloop
endfacet
facet normal -1.0 -1.1505657137169208e-14 6.922799177672053e-15
  outer loop
    vertex 1150.233556207715 195.00000000000026 599.1619999999994
    vertex 1150.233556207715 187.44888873943387 594.5502285676532
    vertex 1150.233556207715 187.29903810567694 594.9119999999995
  endloop
endfacet
facet normal -1.0 -1.1505657137169208e-14 6.922799177672053e-15
  outer loop
    vertex 1150.233556207715 195.00000000000026 599.1619999999994
    vertex 1150.233556207715 187.29903810567694 594.9119999999995
    vertex 1150.233556207715 187.06066017178006 595.2226601717794
  endloop
endfacet
facet normal -1.0 -1.1505657137169208e-14 6.922799177672053e-15
  outer loop
    vertex 1150.233556207715 195.00000000000026 599.1619999999994
    vertex 1150.233556207715 187.06066017178006 595.2226601717794
    vertex 1150.233556207715 186.7500000000003 595.4610381056762
  endloop
endfacet
facet normal -1.0 -1.1505657137169208e-14 6.922799177672053e-15
  outer loop
    vertex 1150.233556207715 195.00000000000026 599.1619999999994
    vertex 1150.233556207715 186.7500000000003 595.4610381056762
    vertex 1150.233556207715 186.3882285676541 595.610888739433
  endloop
endfacet
facet normal -1.0 -1.1505657137169208e-14 6.922799177672053e-15
  outer loop
    vertex 1150.233556207715 195.00000000000026 599.1619999999994
    vertex 1150.233556207715 186.3882285676541 595.610888739433
    vertex 1150.233556207715 186.00000000000028 595.6619999999995
  endloop
endfacet
facet normal -1.0 -1.1505657137169208e-14 6.922799177672053e-15
  outer loop
    vertex 1150.233556207715 195.00000000000026 599.1619999999994
    vertex 1150.233556207715 186.00000000000028 595.6619999999995
    vertex 1150.233556207715 181.00000000000037 599.1619999999995
  endloop
endfacet
facet normal -1.0 -1.1505657137169208e-14 6.922799177672053e-15
  outer loop
    vertex 1150.2335562077149 207.7431457505076 575.1619999999994
    vertex 1150.2335562077149 207.7431457505076 565.6619999999995
    vertex 1150.2335562077149 195.00000000000006 575.1619999999995
  endloop
endfacet
facet normal 0.0 1.0 -7.993605777301127e-15
  outer loop
    vertex 1154.2335562077149 213.4 575.1619999999992
    vertex 1150.2335562077149 213.39999999999992 565.6619999999992
    vertex 1150.2335562077149 213.4 575.1619999999994
  endloop
endfacet
facet normal 0.0 1.0 -7.993605777301127e-15
  outer loop
    vertex 1150.2335562077149 213.39999999999992 565.6619999999992
    vertex 1154.2335562077149 213.4 575.1619999999992
    vertex 1150.2335562077149 213.39999999999992 563.1619999999994
  endloop
endfacet
facet normal 0.0 1.0 -7.993605777301127e-15
  outer loop
    vertex 1150.2335562077149 213.39999999999992 563.1619999999994
    vertex 1154.2335562077149 213.4 575.1619999999992
    vertex 1154.2753093407941 213.39999999999992 563.1619999999994
  endloop
endfacet
facet normal 0.0 1.0 -7.993605777301127e-15
  outer loop
    vertex 1150.233556207715 195.00000000000026 599.1619999999994
    vertex 1154.2335562077149 195.00000000000006 575.1619999999995
    vertex 1150.2335562077149 195.00000000000006 575.1619999999995
  endloop
endfacet
facet normal 0.0 1.0 -7.993605777301127e-15
  outer loop
    vertex 1154.2335562077149 195.00000000000006 575.1619999999995
    vertex 1150.233556207715 195.00000000000026 599.1619999999994
    vertex 1159.233556207715 195.00000000000026 599.1619999999992
  endloop
endfacet
facet normal 0.0 1.0 -7.993605777301127e-15
  outer loop
    vertex 1154.2335562077149 195.00000000000006 575.1619999999995
    vertex 1159.233556207715 195.00000000000026 599.1619999999992
    vertex 1154.2753093407941 194.99999999999997 563.1619999999995
  endloop
endfacet
facet normal 0.0 1.0 -7.993605777301127e-15
  outer loop
    vertex 1154.2753093407941 194.99999999999997 563.1619999999995
    vertex 1159.233556207715 195.00000000000026 599.1619999999992
    vertex 1159.2335562077149 194.99999999999997 563.1619999999995
  endloop
endfacet
facet normal 0.9999939468462048 2.781300545949586e-17 0.003479406695095531
  outer loop
    vertex 1154.2335562077149 213.4 575.1619999999992
    vertex 1154.2753093407941 194.99999999999997 563.1619999999995
    vertex 1154.2753093407941 213.39999999999992 563.1619999999994
  endloop
endfacet
facet normal 0.9999939468462048 2.781300545949586e-17 0.003479406695095531
  outer loop
    vertex 1154.2753093407941 194.99999999999997 563.1619999999995
    vertex 1154.2335562077149 213.4 575.1619999999992
    vertex 1154.2335562077149 195.00000000000006 575.1619999999995
  endloop
endfacet
facet normal -0.7071067811865396 0.7071067811865556 -4.879876498100099e-15
  outer loop
    vertex 1129.9395915876607 193.10603537994626 575.1619999999996
    vertex 1130.4009526887332 193.58500264920167 570.6799152600495
    vertex 1130.3552014628715 193.53925142333995 570.135545253761
  endloop
endfacet
facet normal -0.7071067811865396 0.7071067811865556 -4.879876498100099e-15
  outer loop
    vertex 1130.4009526887332 193.58500264920167 570.6799152600495
    vertex 1129.9395915876607 193.10603537994626 575.1619999999996
    vertex 1130.5447716050573 193.7288215655258 571.1889901972609
  endloop
endfacet
facet normal -0.7071067811865396 0.7071067811865556 -4.879876498100099e-15
  outer loop
    vertex 1130.5447716050573 193.7288215655258 571.1889901972609
    vertex 1129.9395915876607 193.10603537994626 575.1619999999996
    vertex 1130.7768571903684 193.96090715083693 571.6280774497105
  endloop
endfacet
facet normal -0.7071067811865396 0.7071067811865556 -4.879876498100099e-15
  outer loop
    vertex 1130.7768571903684 193.96090715083693 571.6280774497105
    vertex 1129.9395915876607 193.10603537994626 575.1619999999996
    vertex 1131.0813931955668 194.2654431560355 571.9672539467698
  endloop
endfacet
facet normal -0.7071067811865396 0.7071067811865556 -4.879876498100099e-15
  outer loop
    vertex 1131.0813931955668 194.2654431560355 571.9672539467698
    vertex 1129.9395915876607 193.10603537994626 575.1619999999996
    vertex 1131.4376259951682 194.62167595563687 572.18340537068
  endloop
endfacet
facet normal -0.7071067811865396 0.7071067811865556 -4.879876498100099e-15
  outer loop
    vertex 1131.4376259951682 194.62167595563687 572.18340537068
    vertex 1129.9395915876607 193.10603537994626 575.1619999999996
    vertex 1131.8212789125823 195.0053288730508 572.2618013591086
  endloop
endfacet
facet normal -0.7071067811865396 0.7071067811865556 -4.879876498100099e-15
  outer loop
    vertex 1131.8212789125823 195.0053288730508 572.2618013591086
    vertex 1129.9395915876607 193.10603537994626 575.1619999999996
    vertex 1150.2335562077149 213.4 575.1619999999994
  endloop
endfacet
facet normal -0.7071067811865396 0.7071067811865556 -4.879876498100099e-15
  outer loop
    vertex 1131.8212789125823 195.0053288730508 572.2618013591086
    vertex 1150.2335562077149 213.4 575.1619999999994
    vertex 1132.2062066355033 195.3902565959719 572.1970993549999
  endloop
endfacet
facet normal -0.7071067811865396 0.7071067811865556 -4.879876498100099e-15
  outer loop
    vertex 1132.2062066355033 195.3902565959719 572.1970993549999
    vertex 1150.2335562077149 213.4 575.1619999999994
    vertex 1132.5661769757378 195.75022693620616 571.9937086930083
  endloop
endfacet
facet normal -0.7071067811865396 0.7071067811865556 -4.879876498100099e-15
  outer loop
    vertex 1132.5661769757378 195.75022693620616 571.9937086930083
    vertex 1150.2335562077149 213.4 575.1619999999994
    vertex 1132.8766585494773 196.0607085099458 571.6654901106302
  endloop
endfacet
facet normal -0.7071067811865396 0.7071067811865556 -4.879876498100099e-15
  outer loop
    vertex 1132.8766585494773 196.0607085099458 571.6654901106302
    vertex 1150.2335562077149 213.4 575.1619999999994
    vertex 1133.1164925505673 196.3005425110356 571.2348111618473
  endloop
endfacet
facet normal -0.7071067811865396 0.7071067811865556 -4.879876498100099e-15
  outer loop
    vertex 1133.1164925505673 196.3005425110356 571.2348111618473
    vertex 1150.2335562077149 213.4 575.1619999999994
    vertex 1133.2693346881772 196.45338464864557 570.731021905289
  endloop
endfacet
facet normal -0.7071067811865396 0.7071067811865556 -4.879876498100099e-15
  outer loop
    vertex 1133.2693346881772 196.45338464864557 570.731021905289
    vertex 1150.2335562077149 213.4 575.1619999999994
    vertex 1133.3247690232129 196.5088189836812 570.1884547462382
  endloop
endfacet
facet normal -0.7071067811865396 0.7071067811865556 -4.879876498100099e-15
  outer loop
    vertex 1133.3247690232129 196.5088189836812 570.1884547462382
    vertex 1150.2335562077149 213.4 575.1619999999994
    vertex 1145.9909155205955 209.15735931288071 565.6619999999994
  endloop
endfacet
facet normal -0.7071067811865396 0.7071067811865556 -4.879876498100099e-15
  outer loop
    vertex 1145.9909155205955 209.15735931288071 565.6619999999994
    vertex 1150.2335562077149 213.4 575.1619999999994
    vertex 1150.2335562077149 213.39999999999992 565.6619999999992
  endloop
endfacet
facet normal -0.7071067811865396 0.7071067811865556 -4.879876498100099e-15
  outer loop
    vertex 1129.9395915876607 193.1060353799467 595.1619999999997
    vertex 1127.818271244101 190.98471503638658 563.1619999999996
    vertex 1127.818271244101 190.9847150363871 595.1619999999998
  endloop
endfacet
facet normal -0.7071067811865396 0.7071067811865556 -4.879876498100099e-15
  outer loop
    vertex 1127.818271244101 190.98471503638658 563.1619999999996
    vertex 1129.9395915876607 193.1060353799467 595.1619999999997
    vertex 1129.9395915876607 193.10603537994626 575.1619999999996
  endloop
endfacet
facet normal -0.7071067811865396 0.7071067811865556 -4.879876498100099e-15
  outer loop
    vertex 1127.818271244101 190.98471503638658 563.1619999999996
    vertex 1129.9395915876607 193.10603537994626 575.1619999999996
    vertex 1130.3552014628715 193.53925142333995 570.135545253761
  endloop
endfacet
facet normal -0.7071067811865396 0.7071067811865556 -4.879876498100099e-15
  outer loop
    vertex 1127.818271244101 190.98471503638658 563.1619999999996
    vertex 1130.3552014628715 193.53925142333995 570.135545253761
    vertex 1130.4106357979072 193.59468575837562 569.5929780947104
  endloop
endfacet
facet normal -0.7071067811865396 0.7071067811865556 -4.879876498100099e-15
  outer loop
    vertex 1127.818271244101 190.98471503638658 563.1619999999996
    vertex 1130.4106357979072 193.59468575837562 569.5929780947104
    vertex 1130.5634779355173 193.7475278959856 569.0891888381518
  endloop
endfacet
facet normal -0.7071067811865396 0.7071067811865556 -4.879876498100099e-15
  outer loop
    vertex 1127.818271244101 190.98471503638658 563.1619999999996
    vertex 1130.5634779355173 193.7475278959856 569.0891888381518
    vertex 1130.803311936607 193.98736189707537 568.658509889369
  endloop
endfacet
facet normal -0.7071067811865396 0.7071067811865556 -4.879876498100099e-15
  outer loop
    vertex 1127.818271244101 190.98471503638658 563.1619999999996
    vertex 1130.803311936607 193.98736189707537 568.658509889369
    vertex 1131.1137935103468 194.29784347081502 568.3302913069908
  endloop
endfacet
facet normal -0.7071067811865396 0.7071067811865556 -4.879876498100099e-15
  outer loop
    vertex 1127.818271244101 190.98471503638658 563.1619999999996
    vertex 1131.1137935103468 194.29784347081502 568.3302913069908
    vertex 1131.473763850581 194.6578138110493 568.1269006449995
  endloop
endfacet
facet normal -0.7071067811865396 0.7071067811865556 -4.879876498100099e-15
  outer loop
    vertex 1127.818271244101 190.98471503638658 563.1619999999996
    vertex 1131.473763850581 194.6578138110493 568.1269006449995
    vertex 1145.9909155205955 209.15735931288071 563.1619999999994
  endloop
endfacet
facet normal -0.7071067811865396 0.7071067811865556 -4.879876498100099e-15
  outer loop
    vertex 1145.9909155205955 209.15735931288071 563.1619999999994
    vertex 1131.473763850581 194.6578138110493 568.1269006449995
    vertex 1131.858691573502 195.0427415339704 568.0621986408906
  endloop
endfacet
facet normal -0.7071067811865396 0.7071067811865556 -4.879876498100099e-15
  outer loop
    vertex 1145.9909155205955 209.15735931288071 563.1619999999994
    vertex 1131.858691573502 195.0427415339704 568.0621986408906
    vertex 1132.242344490916 195.4263944513843 568.1405946293194
  endloop
endfacet
facet normal -0.7071067811865396 0.7071067811865556 -4.879876498100099e-15
  outer loop
    vertex 1145.9909155205955 209.15735931288071 563.1619999999994
    vertex 1132.242344490916 195.4263944513843 568.1405946293194
    vertex 1132.5985772905174 195.78262725098568 568.3567460532295
  endloop
endfacet
facet normal -0.7071067811865396 0.7071067811865556 -4.879876498100099e-15
  outer loop
    vertex 1145.9909155205955 209.15735931288071 563.1619999999994
    vertex 1132.5985772905174 195.78262725098568 568.3567460532295
    vertex 1132.9031132957161 196.08716325618425 568.6959225502889
  endloop
endfacet
facet normal -0.7071067811865396 0.7071067811865556 -4.879876498100099e-15
  outer loop
    vertex 1145.9909155205955 209.15735931288071 563.1619999999994
    vertex 1132.9031132957161 196.08716325618425 568.6959225502889
    vertex 1133.1351988810272 196.31924884149538 569.1350098027384
  endloop
endfacet
facet normal -0.7071067811865396 0.7071067811865556 -4.879876498100099e-15
  outer loop
    vertex 1145.9909155205955 209.15735931288071 563.1619999999994
    vertex 1133.1351988810272 196.31924884149538 569.1350098027384
    vertex 1133.2790177973513 196.46306775781952 569.6440847399499
  endloop
endfacet
facet normal -0.7071067811865396 0.7071067811865556 -4.879876498100099e-15
  outer loop
    vertex 1145.9909155205955 209.15735931288071 563.1619999999994
    vertex 1133.2790177973513 196.46306775781952 569.6440847399499
    vertex 1133.3247690232129 196.5088189836812 570.1884547462382
  endloop
endfacet
facet normal -0.7071067811865396 0.7071067811865556 -4.879876498100099e-15
  outer loop
    vertex 1145.9909155205955 209.15735931288071 563.1619999999994
    vertex 1133.3247690232129 196.5088189836812 570.1884547462382
    vertex 1145.9909155205955 209.15735931288071 565.6619999999994
  endloop
endfacet
facet normal 9.468101177457196e-29 -1.0 7.993605777301127e-15
  outer loop
    vertex 1159.2335562077149 190.99999999999997 563.1619999999995
    vertex 1154.2335562077149 191.00000000000026 599.1619999999992
    vertex 1154.2335562077149 190.99999999999997 563.1619999999995
  endloop
endfacet
facet normal 9.468101177457196e-29 -1.0 7.993605777301127e-15
  outer loop
    vertex 1154.2335562077149 191.00000000000026 599.1619999999992
    vertex 1159.2335562077149 190.99999999999997 563.1619999999995
    vertex 1159.233556207715 191.00000000000026 599.1619999999992
  endloop
endfacet
facet normal 1.0651220470267998e-14 6.523290448048775e-15 1.0
  outer loop
    vertex 1150.233556207715 195.00000000000026 599.1619999999994
    vertex 1154.2335562077149 191.00000000000026 599.1619999999992
    vertex 1159.233556207715 195.00000000000026 599.1619999999992
  endloop
endfacet
facet normal 1.0651220470267998e-14 6.523290448048775e-15 1.0
  outer loop
    vertex 1154.2335562077149 191.00000000000026 599.1619999999992
    vertex 1150.233556207715 195.00000000000026 599.1619999999994
    vertex 1150.233556207715 181.00000000000037 599.1619999999995
  endloop
endfacet
facet normal 1.0651220470267998e-14 6.523290448048775e-15 1.0
  outer loop
    vertex 1154.2335562077149 191.00000000000026 599.1619999999992
    vertex 1150.233556207715 181.00000000000037 599.1619999999995
    vertex 1154.233556207715 181.00000000000037 599.1619999999995
  endloop
endfacet
facet normal 1.0651220470267998e-14 6.523290448048775e-15 1.0
  outer loop
    vertex 1159.233556207715 191.00000000000026 599.1619999999992
    vertex 1159.233556207715 195.00000000000026 599.1619999999992
    vertex 1154.2335562077149 191.00000000000026 599.1619999999992
  endloop
endfacet
facet normal 1.0 2.705591067449974e-29 -8.459899447643815e-15
  outer loop
    vertex 1159.233556207715 195.00000000000026 599.1619999999992
    vertex 1159.2335562077149 190.99999999999997 563.1619999999995
    vertex 1159.2335562077149 194.99999999999997 563.1619999999995
  endloop
endfacet
facet normal 1.0 2.705591067449974e-29 -8.459899447643815e-15
  outer loop
    vertex 1159.2335562077149 190.99999999999997 563.1619999999995
    vertex 1159.233556207715 195.00000000000026 599.1619999999992
    vertex 1159.233556207715 191.00000000000026 599.1619999999992
  endloop
endfacet
facet normal 1.4403068250565868e-14 -0.9914448613738058 -0.13052619222008677
  outer loop
    vertex 1154.233556207715 187.5000000000002 594.1619999999996
    vertex 1150.233556207715 187.44888873943387 594.5502285676532
    vertex 1150.233556207715 187.50000000000028 594.1619999999995
  endloop
endfacet
facet normal 1.4403068250565868e-14 -0.9914448613738058 -0.13052619222008677
  outer loop
    vertex 1150.233556207715 187.44888873943387 594.5502285676532
    vertex 1154.233556207715 187.5000000000002 594.1619999999996
    vertex 1154.233556207715 187.44888873943378 594.5502285676532
  endloop
endfacet
facet normal 8.315615331620325e-15 -0.7933533402912117 -0.6087614290087514
  outer loop
    vertex 1154.233556207715 187.29903810567686 594.9119999999996
    vertex 1150.233556207715 187.06066017178006 595.2226601717794
    vertex 1150.233556207715 187.29903810567694 594.9119999999995
  endloop
endfacet
facet normal 8.315615331620325e-15 -0.7933533402912117 -0.6087614290087514
  outer loop
    vertex 1150.233556207715 187.06066017178006 595.2226601717794
    vertex 1154.233556207715 187.29903810567686 594.9119999999996
    vertex 1154.233556207715 187.06066017177997 595.2226601717794
  endloop
endfacet
facet normal 1.6064535220596215e-14 -0.9914448613738038 0.13052619222010264
  outer loop
    vertex 1154.233556207715 187.44888873943378 593.7737714323456
    vertex 1150.233556207715 187.50000000000028 594.1619999999995
    vertex 1150.233556207715 187.44888873943387 593.7737714323456
  endloop
endfacet
facet normal 1.6064535220596215e-14 -0.9914448613738038 0.13052619222010264
  outer loop
    vertex 1150.233556207715 187.50000000000028 594.1619999999995
    vertex 1154.233556207715 187.44888873943378 593.7737714323456
    vertex 1154.233556207715 187.5000000000002 594.1619999999996
  endloop
endfacet
facet normal 1.1760055981456324e-14 -0.9238795325112995 -0.382683432365059
  outer loop
    vertex 1154.233556207715 187.44888873943378 594.5502285676532
    vertex 1150.233556207715 187.29903810567694 594.9119999999995
    vertex 1150.233556207715 187.44888873943387 594.5502285676532
  endloop
endfacet
facet normal 1.1760055981456324e-14 -0.9238795325112995 -0.382683432365059
  outer loop
    vertex 1150.233556207715 187.29903810567694 594.9119999999995
    vertex 1154.233556207715 187.44888873943378 594.5502285676532
    vertex 1154.233556207715 187.29903810567686 594.9119999999996
  endloop
endfacet
facet normal 1.6631230663241893e-14 -0.9238795325112935 0.38268343236507385
  outer loop
    vertex 1154.233556207715 187.29903810567686 593.4119999999995
    vertex 1150.233556207715 187.44888873943387 593.7737714323456
    vertex 1150.233556207715 187.29903810567694 593.4119999999995
  endloop
endfacet
facet normal 1.6631230663241893e-14 -0.9238795325112935 0.38268343236507385
  outer loop
    vertex 1150.233556207715 187.44888873943387 593.7737714323456
    vertex 1154.233556207715 187.29903810567686 593.4119999999995
    vertex 1154.233556207715 187.44888873943378 593.7737714323456
  endloop
endfacet
facet normal 1.4403068250566376e-14 -0.6087614290087345 0.7933533402912245
  outer loop
    vertex 1150.233556207715 186.75000000000026 592.8629618943228
    vertex 1154.233556207715 187.06066017177994 593.1013398282197
    vertex 1150.233556207715 187.06066017178006 593.1013398282196
  endloop
endfacet
facet normal 1.4403068250566376e-14 -0.6087614290087345 0.7933533402912245
  outer loop
    vertex 1154.233556207715 187.06066017177994 593.1013398282197
    vertex 1150.233556207715 186.75000000000026 592.8629618943228
    vertex 1154.233556207715 186.75000000000017 592.8629618943229
  endloop
endfacet
facet normal 8.31561533162152e-15 -0.13052619222008677 0.9914448613738058
  outer loop
    vertex 1150.233556207715 186.00000000000026 592.6619999999995
    vertex 1154.233556207715 186.38822856765395 592.7131112605659
    vertex 1150.233556207715 186.38822856765404 592.7131112605658
  endloop
endfacet
facet normal 8.31561533162152e-15 -0.13052619222008677 0.9914448613738058
  outer loop
    vertex 1154.233556207715 186.38822856765395 592.7131112605659
    vertex 1150.233556207715 186.00000000000026 592.6619999999995
    vertex 1154.233556207715 186.00000000000014 592.6619999999995
  endloop
endfacet
facet normal 4.3044792391392725e-15 0.13052619222010264 0.9914448613738038
  outer loop
    vertex 1150.233556207715 185.61177143234644 592.7131112605658
    vertex 1154.233556207715 186.00000000000014 592.6619999999995
    vertex 1150.233556207715 186.00000000000026 592.6619999999995
  endloop
endfacet
facet normal 4.3044792391392725e-15 0.13052619222010264 0.9914448613738038
  outer loop
    vertex 1154.233556207715 186.00000000000014 592.6619999999995
    vertex 1150.233556207715 185.61177143234644 592.7131112605658
    vertex 1154.233556207715 185.61177143234636 592.7131112605659
  endloop
endfacet
facet normal 1.6064535220595796e-14 -0.793353340291202 0.6087614290087641
  outer loop
    vertex 1154.233556207715 187.06066017177994 593.1013398282197
    vertex 1150.233556207715 187.29903810567694 593.4119999999995
    vertex 1150.233556207715 187.06066017178006 593.1013398282196
  endloop
endfacet
facet normal 1.6064535220595796e-14 -0.793353340291202 0.6087614290087641
  outer loop
    vertex 1150.233556207715 187.29903810567694 593.4119999999995
    vertex 1154.233556207715 187.06066017177994 593.1013398282197
    vertex 1154.233556207715 187.29903810567686 593.4119999999995
  endloop
endfacet
facet normal 1.1760055981455642e-14 -0.382683432365059 0.9238795325112995
  outer loop
    vertex 1150.233556207715 186.38822856765404 592.7131112605658
    vertex 1154.233556207715 186.75000000000017 592.8629618943229
    vertex 1150.233556207715 186.75000000000026 592.8629618943228
  endloop
endfacet
facet normal 1.1760055981455642e-14 -0.382683432365059 0.9238795325112995
  outer loop
    vertex 1154.233556207715 186.75000000000017 592.8629618943229
    vertex 1150.233556207715 186.38822856765404 592.7131112605658
    vertex 1154.233556207715 186.38822856765395 592.7131112605659
  endloop
endfacet
facet normal -1.6631230663241893e-14 0.9238795325112935 -0.38268343236507385
  outer loop
    vertex 1154.2335562077153 184.7009618943235 594.9119999999996
    vertex 1150.233556207715 184.55111126056667 594.5502285676532
    vertex 1150.233556207715 184.7009618943236 594.9119999999995
  endloop
endfacet
facet normal -1.6631230663241893e-14 0.9238795325112935 -0.38268343236507385
  outer loop
    vertex 1150.233556207715 184.55111126056667 594.5502285676532
    vertex 1154.2335562077153 184.7009618943235 594.9119999999996
    vertex 1154.2335562077153 184.55111126056659 594.5502285676533
  endloop
endfacet
facet normal -4.304479239140497e-15 0.6087614290087473 0.793353340291215
  outer loop
    vertex 1150.233556207715 184.93933982822045 593.1013398282197
    vertex 1154.233556207715 185.25000000000014 592.8629618943229
    vertex 1150.233556207715 185.25000000000023 592.8629618943228
  endloop
endfacet
facet normal -4.304479239140497e-15 0.6087614290087473 0.793353340291215
  outer loop
    vertex 1154.233556207715 185.25000000000014 592.8629618943229
    vertex 1150.233556207715 184.93933982822045 593.1013398282197
    vertex 1154.233556207715 184.93933982822034 593.1013398282197
  endloop
endfacet
facet normal -8.315615331620325e-15 0.7933533402912117 0.6087614290087514
  outer loop
    vertex 1154.2335562077153 184.7009618943235 593.4119999999995
    vertex 1150.233556207715 184.93933982822045 593.1013398282197
    vertex 1150.233556207715 184.7009618943236 593.4119999999995
  endloop
endfacet
facet normal -8.315615331620325e-15 0.7933533402912117 0.6087614290087514
  outer loop
    vertex 1150.233556207715 184.93933982822045 593.1013398282197
    vertex 1154.2335562077153 184.7009618943235 593.4119999999995
    vertex 1154.233556207715 184.93933982822034 593.1013398282197
  endloop
endfacet
facet normal -0.7071067811865371 0.7071067811865579 -2.486830192997537e-15
  outer loop
    vertex 1148.112235864155 215.5213203435596 565.6619999999992
    vertex 1143.869595177036 211.2786796564404 563.1619999999994
    vertex 1143.869595177036 211.2786796564404 565.6619999999992
  endloop
endfacet
facet normal -0.7071067811865371 0.7071067811865579 -2.486830192997537e-15
  outer loop
    vertex 1143.869595177036 211.2786796564404 563.1619999999994
    vertex 1148.112235864155 215.5213203435596 565.6619999999992
    vertex 1148.112235864155 215.5213203435596 563.1619999999994
  endloop
endfacet
facet normal -1.6064535220596215e-14 0.9914448613738038 -0.13052619222010264
  outer loop
    vertex 1154.2335562077153 184.55111126056659 594.5502285676533
    vertex 1150.233556207715 184.50000000000026 594.1619999999995
    vertex 1150.233556207715 184.55111126056667 594.5502285676532
  endloop
endfacet
facet normal -1.6064535220596215e-14 0.9914448613738038 -0.13052619222010264
  outer loop
    vertex 1150.233556207715 184.50000000000026 594.1619999999995
    vertex 1154.2335562077153 184.55111126056659 594.5502285676533
    vertex 1154.2335562077153 184.50000000000017 594.1619999999996
  endloop
endfacet
facet normal 3.597889049331037e-28 0.38268343236507385 0.9238795325112935
  outer loop
    vertex 1150.233556207715 185.25000000000023 592.8629618943228
    vertex 1154.233556207715 185.61177143234636 592.7131112605659
    vertex 1150.233556207715 185.61177143234644 592.7131112605658
  endloop
endfacet
facet normal 3.597889049331037e-28 0.38268343236507385 0.9238795325112935
  outer loop
    vertex 1154.233556207715 185.61177143234636 592.7131112605659
    vertex 1150.233556207715 185.25000000000023 592.8629618943228
    vertex 1154.233556207715 185.25000000000014 592.8629618943229
  endloop
endfacet
facet normal -1.4403068250566376e-14 0.6087614290087345 -0.7933533402912245
  outer loop
    vertex 1154.2335562077153 185.2500000000002 595.4610381056762
    vertex 1150.233556207715 184.93933982822045 595.2226601717794
    vertex 1150.233556207715 185.25000000000028 595.4610381056762
  endloop
endfacet
facet normal -1.4403068250566376e-14 0.6087614290087345 -0.7933533402912245
  outer loop
    vertex 1150.233556207715 184.93933982822045 595.2226601717794
    vertex 1154.2335562077153 185.2500000000002 595.4610381056762
    vertex 1154.2335562077153 184.93933982822037 595.2226601717794
  endloop
endfacet
facet normal 4.304479239140497e-15 -0.6087614290087473 -0.793353340291215
  outer loop
    vertex 1154.233556207715 187.06066017177997 595.2226601717794
    vertex 1150.233556207715 186.7500000000003 595.4610381056762
    vertex 1150.233556207715 187.06066017178006 595.2226601717794
  endloop
endfacet
facet normal 4.304479239140497e-15 -0.6087614290087473 -0.793353340291215
  outer loop
    vertex 1150.233556207715 186.7500000000003 595.4610381056762
    vertex 1154.233556207715 187.06066017177997 595.2226601717794
    vertex 1154.233556207715 186.7500000000002 595.4610381056762
  endloop
endfacet
facet normal -3.597889049331037e-28 -0.38268343236507385 -0.9238795325112935
  outer loop
    vertex 1154.233556207715 186.7500000000002 595.4610381056762
    vertex 1150.233556207715 186.3882285676541 595.610888739433
    vertex 1150.233556207715 186.7500000000003 595.4610381056762
  endloop
endfacet
facet normal -3.597889049331037e-28 -0.38268343236507385 -0.9238795325112935
  outer loop
    vertex 1150.233556207715 186.3882285676541 595.610888739433
    vertex 1154.233556207715 186.7500000000002 595.4610381056762
    vertex 1154.233556207715 186.388228567654 595.6108887394331
  endloop
endfacet
facet normal -1.4403068250565868e-14 0.9914448613738058 0.13052619222008677
  outer loop
    vertex 1154.2335562077153 184.50000000000017 594.1619999999996
    vertex 1150.233556207715 184.55111126056667 593.7737714323456
    vertex 1150.233556207715 184.50000000000026 594.1619999999995
  endloop
endfacet
facet normal -1.4403068250565868e-14 0.9914448613738058 0.13052619222008677
  outer loop
    vertex 1150.233556207715 184.55111126056667 593.7737714323456
    vertex 1154.2335562077153 184.50000000000017 594.1619999999996
    vertex 1154.2335562077153 184.55111126056659 593.7737714323457
  endloop
endfacet
facet normal -1.1760055981455642e-14 0.382683432365059 -0.9238795325112995
  outer loop
    vertex 1154.2335562077153 185.6117714323464 595.6108887394331
    vertex 1150.233556207715 185.25000000000028 595.4610381056762
    vertex 1150.233556207715 185.6117714323465 595.610888739433
  endloop
endfacet
facet normal -1.1760055981455642e-14 0.382683432365059 -0.9238795325112995
  outer loop
    vertex 1150.233556207715 185.25000000000028 595.4610381056762
    vertex 1154.2335562077153 185.6117714323464 595.6108887394331
    vertex 1154.2335562077153 185.2500000000002 595.4610381056762
  endloop
endfacet
facet normal -1.1760055981456324e-14 0.9238795325112995 0.382683432365059
  outer loop
    vertex 1154.2335562077153 184.55111126056659 593.7737714323457
    vertex 1150.233556207715 184.7009618943236 593.4119999999995
    vertex 1150.233556207715 184.55111126056667 593.7737714323456
  endloop
endfacet
facet normal -1.1760055981456324e-14 0.9238795325112995 0.382683432365059
  outer loop
    vertex 1150.233556207715 184.7009618943236 593.4119999999995
    vertex 1154.2335562077153 184.55111126056659 593.7737714323457
    vertex 1154.2335562077153 184.7009618943235 593.4119999999995
  endloop
endfacet
facet normal -4.3044792391392725e-15 -0.13052619222010264 -0.9914448613738038
  outer loop
    vertex 1154.233556207715 186.388228567654 595.6108887394331
    vertex 1150.233556207715 186.00000000000028 595.6619999999995
    vertex 1150.233556207715 186.3882285676541 595.610888739433
  endloop
endfacet
facet normal -4.3044792391392725e-15 -0.13052619222010264 -0.9914448613738038
  outer loop
    vertex 1150.233556207715 186.00000000000028 595.6619999999995
    vertex 1154.233556207715 186.388228567654 595.6108887394331
    vertex 1154.233556207715 186.0000000000002 595.6619999999996
  endloop
endfacet
facet normal -1.6064535220595796e-14 0.793353340291202 -0.6087614290087641
  outer loop
    vertex 1154.2335562077153 184.93933982822037 595.2226601717794
    vertex 1150.233556207715 184.7009618943236 594.9119999999995
    vertex 1150.233556207715 184.93933982822045 595.2226601717794
  endloop
endfacet
facet normal -1.6064535220595796e-14 0.793353340291202 -0.6087614290087641
  outer loop
    vertex 1150.233556207715 184.7009618943236 594.9119999999995
    vertex 1154.2335562077153 184.93933982822037 595.2226601717794
    vertex 1154.2335562077153 184.7009618943235 594.9119999999996
  endloop
endfacet
facet normal -8.31561533162152e-15 0.13052619222008677 -0.9914448613738058
  outer loop
    vertex 1154.233556207715 186.0000000000002 595.6619999999996
    vertex 1150.233556207715 185.6117714323465 595.610888739433
    vertex 1150.233556207715 186.00000000000028 595.6619999999995
  endloop
endfacet
facet normal -8.31561533162152e-15 0.13052619222008677 -0.9914448613738058
  outer loop
    vertex 1150.233556207715 185.6117714323465 595.610888739433
    vertex 1154.233556207715 186.0000000000002 595.6619999999996
    vertex 1154.2335562077153 185.6117714323464 595.6108887394331
  endloop
endfacet
facet normal 0.7071067811865579 0.7071067811865371 -1.2033188603352647e-14
  outer loop
    vertex 1148.112235864155 215.5213203435596 565.6619999999992
    vertex 1150.2335562077149 213.39999999999992 563.1619999999994
    vertex 1148.112235864155 215.5213203435596 563.1619999999994
  endloop
endfacet
facet normal 0.7071067811865579 0.7071067811865371 -1.2033188603352647e-14
  outer loop
    vertex 1150.2335562077149 213.39999999999992 563.1619999999994
    vertex 1148.112235864155 215.5213203435596 565.6619999999992
    vertex 1150.2335562077149 213.39999999999992 565.6619999999992
  endloop
endfacet
facet normal -0.7071067811865579 -0.7071067811865371 5.652332851261507e-15
  outer loop
    vertex 1145.9909155205955 209.15735931288071 565.6619999999994
    vertex 1143.869595177036 211.2786796564404 563.1619999999994
    vertex 1145.9909155205955 209.15735931288071 563.1619999999994
  endloop
endfacet
facet normal -0.7071067811865579 -0.7071067811865371 5.652332851261507e-15
  outer loop
    vertex 1143.869595177036 211.2786796564404 563.1619999999994
    vertex 1145.9909155205955 209.15735931288071 565.6619999999994
    vertex 1143.869595177036 211.2786796564404 565.6619999999992
  endloop
endfacet
facet normal 2.238348395522577e-15 5.755257381778478e-15 1.0
  outer loop
    vertex 1143.869595177036 211.2786796564404 565.6619999999992
    vertex 1150.2335562077149 213.39999999999992 565.6619999999992
    vertex 1148.112235864155 215.5213203435596 565.6619999999992
  endloop
endfacet
facet normal 2.238348395522577e-15 5.755257381778478e-15 1.0
  outer loop
    vertex 1150.2335562077149 213.39999999999992 565.6619999999992
    vertex 1143.869595177036 211.2786796564404 565.6619999999992
    vertex 1145.9909155205955 209.15735931288071 565.6619999999994
  endloop
endfacet
facet normal 1.05288880266954e-14 8.469825254412303e-15 1.0
  outer loop
    vertex 1129.9395915876607 193.10603537994626 575.1619999999996
    vertex 1154.2335562077149 213.4 575.1619999999992
    vertex 1150.2335562077149 213.4 575.1619999999994
  endloop
endfacet
facet normal 1.05288880266954e-14 8.469825254412303e-15 1.0
  outer loop
    vertex 1154.2335562077149 213.4 575.1619999999992
    vertex 1129.9395915876607 193.10603537994626 575.1619999999996
    vertex 1150.2335562077149 207.7431457505076 575.1619999999994
  endloop
endfacet
facet normal 1.05288880266954e-14 8.469825254412303e-15 1.0
  outer loop
    vertex 1150.2335562077149 207.7431457505076 575.1619999999994
    vertex 1129.9395915876607 193.10603537994626 575.1619999999996
    vertex 1133.8981061634975 191.40769570629075 575.1619999999997
  endloop
endfacet
facet normal 1.05288880266954e-14 8.469825254412303e-15 1.0
  outer loop
    vertex 1150.2335562077149 207.7431457505076 575.1619999999994
    vertex 1154.2335562077149 195.00000000000006 575.1619999999995
    vertex 1154.2335562077149 213.4 575.1619999999992
  endloop
endfacet
facet normal 1.05288880266954e-14 8.469825254412303e-15 1.0
  outer loop
    vertex 1154.2335562077149 195.00000000000006 575.1619999999995
    vertex 1150.2335562077149 207.7431457505076 575.1619999999994
    vertex 1150.2335562077149 195.00000000000006 575.1619999999995
  endloop
endfacet
facet normal 9.132871380542135e-16 1.3967195124289355e-14 1.0
  outer loop
    vertex 1123.5756305569819 190.98471503638675 595.1619999999998
    vertex 1127.818271244101 190.9847150363871 595.1619999999998
    vertex 1125.6969509005414 193.10603537994643 595.1619999999997
  endloop
endfacet
facet normal 9.132871380542135e-16 1.3967195124289355e-14 1.0
  outer loop
    vertex 1127.818271244101 190.9847150363871 595.1619999999998
    vertex 1133.8981061634975 191.40769570629118 595.1619999999998
    vertex 1129.9395915876607 193.1060353799467 595.1619999999997
  endloop
endfacet
facet normal 9.132871380542135e-16 1.3967195124289355e-14 1.0
  outer loop
    vertex 1133.8981061634975 191.40769570629118 595.1619999999998
    vertex 1127.818271244101 190.9847150363871 595.1619999999998
    vertex 1131.7767858199377 189.28637536273158 595.1619999999998
  endloop
endfacet
facet normal 9.132871380542135e-16 1.3967195124289355e-14 1.0
  outer loop
    vertex 1131.7767858199377 189.28637536273158 595.1619999999998
    vertex 1127.818271244101 190.9847150363871 595.1619999999998
    vertex 1123.5756305569819 190.98471503638675 595.1619999999998
  endloop
endfacet
facet normal 9.132871380542135e-16 1.3967195124289355e-14 1.0
  outer loop
    vertex 1131.7767858199377 189.28637536273158 595.1619999999998
    vertex 1123.5756305569819 190.98471503638675 595.1619999999998
    vertex 1125.2739702306374 189.28637536273123 595.1619999999998
  endloop
endfacet
facet normal 0.39427886092577946 0.918990848608989 -1.7536545227607662e-14
  outer loop
    vertex 1133.8981061634975 191.40769570629118 595.1619999999998
    vertex 1129.9395915876607 193.10603537994626 575.1619999999996
    vertex 1129.9395915876607 193.1060353799467 595.1619999999997
  endloop
endfacet
facet normal 0.39427886092577946 0.918990848608989 -1.7536545227607662e-14
  outer loop
    vertex 1129.9395915876607 193.10603537994626 575.1619999999996
    vertex 1133.8981061634975 191.40769570629118 595.1619999999998
    vertex 1133.8981061634975 191.40769570629075 575.1619999999997
  endloop
endfacet
facet normal 0.7071067811865194 0.7071067811865757 -8.394325876535358e-15
  outer loop
    vertex 1127.818271244101 190.9847150363871 595.1619999999998
    vertex 1125.6969509005414 193.10603537994618 563.1619999999995
    vertex 1125.6969509005414 193.10603537994643 595.1619999999997
  endloop
endfacet
facet normal 0.7071067811865194 0.7071067811865757 -8.394325876535358e-15
  outer loop
    vertex 1125.6969509005414 193.10603537994618 563.1619999999995
    vertex 1127.818271244101 190.9847150363871 595.1619999999998
    vertex 1127.818271244101 190.98471503638658 563.1619999999996
  endloop
endfacet
facet normal -0.7071067811865335 -0.7071067811865616 6.1500339528051235e-15
  outer loop
    vertex 1125.2739702306374 189.28637536273098 563.1619999999996
    vertex 1123.5756305569819 190.98471503638675 595.1619999999998
    vertex 1123.5756305569819 190.9847150363865 563.1619999999996
  endloop
endfacet
facet normal -0.7071067811865335 -0.7071067811865616 6.1500339528051235e-15
  outer loop
    vertex 1123.5756305569819 190.98471503638675 595.1619999999998
    vertex 1125.2739702306374 189.28637536273098 563.1619999999996
    vertex 1125.2739702306374 189.28637536273123 595.1619999999998
  endloop
endfacet
facet normal -0.7071067811865757 0.7071067811865195 -5.652332851261366e-15
  outer loop
    vertex 1123.5756305569819 190.98471503638675 595.1619999999998
    vertex 1125.6969509005414 193.10603537994618 563.1619999999995
    vertex 1123.5756305569819 190.9847150363865 563.1619999999996
  endloop
endfacet
facet normal -0.7071067811865757 0.7071067811865195 -5.652332851261366e-15
  outer loop
    vertex 1125.6969509005414 193.10603537994618 563.1619999999995
    vertex 1123.5756305569819 190.98471503638675 595.1619999999998
    vertex 1125.6969509005414 193.10603537994643 595.1619999999997
  endloop
endfacet
facet normal 2.424138296952529e-15 -1.0 1.2626966171198905e-14
  outer loop
    vertex 1125.2739702306374 189.28637536273098 563.1619999999996
    vertex 1131.7767858199377 189.286375362731 565.6619999999995
    vertex 1125.2739702306374 189.28637536273123 595.1619999999998
  endloop
endfacet
facet normal 2.424138296952529e-15 -1.0 1.2626966171198905e-14
  outer loop
    vertex 1131.7767858199377 189.286375362731 565.6619999999995
    vertex 1125.2739702306374 189.28637536273098 563.1619999999996
    vertex 1150.2335562077149 189.28637536273098 563.1619999999996
  endloop
endfacet
facet normal 2.424138296952529e-15 -1.0 1.2626966171198905e-14
  outer loop
    vertex 1125.2739702306374 189.28637536273123 595.1619999999998
    vertex 1131.7767858199377 189.286375362731 565.6619999999995
    vertex 1131.7767858199377 189.28637536273158 595.1619999999998
  endloop
endfacet
facet normal 2.424138296952529e-15 -1.0 1.2626966171198905e-14
  outer loop
    vertex 1131.7767858199377 189.286375362731 565.6619999999995
    vertex 1150.2335562077149 189.28637536273098 563.1619999999996
    vertex 1150.2335562077149 189.286375362731 565.6619999999995
  endloop
endfacet
facet normal 1.0 1.46638257092492e-14 -2.114974861911062e-15
  outer loop
    vertex 1154.2335562077149 191.00000000000026 599.1619999999992
    vertex 1154.233556207715 181.00000000000009 563.1619999999996
    vertex 1154.2335562077149 190.99999999999997 563.1619999999995
  endloop
endfacet
facet normal 1.0 1.46638257092492e-14 -2.114974861911062e-15
  outer loop
    vertex 1154.233556207715 181.00000000000009 563.1619999999996
    vertex 1154.2335562077149 191.00000000000026 599.1619999999992
    vertex 1154.233556207715 187.29903810567686 593.4119999999995
  endloop
endfacet
facet normal 1.0 1.46638257092492e-14 -2.114974861911062e-15
  outer loop
    vertex 1154.233556207715 181.00000000000009 563.1619999999996
    vertex 1154.233556207715 187.29903810567686 593.4119999999995
    vertex 1154.233556207715 187.06066017177994 593.1013398282197
  endloop
endfacet
facet normal 1.0 1.46638257092492e-14 -2.114974861911062e-15
  outer loop
    vertex 1154.233556207715 181.00000000000009 563.1619999999996
    vertex 1154.233556207715 187.06066017177994 593.1013398282197
    vertex 1154.233556207715 186.75000000000017 592.8629618943229
  endloop
endfacet
facet normal 1.0 1.46638257092492e-14 -2.114974861911062e-15
  outer loop
    vertex 1154.233556207715 181.00000000000009 563.1619999999996
    vertex 1154.233556207715 186.75000000000017 592.8629618943229
    vertex 1154.233556207715 186.38822856765395 592.7131112605659
  endloop
endfacet
facet normal 1.0 1.46638257092492e-14 -2.114974861911062e-15
  outer loop
    vertex 1154.233556207715 181.00000000000009 563.1619999999996
    vertex 1154.233556207715 186.38822856765395 592.7131112605659
    vertex 1154.233556207715 186.00000000000014 592.6619999999995
  endloop
endfacet
facet normal 1.0 1.46638257092492e-14 -2.114974861911062e-15
  outer loop
    vertex 1154.233556207715 187.29903810567686 593.4119999999995
    vertex 1154.2335562077149 191.00000000000026 599.1619999999992
    vertex 1154.233556207715 187.44888873943378 593.7737714323456
  endloop
endfacet
facet normal 1.0 1.46638257092492e-14 -2.114974861911062e-15
  outer loop
    vertex 1154.233556207715 187.44888873943378 593.7737714323456
    vertex 1154.2335562077149 191.00000000000026 599.1619999999992
    vertex 1154.233556207715 187.5000000000002 594.1619999999996
  endloop
endfacet
facet normal 1.0 1.46638257092492e-14 -2.114974861911062e-15
  outer loop
    vertex 1154.233556207715 187.5000000000002 594.1619999999996
    vertex 1154.2335562077149 191.00000000000026 599.1619999999992
    vertex 1154.233556207715 187.44888873943378 594.5502285676532
  endloop
endfacet
facet normal 1.0 1.46638257092492e-14 -2.114974861911062e-15
  outer loop
    vertex 1154.233556207715 187.44888873943378 594.5502285676532
    vertex 1154.2335562077149 191.00000000000026 599.1619999999992
    vertex 1154.233556207715 187.29903810567686 594.9119999999996
  endloop
endfacet
facet normal 1.0 1.46638257092492e-14 -2.114974861911062e-15
  outer loop
    vertex 1154.233556207715 187.29903810567686 594.9119999999996
    vertex 1154.2335562077149 191.00000000000026 599.1619999999992
    vertex 1154.233556207715 187.06066017177997 595.2226601717794
  endloop
endfacet
facet normal 1.0 1.46638257092492e-14 -2.114974861911062e-15
  outer loop
    vertex 1154.233556207715 187.06066017177997 595.2226601717794
    vertex 1154.2335562077149 191.00000000000026 599.1619999999992
    vertex 1154.233556207715 186.7500000000002 595.4610381056762
  endloop
endfacet
facet normal 1.0 1.46638257092492e-14 -2.114974861911062e-15
  outer loop
    vertex 1154.233556207715 186.7500000000002 595.4610381056762
    vertex 1154.2335562077149 191.00000000000026 599.1619999999992
    vertex 1154.233556207715 186.388228567654 595.6108887394331
  endloop
endfacet
facet normal 1.0 1.46638257092492e-14 -2.114974861911062e-15
  outer loop
    vertex 1154.233556207715 186.388228567654 595.6108887394331
    vertex 1154.2335562077149 191.00000000000026 599.1619999999992
    vertex 1154.233556207715 186.0000000000002 595.6619999999996
  endloop
endfacet
facet normal 1.0 1.46638257092492e-14 -2.114974861911062e-15
  outer loop
    vertex 1154.233556207715 181.00000000000009 563.1619999999996
    vertex 1154.2335562077153 184.7009618943235 593.4119999999995
    vertex 1154.233556207715 181.00000000000037 599.1619999999995
  endloop
endfacet
facet normal 1.0 1.46638257092492e-14 -2.114974861911062e-15
  outer loop
    vertex 1154.2335562077153 184.7009618943235 593.4119999999995
    vertex 1154.233556207715 181.00000000000009 563.1619999999996
    vertex 1154.233556207715 184.93933982822034 593.1013398282197
  endloop
endfacet
facet normal 1.0 1.46638257092492e-14 -2.114974861911062e-15
  outer loop
    vertex 1154.233556207715 184.93933982822034 593.1013398282197
    vertex 1154.233556207715 181.00000000000009 563.1619999999996
    vertex 1154.233556207715 185.25000000000014 592.8629618943229
  endloop
endfacet
facet normal 1.0 1.46638257092492e-14 -2.114974861911062e-15
  outer loop
    vertex 1154.233556207715 185.25000000000014 592.8629618943229
    vertex 1154.233556207715 181.00000000000009 563.1619999999996
    vertex 1154.233556207715 185.61177143234636 592.7131112605659
  endloop
endfacet
facet normal 1.0 1.46638257092492e-14 -2.114974861911062e-15
  outer loop
    vertex 1154.233556207715 185.61177143234636 592.7131112605659
    vertex 1154.233556207715 181.00000000000009 563.1619999999996
    vertex 1154.233556207715 186.00000000000014 592.6619999999995
  endloop
endfacet
facet normal 1.0 1.46638257092492e-14 -2.114974861911062e-15
  outer loop
    vertex 1154.233556207715 181.00000000000037 599.1619999999995
    vertex 1154.2335562077153 184.7009618943235 593.4119999999995
    vertex 1154.2335562077153 184.55111126056659 593.7737714323457
  endloop
endfacet
facet normal 1.0 1.46638257092492e-14 -2.114974861911062e-15
  outer loop
    vertex 1154.233556207715 181.00000000000037 599.1619999999995
    vertex 1154.2335562077153 184.55111126056659 593.7737714323457
    vertex 1154.2335562077153 184.50000000000017 594.1619999999996
  endloop
endfacet
facet normal 1.0 1.46638257092492e-14 -2.114974861911062e-15
  outer loop
    vertex 1154.233556207715 181.00000000000037 599.1619999999995
    vertex 1154.2335562077153 184.50000000000017 594.1619999999996
    vertex 1154.2335562077153 184.55111126056659 594.5502285676533
  endloop
endfacet
facet normal 1.0 1.46638257092492e-14 -2.114974861911062e-15
  outer loop
    vertex 1154.233556207715 181.00000000000037 599.1619999999995
    vertex 1154.2335562077153 184.55111126056659 594.5502285676533
    vertex 1154.2335562077153 184.7009618943235 594.9119999999996
  endloop
endfacet
facet normal 1.0 1.46638257092492e-14 -2.114974861911062e-15
  outer loop
    vertex 1154.233556207715 181.00000000000037 599.1619999999995
    vertex 1154.2335562077153 184.7009618943235 594.9119999999996
    vertex 1154.2335562077153 184.93933982822037 595.2226601717794
  endloop
endfacet
facet normal 1.0 1.46638257092492e-14 -2.114974861911062e-15
  outer loop
    vertex 1154.233556207715 181.00000000000037 599.1619999999995
    vertex 1154.2335562077153 184.93933982822037 595.2226601717794
    vertex 1154.2335562077153 185.2500000000002 595.4610381056762
  endloop
endfacet
facet normal 1.0 1.46638257092492e-14 -2.114974861911062e-15
  outer loop
    vertex 1154.233556207715 181.00000000000037 599.1619999999995
    vertex 1154.2335562077153 185.2500000000002 595.4610381056762
    vertex 1154.2335562077153 185.6117714323464 595.6108887394331
  endloop
endfacet
facet normal 1.0 1.46638257092492e-14 -2.114974861911062e-15
  outer loop
    vertex 1154.233556207715 181.00000000000037 599.1619999999995
    vertex 1154.2335562077153 185.6117714323464 595.6108887394331
    vertex 1154.233556207715 186.0000000000002 595.6619999999996
  endloop
endfacet
facet normal 1.0 1.46638257092492e-14 -2.114974861911062e-15
  outer loop
    vertex 1154.233556207715 181.00000000000037 599.1619999999995
    vertex 1154.233556207715 186.0000000000002 595.6619999999996
    vertex 1154.2335562077149 191.00000000000026 599.1619999999992
  endloop
endfacet
endsolid flsun-cube-linear-rail-xy-gantry
