solid flsun-cube-linear-rail-xy-gantry
facet normal 0.38268343236506636 -0.9238795325112964 -2.2786447251206223e-14
  outer loop
    vertex 1916.040311716217 193.23526410216465 563.1619999999987
    vertex 1915.6785402838711 193.08541346840767 571.161999999999
    vertex 1915.6785402838707 193.08541346840772 563.1619999999988
  endloop
endfacet
facet normal 0.38268343236506636 -0.9238795325112964 -2.2786447251206223e-14
  outer loop
    vertex 1915.6785402838711 193.08541346840767 571.161999999999
    vertex 1916.040311716217 193.23526410216465 563.1619999999987
    vertex 1916.0403117162175 193.2352641021646 571.1619999999989
  endloop
endfacet
facet normal 0.6087614290087409 -0.7933533402912196 -3.331164754831874e-14
  outer loop
    vertex 1915.6785402838707 193.08541346840772 563.1619999999988
    vertex 1915.3678801120916 192.84703553451084 571.161999999999
    vertex 1915.3678801120911 192.8470355345109 563.1619999999988
  endloop
endfacet
facet normal 0.6087614290087409 -0.7933533402912196 -3.331164754831874e-14
  outer loop
    vertex 1915.3678801120916 192.84703553451084 571.161999999999
    vertex 1915.6785402838707 193.08541346840772 563.1619999999988
    vertex 1915.6785402838711 193.08541346840767 571.161999999999
  endloop
endfacet
facet normal 0.7933533402912069 -0.6087614290087577 -4.1566714115109654e-14
  outer loop
    vertex 1915.1295021781941 192.53637536273106 563.1619999999988
    vertex 1915.3678801120916 192.84703553451084 571.161999999999
    vertex 1915.1295021781946 192.536375362731 571.161999999999
  endloop
endfacet
facet normal 0.7933533402912069 -0.6087614290087577 -4.1566714115109654e-14
  outer loop
    vertex 1915.3678801120916 192.84703553451084 571.161999999999
    vertex 1915.1295021781941 192.53637536273106 563.1619999999988
    vertex 1915.3678801120911 192.8470355345109 563.1619999999988
  endloop
endfacet
facet normal 0.9238795325112964 -0.38268343236506636 -4.6989077807202463e-14
  outer loop
    vertex 1914.9796515444373 192.17460393038485 563.1619999999988
    vertex 1915.1295021781946 192.536375362731 571.161999999999
    vertex 1914.9796515444377 192.1746039303848 571.161999999999
  endloop
endfacet
facet normal 0.9238795325112964 -0.38268343236506636 -4.6989077807202463e-14
  outer loop
    vertex 1915.1295021781946 192.536375362731 571.161999999999
    vertex 1914.9796515444373 192.17460393038485 563.1619999999988
    vertex 1915.1295021781941 192.53637536273106 563.1619999999988
  endloop
endfacet
facet normal 0.6087614290087409 0.7933533402912196 -2.642276624864886e-14
  outer loop
    vertex 1915.3678801120916 190.72571519095115 571.161999999999
    vertex 1915.6785402838707 190.48733725705438 563.1619999999988
    vertex 1915.3678801120911 190.7257151909512 563.1619999999988
  endloop
endfacet
facet normal 0.6087614290087409 0.7933533402912196 -2.642276624864886e-14
  outer loop
    vertex 1915.6785402838707 190.48733725705438 563.1619999999988
    vertex 1915.3678801120916 190.72571519095115 571.161999999999
    vertex 1915.6785402838711 190.48733725705432 571.1619999999989
  endloop
endfacet
facet normal 0.38268343236506636 0.9238795325112964 -1.4764175066244368e-14
  outer loop
    vertex 1915.6785402838711 190.48733725705432 571.1619999999989
    vertex 1916.040311716217 190.33748662329745 563.1619999999987
    vertex 1915.6785402838707 190.48733725705438 563.1619999999988
  endloop
endfacet
facet normal 0.38268343236506636 0.9238795325112964 -1.4764175066244368e-14
  outer loop
    vertex 1916.040311716217 190.33748662329745 563.1619999999987
    vertex 1915.6785402838711 190.48733725705432 571.1619999999989
    vertex 1916.0403117162175 190.3374866232974 571.1619999999989
  endloop
endfacet
facet normal 0.1305261922200947 0.9914448613738048 -2.099429752033745e-15
  outer loop
    vertex 1916.0403117162175 190.3374866232974 571.1619999999989
    vertex 1916.428540283871 190.28637536273104 563.1619999999987
    vertex 1916.040311716217 190.33748662329745 563.1619999999987
  endloop
endfacet
facet normal 0.1305261922200947 0.9914448613738048 -2.099429752033745e-15
  outer loop
    vertex 1916.428540283871 190.28637536273104 563.1619999999987
    vertex 1916.0403117162175 190.3374866232974 571.1619999999989
    vertex 1916.4285402838714 190.28637536273098 571.1619999999989
  endloop
endfacet
facet normal -0.1305261922200947 0.9914448613738048 1.0708388230313687e-14
  outer loop
    vertex 1916.4285402838714 190.28637536273098 571.1619999999989
    vertex 1916.8167688515246 190.33748662329745 563.1619999999987
    vertex 1916.428540283871 190.28637536273104 563.1619999999987
  endloop
endfacet
facet normal -0.1305261922200947 0.9914448613738048 1.0708388230313687e-14
  outer loop
    vertex 1916.8167688515246 190.33748662329745 563.1619999999987
    vertex 1916.4285402838714 190.28637536273098 571.1619999999989
    vertex 1916.8167688515248 190.3374866232974 571.1619999999989
  endloop
endfacet
facet normal -0.38268343236506636 0.9238795325112964 2.2786447251206223e-14
  outer loop
    vertex 1916.8167688515248 190.3374866232974 571.1619999999989
    vertex 1917.1785402838707 190.48733725705438 563.1619999999987
    vertex 1916.8167688515246 190.33748662329745 563.1619999999987
  endloop
endfacet
facet normal -0.38268343236506636 0.9238795325112964 2.2786447251206223e-14
  outer loop
    vertex 1917.1785402838707 190.48733725705438 563.1619999999987
    vertex 1916.8167688515248 190.3374866232974 571.1619999999989
    vertex 1917.1785402838711 190.48733725705432 571.1619999999988
  endloop
endfacet
facet normal -0.6087614290087409 0.7933533402912196 3.331164754831874e-14
  outer loop
    vertex 1917.1785402838711 190.48733725705432 571.1619999999988
    vertex 1917.4892004556507 190.7257151909512 563.1619999999987
    vertex 1917.1785402838707 190.48733725705438 563.1619999999987
  endloop
endfacet
facet normal -0.6087614290087409 0.7933533402912196 3.331164754831874e-14
  outer loop
    vertex 1917.4892004556507 190.7257151909512 563.1619999999987
    vertex 1917.1785402838711 190.48733725705432 571.1619999999988
    vertex 1917.4892004556511 190.72571519095115 571.1619999999988
  endloop
endfacet
facet normal -0.7933533402912069 0.6087614290087577 4.1566714115109654e-14
  outer loop
    vertex 1917.7275783895473 191.03637536273104 563.1619999999987
    vertex 1917.4892004556511 190.72571519095115 571.1619999999988
    vertex 1917.7275783895477 191.03637536273098 571.1619999999988
  endloop
endfacet
facet normal -0.7933533402912069 0.6087614290087577 4.1566714115109654e-14
  outer loop
    vertex 1917.4892004556511 190.72571519095115 571.1619999999988
    vertex 1917.7275783895473 191.03637536273104 563.1619999999987
    vertex 1917.4892004556507 190.7257151909512 563.1619999999987
  endloop
endfacet
facet normal -0.9238795325112964 0.38268343236506636 4.6989077807202463e-14
  outer loop
    vertex 1917.8774290233043 191.39814679507725 563.1619999999987
    vertex 1917.7275783895477 191.03637536273098 571.1619999999988
    vertex 1917.8774290233046 191.3981467950772 571.1619999999988
  endloop
endfacet
facet normal -0.9238795325112964 0.38268343236506636 4.6989077807202463e-14
  outer loop
    vertex 1917.7275783895477 191.03637536273098 571.1619999999988
    vertex 1917.8774290233043 191.39814679507725 563.1619999999987
    vertex 1917.7275783895473 191.03637536273104 563.1619999999987
  endloop
endfacet
facet normal -0.9914448613738048 0.1305261922200947 4.9209213499855044e-14
  outer loop
    vertex 1917.928540283871 191.78637536273104 563.1619999999987
    vertex 1917.8774290233046 191.3981467950772 571.1619999999988
    vertex 1917.9285402838714 191.786375362731 571.1619999999988
  endloop
endfacet
facet normal -0.9914448613738048 0.1305261922200947 4.9209213499855044e-14
  outer loop
    vertex 1917.8774290233046 191.3981467950772 571.1619999999988
    vertex 1917.928540283871 191.78637536273104 563.1619999999987
    vertex 1917.8774290233043 191.39814679507725 563.1619999999987
  endloop
endfacet
facet normal -0.9914448613738048 -0.1305261922200947 4.807582261456291e-14
  outer loop
    vertex 1917.8774290233043 192.17460393038485 563.1619999999987
    vertex 1917.9285402838714 191.786375362731 571.1619999999988
    vertex 1917.8774290233046 192.1746039303848 571.1619999999988
  endloop
endfacet
facet normal -0.9914448613738048 -0.1305261922200947 4.807582261456291e-14
  outer loop
    vertex 1917.9285402838714 191.786375362731 571.1619999999988
    vertex 1917.8774290233043 192.17460393038485 563.1619999999987
    vertex 1917.928540283871 191.78637536273104 563.1619999999987
  endloop
endfacet
facet normal -0.9238795325112964 -0.38268343236506636 4.366614386714306e-14
  outer loop
    vertex 1917.7275783895473 192.53637536273106 563.1619999999987
    vertex 1917.8774290233046 192.1746039303848 571.1619999999988
    vertex 1917.7275783895477 192.536375362731 571.1619999999988
  endloop
endfacet
facet normal -0.9238795325112964 -0.38268343236506636 4.366614386714306e-14
  outer loop
    vertex 1917.8774290233046 192.1746039303848 571.1619999999988
    vertex 1917.7275783895473 192.53637536273106 563.1619999999987
    vertex 1917.8774290233043 192.17460393038485 563.1619999999987
  endloop
endfacet
facet normal -0.7933533402912069 -0.6087614290087577 3.628068957688895e-14
  outer loop
    vertex 1917.4892004556507 192.8470355345109 563.1619999999987
    vertex 1917.7275783895477 192.536375362731 571.1619999999988
    vertex 1917.4892004556511 192.84703553451084 571.1619999999988
  endloop
endfacet
facet normal -0.7933533402912069 -0.6087614290087577 3.628068957688895e-14
  outer loop
    vertex 1917.7275783895477 192.536375362731 571.1619999999988
    vertex 1917.4892004556507 192.8470355345109 563.1619999999987
    vertex 1917.7275783895473 192.53637536273106 563.1619999999987
  endloop
endfacet
facet normal -0.6087614290087409 -0.7933533402912196 2.642276624864886e-14
  outer loop
    vertex 1917.4892004556507 192.8470355345109 563.1619999999987
    vertex 1917.1785402838711 193.08541346840767 571.1619999999989
    vertex 1917.1785402838707 193.08541346840772 563.1619999999987
  endloop
endfacet
facet normal -0.6087614290087409 -0.7933533402912196 2.642276624864886e-14
  outer loop
    vertex 1917.1785402838711 193.08541346840767 571.1619999999989
    vertex 1917.4892004556507 192.8470355345109 563.1619999999987
    vertex 1917.4892004556511 192.84703553451084 571.1619999999988
  endloop
endfacet
facet normal -0.38268343236506636 -0.9238795325112964 1.4764175066244368e-14
  outer loop
    vertex 1917.1785402838707 193.08541346840772 563.1619999999987
    vertex 1916.8167688515248 193.2352641021646 571.1619999999989
    vertex 1916.8167688515246 193.23526410216465 563.1619999999987
  endloop
endfacet
facet normal -0.38268343236506636 -0.9238795325112964 1.4764175066244368e-14
  outer loop
    vertex 1916.8167688515248 193.2352641021646 571.1619999999989
    vertex 1917.1785402838707 193.08541346840772 563.1619999999987
    vertex 1917.1785402838711 193.08541346840767 571.1619999999989
  endloop
endfacet
facet normal -0.1305261922200947 -0.9914448613738048 2.099429752033745e-15
  outer loop
    vertex 1916.8167688515246 193.23526410216465 563.1619999999987
    vertex 1916.4285402838714 193.286375362731 571.1619999999989
    vertex 1916.428540283871 193.28637536273106 563.1619999999987
  endloop
endfacet
facet normal -0.1305261922200947 -0.9914448613738048 2.099429752033745e-15
  outer loop
    vertex 1916.4285402838714 193.286375362731 571.1619999999989
    vertex 1916.8167688515246 193.23526410216465 563.1619999999987
    vertex 1916.8167688515248 193.2352641021646 571.1619999999989
  endloop
endfacet
facet normal 0.1305261922200947 -0.9914448613738048 -1.0708388230313687e-14
  outer loop
    vertex 1916.428540283871 193.28637536273106 563.1619999999987
    vertex 1916.0403117162175 193.2352641021646 571.1619999999989
    vertex 1916.040311716217 193.23526410216465 563.1619999999987
  endloop
endfacet
facet normal 0.1305261922200947 -0.9914448613738048 -1.0708388230313687e-14
  outer loop
    vertex 1916.0403117162175 193.2352641021646 571.1619999999989
    vertex 1916.428540283871 193.28637536273106 563.1619999999987
    vertex 1916.4285402838714 193.286375362731 571.1619999999989
  endloop
endfacet
facet normal 0.9914448613738048 -0.1305261922200947 -4.9209213499855044e-14
  outer loop
    vertex 1914.928540283871 191.78637536273104 563.1619999999988
    vertex 1914.9796515444377 192.1746039303848 571.161999999999
    vertex 1914.9285402838714 191.786375362731 571.161999999999
  endloop
endfacet
facet normal 0.9914448613738048 -0.1305261922200947 -4.9209213499855044e-14
  outer loop
    vertex 1914.9796515444377 192.1746039303848 571.161999999999
    vertex 1914.928540283871 191.78637536273104 563.1619999999988
    vertex 1914.9796515444373 192.17460393038485 563.1619999999988
  endloop
endfacet
facet normal 0.9914448613738048 0.1305261922200947 -4.807582261456291e-14
  outer loop
    vertex 1914.9796515444373 191.39814679507725 563.1619999999988
    vertex 1914.9285402838714 191.786375362731 571.161999999999
    vertex 1914.9796515444377 191.3981467950772 571.161999999999
  endloop
endfacet
facet normal 0.9914448613738048 0.1305261922200947 -4.807582261456291e-14
  outer loop
    vertex 1914.9285402838714 191.786375362731 571.161999999999
    vertex 1914.9796515444373 191.39814679507725 563.1619999999988
    vertex 1914.928540283871 191.78637536273104 563.1619999999988
  endloop
endfacet
facet normal 0.9238795325112964 0.38268343236506636 -4.366614386714306e-14
  outer loop
    vertex 1915.1295021781941 191.03637536273104 563.1619999999988
    vertex 1914.9796515444377 191.3981467950772 571.161999999999
    vertex 1915.1295021781946 191.03637536273098 571.161999999999
  endloop
endfacet
facet normal 0.9238795325112964 0.38268343236506636 -4.366614386714306e-14
  outer loop
    vertex 1914.9796515444377 191.3981467950772 571.161999999999
    vertex 1915.1295021781941 191.03637536273104 563.1619999999988
    vertex 1914.9796515444373 191.39814679507725 563.1619999999988
  endloop
endfacet
facet normal 0.7933533402912069 0.6087614290087577 -3.628068957688895e-14
  outer loop
    vertex 1915.3678801120911 190.7257151909512 563.1619999999988
    vertex 1915.1295021781946 191.03637536273098 571.161999999999
    vertex 1915.3678801120916 190.72571519095115 571.161999999999
  endloop
endfacet
facet normal 0.7933533402912069 0.6087614290087577 -3.628068957688895e-14
  outer loop
    vertex 1915.1295021781946 191.03637536273098 571.161999999999
    vertex 1915.3678801120911 190.7257151909512 563.1619999999988
    vertex 1915.1295021781941 191.03637536273104 563.1619999999988
  endloop
endfacet
facet normal -0.9238795325112964 -0.38268343236506636 7.164258065540678e-14
  outer loop
    vertex 1902.7275783895473 192.536375362731 563.1619999999994
    vertex 1902.8774290233048 192.1746039303848 571.1619999999996
    vertex 1902.727578389548 192.536375362731 571.1619999999996
  endloop
endfacet
facet normal -0.9238795325112964 -0.38268343236506636 7.164258065540678e-14
  outer loop
    vertex 1902.8774290233048 192.1746039303848 571.1619999999996
    vertex 1902.7275783895473 192.536375362731 563.1619999999994
    vertex 1902.877429023304 192.1746039303848 563.1619999999994
  endloop
endfacet
facet normal -0.7933533402912069 -0.6087614290087577 6.15208787184104e-14
  outer loop
    vertex 1902.4892004556505 192.84703553451084 563.1619999999995
    vertex 1902.727578389548 192.536375362731 571.1619999999996
    vertex 1902.489200455651 192.84703553451084 571.1619999999996
  endloop
endfacet
facet normal -0.7933533402912069 -0.6087614290087577 6.15208787184104e-14
  outer loop
    vertex 1902.727578389548 192.536375362731 571.1619999999996
    vertex 1902.4892004556505 192.84703553451084 563.1619999999995
    vertex 1902.7275783895473 192.536375362731 563.1619999999994
  endloop
endfacet
facet normal -0.6087614290087409 -0.7933533402912196 4.7206630564820025e-14
  outer loop
    vertex 1902.4892004556505 192.84703553451084 563.1619999999995
    vertex 1902.1785402838714 193.08541346840767 571.1619999999996
    vertex 1902.1785402838707 193.08541346840767 563.1619999999995
  endloop
endfacet
facet normal -0.6087614290087409 -0.7933533402912196 4.7206630564820025e-14
  outer loop
    vertex 1902.1785402838714 193.08541346840767 571.1619999999996
    vertex 1902.4892004556505 192.84703553451084 563.1619999999995
    vertex 1902.489200455651 192.84703553451084 571.1619999999996
  endloop
endfacet
facet normal -0.38268343236506636 -0.9238795325112964 2.96753285508757e-14
  outer loop
    vertex 1902.1785402838707 193.08541346840767 563.1619999999995
    vertex 1901.816768851525 193.2352641021646 571.1619999999996
    vertex 1901.8167688515243 193.2352641021646 563.1619999999995
  endloop
endfacet
facet normal -0.38268343236506636 -0.9238795325112964 2.96753285508757e-14
  outer loop
    vertex 1901.816768851525 193.2352641021646 571.1619999999996
    vertex 1902.1785402838707 193.08541346840767 563.1619999999995
    vertex 1902.1785402838714 193.08541346840767 571.1619999999996
  endloop
endfacet
facet normal -0.1305261922200947 -0.9914448613738048 1.0121701936996773e-14
  outer loop
    vertex 1901.8167688515243 193.2352641021646 563.1619999999995
    vertex 1901.4285402838711 193.286375362731 571.1619999999997
    vertex 1901.4285402838707 193.286375362731 563.1619999999996
  endloop
endfacet
facet normal -0.1305261922200947 -0.9914448613738048 1.0121701936996773e-14
  outer loop
    vertex 1901.4285402838711 193.286375362731 571.1619999999997
    vertex 1901.8167688515243 193.2352641021646 563.1619999999995
    vertex 1901.816768851525 193.2352641021646 571.1619999999996
  endloop
endfacet
facet normal 0.1305261922200947 -0.9914448613738048 -1.0121701936996777e-14
  outer loop
    vertex 1901.4285402838707 193.286375362731 563.1619999999996
    vertex 1901.0403117162173 193.2352641021646 571.1619999999997
    vertex 1901.0403117162168 193.2352641021646 563.1619999999996
  endloop
endfacet
facet normal 0.1305261922200947 -0.9914448613738048 -1.0121701936996777e-14
  outer loop
    vertex 1901.0403117162173 193.2352641021646 571.1619999999997
    vertex 1901.4285402838707 193.286375362731 563.1619999999996
    vertex 1901.4285402838711 193.286375362731 571.1619999999997
  endloop
endfacet
facet normal 0.38268343236506636 -0.9238795325112964 -2.96753285508757e-14
  outer loop
    vertex 1901.0403117162168 193.2352641021646 563.1619999999996
    vertex 1900.6785402838714 193.08541346840767 571.1619999999997
    vertex 1900.6785402838705 193.08541346840767 563.1619999999996
  endloop
endfacet
facet normal 0.38268343236506636 -0.9238795325112964 -2.96753285508757e-14
  outer loop
    vertex 1900.6785402838714 193.08541346840767 571.1619999999997
    vertex 1901.0403117162168 193.2352641021646 563.1619999999996
    vertex 1901.0403117162173 193.2352641021646 571.1619999999997
  endloop
endfacet
facet normal 0.6087614290087409 -0.7933533402912196 -4.7206630564820025e-14
  outer loop
    vertex 1900.6785402838705 193.08541346840767 563.1619999999996
    vertex 1900.3678801120914 192.84703553451084 571.1619999999997
    vertex 1900.367880112091 192.84703553451084 563.1619999999996
  endloop
endfacet
facet normal 0.6087614290087409 -0.7933533402912196 -4.7206630564820025e-14
  outer loop
    vertex 1900.3678801120914 192.84703553451084 571.1619999999997
    vertex 1900.6785402838705 193.08541346840767 563.1619999999996
    vertex 1900.6785402838714 193.08541346840767 571.1619999999997
  endloop
endfacet
facet normal 0.7933533402912069 -0.6087614290087577 -6.15208787184104e-14
  outer loop
    vertex 1900.129502178194 192.536375362731 563.1619999999996
    vertex 1900.3678801120914 192.84703553451084 571.1619999999997
    vertex 1900.1295021781943 192.536375362731 571.1619999999998
  endloop
endfacet
facet normal 0.7933533402912069 -0.6087614290087577 -6.15208787184104e-14
  outer loop
    vertex 1900.3678801120914 192.84703553451084 571.1619999999997
    vertex 1900.129502178194 192.536375362731 563.1619999999996
    vertex 1900.367880112091 192.84703553451084 563.1619999999996
  endloop
endfacet
facet normal 0.9238795325112964 -0.38268343236506636 -7.164258065540678e-14
  outer loop
    vertex 1899.979651544437 192.1746039303848 563.1619999999996
    vertex 1900.1295021781943 192.536375362731 571.1619999999998
    vertex 1899.9796515444375 192.1746039303848 571.1619999999998
  endloop
endfacet
facet normal 0.9238795325112964 -0.38268343236506636 -7.164258065540678e-14
  outer loop
    vertex 1900.1295021781943 192.536375362731 571.1619999999998
    vertex 1899.979651544437 192.1746039303848 563.1619999999996
    vertex 1900.129502178194 192.536375362731 563.1619999999996
  endloop
endfacet
facet normal 0.9914448613738048 -0.1305261922200947 -7.688195911569553e-14
  outer loop
    vertex 1899.9285402838707 191.786375362731 563.1619999999996
    vertex 1899.9796515444375 192.1746039303848 571.1619999999998
    vertex 1899.9285402838711 191.786375362731 571.1619999999998
  endloop
endfacet
facet normal 0.9914448613738048 -0.1305261922200947 -7.688195911569553e-14
  outer loop
    vertex 1899.9796515444375 192.1746039303848 571.1619999999998
    vertex 1899.9285402838707 191.786375362731 563.1619999999996
    vertex 1899.979651544437 192.1746039303848 563.1619999999996
  endloop
endfacet
facet normal 0.9914448613738048 0.1305261922200947 -7.688195911569553e-14
  outer loop
    vertex 1899.979651544437 191.3981467950772 563.1619999999996
    vertex 1899.9285402838711 191.786375362731 571.1619999999998
    vertex 1899.9796515444375 191.3981467950772 571.1619999999998
  endloop
endfacet
facet normal 0.9914448613738048 0.1305261922200947 -7.688195911569553e-14
  outer loop
    vertex 1899.9285402838711 191.786375362731 571.1619999999998
    vertex 1899.979651544437 191.3981467950772 563.1619999999996
    vertex 1899.9285402838707 191.786375362731 563.1619999999996
  endloop
endfacet
facet normal 0.9238795325112964 0.38268343236506636 -7.164258065540678e-14
  outer loop
    vertex 1900.129502178194 191.03637536273098 563.1619999999996
    vertex 1899.9796515444375 191.3981467950772 571.1619999999998
    vertex 1900.1295021781943 191.03637536273098 571.1619999999998
  endloop
endfacet
facet normal 0.9238795325112964 0.38268343236506636 -7.164258065540678e-14
  outer loop
    vertex 1899.9796515444375 191.3981467950772 571.1619999999998
    vertex 1900.129502178194 191.03637536273098 563.1619999999996
    vertex 1899.979651544437 191.3981467950772 563.1619999999996
  endloop
endfacet
facet normal 0.7933533402912069 0.6087614290087577 -6.15208787184104e-14
  outer loop
    vertex 1900.3678801120914 190.72571519095115 571.1619999999997
    vertex 1900.129502178194 191.03637536273098 563.1619999999996
    vertex 1900.1295021781943 191.03637536273098 571.1619999999998
  endloop
endfacet
facet normal 0.7933533402912069 0.6087614290087577 -6.15208787184104e-14
  outer loop
    vertex 1900.129502178194 191.03637536273098 563.1619999999996
    vertex 1900.3678801120914 190.72571519095115 571.1619999999997
    vertex 1900.367880112091 190.72571519095115 563.1619999999996
  endloop
endfacet
facet normal 0.6087614290087409 0.7933533402912196 -4.7206630564820025e-14
  outer loop
    vertex 1900.3678801120914 190.72571519095115 571.1619999999997
    vertex 1900.6785402838705 190.48733725705432 563.1619999999996
    vertex 1900.367880112091 190.72571519095115 563.1619999999996
  endloop
endfacet
facet normal 0.6087614290087409 0.7933533402912196 -4.7206630564820025e-14
  outer loop
    vertex 1900.6785402838705 190.48733725705432 563.1619999999996
    vertex 1900.3678801120914 190.72571519095115 571.1619999999997
    vertex 1900.6785402838714 190.48733725705432 571.1619999999997
  endloop
endfacet
facet normal 0.38268343236506636 0.9238795325112964 -2.96753285508757e-14
  outer loop
    vertex 1900.6785402838714 190.48733725705432 571.1619999999997
    vertex 1901.0403117162168 190.3374866232974 563.1619999999996
    vertex 1900.6785402838705 190.48733725705432 563.1619999999996
  endloop
endfacet
facet normal 0.38268343236506636 0.9238795325112964 -2.96753285508757e-14
  outer loop
    vertex 1901.0403117162168 190.3374866232974 563.1619999999996
    vertex 1900.6785402838714 190.48733725705432 571.1619999999997
    vertex 1901.0403117162173 190.3374866232974 571.1619999999997
  endloop
endfacet
facet normal 0.1305261922200947 0.9914448613738048 -1.0121701936996773e-14
  outer loop
    vertex 1901.0403117162173 190.3374866232974 571.1619999999997
    vertex 1901.4285402838707 190.28637536273098 563.1619999999996
    vertex 1901.0403117162168 190.3374866232974 563.1619999999996
  endloop
endfacet
facet normal 0.1305261922200947 0.9914448613738048 -1.0121701936996773e-14
  outer loop
    vertex 1901.4285402838707 190.28637536273098 563.1619999999996
    vertex 1901.0403117162173 190.3374866232974 571.1619999999997
    vertex 1901.4285402838711 190.28637536273098 571.1619999999997
  endloop
endfacet
facet normal 1.0 8.459899447643805e-15 -2.962019518548658e-14
  outer loop
    vertex 1921.9285402838707 189.28637536273104 563.1619999999984
    vertex 1921.9285402838707 205.2863753627308 573.1619999999987
    vertex 1921.9285402838711 189.28637536273104 573.1619999999987
  endloop
endfacet
facet normal 1.0 8.459899447643805e-15 -2.962019518548658e-14
  outer loop
    vertex 1921.9285402838707 205.2863753627308 573.1619999999987
    vertex 1921.9285402838707 189.28637536273104 563.1619999999984
    vertex 1921.9285402838711 199.5363753627311 569.4610381056751
  endloop
endfacet
facet normal 1.0 8.459899447643805e-15 -2.962019518548658e-14
  outer loop
    vertex 1921.9285402838707 205.2863753627308 573.1619999999987
    vertex 1921.9285402838711 199.5363753627311 569.4610381056751
    vertex 1921.9285402838711 199.8981467950771 569.610888739432
  endloop
endfacet
facet normal 1.0 8.459899447643805e-15 -2.962019518548658e-14
  outer loop
    vertex 1921.9285402838707 205.2863753627308 573.1619999999987
    vertex 1921.9285402838711 199.8981467950771 569.610888739432
    vertex 1921.9285402838711 200.28637536273104 569.6619999999986
  endloop
endfacet
facet normal 1.0 8.459899447643805e-15 -2.962019518548658e-14
  outer loop
    vertex 1921.9285402838711 199.5363753627311 569.4610381056751
    vertex 1921.9285402838707 189.28637536273104 563.1619999999984
    vertex 1921.9285402838711 199.22571519095123 569.2226601717783
  endloop
endfacet
facet normal 1.0 8.459899447643805e-15 -2.962019518548658e-14
  outer loop
    vertex 1921.9285402838711 199.22571519095123 569.2226601717783
    vertex 1921.9285402838707 189.28637536273104 563.1619999999984
    vertex 1921.9285402838711 198.98733725705455 568.9119999999986
  endloop
endfacet
facet normal 1.0 8.459899447643805e-15 -2.962019518548658e-14
  outer loop
    vertex 1921.9285402838711 198.98733725705455 568.9119999999986
    vertex 1921.9285402838707 189.28637536273104 563.1619999999984
    vertex 1921.9285402838711 198.8374866232973 568.5502285676522
  endloop
endfacet
facet normal 1.0 8.459899447643805e-15 -2.962019518548658e-14
  outer loop
    vertex 1921.9285402838711 198.8374866232973 568.5502285676522
    vertex 1921.9285402838707 189.28637536273104 563.1619999999984
    vertex 1921.9285402838711 198.78637536273084 568.1619999999984
  endloop
endfacet
facet normal 1.0 8.459899447643805e-15 -2.962019518548658e-14
  outer loop
    vertex 1921.9285402838711 198.78637536273084 568.1619999999984
    vertex 1921.9285402838707 189.28637536273104 563.1619999999984
    vertex 1921.9285402838711 198.83748662329737 567.7737714323449
  endloop
endfacet
facet normal 1.0 8.459899447643805e-15 -2.962019518548658e-14
  outer loop
    vertex 1921.9285402838711 198.83748662329737 567.7737714323449
    vertex 1921.9285402838707 189.28637536273104 563.1619999999984
    vertex 1921.9285402838707 198.9873372570543 567.4119999999984
  endloop
endfacet
facet normal 1.0 8.459899447643805e-15 -2.962019518548658e-14
  outer loop
    vertex 1921.9285402838707 198.9873372570543 567.4119999999984
    vertex 1921.9285402838707 189.28637536273104 563.1619999999984
    vertex 1921.9285402838707 199.22571519095098 567.1013398282187
  endloop
endfacet
facet normal 1.0 8.459899447643805e-15 -2.962019518548658e-14
  outer loop
    vertex 1921.9285402838707 199.22571519095098 567.1013398282187
    vertex 1921.9285402838707 189.28637536273104 563.1619999999984
    vertex 1921.9285402838711 199.53637536273067 566.8629618943218
  endloop
endfacet
facet normal 1.0 8.459899447643805e-15 -2.962019518548658e-14
  outer loop
    vertex 1921.9285402838711 199.53637536273067 566.8629618943218
    vertex 1921.9285402838707 189.28637536273104 563.1619999999984
    vertex 1921.9285402838707 199.89814679507705 566.7131112605649
  endloop
endfacet
facet normal 1.0 8.459899447643805e-15 -2.962019518548658e-14
  outer loop
    vertex 1921.9285402838707 199.89814679507705 566.7131112605649
    vertex 1921.9285402838707 189.28637536273104 563.1619999999984
    vertex 1921.9285402838707 200.28637536273095 566.6619999999983
  endloop
endfacet
facet normal 1.0 8.459899447643805e-15 -2.962019518548658e-14
  outer loop
    vertex 1921.9285402838707 205.2863753627308 573.1619999999987
    vertex 1921.9285402838711 201.58541346840772 568.9119999999983
    vertex 1921.9285402838707 205.2863753627308 563.1619999999984
  endloop
endfacet
facet normal 1.0 8.459899447643805e-15 -2.962019518548658e-14
  outer loop
    vertex 1921.9285402838711 201.58541346840772 568.9119999999983
    vertex 1921.9285402838707 205.2863753627308 573.1619999999987
    vertex 1921.9285402838711 201.34703553451067 569.2226601717783
  endloop
endfacet
facet normal 1.0 8.459899447643805e-15 -2.962019518548658e-14
  outer loop
    vertex 1921.9285402838711 201.34703553451067 569.2226601717783
    vertex 1921.9285402838707 205.2863753627308 573.1619999999987
    vertex 1921.9285402838711 201.03637536273084 569.461038105675
  endloop
endfacet
facet normal 1.0 8.459899447643805e-15 -2.962019518548658e-14
  outer loop
    vertex 1921.9285402838711 201.03637536273084 569.461038105675
    vertex 1921.9285402838707 205.2863753627308 573.1619999999987
    vertex 1921.9285402838707 200.67460393038476 569.610888739432
  endloop
endfacet
facet normal 1.0 8.459899447643805e-15 -2.962019518548658e-14
  outer loop
    vertex 1921.9285402838707 200.67460393038476 569.610888739432
    vertex 1921.9285402838707 205.2863753627308 573.1619999999987
    vertex 1921.9285402838711 200.28637536273104 569.6619999999986
  endloop
endfacet
facet normal 1.0 8.459899447643805e-15 -2.962019518548658e-14
  outer loop
    vertex 1921.9285402838707 205.2863753627308 563.1619999999984
    vertex 1921.9285402838711 201.58541346840772 568.9119999999983
    vertex 1921.9285402838711 201.73526410216456 568.5502285676524
  endloop
endfacet
facet normal 1.0 8.459899447643805e-15 -2.962019518548658e-14
  outer loop
    vertex 1921.9285402838707 205.2863753627308 563.1619999999984
    vertex 1921.9285402838711 201.73526410216456 568.5502285676524
    vertex 1921.9285402838711 201.78637536273084 568.1619999999982
  endloop
endfacet
facet normal 1.0 8.459899447643805e-15 -2.962019518548658e-14
  outer loop
    vertex 1921.9285402838707 205.2863753627308 563.1619999999984
    vertex 1921.9285402838711 201.78637536273084 568.1619999999982
    vertex 1921.9285402838711 201.7352641021645 567.7737714323446
  endloop
endfacet
facet normal 1.0 8.459899447643805e-15 -2.962019518548658e-14
  outer loop
    vertex 1921.9285402838707 205.2863753627308 563.1619999999984
    vertex 1921.9285402838711 201.7352641021645 567.7737714323446
    vertex 1921.9285402838707 201.58541346840786 567.4119999999984
  endloop
endfacet
facet normal 1.0 8.459899447643805e-15 -2.962019518548658e-14
  outer loop
    vertex 1921.9285402838707 205.2863753627308 563.1619999999984
    vertex 1921.9285402838707 201.58541346840786 567.4119999999984
    vertex 1921.9285402838707 201.34703553451064 567.1013398282186
  endloop
endfacet
facet normal 1.0 8.459899447643805e-15 -2.962019518548658e-14
  outer loop
    vertex 1921.9285402838707 205.2863753627308 563.1619999999984
    vertex 1921.9285402838707 201.34703553451064 567.1013398282186
    vertex 1921.9285402838707 201.036375362731 566.8629618943218
  endloop
endfacet
facet normal 1.0 8.459899447643805e-15 -2.962019518548658e-14
  outer loop
    vertex 1921.9285402838707 205.2863753627308 563.1619999999984
    vertex 1921.9285402838707 201.036375362731 566.8629618943218
    vertex 1921.9285402838711 200.67460393038462 566.7131112605647
  endloop
endfacet
facet normal 1.0 8.459899447643805e-15 -2.962019518548658e-14
  outer loop
    vertex 1921.9285402838707 205.2863753627308 563.1619999999984
    vertex 1921.9285402838711 200.67460393038462 566.7131112605647
    vertex 1921.9285402838707 200.28637536273095 566.6619999999983
  endloop
endfacet
facet normal 1.0 8.459899447643805e-15 -2.962019518548658e-14
  outer loop
    vertex 1921.9285402838707 205.2863753627308 563.1619999999984
    vertex 1921.9285402838707 200.28637536273095 566.6619999999983
    vertex 1921.9285402838707 189.28637536273104 563.1619999999984
  endloop
endfacet
facet normal -0.1305261922200947 0.9914448613738048 1.0121701936996777e-14
  outer loop
    vertex 1901.4285402838711 190.28637536273098 571.1619999999997
    vertex 1901.8167688515243 190.3374866232974 563.1619999999995
    vertex 1901.4285402838707 190.28637536273098 563.1619999999996
  endloop
endfacet
facet normal -0.1305261922200947 0.9914448613738048 1.0121701936996777e-14
  outer loop
    vertex 1901.8167688515243 190.3374866232974 563.1619999999995
    vertex 1901.4285402838711 190.28637536273098 571.1619999999997
    vertex 1901.816768851525 190.3374866232974 571.1619999999996
  endloop
endfacet
facet normal -0.38268343236506636 0.9238795325112964 2.96753285508757e-14
  outer loop
    vertex 1901.816768851525 190.3374866232974 571.1619999999996
    vertex 1902.1785402838707 190.48733725705432 563.1619999999995
    vertex 1901.8167688515243 190.3374866232974 563.1619999999995
  endloop
endfacet
facet normal -0.38268343236506636 0.9238795325112964 2.96753285508757e-14
  outer loop
    vertex 1902.1785402838707 190.48733725705432 563.1619999999995
    vertex 1901.816768851525 190.3374866232974 571.1619999999996
    vertex 1902.1785402838714 190.48733725705432 571.1619999999996
  endloop
endfacet
facet normal -0.6087614290087409 0.7933533402912196 4.7206630564820025e-14
  outer loop
    vertex 1902.1785402838714 190.48733725705432 571.1619999999996
    vertex 1902.4892004556505 190.72571519095115 563.1619999999995
    vertex 1902.1785402838707 190.48733725705432 563.1619999999995
  endloop
endfacet
facet normal -0.6087614290087409 0.7933533402912196 4.7206630564820025e-14
  outer loop
    vertex 1902.4892004556505 190.72571519095115 563.1619999999995
    vertex 1902.1785402838714 190.48733725705432 571.1619999999996
    vertex 1902.489200455651 190.72571519095115 571.1619999999996
  endloop
endfacet
facet normal -0.7933533402912069 0.6087614290087577 6.15208787184104e-14
  outer loop
    vertex 1902.727578389548 191.03637536273098 571.1619999999996
    vertex 1902.4892004556505 190.72571519095115 563.1619999999995
    vertex 1902.489200455651 190.72571519095115 571.1619999999996
  endloop
endfacet
facet normal -0.7933533402912069 0.6087614290087577 6.15208787184104e-14
  outer loop
    vertex 1902.4892004556505 190.72571519095115 563.1619999999995
    vertex 1902.727578389548 191.03637536273098 571.1619999999996
    vertex 1902.7275783895473 191.03637536273098 563.1619999999994
  endloop
endfacet
facet normal -0.9238795325112964 0.38268343236506636 7.164258065540678e-14
  outer loop
    vertex 1902.877429023304 191.3981467950772 563.1619999999994
    vertex 1902.727578389548 191.03637536273098 571.1619999999996
    vertex 1902.8774290233048 191.3981467950772 571.1619999999996
  endloop
endfacet
facet normal -0.9238795325112964 0.38268343236506636 7.164258065540678e-14
  outer loop
    vertex 1902.727578389548 191.03637536273098 571.1619999999996
    vertex 1902.877429023304 191.3981467950772 563.1619999999994
    vertex 1902.7275783895473 191.03637536273098 563.1619999999994
  endloop
endfacet
facet normal -0.9914448613738048 0.1305261922200947 7.688195911569553e-14
  outer loop
    vertex 1902.9285402838707 191.786375362731 563.1619999999994
    vertex 1902.8774290233048 191.3981467950772 571.1619999999996
    vertex 1902.9285402838711 191.786375362731 571.1619999999996
  endloop
endfacet
facet normal -0.9914448613738048 0.1305261922200947 7.688195911569553e-14
  outer loop
    vertex 1902.8774290233048 191.3981467950772 571.1619999999996
    vertex 1902.9285402838707 191.786375362731 563.1619999999994
    vertex 1902.877429023304 191.3981467950772 563.1619999999994
  endloop
endfacet
facet normal -0.9914448613738048 -0.1305261922200947 7.688195911569553e-14
  outer loop
    vertex 1902.877429023304 192.1746039303848 563.1619999999994
    vertex 1902.9285402838711 191.786375362731 571.1619999999996
    vertex 1902.8774290233048 192.1746039303848 571.1619999999996
  endloop
endfacet
facet normal -0.9914448613738048 -0.1305261922200947 7.688195911569553e-14
  outer loop
    vertex 1902.9285402838711 191.786375362731 571.1619999999996
    vertex 1902.877429023304 192.1746039303848 563.1619999999994
    vertex 1902.9285402838707 191.786375362731 563.1619999999994
  endloop
endfacet
facet normal -1.0 -2.45227231256843e-44 4.9923953859830826e-14
  outer loop
    vertex 1898.928540283871 194.28637536273098 563.1619999999996
    vertex 1898.9285402838714 189.28637536273098 571.1619999999997
    vertex 1898.9285402838714 194.28637536273098 571.1619999999997
  endloop
endfacet
facet normal -1.0 -2.45227231256843e-44 4.9923953859830826e-14
  outer loop
    vertex 1898.9285402838714 189.28637536273098 571.1619999999997
    vertex 1898.928540283871 194.28637536273098 563.1619999999996
    vertex 1898.928540283871 189.28637536273098 563.1619999999996
  endloop
endfacet
facet normal 4.9923953859830826e-14 -1.5148961883958467e-30 1.0
  outer loop
    vertex 1918.9285402838711 189.28637536273098 571.1619999999987
    vertex 1916.4285402838714 190.28637536273098 571.1619999999989
    vertex 1898.9285402838714 189.28637536273098 571.1619999999997
  endloop
endfacet
facet normal 4.9923953859830826e-14 -1.5148961883958467e-30 1.0
  outer loop
    vertex 1916.4285402838714 190.28637536273098 571.1619999999989
    vertex 1918.9285402838711 189.28637536273098 571.1619999999987
    vertex 1916.8167688515248 190.3374866232974 571.1619999999989
  endloop
endfacet
facet normal 4.9923953859830826e-14 -1.5148961883958467e-30 1.0
  outer loop
    vertex 1916.8167688515248 190.3374866232974 571.1619999999989
    vertex 1918.9285402838711 189.28637536273098 571.1619999999987
    vertex 1917.1785402838711 190.48733725705432 571.1619999999988
  endloop
endfacet
facet normal 4.9923953859830826e-14 -1.5148961883958467e-30 1.0
  outer loop
    vertex 1917.1785402838711 190.48733725705432 571.1619999999988
    vertex 1918.9285402838711 189.28637536273098 571.1619999999987
    vertex 1917.4892004556511 190.72571519095115 571.1619999999988
  endloop
endfacet
facet normal 4.9923953859830826e-14 -1.5148961883958467e-30 1.0
  outer loop
    vertex 1917.4892004556511 190.72571519095115 571.1619999999988
    vertex 1918.9285402838711 189.28637536273098 571.1619999999987
    vertex 1917.7275783895477 191.03637536273098 571.1619999999988
  endloop
endfacet
facet normal 4.9923953859830826e-14 -1.5148961883958467e-30 1.0
  outer loop
    vertex 1917.7275783895477 191.03637536273098 571.1619999999988
    vertex 1918.9285402838711 189.28637536273098 571.1619999999987
    vertex 1917.8774290233046 191.3981467950772 571.1619999999988
  endloop
endfacet
facet normal 4.9923953859830826e-14 -1.5148961883958467e-30 1.0
  outer loop
    vertex 1917.8774290233046 191.3981467950772 571.1619999999988
    vertex 1918.9285402838711 189.28637536273098 571.1619999999987
    vertex 1918.9285402838711 194.28637536273098 571.1619999999987
  endloop
endfacet
facet normal 4.9923953859830826e-14 -1.5148961883958467e-30 1.0
  outer loop
    vertex 1917.8774290233046 191.3981467950772 571.1619999999988
    vertex 1918.9285402838711 194.28637536273098 571.1619999999987
    vertex 1917.9285402838714 191.786375362731 571.1619999999988
  endloop
endfacet
facet normal 4.9923953859830826e-14 -1.5148961883958467e-30 1.0
  outer loop
    vertex 1917.9285402838714 191.786375362731 571.1619999999988
    vertex 1918.9285402838711 194.28637536273098 571.1619999999987
    vertex 1917.8774290233046 192.1746039303848 571.1619999999988
  endloop
endfacet
facet normal 4.9923953859830826e-14 -1.5148961883958467e-30 1.0
  outer loop
    vertex 1917.8774290233046 192.1746039303848 571.1619999999988
    vertex 1918.9285402838711 194.28637536273098 571.1619999999987
    vertex 1917.7275783895477 192.536375362731 571.1619999999988
  endloop
endfacet
facet normal 4.9923953859830826e-14 -1.5148961883958467e-30 1.0
  outer loop
    vertex 1917.7275783895477 192.536375362731 571.1619999999988
    vertex 1918.9285402838711 194.28637536273098 571.1619999999987
    vertex 1917.4892004556511 192.84703553451084 571.1619999999988
  endloop
endfacet
facet normal 4.9923953859830826e-14 -1.5148961883958467e-30 1.0
  outer loop
    vertex 1917.4892004556511 192.84703553451084 571.1619999999988
    vertex 1918.9285402838711 194.28637536273098 571.1619999999987
    vertex 1917.1785402838711 193.08541346840767 571.1619999999989
  endloop
endfacet
facet normal 4.9923953859830826e-14 -1.5148961883958467e-30 1.0
  outer loop
    vertex 1917.1785402838711 193.08541346840767 571.1619999999989
    vertex 1918.9285402838711 194.28637536273098 571.1619999999987
    vertex 1916.8167688515248 193.2352641021646 571.1619999999989
  endloop
endfacet
facet normal 4.9923953859830826e-14 -1.5148961883958467e-30 1.0
  outer loop
    vertex 1916.8167688515248 193.2352641021646 571.1619999999989
    vertex 1918.9285402838711 194.28637536273098 571.1619999999987
    vertex 1916.4285402838714 193.286375362731 571.1619999999989
  endloop
endfacet
facet normal 4.9923953859830826e-14 -1.5148961883958467e-30 1.0
  outer loop
    vertex 1916.4285402838714 193.286375362731 571.1619999999989
    vertex 1918.9285402838711 194.28637536273098 571.1619999999987
    vertex 1901.4285402838711 193.286375362731 571.1619999999997
  endloop
endfacet
facet normal 4.9923953859830826e-14 -1.5148961883958467e-30 1.0
  outer loop
    vertex 1898.9285402838714 189.28637536273098 571.1619999999997
    vertex 1899.9796515444375 191.3981467950772 571.1619999999998
    vertex 1898.9285402838714 194.28637536273098 571.1619999999997
  endloop
endfacet
facet normal 4.9923953859830826e-14 -1.5148961883958467e-30 1.0
  outer loop
    vertex 1899.9796515444375 191.3981467950772 571.1619999999998
    vertex 1898.9285402838714 189.28637536273098 571.1619999999997
    vertex 1900.1295021781943 191.03637536273098 571.1619999999998
  endloop
endfacet
facet normal 4.9923953859830826e-14 -1.5148961883958467e-30 1.0
  outer loop
    vertex 1900.1295021781943 191.03637536273098 571.1619999999998
    vertex 1898.9285402838714 189.28637536273098 571.1619999999997
    vertex 1900.3678801120914 190.72571519095115 571.1619999999997
  endloop
endfacet
facet normal 4.9923953859830826e-14 -1.5148961883958467e-30 1.0
  outer loop
    vertex 1900.3678801120914 190.72571519095115 571.1619999999997
    vertex 1898.9285402838714 189.28637536273098 571.1619999999997
    vertex 1900.6785402838714 190.48733725705432 571.1619999999997
  endloop
endfacet
facet normal 4.9923953859830826e-14 -1.5148961883958467e-30 1.0
  outer loop
    vertex 1900.6785402838714 190.48733725705432 571.1619999999997
    vertex 1898.9285402838714 189.28637536273098 571.1619999999997
    vertex 1901.0403117162173 190.3374866232974 571.1619999999997
  endloop
endfacet
facet normal 4.9923953859830826e-14 -1.5148961883958467e-30 1.0
  outer loop
    vertex 1901.0403117162173 190.3374866232974 571.1619999999997
    vertex 1898.9285402838714 189.28637536273098 571.1619999999997
    vertex 1901.4285402838711 190.28637536273098 571.1619999999997
  endloop
endfacet
facet normal 4.9923953859830826e-14 -1.5148961883958467e-30 1.0
  outer loop
    vertex 1901.4285402838711 190.28637536273098 571.1619999999997
    vertex 1898.9285402838714 189.28637536273098 571.1619999999997
    vertex 1916.4285402838714 190.28637536273098 571.1619999999989
  endloop
endfacet
facet normal 4.9923953859830826e-14 -1.5148961883958467e-30 1.0
  outer loop
    vertex 1898.9285402838714 194.28637536273098 571.1619999999997
    vertex 1899.9796515444375 191.3981467950772 571.1619999999998
    vertex 1899.9285402838711 191.786375362731 571.1619999999998
  endloop
endfacet
facet normal 4.9923953859830826e-14 -1.5148961883958467e-30 1.0
  outer loop
    vertex 1898.9285402838714 194.28637536273098 571.1619999999997
    vertex 1899.9285402838711 191.786375362731 571.1619999999998
    vertex 1899.9796515444375 192.1746039303848 571.1619999999998
  endloop
endfacet
facet normal 4.9923953859830826e-14 -1.5148961883958467e-30 1.0
  outer loop
    vertex 1898.9285402838714 194.28637536273098 571.1619999999997
    vertex 1899.9796515444375 192.1746039303848 571.1619999999998
    vertex 1900.1295021781943 192.536375362731 571.1619999999998
  endloop
endfacet
facet normal 4.9923953859830826e-14 -1.5148961883958467e-30 1.0
  outer loop
    vertex 1898.9285402838714 194.28637536273098 571.1619999999997
    vertex 1900.1295021781943 192.536375362731 571.1619999999998
    vertex 1900.3678801120914 192.84703553451084 571.1619999999997
  endloop
endfacet
facet normal 4.9923953859830826e-14 -1.5148961883958467e-30 1.0
  outer loop
    vertex 1898.9285402838714 194.28637536273098 571.1619999999997
    vertex 1900.3678801120914 192.84703553451084 571.1619999999997
    vertex 1900.6785402838714 193.08541346840767 571.1619999999997
  endloop
endfacet
facet normal 4.9923953859830826e-14 -1.5148961883958467e-30 1.0
  outer loop
    vertex 1898.9285402838714 194.28637536273098 571.1619999999997
    vertex 1900.6785402838714 193.08541346840767 571.1619999999997
    vertex 1901.0403117162173 193.2352641021646 571.1619999999997
  endloop
endfacet
facet normal 4.9923953859830826e-14 -1.5148961883958467e-30 1.0
  outer loop
    vertex 1898.9285402838714 194.28637536273098 571.1619999999997
    vertex 1901.0403117162173 193.2352641021646 571.1619999999997
    vertex 1901.4285402838711 193.286375362731 571.1619999999997
  endloop
endfacet
facet normal 4.9923953859830826e-14 -1.5148961883958467e-30 1.0
  outer loop
    vertex 1898.9285402838714 194.28637536273098 571.1619999999997
    vertex 1901.4285402838711 193.286375362731 571.1619999999997
    vertex 1918.9285402838711 194.28637536273098 571.1619999999987
  endloop
endfacet
facet normal 4.9923953859830826e-14 -1.5148961883958467e-30 1.0
  outer loop
    vertex 1916.0403117162175 190.3374866232974 571.1619999999989
    vertex 1901.4285402838711 190.28637536273098 571.1619999999997
    vertex 1916.4285402838714 190.28637536273098 571.1619999999989
  endloop
endfacet
facet normal 4.9923953859830826e-14 -1.5148961883958467e-30 1.0
  outer loop
    vertex 1901.4285402838711 190.28637536273098 571.1619999999997
    vertex 1916.0403117162175 190.3374866232974 571.1619999999989
    vertex 1901.816768851525 190.3374866232974 571.1619999999996
  endloop
endfacet
facet normal 4.9923953859830826e-14 -1.5148961883958467e-30 1.0
  outer loop
    vertex 1901.816768851525 190.3374866232974 571.1619999999996
    vertex 1916.0403117162175 190.3374866232974 571.1619999999989
    vertex 1915.6785402838711 190.48733725705432 571.1619999999989
  endloop
endfacet
facet normal 4.9923953859830826e-14 -1.5148961883958467e-30 1.0
  outer loop
    vertex 1901.816768851525 190.3374866232974 571.1619999999996
    vertex 1915.6785402838711 190.48733725705432 571.1619999999989
    vertex 1902.1785402838714 190.48733725705432 571.1619999999996
  endloop
endfacet
facet normal 4.9923953859830826e-14 -1.5148961883958467e-30 1.0
  outer loop
    vertex 1902.1785402838714 190.48733725705432 571.1619999999996
    vertex 1915.6785402838711 190.48733725705432 571.1619999999989
    vertex 1915.3678801120916 190.72571519095115 571.161999999999
  endloop
endfacet
facet normal 4.9923953859830826e-14 -1.5148961883958467e-30 1.0
  outer loop
    vertex 1902.1785402838714 190.48733725705432 571.1619999999996
    vertex 1915.3678801120916 190.72571519095115 571.161999999999
    vertex 1902.489200455651 190.72571519095115 571.1619999999996
  endloop
endfacet
facet normal 4.9923953859830826e-14 -1.5148961883958467e-30 1.0
  outer loop
    vertex 1902.489200455651 190.72571519095115 571.1619999999996
    vertex 1915.3678801120916 190.72571519095115 571.161999999999
    vertex 1915.1295021781946 191.03637536273098 571.161999999999
  endloop
endfacet
facet normal 4.9923953859830826e-14 -1.5148961883958467e-30 1.0
  outer loop
    vertex 1902.489200455651 190.72571519095115 571.1619999999996
    vertex 1915.1295021781946 191.03637536273098 571.161999999999
    vertex 1902.727578389548 191.03637536273098 571.1619999999996
  endloop
endfacet
facet normal 4.9923953859830826e-14 -1.5148961883958467e-30 1.0
  outer loop
    vertex 1902.727578389548 191.03637536273098 571.1619999999996
    vertex 1915.1295021781946 191.03637536273098 571.161999999999
    vertex 1914.9796515444377 191.3981467950772 571.161999999999
  endloop
endfacet
facet normal 4.9923953859830826e-14 -1.5148961883958467e-30 1.0
  outer loop
    vertex 1902.727578389548 191.03637536273098 571.1619999999996
    vertex 1914.9796515444377 191.3981467950772 571.161999999999
    vertex 1902.8774290233048 191.3981467950772 571.1619999999996
  endloop
endfacet
facet normal 4.9923953859830826e-14 -1.5148961883958467e-30 1.0
  outer loop
    vertex 1902.8774290233048 191.3981467950772 571.1619999999996
    vertex 1914.9796515444377 191.3981467950772 571.161999999999
    vertex 1914.9285402838714 191.786375362731 571.161999999999
  endloop
endfacet
facet normal 4.9923953859830826e-14 -1.5148961883958467e-30 1.0
  outer loop
    vertex 1902.8774290233048 191.3981467950772 571.1619999999996
    vertex 1914.9285402838714 191.786375362731 571.161999999999
    vertex 1902.9285402838711 191.786375362731 571.1619999999996
  endloop
endfacet
facet normal 4.9923953859830826e-14 -1.5148961883958467e-30 1.0
  outer loop
    vertex 1902.9285402838711 191.786375362731 571.1619999999996
    vertex 1914.9285402838714 191.786375362731 571.161999999999
    vertex 1914.9796515444377 192.1746039303848 571.161999999999
  endloop
endfacet
facet normal 4.9923953859830826e-14 -1.5148961883958467e-30 1.0
  outer loop
    vertex 1902.9285402838711 191.786375362731 571.1619999999996
    vertex 1914.9796515444377 192.1746039303848 571.161999999999
    vertex 1902.8774290233048 192.1746039303848 571.1619999999996
  endloop
endfacet
facet normal 4.9923953859830826e-14 -1.5148961883958467e-30 1.0
  outer loop
    vertex 1902.8774290233048 192.1746039303848 571.1619999999996
    vertex 1914.9796515444377 192.1746039303848 571.161999999999
    vertex 1915.1295021781946 192.536375362731 571.161999999999
  endloop
endfacet
facet normal 4.9923953859830826e-14 -1.5148961883958467e-30 1.0
  outer loop
    vertex 1902.8774290233048 192.1746039303848 571.1619999999996
    vertex 1915.1295021781946 192.536375362731 571.161999999999
    vertex 1902.727578389548 192.536375362731 571.1619999999996
  endloop
endfacet
facet normal 4.9923953859830826e-14 -1.5148961883958467e-30 1.0
  outer loop
    vertex 1902.727578389548 192.536375362731 571.1619999999996
    vertex 1915.1295021781946 192.536375362731 571.161999999999
    vertex 1915.3678801120916 192.84703553451084 571.161999999999
  endloop
endfacet
facet normal 4.9923953859830826e-14 -1.5148961883958467e-30 1.0
  outer loop
    vertex 1902.727578389548 192.536375362731 571.1619999999996
    vertex 1915.3678801120916 192.84703553451084 571.161999999999
    vertex 1902.489200455651 192.84703553451084 571.1619999999996
  endloop
endfacet
facet normal 4.9923953859830826e-14 -1.5148961883958467e-30 1.0
  outer loop
    vertex 1902.489200455651 192.84703553451084 571.1619999999996
    vertex 1915.3678801120916 192.84703553451084 571.161999999999
    vertex 1915.6785402838711 193.08541346840767 571.161999999999
  endloop
endfacet
facet normal 4.9923953859830826e-14 -1.5148961883958467e-30 1.0
  outer loop
    vertex 1902.489200455651 192.84703553451084 571.1619999999996
    vertex 1915.6785402838711 193.08541346840767 571.161999999999
    vertex 1902.1785402838714 193.08541346840767 571.1619999999996
  endloop
endfacet
facet normal 4.9923953859830826e-14 -1.5148961883958467e-30 1.0
  outer loop
    vertex 1902.1785402838714 193.08541346840767 571.1619999999996
    vertex 1915.6785402838711 193.08541346840767 571.161999999999
    vertex 1916.0403117162175 193.2352641021646 571.1619999999989
  endloop
endfacet
facet normal 4.9923953859830826e-14 -1.5148961883958467e-30 1.0
  outer loop
    vertex 1902.1785402838714 193.08541346840767 571.1619999999996
    vertex 1916.0403117162175 193.2352641021646 571.1619999999989
    vertex 1901.816768851525 193.2352641021646 571.1619999999996
  endloop
endfacet
facet normal 4.9923953859830826e-14 -1.5148961883958467e-30 1.0
  outer loop
    vertex 1901.816768851525 193.2352641021646 571.1619999999996
    vertex 1916.0403117162175 193.2352641021646 571.1619999999989
    vertex 1916.4285402838714 193.286375362731 571.1619999999989
  endloop
endfacet
facet normal 4.9923953859830826e-14 -1.5148961883958467e-30 1.0
  outer loop
    vertex 1901.816768851525 193.2352641021646 571.1619999999996
    vertex 1916.4285402838714 193.286375362731 571.1619999999989
    vertex 1901.4285402838711 193.286375362731 571.1619999999997
  endloop
endfacet
facet normal 5.149771856393703e-44 1.0 1.5148961883958467e-30
  outer loop
    vertex 1898.9285402838714 194.28637536273098 571.1619999999997
    vertex 1918.9285402838707 194.28637536273098 563.1619999999986
    vertex 1898.928540283871 194.28637536273098 563.1619999999996
  endloop
endfacet
facet normal 5.149771856393703e-44 1.0 1.5148961883958467e-30
  outer loop
    vertex 1918.9285402838707 194.28637536273098 563.1619999999986
    vertex 1898.9285402838714 194.28637536273098 571.1619999999997
    vertex 1918.9285402838711 194.28637536273098 571.1619999999987
  endloop
endfacet
facet normal -1.0 -1.3638924006980519e-14 2.908891151777281e-14
  outer loop
    vertex 1918.9285402838707 205.28637536273078 573.1619999999987
    vertex 1918.9285402838707 200.6746039303847 569.6108887394321
    vertex 1918.9285402838711 189.28637536273098 573.1619999999987
  endloop
endfacet
facet normal -1.0 -1.3638924006980519e-14 2.908891151777281e-14
  outer loop
    vertex 1918.9285402838707 200.6746039303847 569.6108887394321
    vertex 1918.9285402838707 205.28637536273078 573.1619999999987
    vertex 1918.9285402838711 201.03637536273078 569.4610381056751
  endloop
endfacet
facet normal -1.0 -1.3638924006980519e-14 2.908891151777281e-14
  outer loop
    vertex 1918.9285402838711 201.03637536273078 569.4610381056751
    vertex 1918.9285402838707 205.28637536273078 573.1619999999987
    vertex 1918.9285402838711 201.34703553451064 569.2226601717783
  endloop
endfacet
facet normal -1.0 -1.3638924006980519e-14 2.908891151777281e-14
  outer loop
    vertex 1918.9285402838711 201.34703553451064 569.2226601717783
    vertex 1918.9285402838707 205.28637536273078 573.1619999999987
    vertex 1918.9285402838711 201.58541346840767 568.9119999999984
  endloop
endfacet
facet normal -1.0 -1.3638924006980519e-14 2.908891151777281e-14
  outer loop
    vertex 1918.9285402838711 201.58541346840767 568.9119999999984
    vertex 1918.9285402838707 205.28637536273078 573.1619999999987
    vertex 1918.9285402838707 205.28637536273078 563.1619999999986
  endloop
endfacet
facet normal -1.0 -1.3638924006980519e-14 2.908891151777281e-14
  outer loop
    vertex 1918.9285402838711 189.28637536273098 573.1619999999987
    vertex 1918.9285402838707 200.6746039303847 569.6108887394321
    vertex 1918.9285402838711 194.28637536273098 571.1619999999987
  endloop
endfacet
facet normal -1.0 -1.3638924006980519e-14 2.908891151777281e-14
  outer loop
    vertex 1918.9285402838711 194.28637536273098 571.1619999999987
    vertex 1918.9285402838707 200.6746039303847 569.6108887394321
    vertex 1918.9285402838711 200.286375362731 569.6619999999986
  endloop
endfacet
facet normal -1.0 -1.3638924006980519e-14 2.908891151777281e-14
  outer loop
    vertex 1918.9285402838711 201.58541346840767 568.9119999999984
    vertex 1918.9285402838707 205.28637536273078 563.1619999999986
    vertex 1918.9285402838711 201.7352641021645 568.5502285676524
  endloop
endfacet
facet normal -1.0 -1.3638924006980519e-14 2.908891151777281e-14
  outer loop
    vertex 1918.9285402838711 201.7352641021645 568.5502285676524
    vertex 1918.9285402838707 205.28637536273078 563.1619999999986
    vertex 1918.9285402838711 201.7863753627308 568.1619999999983
  endloop
endfacet
facet normal -1.0 -1.3638924006980519e-14 2.908891151777281e-14
  outer loop
    vertex 1918.9285402838711 201.7863753627308 568.1619999999983
    vertex 1918.9285402838707 205.28637536273078 563.1619999999986
    vertex 1918.9285402838711 201.73526410216448 567.7737714323447
  endloop
endfacet
facet normal -1.0 -1.3638924006980519e-14 2.908891151777281e-14
  outer loop
    vertex 1918.9285402838711 201.73526410216448 567.7737714323447
    vertex 1918.9285402838707 205.28637536273078 563.1619999999986
    vertex 1918.9285402838707 201.5854134684078 567.4119999999984
  endloop
endfacet
facet normal -1.0 -1.3638924006980519e-14 2.908891151777281e-14
  outer loop
    vertex 1918.9285402838707 201.5854134684078 567.4119999999984
    vertex 1918.9285402838707 205.28637536273078 563.1619999999986
    vertex 1918.9285402838707 201.34703553451058 567.1013398282187
  endloop
endfacet
facet normal -1.0 -1.3638924006980519e-14 2.908891151777281e-14
  outer loop
    vertex 1918.9285402838707 201.34703553451058 567.1013398282187
    vertex 1918.9285402838707 205.28637536273078 563.1619999999986
    vertex 1918.9285402838707 201.03637536273098 566.8629618943219
  endloop
endfacet
facet normal -1.0 -1.3638924006980519e-14 2.908891151777281e-14
  outer loop
    vertex 1918.9285402838707 201.03637536273098 566.8629618943219
    vertex 1918.9285402838707 205.28637536273078 563.1619999999986
    vertex 1918.9285402838711 200.6746039303846 566.7131112605648
  endloop
endfacet
facet normal -1.0 -1.3638924006980519e-14 2.908891151777281e-14
  outer loop
    vertex 1918.9285402838711 200.6746039303846 566.7131112605648
    vertex 1918.9285402838707 205.28637536273078 563.1619999999986
    vertex 1918.9285402838707 200.28637536273092 566.6619999999984
  endloop
endfacet
facet normal -1.0 -1.3638924006980519e-14 2.908891151777281e-14
  outer loop
    vertex 1918.9285402838711 194.28637536273098 571.1619999999987
    vertex 1918.9285402838711 199.2257151909512 569.2226601717783
    vertex 1918.9285402838707 194.28637536273098 563.1619999999986
  endloop
endfacet
facet normal -1.0 -1.3638924006980519e-14 2.908891151777281e-14
  outer loop
    vertex 1918.9285402838711 199.2257151909512 569.2226601717783
    vertex 1918.9285402838711 194.28637536273098 571.1619999999987
    vertex 1918.9285402838711 199.53637536273104 569.4610381056752
  endloop
endfacet
facet normal -1.0 -1.3638924006980519e-14 2.908891151777281e-14
  outer loop
    vertex 1918.9285402838711 199.53637536273104 569.4610381056752
    vertex 1918.9285402838711 194.28637536273098 571.1619999999987
    vertex 1918.9285402838711 199.89814679507705 569.6108887394321
  endloop
endfacet
facet normal -1.0 -1.3638924006980519e-14 2.908891151777281e-14
  outer loop
    vertex 1918.9285402838711 199.89814679507705 569.6108887394321
    vertex 1918.9285402838711 194.28637536273098 571.1619999999987
    vertex 1918.9285402838711 200.286375362731 569.6619999999986
  endloop
endfacet
facet normal -1.0 -1.3638924006980519e-14 2.908891151777281e-14
  outer loop
    vertex 1918.9285402838707 194.28637536273098 563.1619999999986
    vertex 1918.9285402838711 199.2257151909512 569.2226601717783
    vertex 1918.9285402838711 198.98733725705452 568.9119999999986
  endloop
endfacet
facet normal -1.0 -1.3638924006980519e-14 2.908891151777281e-14
  outer loop
    vertex 1918.9285402838707 194.28637536273098 563.1619999999986
    vertex 1918.9285402838711 198.98733725705452 568.9119999999986
    vertex 1918.9285402838711 198.83748662329725 568.5502285676523
  endloop
endfacet
facet normal -1.0 -1.3638924006980519e-14 2.908891151777281e-14
  outer loop
    vertex 1918.9285402838707 194.28637536273098 563.1619999999986
    vertex 1918.9285402838711 198.83748662329725 568.5502285676523
    vertex 1918.9285402838711 198.7863753627308 568.1619999999984
  endloop
endfacet
facet normal -1.0 -1.3638924006980519e-14 2.908891151777281e-14
  outer loop
    vertex 1918.9285402838707 194.28637536273098 563.1619999999986
    vertex 1918.9285402838711 198.7863753627308 568.1619999999984
    vertex 1918.9285402838711 198.8374866232973 567.7737714323449
  endloop
endfacet
facet normal -1.0 -1.3638924006980519e-14 2.908891151777281e-14
  outer loop
    vertex 1918.9285402838707 194.28637536273098 563.1619999999986
    vertex 1918.9285402838711 198.8374866232973 567.7737714323449
    vertex 1918.9285402838707 198.98733725705424 567.4119999999986
  endloop
endfacet
facet normal -1.0 -1.3638924006980519e-14 2.908891151777281e-14
  outer loop
    vertex 1918.9285402838707 194.28637536273098 563.1619999999986
    vertex 1918.9285402838707 198.98733725705424 567.4119999999986
    vertex 1918.9285402838707 199.22571519095092 567.1013398282188
  endloop
endfacet
facet normal -1.0 -1.3638924006980519e-14 2.908891151777281e-14
  outer loop
    vertex 1918.9285402838707 194.28637536273098 563.1619999999986
    vertex 1918.9285402838707 199.22571519095092 567.1013398282188
    vertex 1918.9285402838711 199.53637536273064 566.8629618943219
  endloop
endfacet
facet normal -1.0 -1.3638924006980519e-14 2.908891151777281e-14
  outer loop
    vertex 1918.9285402838707 194.28637536273098 563.1619999999986
    vertex 1918.9285402838711 199.53637536273064 566.8629618943219
    vertex 1918.9285402838707 199.89814679507703 566.713111260565
  endloop
endfacet
facet normal -1.0 -1.3638924006980519e-14 2.908891151777281e-14
  outer loop
    vertex 1918.9285402838707 194.28637536273098 563.1619999999986
    vertex 1918.9285402838707 199.89814679507703 566.713111260565
    vertex 1918.9285402838707 200.28637536273092 566.6619999999984
  endloop
endfacet
facet normal -1.0 -1.3638924006980519e-14 2.908891151777281e-14
  outer loop
    vertex 1918.9285402838707 194.28637536273098 563.1619999999986
    vertex 1918.9285402838707 200.28637536273092 566.6619999999984
    vertex 1918.9285402838707 205.28637536273078 563.1619999999986
  endloop
endfacet
facet normal -1.0 -1.3638924006980519e-14 2.908891151777281e-14
  outer loop
    vertex 1918.9285402838711 189.28637536273098 571.1619999999987
    vertex 1918.9285402838711 189.28637536273098 573.1619999999987
    vertex 1918.9285402838711 194.28637536273098 571.1619999999987
  endloop
endfacet
facet normal -2.962019518548658e-14 1.5148961883958775e-30 -1.0
  outer loop
    vertex 1898.928540283871 189.28637536273098 563.1619999999996
    vertex 1901.4285402838707 190.28637536273098 563.1619999999996
    vertex 1921.9285402838707 189.28637536273104 563.1619999999984
  endloop
endfacet
facet normal -2.962019518548658e-14 1.5148961883958775e-30 -1.0
  outer loop
    vertex 1901.4285402838707 190.28637536273098 563.1619999999996
    vertex 1898.928540283871 189.28637536273098 563.1619999999996
    vertex 1901.0403117162168 190.3374866232974 563.1619999999996
  endloop
endfacet
facet normal -2.962019518548658e-14 1.5148961883958775e-30 -1.0
  outer loop
    vertex 1901.0403117162168 190.3374866232974 563.1619999999996
    vertex 1898.928540283871 189.28637536273098 563.1619999999996
    vertex 1900.6785402838705 190.48733725705432 563.1619999999996
  endloop
endfacet
facet normal -2.962019518548658e-14 1.5148961883958775e-30 -1.0
  outer loop
    vertex 1900.6785402838705 190.48733725705432 563.1619999999996
    vertex 1898.928540283871 189.28637536273098 563.1619999999996
    vertex 1900.367880112091 190.72571519095115 563.1619999999996
  endloop
endfacet
facet normal -2.962019518548658e-14 1.5148961883958775e-30 -1.0
  outer loop
    vertex 1900.367880112091 190.72571519095115 563.1619999999996
    vertex 1898.928540283871 189.28637536273098 563.1619999999996
    vertex 1900.129502178194 191.03637536273098 563.1619999999996
  endloop
endfacet
facet normal -2.962019518548658e-14 1.5148961883958775e-30 -1.0
  outer loop
    vertex 1900.129502178194 191.03637536273098 563.1619999999996
    vertex 1898.928540283871 189.28637536273098 563.1619999999996
    vertex 1899.979651544437 191.3981467950772 563.1619999999996
  endloop
endfacet
facet normal -2.962019518548658e-14 1.5148961883958775e-30 -1.0
  outer loop
    vertex 1899.979651544437 191.3981467950772 563.1619999999996
    vertex 1898.928540283871 189.28637536273098 563.1619999999996
    vertex 1898.928540283871 194.28637536273098 563.1619999999996
  endloop
endfacet
facet normal -2.962019518548658e-14 1.5148961883958775e-30 -1.0
  outer loop
    vertex 1899.979651544437 191.3981467950772 563.1619999999996
    vertex 1898.928540283871 194.28637536273098 563.1619999999996
    vertex 1899.9285402838707 191.786375362731 563.1619999999996
  endloop
endfacet
facet normal -2.962019518548658e-14 1.5148961883958775e-30 -1.0
  outer loop
    vertex 1899.9285402838707 191.786375362731 563.1619999999996
    vertex 1898.928540283871 194.28637536273098 563.1619999999996
    vertex 1899.979651544437 192.1746039303848 563.1619999999996
  endloop
endfacet
facet normal -2.962019518548658e-14 1.5148961883958775e-30 -1.0
  outer loop
    vertex 1899.979651544437 192.1746039303848 563.1619999999996
    vertex 1898.928540283871 194.28637536273098 563.1619999999996
    vertex 1900.129502178194 192.536375362731 563.1619999999996
  endloop
endfacet
facet normal -2.962019518548658e-14 1.5148961883958775e-30 -1.0
  outer loop
    vertex 1900.129502178194 192.536375362731 563.1619999999996
    vertex 1898.928540283871 194.28637536273098 563.1619999999996
    vertex 1900.367880112091 192.84703553451084 563.1619999999996
  endloop
endfacet
facet normal -2.962019518548658e-14 1.5148961883958775e-30 -1.0
  outer loop
    vertex 1900.367880112091 192.84703553451084 563.1619999999996
    vertex 1898.928540283871 194.28637536273098 563.1619999999996
    vertex 1900.6785402838705 193.08541346840767 563.1619999999996
  endloop
endfacet
facet normal -2.962019518548658e-14 1.5148961883958775e-30 -1.0
  outer loop
    vertex 1900.6785402838705 193.08541346840767 563.1619999999996
    vertex 1898.928540283871 194.28637536273098 563.1619999999996
    vertex 1901.0403117162168 193.2352641021646 563.1619999999996
  endloop
endfacet
facet normal -2.962019518548658e-14 1.5148961883958775e-30 -1.0
  outer loop
    vertex 1901.0403117162168 193.2352641021646 563.1619999999996
    vertex 1898.928540283871 194.28637536273098 563.1619999999996
    vertex 1901.4285402838707 193.286375362731 563.1619999999996
  endloop
endfacet
facet normal -2.962019518548658e-14 1.5148961883958775e-30 -1.0
  outer loop
    vertex 1901.4285402838707 193.286375362731 563.1619999999996
    vertex 1898.928540283871 194.28637536273098 563.1619999999996
    vertex 1916.428540283871 193.28637536273106 563.1619999999987
  endloop
endfacet
facet normal -2.962019518548658e-14 1.5148961883958775e-30 -1.0
  outer loop
    vertex 1921.9285402838707 189.28637536273104 563.1619999999984
    vertex 1918.9285402838707 194.28637536273098 563.1619999999986
    vertex 1921.9285402838707 205.2863753627308 563.1619999999984
  endloop
endfacet
facet normal -2.962019518548658e-14 1.5148961883958775e-30 -1.0
  outer loop
    vertex 1918.9285402838707 194.28637536273098 563.1619999999986
    vertex 1921.9285402838707 189.28637536273104 563.1619999999984
    vertex 1917.8774290233043 191.39814679507725 563.1619999999987
  endloop
endfacet
facet normal -2.962019518548658e-14 1.5148961883958775e-30 -1.0
  outer loop
    vertex 1917.8774290233043 191.39814679507725 563.1619999999987
    vertex 1921.9285402838707 189.28637536273104 563.1619999999984
    vertex 1917.7275783895473 191.03637536273104 563.1619999999987
  endloop
endfacet
facet normal -2.962019518548658e-14 1.5148961883958775e-30 -1.0
  outer loop
    vertex 1917.7275783895473 191.03637536273104 563.1619999999987
    vertex 1921.9285402838707 189.28637536273104 563.1619999999984
    vertex 1917.4892004556507 190.7257151909512 563.1619999999987
  endloop
endfacet
facet normal -2.962019518548658e-14 1.5148961883958775e-30 -1.0
  outer loop
    vertex 1917.4892004556507 190.7257151909512 563.1619999999987
    vertex 1921.9285402838707 189.28637536273104 563.1619999999984
    vertex 1917.1785402838707 190.48733725705438 563.1619999999987
  endloop
endfacet
facet normal -2.962019518548658e-14 1.5148961883958775e-30 -1.0
  outer loop
    vertex 1917.1785402838707 190.48733725705438 563.1619999999987
    vertex 1921.9285402838707 189.28637536273104 563.1619999999984
    vertex 1916.8167688515246 190.33748662329745 563.1619999999987
  endloop
endfacet
facet normal -2.962019518548658e-14 1.5148961883958775e-30 -1.0
  outer loop
    vertex 1916.8167688515246 190.33748662329745 563.1619999999987
    vertex 1921.9285402838707 189.28637536273104 563.1619999999984
    vertex 1916.428540283871 190.28637536273104 563.1619999999987
  endloop
endfacet
facet normal -2.962019518548658e-14 1.5148961883958775e-30 -1.0
  outer loop
    vertex 1916.428540283871 190.28637536273104 563.1619999999987
    vertex 1921.9285402838707 189.28637536273104 563.1619999999984
    vertex 1901.4285402838707 190.28637536273098 563.1619999999996
  endloop
endfacet
facet normal -2.962019518548658e-14 1.5148961883958775e-30 -1.0
  outer loop
    vertex 1918.9285402838707 194.28637536273098 563.1619999999986
    vertex 1917.8774290233043 191.39814679507725 563.1619999999987
    vertex 1917.928540283871 191.78637536273104 563.1619999999987
  endloop
endfacet
facet normal -2.962019518548658e-14 1.5148961883958775e-30 -1.0
  outer loop
    vertex 1918.9285402838707 194.28637536273098 563.1619999999986
    vertex 1917.928540283871 191.78637536273104 563.1619999999987
    vertex 1917.8774290233043 192.17460393038485 563.1619999999987
  endloop
endfacet
facet normal -2.962019518548658e-14 1.5148961883958775e-30 -1.0
  outer loop
    vertex 1918.9285402838707 194.28637536273098 563.1619999999986
    vertex 1917.8774290233043 192.17460393038485 563.1619999999987
    vertex 1917.7275783895473 192.53637536273106 563.1619999999987
  endloop
endfacet
facet normal -2.962019518548658e-14 1.5148961883958775e-30 -1.0
  outer loop
    vertex 1918.9285402838707 194.28637536273098 563.1619999999986
    vertex 1917.7275783895473 192.53637536273106 563.1619999999987
    vertex 1917.4892004556507 192.8470355345109 563.1619999999987
  endloop
endfacet
facet normal -2.962019518548658e-14 1.5148961883958775e-30 -1.0
  outer loop
    vertex 1918.9285402838707 194.28637536273098 563.1619999999986
    vertex 1917.4892004556507 192.8470355345109 563.1619999999987
    vertex 1917.1785402838707 193.08541346840772 563.1619999999987
  endloop
endfacet
facet normal -2.962019518548658e-14 1.5148961883958775e-30 -1.0
  outer loop
    vertex 1918.9285402838707 194.28637536273098 563.1619999999986
    vertex 1917.1785402838707 193.08541346840772 563.1619999999987
    vertex 1916.8167688515246 193.23526410216465 563.1619999999987
  endloop
endfacet
facet normal -2.962019518548658e-14 1.5148961883958775e-30 -1.0
  outer loop
    vertex 1918.9285402838707 194.28637536273098 563.1619999999986
    vertex 1916.8167688515246 193.23526410216465 563.1619999999987
    vertex 1916.428540283871 193.28637536273106 563.1619999999987
  endloop
endfacet
facet normal -2.962019518548658e-14 1.5148961883958775e-30 -1.0
  outer loop
    vertex 1918.9285402838707 194.28637536273098 563.1619999999986
    vertex 1916.428540283871 193.28637536273106 563.1619999999987
    vertex 1898.928540283871 194.28637536273098 563.1619999999996
  endloop
endfacet
facet normal -2.962019518548658e-14 1.5148961883958775e-30 -1.0
  outer loop
    vertex 1921.9285402838707 205.2863753627308 563.1619999999984
    vertex 1918.9285402838707 194.28637536273098 563.1619999999986
    vertex 1918.9285402838707 205.28637536273078 563.1619999999986
  endloop
endfacet
facet normal -2.962019518548658e-14 1.5148961883958775e-30 -1.0
  outer loop
    vertex 1901.8167688515243 190.3374866232974 563.1619999999995
    vertex 1916.428540283871 190.28637536273104 563.1619999999987
    vertex 1901.4285402838707 190.28637536273098 563.1619999999996
  endloop
endfacet
facet normal -2.962019518548658e-14 1.5148961883958775e-30 -1.0
  outer loop
    vertex 1916.428540283871 190.28637536273104 563.1619999999987
    vertex 1901.8167688515243 190.3374866232974 563.1619999999995
    vertex 1916.040311716217 190.33748662329745 563.1619999999987
  endloop
endfacet
facet normal -2.962019518548658e-14 1.5148961883958775e-30 -1.0
  outer loop
    vertex 1916.040311716217 190.33748662329745 563.1619999999987
    vertex 1901.8167688515243 190.3374866232974 563.1619999999995
    vertex 1902.1785402838707 190.48733725705432 563.1619999999995
  endloop
endfacet
facet normal -2.962019518548658e-14 1.5148961883958775e-30 -1.0
  outer loop
    vertex 1916.040311716217 190.33748662329745 563.1619999999987
    vertex 1902.1785402838707 190.48733725705432 563.1619999999995
    vertex 1915.6785402838707 190.48733725705438 563.1619999999988
  endloop
endfacet
facet normal -2.962019518548658e-14 1.5148961883958775e-30 -1.0
  outer loop
    vertex 1915.6785402838707 190.48733725705438 563.1619999999988
    vertex 1902.1785402838707 190.48733725705432 563.1619999999995
    vertex 1902.4892004556505 190.72571519095115 563.1619999999995
  endloop
endfacet
facet normal -2.962019518548658e-14 1.5148961883958775e-30 -1.0
  outer loop
    vertex 1915.6785402838707 190.48733725705438 563.1619999999988
    vertex 1902.4892004556505 190.72571519095115 563.1619999999995
    vertex 1915.3678801120911 190.7257151909512 563.1619999999988
  endloop
endfacet
facet normal -2.962019518548658e-14 1.5148961883958775e-30 -1.0
  outer loop
    vertex 1915.3678801120911 190.7257151909512 563.1619999999988
    vertex 1902.4892004556505 190.72571519095115 563.1619999999995
    vertex 1902.7275783895473 191.03637536273098 563.1619999999994
  endloop
endfacet
facet normal -2.962019518548658e-14 1.5148961883958775e-30 -1.0
  outer loop
    vertex 1915.3678801120911 190.7257151909512 563.1619999999988
    vertex 1902.7275783895473 191.03637536273098 563.1619999999994
    vertex 1915.1295021781941 191.03637536273104 563.1619999999988
  endloop
endfacet
facet normal -2.962019518548658e-14 1.5148961883958775e-30 -1.0
  outer loop
    vertex 1915.1295021781941 191.03637536273104 563.1619999999988
    vertex 1902.7275783895473 191.03637536273098 563.1619999999994
    vertex 1902.877429023304 191.3981467950772 563.1619999999994
  endloop
endfacet
facet normal -2.962019518548658e-14 1.5148961883958775e-30 -1.0
  outer loop
    vertex 1915.1295021781941 191.03637536273104 563.1619999999988
    vertex 1902.877429023304 191.3981467950772 563.1619999999994
    vertex 1914.9796515444373 191.39814679507725 563.1619999999988
  endloop
endfacet
facet normal -2.962019518548658e-14 1.5148961883958775e-30 -1.0
  outer loop
    vertex 1914.9796515444373 191.39814679507725 563.1619999999988
    vertex 1902.877429023304 191.3981467950772 563.1619999999994
    vertex 1902.9285402838707 191.786375362731 563.1619999999994
  endloop
endfacet
facet normal -2.962019518548658e-14 1.5148961883958775e-30 -1.0
  outer loop
    vertex 1914.9796515444373 191.39814679507725 563.1619999999988
    vertex 1902.9285402838707 191.786375362731 563.1619999999994
    vertex 1914.928540283871 191.78637536273104 563.1619999999988
  endloop
endfacet
facet normal -2.962019518548658e-14 1.5148961883958775e-30 -1.0
  outer loop
    vertex 1914.928540283871 191.78637536273104 563.1619999999988
    vertex 1902.9285402838707 191.786375362731 563.1619999999994
    vertex 1902.877429023304 192.1746039303848 563.1619999999994
  endloop
endfacet
facet normal -2.962019518548658e-14 1.5148961883958775e-30 -1.0
  outer loop
    vertex 1914.928540283871 191.78637536273104 563.1619999999988
    vertex 1902.877429023304 192.1746039303848 563.1619999999994
    vertex 1914.9796515444373 192.17460393038485 563.1619999999988
  endloop
endfacet
facet normal -2.962019518548658e-14 1.5148961883958775e-30 -1.0
  outer loop
    vertex 1914.9796515444373 192.17460393038485 563.1619999999988
    vertex 1902.877429023304 192.1746039303848 563.1619999999994
    vertex 1902.7275783895473 192.536375362731 563.1619999999994
  endloop
endfacet
facet normal -2.962019518548658e-14 1.5148961883958775e-30 -1.0
  outer loop
    vertex 1914.9796515444373 192.17460393038485 563.1619999999988
    vertex 1902.7275783895473 192.536375362731 563.1619999999994
    vertex 1915.1295021781941 192.53637536273106 563.1619999999988
  endloop
endfacet
facet normal -2.962019518548658e-14 1.5148961883958775e-30 -1.0
  outer loop
    vertex 1915.1295021781941 192.53637536273106 563.1619999999988
    vertex 1902.7275783895473 192.536375362731 563.1619999999994
    vertex 1902.4892004556505 192.84703553451084 563.1619999999995
  endloop
endfacet
facet normal -2.962019518548658e-14 1.5148961883958775e-30 -1.0
  outer loop
    vertex 1915.1295021781941 192.53637536273106 563.1619999999988
    vertex 1902.4892004556505 192.84703553451084 563.1619999999995
    vertex 1915.3678801120911 192.8470355345109 563.1619999999988
  endloop
endfacet
facet normal -2.962019518548658e-14 1.5148961883958775e-30 -1.0
  outer loop
    vertex 1915.3678801120911 192.8470355345109 563.1619999999988
    vertex 1902.4892004556505 192.84703553451084 563.1619999999995
    vertex 1902.1785402838707 193.08541346840767 563.1619999999995
  endloop
endfacet
facet normal -2.962019518548658e-14 1.5148961883958775e-30 -1.0
  outer loop
    vertex 1915.3678801120911 192.8470355345109 563.1619999999988
    vertex 1902.1785402838707 193.08541346840767 563.1619999999995
    vertex 1915.6785402838707 193.08541346840772 563.1619999999988
  endloop
endfacet
facet normal -2.962019518548658e-14 1.5148961883958775e-30 -1.0
  outer loop
    vertex 1915.6785402838707 193.08541346840772 563.1619999999988
    vertex 1902.1785402838707 193.08541346840767 563.1619999999995
    vertex 1901.8167688515243 193.2352641021646 563.1619999999995
  endloop
endfacet
facet normal -2.962019518548658e-14 1.5148961883958775e-30 -1.0
  outer loop
    vertex 1915.6785402838707 193.08541346840772 563.1619999999988
    vertex 1901.8167688515243 193.2352641021646 563.1619999999995
    vertex 1916.040311716217 193.23526410216465 563.1619999999987
  endloop
endfacet
facet normal -2.962019518548658e-14 1.5148961883958775e-30 -1.0
  outer loop
    vertex 1916.040311716217 193.23526410216465 563.1619999999987
    vertex 1901.8167688515243 193.2352641021646 563.1619999999995
    vertex 1901.4285402838707 193.286375362731 563.1619999999996
  endloop
endfacet
facet normal -2.962019518548658e-14 1.5148961883958775e-30 -1.0
  outer loop
    vertex 1916.040311716217 193.23526410216465 563.1619999999987
    vertex 1901.4285402838707 193.286375362731 563.1619999999996
    vertex 1916.428540283871 193.28637536273106 563.1619999999987
  endloop
endfacet
facet normal -8.459899447643805e-15 1.0 1.3758693121440906e-28
  outer loop
    vertex 1921.9285402838707 205.2863753627308 573.1619999999987
    vertex 1918.9285402838707 205.28637536273078 563.1619999999986
    vertex 1918.9285402838707 205.28637536273078 573.1619999999987
  endloop
endfacet
facet normal -8.459899447643805e-15 1.0 1.3758693121440906e-28
  outer loop
    vertex 1918.9285402838707 205.28637536273078 563.1619999999986
    vertex 1921.9285402838707 205.2863753627308 573.1619999999987
    vertex 1921.9285402838707 205.2863753627308 563.1619999999984
  endloop
endfacet
facet normal 2.962019518548658e-14 2.275087795371769e-28 1.0
  outer loop
    vertex 1921.9285402838711 189.28637536273104 573.1619999999987
    vertex 1918.9285402838707 205.28637536273078 573.1619999999987
    vertex 1918.9285402838711 189.28637536273098 573.1619999999987
  endloop
endfacet
facet normal 2.962019518548658e-14 2.275087795371769e-28 1.0
  outer loop
    vertex 1918.9285402838707 205.28637536273078 573.1619999999987
    vertex 1921.9285402838711 189.28637536273104 573.1619999999987
    vertex 1921.9285402838707 205.2863753627308 573.1619999999987
  endloop
endfacet
facet normal 8.459899447643805e-15 -1.0 -3.6661060693998186e-28
  outer loop
    vertex 1921.9285402838707 189.28637536273104 563.1619999999984
    vertex 1898.9285402838714 189.28637536273098 571.1619999999997
    vertex 1898.928540283871 189.28637536273098 563.1619999999996
  endloop
endfacet
facet normal 8.459899447643805e-15 -1.0 -3.6661060693998186e-28
  outer loop
    vertex 1898.9285402838714 189.28637536273098 571.1619999999997
    vertex 1921.9285402838707 189.28637536273104 563.1619999999984
    vertex 1918.9285402838711 189.28637536273098 571.1619999999987
  endloop
endfacet
facet normal 8.459899447643805e-15 -1.0 -3.6661060693998186e-28
  outer loop
    vertex 1918.9285402838711 189.28637536273098 571.1619999999987
    vertex 1921.9285402838707 189.28637536273104 563.1619999999984
    vertex 1918.9285402838711 189.28637536273098 573.1619999999987
  endloop
endfacet
facet normal 8.459899447643805e-15 -1.0 -3.6661060693998186e-28
  outer loop
    vertex 1918.9285402838711 189.28637536273098 573.1619999999987
    vertex 1921.9285402838707 189.28637536273104 563.1619999999984
    vertex 1921.9285402838711 189.28637536273104 573.1619999999987
  endloop
endfacet
facet normal -3.047102877100593e-14 0.13052619222016323 -0.9914448613737958
  outer loop
    vertex 1918.9285402838711 200.286375362731 569.6619999999986
    vertex 1921.9285402838711 199.8981467950771 569.610888739432
    vertex 1918.9285402838711 199.89814679507705 569.6108887394321
  endloop
endfacet
facet normal -3.047102877100593e-14 0.13052619222016323 -0.9914448613737958
  outer loop
    vertex 1921.9285402838711 199.8981467950771 569.610888739432
    vertex 1918.9285402838711 200.286375362731 569.6619999999986
    vertex 1921.9285402838711 200.28637536273104 569.6619999999986
  endloop
endfacet
facet normal -2.8262551848072182e-14 -0.13052619222023779 -0.991444861373786
  outer loop
    vertex 1918.9285402838707 200.6746039303847 569.6108887394321
    vertex 1921.9285402838711 200.28637536273104 569.6619999999986
    vertex 1918.9285402838711 200.286375362731 569.6619999999986
  endloop
endfacet
facet normal -2.8262551848072182e-14 -0.13052619222023779 -0.991444861373786
  outer loop
    vertex 1921.9285402838711 200.28637536273104 569.6619999999986
    vertex 1918.9285402838707 200.6746039303847 569.6108887394321
    vertex 1921.9285402838707 200.67460393038476 569.610888739432
  endloop
endfacet
facet normal -2.412802872276642e-14 -0.38268343236538527 -0.9238795325111643
  outer loop
    vertex 1918.9285402838711 201.03637536273078 569.4610381056751
    vertex 1921.9285402838707 200.67460393038476 569.610888739432
    vertex 1918.9285402838707 200.6746039303847 569.6108887394321
  endloop
endfacet
facet normal -2.412802872276642e-14 -0.38268343236538527 -0.9238795325111643
  outer loop
    vertex 1921.9285402838707 200.67460393038476 569.610888739432
    vertex 1918.9285402838711 201.03637536273078 569.4610381056751
    vertex 1921.9285402838711 201.03637536273084 569.461038105675
  endloop
endfacet
facet normal -1.8349220313474303e-14 -0.6087614290084676 -0.7933533402914295
  outer loop
    vertex 1918.9285402838711 201.34703553451064 569.2226601717783
    vertex 1921.9285402838711 201.03637536273084 569.461038105675
    vertex 1918.9285402838711 201.03637536273078 569.4610381056751
  endloop
endfacet
facet normal -1.8349220313474303e-14 -0.6087614290084676 -0.7933533402914295
  outer loop
    vertex 1921.9285402838711 201.03637536273084 569.461038105675
    vertex 1918.9285402838711 201.34703553451064 569.2226601717783
    vertex 1921.9285402838711 201.34703553451067 569.2226601717783
  endloop
endfacet
facet normal -1.1319942863323634e-14 -0.7933533402911123 -0.6087614290088809
  outer loop
    vertex 1918.9285402838711 201.58541346840767 568.9119999999984
    vertex 1921.9285402838711 201.34703553451067 569.2226601717783
    vertex 1918.9285402838711 201.34703553451064 569.2226601717783
  endloop
endfacet
facet normal -1.1319942863323634e-14 -0.7933533402911123 -0.6087614290088809
  outer loop
    vertex 1921.9285402838711 201.34703553451067 569.2226601717783
    vertex 1918.9285402838711 201.58541346840767 568.9119999999984
    vertex 1921.9285402838711 201.58541346840772 568.9119999999983
  endloop
endfacet
facet normal -3.5192300141250647e-15 -0.9238795325112766 -0.3826834323651141
  outer loop
    vertex 1921.9285402838711 201.73526410216456 568.5502285676524
    vertex 1918.9285402838711 201.58541346840767 568.9119999999984
    vertex 1918.9285402838711 201.7352641021645 568.5502285676524
  endloop
endfacet
facet normal -3.5192300141250647e-15 -0.9238795325112766 -0.3826834323651141
  outer loop
    vertex 1918.9285402838711 201.58541346840767 568.9119999999984
    vertex 1921.9285402838711 201.73526410216456 568.5502285676524
    vertex 1921.9285402838711 201.58541346840772 568.9119999999983
  endloop
endfacet
facet normal 4.521312544742104e-15 -0.9914448613738652 -0.13052619221963563
  outer loop
    vertex 1921.9285402838711 201.78637536273084 568.1619999999982
    vertex 1918.9285402838711 201.7352641021645 568.5502285676524
    vertex 1918.9285402838711 201.7863753627308 568.1619999999983
  endloop
endfacet
facet normal 4.521312544742104e-15 -0.9914448613738652 -0.13052619221963563
  outer loop
    vertex 1918.9285402838711 201.7352641021645 568.5502285676524
    vertex 1921.9285402838711 201.78637536273084 568.1619999999982
    vertex 1921.9285402838711 201.73526410216456 568.5502285676524
  endloop
endfacet
facet normal 1.225373512547833e-14 -0.9914448613738268 0.13052619221992784
  outer loop
    vertex 1921.9285402838711 201.7352641021645 567.7737714323446
    vertex 1918.9285402838711 201.7863753627308 568.1619999999983
    vertex 1918.9285402838711 201.73526410216448 567.7737714323447
  endloop
endfacet
facet normal 1.225373512547833e-14 -0.9914448613738268 0.13052619221992784
  outer loop
    vertex 1918.9285402838711 201.7863753627308 568.1619999999983
    vertex 1921.9285402838711 201.7352641021645 567.7737714323446
    vertex 1921.9285402838711 201.78637536273084 568.1619999999982
  endloop
endfacet
facet normal 1.9151085907670476e-14 -0.9238795325115577 0.3826834323644356
  outer loop
    vertex 1921.9285402838707 201.58541346840786 567.4119999999984
    vertex 1918.9285402838711 201.73526410216448 567.7737714323447
    vertex 1918.9285402838707 201.5854134684078 567.4119999999984
  endloop
endfacet
facet normal 1.9151085907670476e-14 -0.9238795325115577 0.3826834323644356
  outer loop
    vertex 1918.9285402838711 201.73526410216448 567.7737714323447
    vertex 1921.9285402838707 201.58541346840786 567.4119999999984
    vertex 1921.9285402838711 201.7352641021645 567.7737714323446
  endloop
endfacet
facet normal 2.474332183396708e-14 -0.7933533402906762 0.6087614290094492
  outer loop
    vertex 1921.9285402838707 201.34703553451064 567.1013398282186
    vertex 1918.9285402838707 201.5854134684078 567.4119999999984
    vertex 1918.9285402838707 201.34703553451058 567.1013398282187
  endloop
endfacet
facet normal 2.474332183396708e-14 -0.7933533402906762 0.6087614290094492
  outer loop
    vertex 1918.9285402838707 201.5854134684078 567.4119999999984
    vertex 1921.9285402838707 201.34703553451064 567.1013398282186
    vertex 1921.9285402838707 201.58541346840786 567.4119999999984
  endloop
endfacet
facet normal 2.864934126749737e-14 -0.608761429009036 0.7933533402909932
  outer loop
    vertex 1921.9285402838707 201.036375362731 566.8629618943218
    vertex 1918.9285402838707 201.34703553451058 567.1013398282187
    vertex 1918.9285402838707 201.03637536273098 566.8629618943219
  endloop
endfacet
facet normal 2.864934126749737e-14 -0.608761429009036 0.7933533402909932
  outer loop
    vertex 1918.9285402838707 201.34703553451058 567.1013398282187
    vertex 1921.9285402838707 201.036375362731 566.8629618943218
    vertex 1921.9285402838707 201.34703553451064 567.1013398282186
  endloop
endfacet
facet normal 3.060295543894822e-14 -0.38268343236510016 0.9238795325112824
  outer loop
    vertex 1921.9285402838711 200.67460393038462 566.7131112605647
    vertex 1918.9285402838707 201.03637536273098 566.8629618943219
    vertex 1918.9285402838711 200.6746039303846 566.7131112605648
  endloop
endfacet
facet normal 3.060295543894822e-14 -0.38268343236510016 0.9238795325112824
  outer loop
    vertex 1918.9285402838707 201.03637536273098 566.8629618943219
    vertex 1921.9285402838711 200.67460393038462 566.7131112605647
    vertex 1921.9285402838707 201.036375362731 566.8629618943218
  endloop
endfacet
facet normal 3.0471028771004786e-14 -0.13052619221991293 0.9914448613738288
  outer loop
    vertex 1921.9285402838707 200.28637536273095 566.6619999999983
    vertex 1918.9285402838711 200.6746039303846 566.7131112605648
    vertex 1918.9285402838707 200.28637536273092 566.6619999999984
  endloop
endfacet
facet normal 3.0471028771004786e-14 -0.13052619221991293 0.9914448613738288
  outer loop
    vertex 1918.9285402838711 200.6746039303846 566.7131112605648
    vertex 1921.9285402838707 200.28637536273095 566.6619999999983
    vertex 1921.9285402838711 200.67460393038462 566.7131112605647
  endloop
endfacet
facet normal 2.8262551848072917e-14 0.13052619222017814 0.9914448613737937
  outer loop
    vertex 1921.9285402838707 199.89814679507705 566.7131112605649
    vertex 1918.9285402838707 200.28637536273092 566.6619999999984
    vertex 1918.9285402838707 199.89814679507703 566.713111260565
  endloop
endfacet
facet normal 2.8262551848072917e-14 0.13052619222017814 0.9914448613737937
  outer loop
    vertex 1918.9285402838707 200.28637536273092 566.6619999999984
    vertex 1921.9285402838707 199.89814679507705 566.7131112605649
    vertex 1921.9285402838707 200.28637536273095 566.6619999999983
  endloop
endfacet
facet normal 2.4128028722778452e-14 0.3826834323648051 0.9238795325114046
  outer loop
    vertex 1921.9285402838711 199.53637536273067 566.8629618943218
    vertex 1918.9285402838707 199.89814679507703 566.713111260565
    vertex 1918.9285402838711 199.53637536273064 566.8629618943219
  endloop
endfacet
facet normal 2.4128028722778452e-14 0.3826834323648051 0.9238795325114046
  outer loop
    vertex 1918.9285402838707 199.89814679507703 566.713111260565
    vertex 1921.9285402838711 199.53637536273067 566.8629618943218
    vertex 1921.9285402838707 199.89814679507705 566.7131112605649
  endloop
endfacet
facet normal 1.8349220313455525e-14 0.6087614290090697 0.7933533402909673
  outer loop
    vertex 1921.9285402838707 199.22571519095098 567.1013398282187
    vertex 1918.9285402838711 199.53637536273064 566.8629618943219
    vertex 1918.9285402838707 199.22571519095092 567.1013398282188
  endloop
endfacet
facet normal 1.8349220313455525e-14 0.6087614290090697 0.7933533402909673
  outer loop
    vertex 1918.9285402838711 199.53637536273064 566.8629618943219
    vertex 1921.9285402838707 199.22571519095098 567.1013398282187
    vertex 1921.9285402838711 199.53637536273067 566.8629618943218
  endloop
endfacet
facet normal 1.1319942863312732e-14 0.793353340291344 0.608761429008579
  outer loop
    vertex 1921.9285402838707 198.9873372570543 567.4119999999984
    vertex 1918.9285402838707 199.22571519095092 567.1013398282188
    vertex 1918.9285402838707 198.98733725705424 567.4119999999986
  endloop
endfacet
facet normal 1.1319942863312732e-14 0.793353340291344 0.608761429008579
  outer loop
    vertex 1918.9285402838707 199.22571519095092 567.1013398282188
    vertex 1921.9285402838707 198.9873372570543 567.4119999999984
    vertex 1921.9285402838707 199.22571519095098 567.1013398282187
  endloop
endfacet
facet normal 3.5192300141180876e-15 0.923879532511364 0.3826834323649035
  outer loop
    vertex 1918.9285402838711 198.8374866232973 567.7737714323449
    vertex 1921.9285402838707 198.9873372570543 567.4119999999984
    vertex 1918.9285402838707 198.98733725705424 567.4119999999986
  endloop
endfacet
facet normal 3.5192300141180876e-15 0.923879532511364 0.3826834323649035
  outer loop
    vertex 1921.9285402838707 198.9873372570543 567.4119999999984
    vertex 1918.9285402838711 198.8374866232973 567.7737714323449
    vertex 1921.9285402838711 198.83748662329737 567.7737714323449
  endloop
endfacet
facet normal -4.521312544718743e-15 0.9914448613737652 0.1305261922203958
  outer loop
    vertex 1921.9285402838711 198.78637536273084 568.1619999999984
    vertex 1918.9285402838711 198.8374866232973 567.7737714323449
    vertex 1918.9285402838711 198.7863753627308 568.1619999999984
  endloop
endfacet
facet normal -4.521312544718743e-15 0.9914448613737652 0.1305261922203958
  outer loop
    vertex 1918.9285402838711 198.8374866232973 567.7737714323449
    vertex 1921.9285402838711 198.78637536273084 568.1619999999984
    vertex 1921.9285402838711 198.83748662329737 567.7737714323449
  endloop
endfacet
facet normal -1.2253735125486314e-14 0.9914448613737898 -0.13052619222020798
  outer loop
    vertex 1921.9285402838711 198.8374866232973 568.5502285676522
    vertex 1918.9285402838711 198.7863753627308 568.1619999999984
    vertex 1918.9285402838711 198.83748662329725 568.5502285676523
  endloop
endfacet
facet normal -1.2253735125486314e-14 0.9914448613737898 -0.13052619222020798
  outer loop
    vertex 1918.9285402838711 198.7863753627308 568.1619999999984
    vertex 1921.9285402838711 198.8374866232973 568.5502285676522
    vertex 1921.9285402838711 198.78637536273084 568.1619999999984
  endloop
endfacet
facet normal -1.915108590770387e-14 0.9238795325110283 -0.38268343236571417
  outer loop
    vertex 1921.9285402838711 198.98733725705455 568.9119999999986
    vertex 1918.9285402838711 198.83748662329725 568.5502285676523
    vertex 1918.9285402838711 198.98733725705452 568.9119999999986
  endloop
endfacet
facet normal -1.915108590770387e-14 0.9238795325110283 -0.38268343236571417
  outer loop
    vertex 1918.9285402838711 198.83748662329725 568.5502285676523
    vertex 1921.9285402838711 198.98733725705455 568.9119999999986
    vertex 1921.9285402838711 198.8374866232973 568.5502285676522
  endloop
endfacet
facet normal -2.474332183394437e-14 0.7933533402914295 -0.6087614290084676
  outer loop
    vertex 1921.9285402838711 199.22571519095123 569.2226601717783
    vertex 1918.9285402838711 198.98733725705452 568.9119999999986
    vertex 1918.9285402838711 199.2257151909512 569.2226601717783
  endloop
endfacet
facet normal -2.474332183394437e-14 0.7933533402914295 -0.6087614290084676
  outer loop
    vertex 1918.9285402838711 198.98733725705452 568.9119999999986
    vertex 1921.9285402838711 199.22571519095123 569.2226601717783
    vertex 1921.9285402838711 198.98733725705455 568.9119999999986
  endloop
endfacet
facet normal -2.8649341267501346e-14 0.6087614290087577 -0.7933533402912069
  outer loop
    vertex 1918.9285402838711 199.53637536273104 569.4610381056752
    vertex 1921.9285402838711 199.22571519095123 569.2226601717783
    vertex 1918.9285402838711 199.2257151909512 569.2226601717783
  endloop
endfacet
facet normal -2.8649341267501346e-14 0.6087614290087577 -0.7933533402912069
  outer loop
    vertex 1921.9285402838711 199.22571519095123 569.2226601717783
    vertex 1918.9285402838711 199.53637536273104 569.4610381056752
    vertex 1921.9285402838711 199.5363753627311 569.4610381056751
  endloop
endfacet
facet normal -3.060295543894848e-14 0.3826834323650327 -0.9238795325113105
  outer loop
    vertex 1918.9285402838711 199.89814679507705 569.6108887394321
    vertex 1921.9285402838711 199.5363753627311 569.4610381056751
    vertex 1918.9285402838711 199.53637536273104 569.4610381056752
  endloop
endfacet
facet normal -3.060295543894848e-14 0.3826834323650327 -0.9238795325113105
  outer loop
    vertex 1921.9285402838711 199.5363753627311 569.4610381056751
    vertex 1918.9285402838711 199.89814679507705 569.6108887394321
    vertex 1921.9285402838711 199.8981467950771 569.610888739432
  endloop
endfacet
endsolid flsun-cube-linear-rail-xy-gantry
