solid flsun-cube-linear-rail-xy-gantry
facet normal 0.3826834323650664 -0.9238795325112966 -2.4315996349148946e-14
  outer loop
    vertex 1916.040311716217 150.44890704814011 549.0652053309559
    vertex 1915.6785402838711 150.29905641438313 557.0652053309562
    vertex 1915.6785402838707 150.2990564143832 549.065205330956
  endloop
endfacet
facet normal 0.3826834323650664 -0.9238795325112966 -2.4315996349148946e-14
  outer loop
    vertex 1915.6785402838711 150.29905641438313 557.0652053309562
    vertex 1916.040311716217 150.44890704814011 549.0652053309559
    vertex 1916.0403117162175 150.4489070481401 557.0652053309561
  endloop
endfacet
facet normal 0.6087614290087409 -0.7933533402912196 -3.486603739578338e-14
  outer loop
    vertex 1915.6785402838707 150.2990564143832 549.065205330956
    vertex 1915.3678801120916 150.06067848048633 557.0652053309562
    vertex 1915.3678801120911 150.06067848048636 549.065205330956
  endloop
endfacet
facet normal 0.6087614290087409 -0.7933533402912196 -3.486603739578338e-14
  outer loop
    vertex 1915.3678801120916 150.06067848048633 557.0652053309562
    vertex 1915.6785402838707 150.2990564143832 549.065205330956
    vertex 1915.6785402838711 150.29905641438313 557.0652053309562
  endloop
endfacet
facet normal 0.7933533402912067 -0.6087614290087576 -4.304059523485852e-14
  outer loop
    vertex 1915.1295021781941 149.75001830870653 549.065205330956
    vertex 1915.3678801120916 150.06067848048633 557.0652053309562
    vertex 1915.1295021781946 149.75001830870647 557.0652053309562
  endloop
endfacet
facet normal 0.7933533402912067 -0.6087614290087576 -4.304059523485852e-14
  outer loop
    vertex 1915.3678801120916 150.06067848048633 557.0652053309562
    vertex 1915.1295021781941 149.75001830870653 549.065205330956
    vertex 1915.3678801120911 150.06067848048636 549.065205330956
  endloop
endfacet
facet normal 0.9238795325112964 -0.3826834323650664 -4.828200763662833e-14
  outer loop
    vertex 1914.9796515444373 149.3882468763603 549.065205330956
    vertex 1915.1295021781946 149.75001830870647 557.0652053309562
    vertex 1914.9796515444377 149.38824687636028 557.0652053309562
  endloop
endfacet
facet normal 0.9238795325112964 -0.3826834323650664 -4.828200763662833e-14
  outer loop
    vertex 1915.1295021781946 149.75001830870647 557.0652053309562
    vertex 1914.9796515444373 149.3882468763603 549.065205330956
    vertex 1915.1295021781941 149.75001830870653 549.065205330956
  endloop
endfacet
facet normal 0.6087614290087409 0.7933533402912196 -2.5916595397042995e-14
  outer loop
    vertex 1915.3678801120916 147.93935813692661 557.0652053309562
    vertex 1915.6785402838707 147.70098020302984 549.065205330956
    vertex 1915.3678801120911 147.93935813692667 549.065205330956
  endloop
endfacet
facet normal 0.6087614290087409 0.7933533402912196 -2.5916595397042995e-14
  outer loop
    vertex 1915.6785402838707 147.70098020302984 549.065205330956
    vertex 1915.3678801120916 147.93935813692661 557.0652053309562
    vertex 1915.6785402838711 147.7009802030298 557.0652053309561
  endloop
endfacet
facet normal 0.3826834323650664 0.9238795325112966 -1.3894815526502175e-14
  outer loop
    vertex 1915.6785402838711 147.7009802030298 557.0652053309561
    vertex 1916.040311716217 147.55112956927292 549.0652053309559
    vertex 1915.6785402838707 147.70098020302984 549.065205330956
  endloop
endfacet
facet normal 0.3826834323650664 0.9238795325112966 -1.3894815526502175e-14
  outer loop
    vertex 1916.040311716217 147.55112956927292 549.0652053309559
    vertex 1915.6785402838711 147.7009802030298 557.0652053309561
    vertex 1916.0403117162175 147.55112956927286 557.0652053309561
  endloop
endfacet
facet normal 0.13052619222009473 0.9914448613738048 -9.24787158112246e-16
  outer loop
    vertex 1916.0403117162175 147.55112956927286 557.0652053309561
    vertex 1916.428540283871 147.5000183087065 549.0652053309559
    vertex 1916.040311716217 147.55112956927292 549.0652053309559
  endloop
endfacet
facet normal 0.13052619222009473 0.9914448613738048 -9.24787158112246e-16
  outer loop
    vertex 1916.428540283871 147.5000183087065 549.0652053309559
    vertex 1916.0403117162175 147.55112956927286 557.0652053309561
    vertex 1916.4285402838714 147.50001830870644 557.0652053309561
  endloop
endfacet
facet normal -0.13052619222009473 0.9914448613738048 1.2108011489782913e-14
  outer loop
    vertex 1916.4285402838714 147.50001830870644 557.0652053309561
    vertex 1916.8167688515246 147.55112956927292 549.0652053309559
    vertex 1916.428540283871 147.5000183087065 549.0652053309559
  endloop
endfacet
facet normal -0.13052619222009473 0.9914448613738048 1.2108011489782913e-14
  outer loop
    vertex 1916.8167688515246 147.55112956927292 549.0652053309559
    vertex 1916.4285402838714 147.50001830870644 557.0652053309561
    vertex 1916.8167688515248 147.55112956927286 557.0652053309561
  endloop
endfacet
facet normal -0.38268343236506636 0.9238795325112964 2.4315491475059833e-14
  outer loop
    vertex 1916.8167688515248 147.55112956927286 557.0652053309561
    vertex 1917.1785402838707 147.70098020302984 549.0652053309559
    vertex 1916.8167688515246 147.55112956927292 549.0652053309559
  endloop
endfacet
facet normal -0.38268343236506636 0.9238795325112964 2.4315491475059833e-14
  outer loop
    vertex 1917.1785402838707 147.70098020302984 549.0652053309559
    vertex 1916.8167688515248 147.55112956927286 557.0652053309561
    vertex 1917.1785402838711 147.7009802030298 557.0652053309561
  endloop
endfacet
facet normal -0.6087614290087409 0.7933533402912196 3.486537205390446e-14
  outer loop
    vertex 1917.1785402838711 147.7009802030298 557.0652053309561
    vertex 1917.4892004556507 147.93935813692667 549.0652053309559
    vertex 1917.1785402838707 147.70098020302984 549.0652053309559
  endloop
endfacet
facet normal -0.6087614290087409 0.7933533402912196 3.486537205390446e-14
  outer loop
    vertex 1917.4892004556507 147.93935813692667 549.0652053309559
    vertex 1917.1785402838711 147.7009802030298 557.0652053309561
    vertex 1917.4892004556511 147.93935813692661 557.0652053309561
  endloop
endfacet
facet normal -0.7933533402912067 0.6087614290087577 4.3040595234858525e-14
  outer loop
    vertex 1917.7275783895473 148.2500183087065 549.0652053309559
    vertex 1917.4892004556511 147.93935813692661 557.0652053309561
    vertex 1917.7275783895477 148.25001830870647 557.0652053309561
  endloop
endfacet
facet normal -0.7933533402912067 0.6087614290087577 4.3040595234858525e-14
  outer loop
    vertex 1917.4892004556511 147.93935813692661 557.0652053309561
    vertex 1917.7275783895473 148.2500183087065 549.0652053309559
    vertex 1917.4892004556507 147.93935813692667 549.0652053309559
  endloop
endfacet
facet normal -0.9238795325112964 0.38268343236506647 4.828150276253926e-14
  outer loop
    vertex 1917.8774290233043 148.61178974105272 549.0652053309559
    vertex 1917.7275783895477 148.25001830870647 557.0652053309561
    vertex 1917.8774290233046 148.61178974105266 557.0652053309561
  endloop
endfacet
facet normal -0.9238795325112964 0.38268343236506647 4.828150276253926e-14
  outer loop
    vertex 1917.7275783895477 148.25001830870647 557.0652053309561
    vertex 1917.8774290233043 148.61178974105272 549.0652053309559
    vertex 1917.7275783895473 148.2500183087065 549.0652053309559
  endloop
endfacet
facet normal -0.9914448613738048 0.13052619222009473 5.023281010943307e-14
  outer loop
    vertex 1917.928540283871 149.00001830870653 549.0652053309559
    vertex 1917.8774290233046 148.61178974105266 557.0652053309561
    vertex 1917.9285402838714 149.00001830870647 557.0652053309561
  endloop
endfacet
facet normal -0.9914448613738048 0.13052619222009473 5.023281010943307e-14
  outer loop
    vertex 1917.8774290233046 148.61178974105266 557.0652053309561
    vertex 1917.928540283871 149.00001830870653 549.0652053309559
    vertex 1917.8774290233043 148.61178974105272 549.0652053309559
  endloop
endfacet
facet normal -0.9914448613738048 -0.13052619222009473 4.876029670844768e-14
  outer loop
    vertex 1917.8774290233043 149.3882468763603 549.0652053309559
    vertex 1917.9285402838714 149.00001830870647 557.0652053309561
    vertex 1917.8774290233046 149.38824687636028 557.0652053309561
  endloop
endfacet
facet normal -0.9914448613738048 -0.13052619222009473 4.876029670844768e-14
  outer loop
    vertex 1917.9285402838714 149.00001830870647 557.0652053309561
    vertex 1917.8774290233043 149.3882468763603 549.0652053309559
    vertex 1917.928540283871 149.00001830870653 549.0652053309559
  endloop
endfacet
facet normal -0.9238795325112966 -0.3826834323650664 4.396514841719855e-14
  outer loop
    vertex 1917.7275783895473 149.75001830870653 549.0652053309559
    vertex 1917.8774290233046 149.38824687636028 557.0652053309561
    vertex 1917.7275783895477 149.75001830870647 557.0652053309561
  endloop
endfacet
facet normal -0.9238795325112966 -0.3826834323650664 4.396514841719855e-14
  outer loop
    vertex 1917.8774290233046 149.38824687636028 557.0652053309561
    vertex 1917.7275783895473 149.75001830870653 549.0652053309559
    vertex 1917.8774290233043 149.3882468763603 549.0652053309559
  endloop
endfacet
facet normal -0.7933533402912067 -0.6087614290087577 3.6174267045162805e-14
  outer loop
    vertex 1917.4892004556507 150.06067848048636 549.0652053309559
    vertex 1917.7275783895477 149.75001830870647 557.0652053309561
    vertex 1917.4892004556511 150.06067848048633 557.0652053309561
  endloop
endfacet
facet normal -0.7933533402912067 -0.6087614290087577 3.6174267045162805e-14
  outer loop
    vertex 1917.7275783895477 149.75001830870647 557.0652053309561
    vertex 1917.4892004556507 150.06067848048636 549.0652053309559
    vertex 1917.7275783895473 149.75001830870653 549.0652053309559
  endloop
endfacet
facet normal -0.6087614290087409 -0.7933533402912196 2.5917462487461123e-14
  outer loop
    vertex 1917.4892004556507 150.06067848048636 549.0652053309559
    vertex 1917.1785402838711 150.29905641438313 557.0652053309561
    vertex 1917.1785402838707 150.2990564143832 549.0652053309559
  endloop
endfacet
facet normal -0.6087614290087409 -0.7933533402912196 2.5917462487461123e-14
  outer loop
    vertex 1917.1785402838711 150.29905641438313 557.0652053309561
    vertex 1917.4892004556507 150.06067848048636 549.0652053309559
    vertex 1917.4892004556511 150.06067848048633 557.0652053309561
  endloop
endfacet
facet normal -0.3826834323650664 -0.9238795325112966 1.3894815526502175e-14
  outer loop
    vertex 1917.1785402838707 150.2990564143832 549.0652053309559
    vertex 1916.8167688515248 150.4489070481401 557.0652053309561
    vertex 1916.8167688515246 150.44890704814011 549.0652053309559
  endloop
endfacet
facet normal -0.3826834323650664 -0.9238795325112966 1.3894815526502175e-14
  outer loop
    vertex 1916.8167688515248 150.4489070481401 557.0652053309561
    vertex 1917.1785402838707 150.2990564143832 549.0652053309559
    vertex 1917.1785402838711 150.29905641438313 557.0652053309561
  endloop
endfacet
facet normal -0.13052619222009473 -0.9914448613738048 9.24787158112246e-16
  outer loop
    vertex 1916.8167688515246 150.44890704814011 549.0652053309559
    vertex 1916.4285402838714 150.5000183087065 557.0652053309561
    vertex 1916.428540283871 150.50001830870653 549.0652053309559
  endloop
endfacet
facet normal -0.13052619222009473 -0.9914448613738048 9.24787158112246e-16
  outer loop
    vertex 1916.4285402838714 150.5000183087065 557.0652053309561
    vertex 1916.8167688515246 150.44890704814011 549.0652053309559
    vertex 1916.8167688515248 150.4489070481401 557.0652053309561
  endloop
endfacet
facet normal 0.13052619222009473 -0.9914448613738048 -1.2108011489782913e-14
  outer loop
    vertex 1916.428540283871 150.50001830870653 549.0652053309559
    vertex 1916.0403117162175 150.4489070481401 557.0652053309561
    vertex 1916.040311716217 150.44890704814011 549.0652053309559
  endloop
endfacet
facet normal 0.13052619222009473 -0.9914448613738048 -1.2108011489782913e-14
  outer loop
    vertex 1916.0403117162175 150.4489070481401 557.0652053309561
    vertex 1916.428540283871 150.50001830870653 549.0652053309559
    vertex 1916.4285402838714 150.5000183087065 557.0652053309561
  endloop
endfacet
facet normal 0.9914448613738048 -0.13052619222009473 -5.0233095424953496e-14
  outer loop
    vertex 1914.928540283871 149.00001830870653 549.065205330956
    vertex 1914.9796515444377 149.38824687636028 557.0652053309562
    vertex 1914.9285402838714 149.00001830870647 557.0652053309562
  endloop
endfacet
facet normal 0.9914448613738048 -0.13052619222009473 -5.0233095424953496e-14
  outer loop
    vertex 1914.9796515444377 149.38824687636028 557.0652053309562
    vertex 1914.928540283871 149.00001830870653 549.065205330956
    vertex 1914.9796515444373 149.3882468763603 549.065205330956
  endloop
endfacet
facet normal 0.9914448613738048 0.13052619222009473 -4.87605820239681e-14
  outer loop
    vertex 1914.9796515444373 148.61178974105272 549.065205330956
    vertex 1914.9285402838714 149.00001830870647 557.0652053309562
    vertex 1914.9796515444377 148.61178974105266 557.0652053309562
  endloop
endfacet
facet normal 0.9914448613738048 0.13052619222009473 -4.87605820239681e-14
  outer loop
    vertex 1914.9285402838714 149.00001830870647 557.0652053309562
    vertex 1914.9796515444373 148.61178974105272 549.065205330956
    vertex 1914.928540283871 149.00001830870653 549.065205330956
  endloop
endfacet
facet normal 0.9238795325112966 0.3826834323650664 -4.396565329128763e-14
  outer loop
    vertex 1915.1295021781941 148.2500183087065 549.065205330956
    vertex 1914.9796515444377 148.61178974105266 557.0652053309562
    vertex 1915.1295021781946 148.25001830870647 557.0652053309562
  endloop
endfacet
facet normal 0.9238795325112966 0.3826834323650664 -4.396565329128763e-14
  outer loop
    vertex 1914.9796515444377 148.61178974105266 557.0652053309562
    vertex 1915.1295021781941 148.2500183087065 549.065205330956
    vertex 1914.9796515444373 148.61178974105272 549.065205330956
  endloop
endfacet
facet normal 0.7933533402912067 0.6087614290087576 -3.6174267045162805e-14
  outer loop
    vertex 1915.3678801120911 147.93935813692667 549.065205330956
    vertex 1915.1295021781946 148.25001830870647 557.0652053309562
    vertex 1915.3678801120916 147.93935813692661 557.0652053309562
  endloop
endfacet
facet normal 0.7933533402912067 0.6087614290087576 -3.6174267045162805e-14
  outer loop
    vertex 1915.1295021781946 148.25001830870647 557.0652053309562
    vertex 1915.3678801120911 147.93935813692667 549.065205330956
    vertex 1915.1295021781941 148.2500183087065 549.065205330956
  endloop
endfacet
facet normal -0.9238795325112964 -0.3826834323650664 6.696604261319761e-14
  outer loop
    vertex 1902.7275783895473 149.75001830870647 549.0652053309567
    vertex 1902.8774290233048 149.38824687636028 557.0652053309568
    vertex 1902.727578389548 149.75001830870647 557.0652053309568
  endloop
endfacet
facet normal -0.9238795325112964 -0.3826834323650664 6.696604261319761e-14
  outer loop
    vertex 1902.8774290233048 149.38824687636028 557.0652053309568
    vertex 1902.7275783895473 149.75001830870647 549.0652053309567
    vertex 1902.877429023304 149.38824687636028 549.0652053309567
  endloop
endfacet
facet normal -0.7933533402912067 -0.6087614290087577 5.750544800235617e-14
  outer loop
    vertex 1902.4892004556505 150.06067848048633 549.0652053309567
    vertex 1902.727578389548 149.75001830870647 557.0652053309568
    vertex 1902.489200455651 150.06067848048633 557.0652053309569
  endloop
endfacet
facet normal -0.7933533402912067 -0.6087614290087577 5.750544800235617e-14
  outer loop
    vertex 1902.727578389548 149.75001830870647 557.0652053309568
    vertex 1902.4892004556505 150.06067848048633 549.0652053309567
    vertex 1902.7275783895473 149.75001830870647 549.0652053309567
  endloop
endfacet
facet normal -0.6087614290087409 -0.7933533402912198 4.412583790139971e-14
  outer loop
    vertex 1902.4892004556505 150.06067848048633 549.0652053309567
    vertex 1902.1785402838714 150.29905641438313 557.0652053309569
    vertex 1902.1785402838707 150.29905641438313 549.0652053309567
  endloop
endfacet
facet normal -0.6087614290087409 -0.7933533402912198 4.412583790139971e-14
  outer loop
    vertex 1902.1785402838714 150.29905641438313 557.0652053309569
    vertex 1902.4892004556505 150.06067848048633 549.0652053309567
    vertex 1902.489200455651 150.06067848048633 557.0652053309569
  endloop
endfacet
facet normal -0.3826834323650664 -0.9238795325112966 2.773866132022914e-14
  outer loop
    vertex 1902.1785402838707 150.29905641438313 549.0652053309567
    vertex 1901.816768851525 150.4489070481401 557.0652053309569
    vertex 1901.8167688515243 150.4489070481401 549.0652053309567
  endloop
endfacet
facet normal -0.3826834323650664 -0.9238795325112966 2.773866132022914e-14
  outer loop
    vertex 1901.816768851525 150.4489070481401 557.0652053309569
    vertex 1902.1785402838707 150.29905641438313 549.0652053309567
    vertex 1902.1785402838714 150.29905641438313 557.0652053309569
  endloop
endfacet
facet normal -0.13052619222009473 -0.9914448613738048 9.460964049899641e-15
  outer loop
    vertex 1901.8167688515243 150.4489070481401 549.0652053309567
    vertex 1901.4285402838711 150.5000183087065 557.065205330957
    vertex 1901.4285402838707 150.5000183087065 549.0652053309568
  endloop
endfacet
facet normal -0.13052619222009473 -0.9914448613738048 9.460964049899641e-15
  outer loop
    vertex 1901.4285402838711 150.5000183087065 557.065205330957
    vertex 1901.8167688515243 150.4489070481401 549.0652053309567
    vertex 1901.816768851525 150.4489070481401 557.0652053309569
  endloop
endfacet
facet normal 0.13052619222009473 -0.9914448613738048 -9.460949632696351e-15
  outer loop
    vertex 1901.4285402838707 150.5000183087065 549.0652053309568
    vertex 1901.0403117162173 150.4489070481401 557.065205330957
    vertex 1901.0403117162168 150.4489070481401 549.0652053309568
  endloop
endfacet
facet normal 0.13052619222009473 -0.9914448613738048 -9.460949632696351e-15
  outer loop
    vertex 1901.0403117162173 150.4489070481401 557.065205330957
    vertex 1901.4285402838707 150.5000183087065 549.0652053309568
    vertex 1901.4285402838711 150.5000183087065 557.065205330957
  endloop
endfacet
facet normal 0.3826834323650664 -0.9238795325112966 -2.773866132022914e-14
  outer loop
    vertex 1901.0403117162168 150.4489070481401 549.0652053309568
    vertex 1900.6785402838714 150.29905641438313 557.065205330957
    vertex 1900.6785402838705 150.29905641438313 549.0652053309568
  endloop
endfacet
facet normal 0.3826834323650664 -0.9238795325112966 -2.773866132022914e-14
  outer loop
    vertex 1900.6785402838714 150.29905641438313 557.065205330957
    vertex 1901.0403117162168 150.4489070481401 549.0652053309568
    vertex 1901.0403117162173 150.4489070481401 557.065205330957
  endloop
endfacet
facet normal 0.6087614290087409 -0.7933533402912196 -4.412583790139971e-14
  outer loop
    vertex 1900.6785402838705 150.29905641438313 549.0652053309568
    vertex 1900.3678801120914 150.06067848048633 557.065205330957
    vertex 1900.367880112091 150.06067848048633 549.0652053309568
  endloop
endfacet
facet normal 0.6087614290087409 -0.7933533402912196 -4.412583790139971e-14
  outer loop
    vertex 1900.3678801120914 150.06067848048633 557.065205330957
    vertex 1900.6785402838705 150.29905641438313 549.0652053309568
    vertex 1900.6785402838714 150.29905641438313 557.065205330957
  endloop
endfacet
facet normal 0.7933533402912067 -0.6087614290087577 -5.750371382151981e-14
  outer loop
    vertex 1900.129502178194 149.75001830870647 549.0652053309569
    vertex 1900.3678801120914 150.06067848048633 557.065205330957
    vertex 1900.1295021781943 149.75001830870647 557.065205330957
  endloop
endfacet
facet normal 0.7933533402912067 -0.6087614290087577 -5.750371382151981e-14
  outer loop
    vertex 1900.3678801120914 150.06067848048633 557.065205330957
    vertex 1900.129502178194 149.75001830870647 549.0652053309569
    vertex 1900.367880112091 150.06067848048633 549.0652053309568
  endloop
endfacet
facet normal 0.9238795325112964 -0.3826834323650664 -6.696604261319761e-14
  outer loop
    vertex 1899.979651544437 149.38824687636028 549.0652053309569
    vertex 1900.1295021781943 149.75001830870647 557.065205330957
    vertex 1899.9796515444375 149.38824687636028 557.065205330957
  endloop
endfacet
facet normal 0.9238795325112964 -0.3826834323650664 -6.696604261319761e-14
  outer loop
    vertex 1900.1295021781943 149.75001830870647 557.065205330957
    vertex 1899.979651544437 149.38824687636028 549.0652053309569
    vertex 1900.129502178194 149.75001830870647 549.0652053309569
  endloop
endfacet
facet normal 0.9914448613738048 -0.13052619222009473 -7.186395742499422e-14
  outer loop
    vertex 1899.9285402838707 149.00001830870647 549.0652053309569
    vertex 1899.9796515444375 149.38824687636028 557.065205330957
    vertex 1899.9285402838711 149.00001830870647 557.065205330957
  endloop
endfacet
facet normal 0.9914448613738048 -0.13052619222009473 -7.186395742499422e-14
  outer loop
    vertex 1899.9796515444375 149.38824687636028 557.065205330957
    vertex 1899.9285402838707 149.00001830870647 549.0652053309569
    vertex 1899.979651544437 149.38824687636028 549.0652053309569
  endloop
endfacet
facet normal 0.9914448613738048 0.13052619222009473 -7.186395742499422e-14
  outer loop
    vertex 1899.979651544437 148.61178974105266 549.0652053309569
    vertex 1899.9285402838711 149.00001830870647 557.065205330957
    vertex 1899.9796515444375 148.61178974105266 557.065205330957
  endloop
endfacet
facet normal 0.9914448613738048 0.13052619222009473 -7.186395742499422e-14
  outer loop
    vertex 1899.9285402838711 149.00001830870647 557.065205330957
    vertex 1899.979651544437 148.61178974105266 549.0652053309569
    vertex 1899.9285402838707 149.00001830870647 549.0652053309569
  endloop
endfacet
facet normal 0.9238795325112964 0.3826834323650665 -6.696604261319761e-14
  outer loop
    vertex 1900.129502178194 148.25001830870647 549.0652053309569
    vertex 1899.9796515444375 148.61178974105266 557.065205330957
    vertex 1900.1295021781943 148.25001830870647 557.065205330957
  endloop
endfacet
facet normal 0.9238795325112964 0.3826834323650665 -6.696604261319761e-14
  outer loop
    vertex 1899.9796515444375 148.61178974105266 557.065205330957
    vertex 1900.129502178194 148.25001830870647 549.0652053309569
    vertex 1899.979651544437 148.61178974105266 549.0652053309569
  endloop
endfacet
facet normal 0.7933533402912067 0.6087614290087576 -5.750371382151986e-14
  outer loop
    vertex 1900.3678801120914 147.93935813692661 557.065205330957
    vertex 1900.129502178194 148.25001830870647 549.0652053309569
    vertex 1900.1295021781943 148.25001830870647 557.065205330957
  endloop
endfacet
facet normal 0.7933533402912067 0.6087614290087576 -5.750371382151986e-14
  outer loop
    vertex 1900.129502178194 148.25001830870647 549.0652053309569
    vertex 1900.3678801120914 147.93935813692661 557.065205330957
    vertex 1900.367880112091 147.93935813692661 549.0652053309568
  endloop
endfacet
facet normal 0.6087614290087409 0.7933533402912196 -4.412583790139971e-14
  outer loop
    vertex 1900.3678801120914 147.93935813692661 557.065205330957
    vertex 1900.6785402838705 147.7009802030298 549.0652053309568
    vertex 1900.367880112091 147.93935813692661 549.0652053309568
  endloop
endfacet
facet normal 0.6087614290087409 0.7933533402912196 -4.412583790139971e-14
  outer loop
    vertex 1900.6785402838705 147.7009802030298 549.0652053309568
    vertex 1900.3678801120914 147.93935813692661 557.065205330957
    vertex 1900.6785402838714 147.7009802030298 557.065205330957
  endloop
endfacet
facet normal 0.3826834323650664 0.9238795325112964 -2.7738661320229134e-14
  outer loop
    vertex 1900.6785402838714 147.7009802030298 557.065205330957
    vertex 1901.0403117162168 147.55112956927286 549.0652053309568
    vertex 1900.6785402838705 147.7009802030298 549.0652053309568
  endloop
endfacet
facet normal 0.3826834323650664 0.9238795325112964 -2.7738661320229134e-14
  outer loop
    vertex 1901.0403117162168 147.55112956927286 549.0652053309568
    vertex 1900.6785402838714 147.7009802030298 557.065205330957
    vertex 1901.0403117162173 147.55112956927286 557.065205330957
  endloop
endfacet
facet normal 0.13052619222009473 0.9914448613738048 -9.460678734379189e-15
  outer loop
    vertex 1901.0403117162173 147.55112956927286 557.065205330957
    vertex 1901.4285402838707 147.50001830870644 549.0652053309568
    vertex 1901.0403117162168 147.55112956927286 549.0652053309568
  endloop
endfacet
facet normal 0.13052619222009473 0.9914448613738048 -9.460678734379189e-15
  outer loop
    vertex 1901.4285402838707 147.50001830870644 549.0652053309568
    vertex 1901.0403117162173 147.55112956927286 557.065205330957
    vertex 1901.4285402838711 147.50001830870644 557.065205330957
  endloop
endfacet
facet normal 1.0 9.668456511592934e-15 -2.962019518548658e-14
  outer loop
    vertex 1921.9285402838711 146.5000183087065 559.0652053309559
    vertex 1921.9285402838711 154.75001830870656 555.3642434366325
    vertex 1921.9285402838707 160.5000183087063 559.0652053309559
  endloop
endfacet
facet normal 1.0 9.668456511592934e-15 -2.962019518548658e-14
  outer loop
    vertex 1921.9285402838711 154.75001830870656 555.3642434366325
    vertex 1921.9285402838711 146.5000183087065 559.0652053309559
    vertex 1921.9285402838707 146.5000183087065 549.0652053309558
  endloop
endfacet
facet normal 1.0 9.668456511592934e-15 -2.962019518548658e-14
  outer loop
    vertex 1921.9285402838707 160.5000183087063 559.0652053309559
    vertex 1921.9285402838711 154.75001830870656 555.3642434366325
    vertex 1921.9285402838711 155.1117897410526 555.5140940703893
  endloop
endfacet
facet normal 1.0 9.668456511592934e-15 -2.962019518548658e-14
  outer loop
    vertex 1921.9285402838707 160.5000183087063 559.0652053309559
    vertex 1921.9285402838711 155.1117897410526 555.5140940703893
    vertex 1921.9285402838711 155.50001830870653 555.5652053309558
  endloop
endfacet
facet normal 1.0 9.668456511592934e-15 -2.962019518548658e-14
  outer loop
    vertex 1921.9285402838711 154.75001830870656 555.3642434366325
    vertex 1921.9285402838707 146.5000183087065 549.0652053309558
    vertex 1921.9285402838711 154.43935813692673 555.1258655027356
  endloop
endfacet
facet normal 1.0 9.668456511592934e-15 -2.962019518548658e-14
  outer loop
    vertex 1921.9285402838711 154.43935813692673 555.1258655027356
    vertex 1921.9285402838707 146.5000183087065 549.0652053309558
    vertex 1921.9285402838711 154.20098020303004 554.8152053309558
  endloop
endfacet
facet normal 1.0 9.668456511592934e-15 -2.962019518548658e-14
  outer loop
    vertex 1921.9285402838711 154.20098020303004 554.8152053309558
    vertex 1921.9285402838707 146.5000183087065 549.0652053309558
    vertex 1921.9285402838711 154.0511295692728 554.4534338986095
  endloop
endfacet
facet normal 1.0 9.668456511592934e-15 -2.962019518548658e-14
  outer loop
    vertex 1921.9285402838711 154.0511295692728 554.4534338986095
    vertex 1921.9285402838707 146.5000183087065 549.0652053309558
    vertex 1921.9285402838711 154.00001830870633 554.0652053309557
  endloop
endfacet
facet normal 1.0 9.668456511592934e-15 -2.962019518548658e-14
  outer loop
    vertex 1921.9285402838711 154.00001830870633 554.0652053309557
    vertex 1921.9285402838707 146.5000183087065 549.0652053309558
    vertex 1921.9285402838711 154.05112956927283 553.6769767633022
  endloop
endfacet
facet normal 1.0 9.668456511592934e-15 -2.962019518548658e-14
  outer loop
    vertex 1921.9285402838711 154.05112956927283 553.6769767633022
    vertex 1921.9285402838707 146.5000183087065 549.0652053309558
    vertex 1921.9285402838707 154.20098020302976 553.3152053309558
  endloop
endfacet
facet normal 1.0 9.668456511592934e-15 -2.962019518548658e-14
  outer loop
    vertex 1921.9285402838707 154.20098020302976 553.3152053309558
    vertex 1921.9285402838707 146.5000183087065 549.0652053309558
    vertex 1921.9285402838707 154.43935813692644 553.004545159176
  endloop
endfacet
facet normal 1.0 9.668456511592934e-15 -2.962019518548658e-14
  outer loop
    vertex 1921.9285402838707 154.43935813692644 553.004545159176
    vertex 1921.9285402838707 146.5000183087065 549.0652053309558
    vertex 1921.9285402838711 154.75001830870616 552.766167225279
  endloop
endfacet
facet normal 1.0 9.668456511592934e-15 -2.962019518548658e-14
  outer loop
    vertex 1921.9285402838711 154.75001830870616 552.766167225279
    vertex 1921.9285402838707 146.5000183087065 549.0652053309558
    vertex 1921.9285402838707 155.11178974105255 552.6163165915221
  endloop
endfacet
facet normal 1.0 9.668456511592934e-15 -2.962019518548658e-14
  outer loop
    vertex 1921.9285402838707 155.11178974105255 552.6163165915221
    vertex 1921.9285402838707 146.5000183087065 549.0652053309558
    vertex 1921.9285402838707 155.50001830870644 552.5652053309557
  endloop
endfacet
facet normal 1.0 9.668456511592934e-15 -2.962019518548658e-14
  outer loop
    vertex 1921.9285402838707 160.5000183087063 559.0652053309559
    vertex 1921.9285402838711 156.7990564143832 554.8152053309556
    vertex 1921.9285402838707 160.5000183087063 549.0652053309558
  endloop
endfacet
facet normal 1.0 9.668456511592934e-15 -2.962019518548658e-14
  outer loop
    vertex 1921.9285402838711 156.7990564143832 554.8152053309556
    vertex 1921.9285402838707 160.5000183087063 559.0652053309559
    vertex 1921.9285402838711 156.56067848048616 555.1258655027356
  endloop
endfacet
facet normal 1.0 9.668456511592934e-15 -2.962019518548658e-14
  outer loop
    vertex 1921.9285402838711 156.56067848048616 555.1258655027356
    vertex 1921.9285402838707 160.5000183087063 559.0652053309559
    vertex 1921.9285402838711 156.2500183087063 555.3642434366323
  endloop
endfacet
facet normal 1.0 9.668456511592934e-15 -2.962019518548658e-14
  outer loop
    vertex 1921.9285402838711 156.2500183087063 555.3642434366323
    vertex 1921.9285402838707 160.5000183087063 559.0652053309559
    vertex 1921.9285402838707 155.88824687636023 555.5140940703893
  endloop
endfacet
facet normal 1.0 9.668456511592934e-15 -2.962019518548658e-14
  outer loop
    vertex 1921.9285402838707 155.88824687636023 555.5140940703893
    vertex 1921.9285402838707 160.5000183087063 559.0652053309559
    vertex 1921.9285402838711 155.50001830870653 555.5652053309558
  endloop
endfacet
facet normal 1.0 9.668456511592934e-15 -2.962019518548658e-14
  outer loop
    vertex 1921.9285402838707 160.5000183087063 549.0652053309558
    vertex 1921.9285402838711 156.7990564143832 554.8152053309556
    vertex 1921.9285402838711 156.94890704814003 554.4534338986097
  endloop
endfacet
facet normal 1.0 9.668456511592934e-15 -2.962019518548658e-14
  outer loop
    vertex 1921.9285402838707 160.5000183087063 549.0652053309558
    vertex 1921.9285402838711 156.94890704814003 554.4534338986097
    vertex 1921.9285402838711 157.00001830870633 554.0652053309556
  endloop
endfacet
facet normal 1.0 9.668456511592934e-15 -2.962019518548658e-14
  outer loop
    vertex 1921.9285402838707 160.5000183087063 549.0652053309558
    vertex 1921.9285402838711 157.00001830870633 554.0652053309556
    vertex 1921.9285402838711 156.94890704814 553.6769767633019
  endloop
endfacet
facet normal 1.0 9.668456511592934e-15 -2.962019518548658e-14
  outer loop
    vertex 1921.9285402838707 160.5000183087063 549.0652053309558
    vertex 1921.9285402838711 156.94890704814 553.6769767633019
    vertex 1921.9285402838707 156.79905641438333 553.3152053309557
  endloop
endfacet
facet normal 1.0 9.668456511592934e-15 -2.962019518548658e-14
  outer loop
    vertex 1921.9285402838707 160.5000183087063 549.0652053309558
    vertex 1921.9285402838707 156.79905641438333 553.3152053309557
    vertex 1921.9285402838707 156.5606784804861 553.0045451591759
  endloop
endfacet
facet normal 1.0 9.668456511592934e-15 -2.962019518548658e-14
  outer loop
    vertex 1921.9285402838707 160.5000183087063 549.0652053309558
    vertex 1921.9285402838707 156.5606784804861 553.0045451591759
    vertex 1921.9285402838707 156.2500183087065 552.766167225279
  endloop
endfacet
facet normal 1.0 9.668456511592934e-15 -2.962019518548658e-14
  outer loop
    vertex 1921.9285402838707 160.5000183087063 549.0652053309558
    vertex 1921.9285402838707 156.2500183087065 552.766167225279
    vertex 1921.9285402838711 155.8882468763601 552.616316591522
  endloop
endfacet
facet normal 1.0 9.668456511592934e-15 -2.962019518548658e-14
  outer loop
    vertex 1921.9285402838707 160.5000183087063 549.0652053309558
    vertex 1921.9285402838711 155.8882468763601 552.616316591522
    vertex 1921.9285402838707 155.50001830870644 552.5652053309557
  endloop
endfacet
facet normal 1.0 9.668456511592934e-15 -2.962019518548658e-14
  outer loop
    vertex 1921.9285402838707 160.5000183087063 549.0652053309558
    vertex 1921.9285402838707 155.50001830870644 552.5652053309557
    vertex 1921.9285402838707 146.5000183087065 549.0652053309558
  endloop
endfacet
facet normal -0.13052619222009473 0.9914448613738048 9.46094963269648e-15
  outer loop
    vertex 1901.4285402838711 147.50001830870644 557.065205330957
    vertex 1901.8167688515243 147.55112956927286 549.0652053309567
    vertex 1901.4285402838707 147.50001830870644 549.0652053309568
  endloop
endfacet
facet normal -0.13052619222009473 0.9914448613738048 9.46094963269648e-15
  outer loop
    vertex 1901.8167688515243 147.55112956927286 549.0652053309567
    vertex 1901.4285402838711 147.50001830870644 557.065205330957
    vertex 1901.816768851525 147.55112956927286 557.0652053309569
  endloop
endfacet
facet normal -0.3826834323650664 0.9238795325112964 2.7738661320229134e-14
  outer loop
    vertex 1901.816768851525 147.55112956927286 557.0652053309569
    vertex 1902.1785402838707 147.7009802030298 549.0652053309567
    vertex 1901.8167688515243 147.55112956927286 549.0652053309567
  endloop
endfacet
facet normal -0.3826834323650664 0.9238795325112964 2.7738661320229134e-14
  outer loop
    vertex 1902.1785402838707 147.7009802030298 549.0652053309567
    vertex 1901.816768851525 147.55112956927286 557.0652053309569
    vertex 1902.1785402838714 147.7009802030298 557.0652053309569
  endloop
endfacet
facet normal -0.6087614290087409 0.7933533402912196 4.412583790139971e-14
  outer loop
    vertex 1902.1785402838714 147.7009802030298 557.0652053309569
    vertex 1902.4892004556505 147.93935813692661 549.0652053309567
    vertex 1902.1785402838707 147.7009802030298 549.0652053309567
  endloop
endfacet
facet normal -0.6087614290087409 0.7933533402912196 4.412583790139971e-14
  outer loop
    vertex 1902.4892004556505 147.93935813692661 549.0652053309567
    vertex 1902.1785402838714 147.7009802030298 557.0652053309569
    vertex 1902.489200455651 147.93935813692661 557.0652053309569
  endloop
endfacet
facet normal -0.7933533402912067 0.6087614290087576 5.750371382151985e-14
  outer loop
    vertex 1902.727578389548 148.25001830870647 557.0652053309568
    vertex 1902.4892004556505 147.93935813692661 549.0652053309567
    vertex 1902.489200455651 147.93935813692661 557.0652053309569
  endloop
endfacet
facet normal -0.7933533402912067 0.6087614290087576 5.750371382151985e-14
  outer loop
    vertex 1902.4892004556505 147.93935813692661 549.0652053309567
    vertex 1902.727578389548 148.25001830870647 557.0652053309568
    vertex 1902.7275783895473 148.25001830870647 549.0652053309567
  endloop
endfacet
facet normal -0.9238795325112964 0.3826834323650664 6.696604261319761e-14
  outer loop
    vertex 1902.877429023304 148.61178974105266 549.0652053309567
    vertex 1902.727578389548 148.25001830870647 557.0652053309568
    vertex 1902.8774290233048 148.61178974105266 557.0652053309568
  endloop
endfacet
facet normal -0.9238795325112964 0.3826834323650664 6.696604261319761e-14
  outer loop
    vertex 1902.727578389548 148.25001830870647 557.0652053309568
    vertex 1902.877429023304 148.61178974105266 549.0652053309567
    vertex 1902.7275783895473 148.25001830870647 549.0652053309567
  endloop
endfacet
facet normal -0.9914448613738048 0.13052619222009473 7.186341562835976e-14
  outer loop
    vertex 1902.9285402838707 149.00001830870647 549.0652053309567
    vertex 1902.8774290233048 148.61178974105266 557.0652053309568
    vertex 1902.9285402838711 149.00001830870647 557.0652053309568
  endloop
endfacet
facet normal -0.9914448613738048 0.13052619222009473 7.186341562835976e-14
  outer loop
    vertex 1902.8774290233048 148.61178974105266 557.0652053309568
    vertex 1902.9285402838707 149.00001830870647 549.0652053309567
    vertex 1902.877429023304 148.61178974105266 549.0652053309567
  endloop
endfacet
facet normal -0.9914448613738048 -0.13052619222009473 7.186395742499422e-14
  outer loop
    vertex 1902.877429023304 149.38824687636028 549.0652053309567
    vertex 1902.9285402838711 149.00001830870647 557.0652053309568
    vertex 1902.8774290233048 149.38824687636028 557.0652053309568
  endloop
endfacet
facet normal -0.9914448613738048 -0.13052619222009473 7.186395742499422e-14
  outer loop
    vertex 1902.9285402838711 149.00001830870647 557.0652053309568
    vertex 1902.877429023304 149.38824687636028 549.0652053309567
    vertex 1902.9285402838707 149.00001830870647 549.0652053309567
  endloop
endfacet
facet normal -1.0 -2.45227231256843e-44 4.9923953859830826e-14
  outer loop
    vertex 1898.928540283871 151.50001830870644 549.0652053309568
    vertex 1898.9285402838714 146.50001830870644 557.065205330957
    vertex 1898.9285402838714 151.50001830870644 557.065205330957
  endloop
endfacet
facet normal -1.0 -2.45227231256843e-44 4.9923953859830826e-14
  outer loop
    vertex 1898.9285402838714 146.50001830870644 557.065205330957
    vertex 1898.928540283871 151.50001830870644 549.0652053309568
    vertex 1898.928540283871 146.50001830870644 549.0652053309568
  endloop
endfacet
facet normal 4.9923953859831785e-14 -1.5148961883958467e-30 1.0
  outer loop
    vertex 1918.9285402838711 146.50001830870644 557.065205330956
    vertex 1916.4285402838714 147.50001830870644 557.0652053309561
    vertex 1898.9285402838714 146.50001830870644 557.065205330957
  endloop
endfacet
facet normal 4.9923953859831785e-14 -1.5148961883958467e-30 1.0
  outer loop
    vertex 1916.4285402838714 147.50001830870644 557.0652053309561
    vertex 1918.9285402838711 146.50001830870644 557.065205330956
    vertex 1916.8167688515248 147.55112956927286 557.0652053309561
  endloop
endfacet
facet normal 4.9923953859831785e-14 -1.5148961883958467e-30 1.0
  outer loop
    vertex 1916.8167688515248 147.55112956927286 557.0652053309561
    vertex 1918.9285402838711 146.50001830870644 557.065205330956
    vertex 1917.1785402838711 147.7009802030298 557.0652053309561
  endloop
endfacet
facet normal 4.9923953859831785e-14 -1.5148961883958467e-30 1.0
  outer loop
    vertex 1917.1785402838711 147.7009802030298 557.0652053309561
    vertex 1918.9285402838711 146.50001830870644 557.065205330956
    vertex 1917.4892004556511 147.93935813692661 557.0652053309561
  endloop
endfacet
facet normal 4.9923953859831785e-14 -1.5148961883958467e-30 1.0
  outer loop
    vertex 1917.4892004556511 147.93935813692661 557.0652053309561
    vertex 1918.9285402838711 146.50001830870644 557.065205330956
    vertex 1917.7275783895477 148.25001830870647 557.0652053309561
  endloop
endfacet
facet normal 4.9923953859831785e-14 -1.5148961883958467e-30 1.0
  outer loop
    vertex 1917.7275783895477 148.25001830870647 557.0652053309561
    vertex 1918.9285402838711 146.50001830870644 557.065205330956
    vertex 1917.8774290233046 148.61178974105266 557.0652053309561
  endloop
endfacet
facet normal 4.9923953859831785e-14 -1.5148961883958467e-30 1.0
  outer loop
    vertex 1917.8774290233046 148.61178974105266 557.0652053309561
    vertex 1918.9285402838711 146.50001830870644 557.065205330956
    vertex 1918.9285402838711 151.50001830870644 557.065205330956
  endloop
endfacet
facet normal 4.9923953859831785e-14 -1.5148961883958467e-30 1.0
  outer loop
    vertex 1917.8774290233046 148.61178974105266 557.0652053309561
    vertex 1918.9285402838711 151.50001830870644 557.065205330956
    vertex 1917.9285402838714 149.00001830870647 557.0652053309561
  endloop
endfacet
facet normal 4.9923953859831785e-14 -1.5148961883958467e-30 1.0
  outer loop
    vertex 1917.9285402838714 149.00001830870647 557.0652053309561
    vertex 1918.9285402838711 151.50001830870644 557.065205330956
    vertex 1917.8774290233046 149.38824687636028 557.0652053309561
  endloop
endfacet
facet normal 4.9923953859831785e-14 -1.5148961883958467e-30 1.0
  outer loop
    vertex 1917.8774290233046 149.38824687636028 557.0652053309561
    vertex 1918.9285402838711 151.50001830870644 557.065205330956
    vertex 1917.7275783895477 149.75001830870647 557.0652053309561
  endloop
endfacet
facet normal 4.9923953859831785e-14 -1.5148961883958467e-30 1.0
  outer loop
    vertex 1917.7275783895477 149.75001830870647 557.0652053309561
    vertex 1918.9285402838711 151.50001830870644 557.065205330956
    vertex 1917.4892004556511 150.06067848048633 557.0652053309561
  endloop
endfacet
facet normal 4.9923953859831785e-14 -1.5148961883958467e-30 1.0
  outer loop
    vertex 1917.4892004556511 150.06067848048633 557.0652053309561
    vertex 1918.9285402838711 151.50001830870644 557.065205330956
    vertex 1917.1785402838711 150.29905641438313 557.0652053309561
  endloop
endfacet
facet normal 4.9923953859831785e-14 -1.5148961883958467e-30 1.0
  outer loop
    vertex 1917.1785402838711 150.29905641438313 557.0652053309561
    vertex 1918.9285402838711 151.50001830870644 557.065205330956
    vertex 1916.8167688515248 150.4489070481401 557.0652053309561
  endloop
endfacet
facet normal 4.9923953859831785e-14 -1.5148961883958467e-30 1.0
  outer loop
    vertex 1916.8167688515248 150.4489070481401 557.0652053309561
    vertex 1918.9285402838711 151.50001830870644 557.065205330956
    vertex 1916.4285402838714 150.5000183087065 557.0652053309561
  endloop
endfacet
facet normal 4.9923953859831785e-14 -1.5148961883958467e-30 1.0
  outer loop
    vertex 1916.4285402838714 150.5000183087065 557.0652053309561
    vertex 1918.9285402838711 151.50001830870644 557.065205330956
    vertex 1901.4285402838711 150.5000183087065 557.065205330957
  endloop
endfacet
facet normal 4.9923953859831785e-14 -1.5148961883958467e-30 1.0
  outer loop
    vertex 1898.9285402838714 146.50001830870644 557.065205330957
    vertex 1899.9796515444375 148.61178974105266 557.065205330957
    vertex 1898.9285402838714 151.50001830870644 557.065205330957
  endloop
endfacet
facet normal 4.9923953859831785e-14 -1.5148961883958467e-30 1.0
  outer loop
    vertex 1899.9796515444375 148.61178974105266 557.065205330957
    vertex 1898.9285402838714 146.50001830870644 557.065205330957
    vertex 1900.1295021781943 148.25001830870647 557.065205330957
  endloop
endfacet
facet normal 4.9923953859831785e-14 -1.5148961883958467e-30 1.0
  outer loop
    vertex 1900.1295021781943 148.25001830870647 557.065205330957
    vertex 1898.9285402838714 146.50001830870644 557.065205330957
    vertex 1900.3678801120914 147.93935813692661 557.065205330957
  endloop
endfacet
facet normal 4.9923953859831785e-14 -1.5148961883958467e-30 1.0
  outer loop
    vertex 1900.3678801120914 147.93935813692661 557.065205330957
    vertex 1898.9285402838714 146.50001830870644 557.065205330957
    vertex 1900.6785402838714 147.7009802030298 557.065205330957
  endloop
endfacet
facet normal 4.9923953859831785e-14 -1.5148961883958467e-30 1.0
  outer loop
    vertex 1900.6785402838714 147.7009802030298 557.065205330957
    vertex 1898.9285402838714 146.50001830870644 557.065205330957
    vertex 1901.0403117162173 147.55112956927286 557.065205330957
  endloop
endfacet
facet normal 4.9923953859831785e-14 -1.5148961883958467e-30 1.0
  outer loop
    vertex 1901.0403117162173 147.55112956927286 557.065205330957
    vertex 1898.9285402838714 146.50001830870644 557.065205330957
    vertex 1901.4285402838711 147.50001830870644 557.065205330957
  endloop
endfacet
facet normal 4.9923953859831785e-14 -1.5148961883958467e-30 1.0
  outer loop
    vertex 1901.4285402838711 147.50001830870644 557.065205330957
    vertex 1898.9285402838714 146.50001830870644 557.065205330957
    vertex 1916.4285402838714 147.50001830870644 557.0652053309561
  endloop
endfacet
facet normal 4.9923953859831785e-14 -1.5148961883958467e-30 1.0
  outer loop
    vertex 1898.9285402838714 151.50001830870644 557.065205330957
    vertex 1899.9796515444375 148.61178974105266 557.065205330957
    vertex 1899.9285402838711 149.00001830870647 557.065205330957
  endloop
endfacet
facet normal 4.9923953859831785e-14 -1.5148961883958467e-30 1.0
  outer loop
    vertex 1898.9285402838714 151.50001830870644 557.065205330957
    vertex 1899.9285402838711 149.00001830870647 557.065205330957
    vertex 1899.9796515444375 149.38824687636028 557.065205330957
  endloop
endfacet
facet normal 4.9923953859831785e-14 -1.5148961883958467e-30 1.0
  outer loop
    vertex 1898.9285402838714 151.50001830870644 557.065205330957
    vertex 1899.9796515444375 149.38824687636028 557.065205330957
    vertex 1900.1295021781943 149.75001830870647 557.065205330957
  endloop
endfacet
facet normal 4.9923953859831785e-14 -1.5148961883958467e-30 1.0
  outer loop
    vertex 1898.9285402838714 151.50001830870644 557.065205330957
    vertex 1900.1295021781943 149.75001830870647 557.065205330957
    vertex 1900.3678801120914 150.06067848048633 557.065205330957
  endloop
endfacet
facet normal 4.9923953859831785e-14 -1.5148961883958467e-30 1.0
  outer loop
    vertex 1898.9285402838714 151.50001830870644 557.065205330957
    vertex 1900.3678801120914 150.06067848048633 557.065205330957
    vertex 1900.6785402838714 150.29905641438313 557.065205330957
  endloop
endfacet
facet normal 4.9923953859831785e-14 -1.5148961883958467e-30 1.0
  outer loop
    vertex 1898.9285402838714 151.50001830870644 557.065205330957
    vertex 1900.6785402838714 150.29905641438313 557.065205330957
    vertex 1901.0403117162173 150.4489070481401 557.065205330957
  endloop
endfacet
facet normal 4.9923953859831785e-14 -1.5148961883958467e-30 1.0
  outer loop
    vertex 1898.9285402838714 151.50001830870644 557.065205330957
    vertex 1901.0403117162173 150.4489070481401 557.065205330957
    vertex 1901.4285402838711 150.5000183087065 557.065205330957
  endloop
endfacet
facet normal 4.9923953859831785e-14 -1.5148961883958467e-30 1.0
  outer loop
    vertex 1898.9285402838714 151.50001830870644 557.065205330957
    vertex 1901.4285402838711 150.5000183087065 557.065205330957
    vertex 1918.9285402838711 151.50001830870644 557.065205330956
  endloop
endfacet
facet normal 4.9923953859831785e-14 -1.5148961883958467e-30 1.0
  outer loop
    vertex 1916.0403117162175 147.55112956927286 557.0652053309561
    vertex 1901.4285402838711 147.50001830870644 557.065205330957
    vertex 1916.4285402838714 147.50001830870644 557.0652053309561
  endloop
endfacet
facet normal 4.9923953859831785e-14 -1.5148961883958467e-30 1.0
  outer loop
    vertex 1901.4285402838711 147.50001830870644 557.065205330957
    vertex 1916.0403117162175 147.55112956927286 557.0652053309561
    vertex 1901.816768851525 147.55112956927286 557.0652053309569
  endloop
endfacet
facet normal 4.9923953859831785e-14 -1.5148961883958467e-30 1.0
  outer loop
    vertex 1901.816768851525 147.55112956927286 557.0652053309569
    vertex 1916.0403117162175 147.55112956927286 557.0652053309561
    vertex 1915.6785402838711 147.7009802030298 557.0652053309561
  endloop
endfacet
facet normal 4.9923953859831785e-14 -1.5148961883958467e-30 1.0
  outer loop
    vertex 1901.816768851525 147.55112956927286 557.0652053309569
    vertex 1915.6785402838711 147.7009802030298 557.0652053309561
    vertex 1902.1785402838714 147.7009802030298 557.0652053309569
  endloop
endfacet
facet normal 4.9923953859831785e-14 -1.5148961883958467e-30 1.0
  outer loop
    vertex 1902.1785402838714 147.7009802030298 557.0652053309569
    vertex 1915.6785402838711 147.7009802030298 557.0652053309561
    vertex 1915.3678801120916 147.93935813692661 557.0652053309562
  endloop
endfacet
facet normal 4.9923953859831785e-14 -1.5148961883958467e-30 1.0
  outer loop
    vertex 1902.1785402838714 147.7009802030298 557.0652053309569
    vertex 1915.3678801120916 147.93935813692661 557.0652053309562
    vertex 1902.489200455651 147.93935813692661 557.0652053309569
  endloop
endfacet
facet normal 4.9923953859831785e-14 -1.5148961883958467e-30 1.0
  outer loop
    vertex 1902.489200455651 147.93935813692661 557.0652053309569
    vertex 1915.3678801120916 147.93935813692661 557.0652053309562
    vertex 1915.1295021781946 148.25001830870647 557.0652053309562
  endloop
endfacet
facet normal 4.9923953859831785e-14 -1.5148961883958467e-30 1.0
  outer loop
    vertex 1902.489200455651 147.93935813692661 557.0652053309569
    vertex 1915.1295021781946 148.25001830870647 557.0652053309562
    vertex 1902.727578389548 148.25001830870647 557.0652053309568
  endloop
endfacet
facet normal 4.9923953859831785e-14 -1.5148961883958467e-30 1.0
  outer loop
    vertex 1902.727578389548 148.25001830870647 557.0652053309568
    vertex 1915.1295021781946 148.25001830870647 557.0652053309562
    vertex 1914.9796515444377 148.61178974105266 557.0652053309562
  endloop
endfacet
facet normal 4.9923953859831785e-14 -1.5148961883958467e-30 1.0
  outer loop
    vertex 1902.727578389548 148.25001830870647 557.0652053309568
    vertex 1914.9796515444377 148.61178974105266 557.0652053309562
    vertex 1902.8774290233048 148.61178974105266 557.0652053309568
  endloop
endfacet
facet normal 4.9923953859831785e-14 -1.5148961883958467e-30 1.0
  outer loop
    vertex 1902.8774290233048 148.61178974105266 557.0652053309568
    vertex 1914.9796515444377 148.61178974105266 557.0652053309562
    vertex 1914.9285402838714 149.00001830870647 557.0652053309562
  endloop
endfacet
facet normal 4.9923953859831785e-14 -1.5148961883958467e-30 1.0
  outer loop
    vertex 1902.8774290233048 148.61178974105266 557.0652053309568
    vertex 1914.9285402838714 149.00001830870647 557.0652053309562
    vertex 1902.9285402838711 149.00001830870647 557.0652053309568
  endloop
endfacet
facet normal 4.9923953859831785e-14 -1.5148961883958467e-30 1.0
  outer loop
    vertex 1902.9285402838711 149.00001830870647 557.0652053309568
    vertex 1914.9285402838714 149.00001830870647 557.0652053309562
    vertex 1914.9796515444377 149.38824687636028 557.0652053309562
  endloop
endfacet
facet normal 4.9923953859831785e-14 -1.5148961883958467e-30 1.0
  outer loop
    vertex 1902.9285402838711 149.00001830870647 557.0652053309568
    vertex 1914.9796515444377 149.38824687636028 557.0652053309562
    vertex 1902.8774290233048 149.38824687636028 557.0652053309568
  endloop
endfacet
facet normal 4.9923953859831785e-14 -1.5148961883958467e-30 1.0
  outer loop
    vertex 1902.8774290233048 149.38824687636028 557.0652053309568
    vertex 1914.9796515444377 149.38824687636028 557.0652053309562
    vertex 1915.1295021781946 149.75001830870647 557.0652053309562
  endloop
endfacet
facet normal 4.9923953859831785e-14 -1.5148961883958467e-30 1.0
  outer loop
    vertex 1902.8774290233048 149.38824687636028 557.0652053309568
    vertex 1915.1295021781946 149.75001830870647 557.0652053309562
    vertex 1902.727578389548 149.75001830870647 557.0652053309568
  endloop
endfacet
facet normal 4.9923953859831785e-14 -1.5148961883958467e-30 1.0
  outer loop
    vertex 1902.727578389548 149.75001830870647 557.0652053309568
    vertex 1915.1295021781946 149.75001830870647 557.0652053309562
    vertex 1915.3678801120916 150.06067848048633 557.0652053309562
  endloop
endfacet
facet normal 4.9923953859831785e-14 -1.5148961883958467e-30 1.0
  outer loop
    vertex 1902.727578389548 149.75001830870647 557.0652053309568
    vertex 1915.3678801120916 150.06067848048633 557.0652053309562
    vertex 1902.489200455651 150.06067848048633 557.0652053309569
  endloop
endfacet
facet normal 4.9923953859831785e-14 -1.5148961883958467e-30 1.0
  outer loop
    vertex 1902.489200455651 150.06067848048633 557.0652053309569
    vertex 1915.3678801120916 150.06067848048633 557.0652053309562
    vertex 1915.6785402838711 150.29905641438313 557.0652053309562
  endloop
endfacet
facet normal 4.9923953859831785e-14 -1.5148961883958467e-30 1.0
  outer loop
    vertex 1902.489200455651 150.06067848048633 557.0652053309569
    vertex 1915.6785402838711 150.29905641438313 557.0652053309562
    vertex 1902.1785402838714 150.29905641438313 557.0652053309569
  endloop
endfacet
facet normal 4.9923953859831785e-14 -1.5148961883958467e-30 1.0
  outer loop
    vertex 1902.1785402838714 150.29905641438313 557.0652053309569
    vertex 1915.6785402838711 150.29905641438313 557.0652053309562
    vertex 1916.0403117162175 150.4489070481401 557.0652053309561
  endloop
endfacet
facet normal 4.9923953859831785e-14 -1.5148961883958467e-30 1.0
  outer loop
    vertex 1902.1785402838714 150.29905641438313 557.0652053309569
    vertex 1916.0403117162175 150.4489070481401 557.0652053309561
    vertex 1901.816768851525 150.4489070481401 557.0652053309569
  endloop
endfacet
facet normal 4.9923953859831785e-14 -1.5148961883958467e-30 1.0
  outer loop
    vertex 1901.816768851525 150.4489070481401 557.0652053309569
    vertex 1916.0403117162175 150.4489070481401 557.0652053309561
    vertex 1916.4285402838714 150.5000183087065 557.0652053309561
  endloop
endfacet
facet normal 4.9923953859831785e-14 -1.5148961883958467e-30 1.0
  outer loop
    vertex 1901.816768851525 150.4489070481401 557.0652053309569
    vertex 1916.4285402838714 150.5000183087065 557.0652053309561
    vertex 1901.4285402838711 150.5000183087065 557.065205330957
  endloop
endfacet
facet normal -1.5148961883957934e-30 1.0 1.5148961883959223e-30
  outer loop
    vertex 1898.9285402838714 151.50001830870644 557.065205330957
    vertex 1918.9285402838707 151.50001830870644 549.0652053309558
    vertex 1898.928540283871 151.50001830870644 549.0652053309568
  endloop
endfacet
facet normal -1.5148961883957934e-30 1.0 1.5148961883959223e-30
  outer loop
    vertex 1918.9285402838707 151.50001830870644 549.0652053309558
    vertex 1898.9285402838714 151.50001830870644 557.065205330957
    vertex 1918.9285402838711 151.50001830870644 557.065205330956
  endloop
endfacet
facet normal -1.0 -1.583222488831972e-14 2.863602985459105e-14
  outer loop
    vertex 1918.9285402838707 160.50001830870625 559.065205330956
    vertex 1918.9285402838707 155.8882468763602 555.5140940703894
    vertex 1918.9285402838711 146.50001830870644 559.065205330956
  endloop
endfacet
facet normal -1.0 -1.583222488831972e-14 2.863602985459105e-14
  outer loop
    vertex 1918.9285402838707 155.8882468763602 555.5140940703894
    vertex 1918.9285402838707 160.50001830870625 559.065205330956
    vertex 1918.9285402838711 156.25001830870627 555.3642434366324
  endloop
endfacet
facet normal -1.0 -1.583222488831972e-14 2.863602985459105e-14
  outer loop
    vertex 1918.9285402838711 156.25001830870627 555.3642434366324
    vertex 1918.9285402838707 160.50001830870625 559.065205330956
    vertex 1918.9285402838711 156.5606784804861 555.1258655027357
  endloop
endfacet
facet normal -1.0 -1.583222488831972e-14 2.863602985459105e-14
  outer loop
    vertex 1918.9285402838711 156.5606784804861 555.1258655027357
    vertex 1918.9285402838707 160.50001830870625 559.065205330956
    vertex 1918.9285402838711 156.79905641438316 554.8152053309557
  endloop
endfacet
facet normal -1.0 -1.583222488831972e-14 2.863602985459105e-14
  outer loop
    vertex 1918.9285402838711 156.79905641438316 554.8152053309557
    vertex 1918.9285402838707 160.50001830870625 559.065205330956
    vertex 1918.9285402838707 160.50001830870625 549.0652053309558
  endloop
endfacet
facet normal -1.0 -1.583222488831972e-14 2.863602985459105e-14
  outer loop
    vertex 1918.9285402838711 146.50001830870644 559.065205330956
    vertex 1918.9285402838707 155.8882468763602 555.5140940703894
    vertex 1918.9285402838711 151.50001830870644 557.065205330956
  endloop
endfacet
facet normal -1.0 -1.583222488831972e-14 2.863602985459105e-14
  outer loop
    vertex 1918.9285402838711 151.50001830870644 557.065205330956
    vertex 1918.9285402838707 155.8882468763602 555.5140940703894
    vertex 1918.9285402838711 155.50001830870647 555.5652053309559
  endloop
endfacet
facet normal -1.0 -1.583222488831972e-14 2.863602985459105e-14
  outer loop
    vertex 1918.9285402838711 156.79905641438316 554.8152053309557
    vertex 1918.9285402838707 160.50001830870625 549.0652053309558
    vertex 1918.9285402838711 156.94890704814 554.4534338986098
  endloop
endfacet
facet normal -1.0 -1.583222488831972e-14 2.863602985459105e-14
  outer loop
    vertex 1918.9285402838711 156.94890704814 554.4534338986098
    vertex 1918.9285402838707 160.50001830870625 549.0652053309558
    vertex 1918.9285402838711 157.00001830870627 554.0652053309556
  endloop
endfacet
facet normal -1.0 -1.583222488831972e-14 2.863602985459105e-14
  outer loop
    vertex 1918.9285402838711 157.00001830870627 554.0652053309556
    vertex 1918.9285402838707 160.50001830870625 549.0652053309558
    vertex 1918.9285402838711 156.94890704813994 553.676976763302
  endloop
endfacet
facet normal -1.0 -1.583222488831972e-14 2.863602985459105e-14
  outer loop
    vertex 1918.9285402838711 156.94890704813994 553.676976763302
    vertex 1918.9285402838707 160.50001830870625 549.0652053309558
    vertex 1918.9285402838707 156.7990564143833 553.3152053309558
  endloop
endfacet
facet normal -1.0 -1.583222488831972e-14 2.863602985459105e-14
  outer loop
    vertex 1918.9285402838707 156.7990564143833 553.3152053309558
    vertex 1918.9285402838707 160.50001830870625 549.0652053309558
    vertex 1918.9285402838707 156.56067848048605 553.004545159176
  endloop
endfacet
facet normal -1.0 -1.583222488831972e-14 2.863602985459105e-14
  outer loop
    vertex 1918.9285402838707 156.56067848048605 553.004545159176
    vertex 1918.9285402838707 160.50001830870625 549.0652053309558
    vertex 1918.9285402838707 156.25001830870644 552.7661672252791
  endloop
endfacet
facet normal -1.0 -1.583222488831972e-14 2.863602985459105e-14
  outer loop
    vertex 1918.9285402838707 156.25001830870644 552.7661672252791
    vertex 1918.9285402838707 160.50001830870625 549.0652053309558
    vertex 1918.9285402838711 155.88824687636006 552.6163165915221
  endloop
endfacet
facet normal -1.0 -1.583222488831972e-14 2.863602985459105e-14
  outer loop
    vertex 1918.9285402838711 155.88824687636006 552.6163165915221
    vertex 1918.9285402838707 160.50001830870625 549.0652053309558
    vertex 1918.9285402838707 155.5000183087064 552.5652053309558
  endloop
endfacet
facet normal -1.0 -1.583222488831972e-14 2.863602985459105e-14
  outer loop
    vertex 1918.9285402838711 151.50001830870644 557.065205330956
    vertex 1918.9285402838711 154.20098020302999 554.8152053309559
    vertex 1918.9285402838707 151.50001830870644 549.0652053309558
  endloop
endfacet
facet normal -1.0 -1.583222488831972e-14 2.863602985459105e-14
  outer loop
    vertex 1918.9285402838711 154.20098020302999 554.8152053309559
    vertex 1918.9285402838711 151.50001830870644 557.065205330956
    vertex 1918.9285402838711 154.43935813692667 555.1258655027357
  endloop
endfacet
facet normal -1.0 -1.583222488831972e-14 2.863602985459105e-14
  outer loop
    vertex 1918.9285402838711 154.43935813692667 555.1258655027357
    vertex 1918.9285402838711 151.50001830870644 557.065205330956
    vertex 1918.9285402838711 154.75001830870653 555.3642434366326
  endloop
endfacet
facet normal -1.0 -1.583222488831972e-14 2.863602985459105e-14
  outer loop
    vertex 1918.9285402838711 154.75001830870653 555.3642434366326
    vertex 1918.9285402838711 151.50001830870644 557.065205330956
    vertex 1918.9285402838711 155.11178974105255 555.5140940703894
  endloop
endfacet
facet normal -1.0 -1.583222488831972e-14 2.863602985459105e-14
  outer loop
    vertex 1918.9285402838711 155.11178974105255 555.5140940703894
    vertex 1918.9285402838711 151.50001830870644 557.065205330956
    vertex 1918.9285402838711 155.50001830870647 555.5652053309559
  endloop
endfacet
facet normal -1.0 -1.583222488831972e-14 2.863602985459105e-14
  outer loop
    vertex 1918.9285402838707 151.50001830870644 549.0652053309558
    vertex 1918.9285402838711 154.20098020302999 554.8152053309559
    vertex 1918.9285402838711 154.05112956927275 554.4534338986095
  endloop
endfacet
facet normal -1.0 -1.583222488831972e-14 2.863602985459105e-14
  outer loop
    vertex 1918.9285402838707 151.50001830870644 549.0652053309558
    vertex 1918.9285402838711 154.05112956927275 554.4534338986095
    vertex 1918.9285402838711 154.00001830870627 554.0652053309558
  endloop
endfacet
facet normal -1.0 -1.583222488831972e-14 2.863602985459105e-14
  outer loop
    vertex 1918.9285402838707 151.50001830870644 549.0652053309558
    vertex 1918.9285402838711 154.00001830870627 554.0652053309558
    vertex 1918.9285402838711 154.0511295692728 553.6769767633023
  endloop
endfacet
facet normal -1.0 -1.583222488831972e-14 2.863602985459105e-14
  outer loop
    vertex 1918.9285402838707 151.50001830870644 549.0652053309558
    vertex 1918.9285402838711 154.0511295692728 553.6769767633023
    vertex 1918.9285402838707 154.20098020302973 553.3152053309559
  endloop
endfacet
facet normal -1.0 -1.583222488831972e-14 2.863602985459105e-14
  outer loop
    vertex 1918.9285402838707 151.50001830870644 549.0652053309558
    vertex 1918.9285402838707 154.20098020302973 553.3152053309559
    vertex 1918.9285402838707 154.43935813692642 553.0045451591761
  endloop
endfacet
facet normal -1.0 -1.583222488831972e-14 2.863602985459105e-14
  outer loop
    vertex 1918.9285402838707 151.50001830870644 549.0652053309558
    vertex 1918.9285402838707 154.43935813692642 553.0045451591761
    vertex 1918.9285402838711 154.7500183087061 552.7661672252791
  endloop
endfacet
facet normal -1.0 -1.583222488831972e-14 2.863602985459105e-14
  outer loop
    vertex 1918.9285402838707 151.50001830870644 549.0652053309558
    vertex 1918.9285402838711 154.7500183087061 552.7661672252791
    vertex 1918.9285402838707 155.1117897410525 552.6163165915223
  endloop
endfacet
facet normal -1.0 -1.583222488831972e-14 2.863602985459105e-14
  outer loop
    vertex 1918.9285402838707 151.50001830870644 549.0652053309558
    vertex 1918.9285402838707 155.1117897410525 552.6163165915223
    vertex 1918.9285402838707 155.5000183087064 552.5652053309558
  endloop
endfacet
facet normal -1.0 -1.583222488831972e-14 2.863602985459105e-14
  outer loop
    vertex 1918.9285402838707 151.50001830870644 549.0652053309558
    vertex 1918.9285402838707 155.5000183087064 552.5652053309558
    vertex 1918.9285402838707 160.50001830870625 549.0652053309558
  endloop
endfacet
facet normal -1.0 -1.583222488831972e-14 2.863602985459105e-14
  outer loop
    vertex 1918.9285402838711 146.50001830870644 557.065205330956
    vertex 1918.9285402838711 146.50001830870644 559.065205330956
    vertex 1918.9285402838711 151.50001830870644 557.065205330956
  endloop
endfacet
facet normal -4.809502753579593e-14 -1.0557216992402177e-15 -1.0
  outer loop
    vertex 1898.928540283871 146.50001830870644 549.0652053309568
    vertex 1901.4285402838707 147.50001830870644 549.0652053309568
    vertex 1921.9285402838707 146.5000183087065 549.0652053309558
  endloop
endfacet
facet normal -4.809502753579593e-14 -1.0557216992402177e-15 -1.0
  outer loop
    vertex 1901.4285402838707 147.50001830870644 549.0652053309568
    vertex 1898.928540283871 146.50001830870644 549.0652053309568
    vertex 1901.0403117162168 147.55112956927286 549.0652053309568
  endloop
endfacet
facet normal -4.809502753579593e-14 -1.0557216992402177e-15 -1.0
  outer loop
    vertex 1901.0403117162168 147.55112956927286 549.0652053309568
    vertex 1898.928540283871 146.50001830870644 549.0652053309568
    vertex 1900.6785402838705 147.7009802030298 549.0652053309568
  endloop
endfacet
facet normal -4.809502753579593e-14 -1.0557216992402177e-15 -1.0
  outer loop
    vertex 1900.6785402838705 147.7009802030298 549.0652053309568
    vertex 1898.928540283871 146.50001830870644 549.0652053309568
    vertex 1900.367880112091 147.93935813692661 549.0652053309568
  endloop
endfacet
facet normal -4.809502753579593e-14 -1.0557216992402177e-15 -1.0
  outer loop
    vertex 1900.367880112091 147.93935813692661 549.0652053309568
    vertex 1898.928540283871 146.50001830870644 549.0652053309568
    vertex 1900.129502178194 148.25001830870647 549.0652053309569
  endloop
endfacet
facet normal -4.809502753579593e-14 -1.0557216992402177e-15 -1.0
  outer loop
    vertex 1900.129502178194 148.25001830870647 549.0652053309569
    vertex 1898.928540283871 146.50001830870644 549.0652053309568
    vertex 1899.979651544437 148.61178974105266 549.0652053309569
  endloop
endfacet
facet normal -4.809502753579593e-14 -1.0557216992402177e-15 -1.0
  outer loop
    vertex 1899.979651544437 148.61178974105266 549.0652053309569
    vertex 1898.928540283871 146.50001830870644 549.0652053309568
    vertex 1898.928540283871 151.50001830870644 549.0652053309568
  endloop
endfacet
facet normal -4.809502753579593e-14 -1.0557216992402177e-15 -1.0
  outer loop
    vertex 1899.979651544437 148.61178974105266 549.0652053309569
    vertex 1898.928540283871 151.50001830870644 549.0652053309568
    vertex 1899.9285402838707 149.00001830870647 549.0652053309569
  endloop
endfacet
facet normal -4.809502753579593e-14 -1.0557216992402177e-15 -1.0
  outer loop
    vertex 1899.9285402838707 149.00001830870647 549.0652053309569
    vertex 1898.928540283871 151.50001830870644 549.0652053309568
    vertex 1899.979651544437 149.38824687636028 549.0652053309569
  endloop
endfacet
facet normal -4.809502753579593e-14 -1.0557216992402177e-15 -1.0
  outer loop
    vertex 1899.979651544437 149.38824687636028 549.0652053309569
    vertex 1898.928540283871 151.50001830870644 549.0652053309568
    vertex 1900.129502178194 149.75001830870647 549.0652053309569
  endloop
endfacet
facet normal -4.809502753579593e-14 -1.0557216992402177e-15 -1.0
  outer loop
    vertex 1900.129502178194 149.75001830870647 549.0652053309569
    vertex 1898.928540283871 151.50001830870644 549.0652053309568
    vertex 1900.367880112091 150.06067848048633 549.0652053309568
  endloop
endfacet
facet normal -4.809502753579593e-14 -1.0557216992402177e-15 -1.0
  outer loop
    vertex 1900.367880112091 150.06067848048633 549.0652053309568
    vertex 1898.928540283871 151.50001830870644 549.0652053309568
    vertex 1900.6785402838705 150.29905641438313 549.0652053309568
  endloop
endfacet
facet normal -4.809502753579593e-14 -1.0557216992402177e-15 -1.0
  outer loop
    vertex 1900.6785402838705 150.29905641438313 549.0652053309568
    vertex 1898.928540283871 151.50001830870644 549.0652053309568
    vertex 1901.0403117162168 150.4489070481401 549.0652053309568
  endloop
endfacet
facet normal -4.809502753579593e-14 -1.0557216992402177e-15 -1.0
  outer loop
    vertex 1901.0403117162168 150.4489070481401 549.0652053309568
    vertex 1898.928540283871 151.50001830870644 549.0652053309568
    vertex 1901.4285402838707 150.5000183087065 549.0652053309568
  endloop
endfacet
facet normal -4.809502753579593e-14 -1.0557216992402177e-15 -1.0
  outer loop
    vertex 1901.4285402838707 150.5000183087065 549.0652053309568
    vertex 1898.928540283871 151.50001830870644 549.0652053309568
    vertex 1916.428540283871 150.50001830870653 549.0652053309559
  endloop
endfacet
facet normal -4.809502753579593e-14 -1.0557216992402177e-15 -1.0
  outer loop
    vertex 1921.9285402838707 146.5000183087065 549.0652053309558
    vertex 1918.9285402838707 151.50001830870644 549.0652053309558
    vertex 1921.9285402838707 160.5000183087063 549.0652053309558
  endloop
endfacet
facet normal -4.809502753579593e-14 -1.0557216992402177e-15 -1.0
  outer loop
    vertex 1918.9285402838707 151.50001830870644 549.0652053309558
    vertex 1921.9285402838707 146.5000183087065 549.0652053309558
    vertex 1917.8774290233043 148.61178974105272 549.0652053309559
  endloop
endfacet
facet normal -4.809502753579593e-14 -1.0557216992402177e-15 -1.0
  outer loop
    vertex 1917.8774290233043 148.61178974105272 549.0652053309559
    vertex 1921.9285402838707 146.5000183087065 549.0652053309558
    vertex 1917.7275783895473 148.2500183087065 549.0652053309559
  endloop
endfacet
facet normal -4.809502753579593e-14 -1.0557216992402177e-15 -1.0
  outer loop
    vertex 1917.7275783895473 148.2500183087065 549.0652053309559
    vertex 1921.9285402838707 146.5000183087065 549.0652053309558
    vertex 1917.4892004556507 147.93935813692667 549.0652053309559
  endloop
endfacet
facet normal -4.809502753579593e-14 -1.0557216992402177e-15 -1.0
  outer loop
    vertex 1917.4892004556507 147.93935813692667 549.0652053309559
    vertex 1921.9285402838707 146.5000183087065 549.0652053309558
    vertex 1917.1785402838707 147.70098020302984 549.0652053309559
  endloop
endfacet
facet normal -4.809502753579593e-14 -1.0557216992402177e-15 -1.0
  outer loop
    vertex 1917.1785402838707 147.70098020302984 549.0652053309559
    vertex 1921.9285402838707 146.5000183087065 549.0652053309558
    vertex 1916.8167688515246 147.55112956927292 549.0652053309559
  endloop
endfacet
facet normal -4.809502753579593e-14 -1.0557216992402177e-15 -1.0
  outer loop
    vertex 1916.8167688515246 147.55112956927292 549.0652053309559
    vertex 1921.9285402838707 146.5000183087065 549.0652053309558
    vertex 1916.428540283871 147.5000183087065 549.0652053309559
  endloop
endfacet
facet normal -4.809502753579593e-14 -1.0557216992402177e-15 -1.0
  outer loop
    vertex 1916.428540283871 147.5000183087065 549.0652053309559
    vertex 1921.9285402838707 146.5000183087065 549.0652053309558
    vertex 1901.4285402838707 147.50001830870644 549.0652053309568
  endloop
endfacet
facet normal -4.809502753579593e-14 -1.0557216992402177e-15 -1.0
  outer loop
    vertex 1918.9285402838707 151.50001830870644 549.0652053309558
    vertex 1917.8774290233043 148.61178974105272 549.0652053309559
    vertex 1917.928540283871 149.00001830870653 549.0652053309559
  endloop
endfacet
facet normal -4.809502753579593e-14 -1.0557216992402177e-15 -1.0
  outer loop
    vertex 1918.9285402838707 151.50001830870644 549.0652053309558
    vertex 1917.928540283871 149.00001830870653 549.0652053309559
    vertex 1917.8774290233043 149.3882468763603 549.0652053309559
  endloop
endfacet
facet normal -4.809502753579593e-14 -1.0557216992402177e-15 -1.0
  outer loop
    vertex 1918.9285402838707 151.50001830870644 549.0652053309558
    vertex 1917.8774290233043 149.3882468763603 549.0652053309559
    vertex 1917.7275783895473 149.75001830870653 549.0652053309559
  endloop
endfacet
facet normal -4.809502753579593e-14 -1.0557216992402177e-15 -1.0
  outer loop
    vertex 1918.9285402838707 151.50001830870644 549.0652053309558
    vertex 1917.7275783895473 149.75001830870653 549.0652053309559
    vertex 1917.4892004556507 150.06067848048636 549.0652053309559
  endloop
endfacet
facet normal -4.809502753579593e-14 -1.0557216992402177e-15 -1.0
  outer loop
    vertex 1918.9285402838707 151.50001830870644 549.0652053309558
    vertex 1917.4892004556507 150.06067848048636 549.0652053309559
    vertex 1917.1785402838707 150.2990564143832 549.0652053309559
  endloop
endfacet
facet normal -4.809502753579593e-14 -1.0557216992402177e-15 -1.0
  outer loop
    vertex 1918.9285402838707 151.50001830870644 549.0652053309558
    vertex 1917.1785402838707 150.2990564143832 549.0652053309559
    vertex 1916.8167688515246 150.44890704814011 549.0652053309559
  endloop
endfacet
facet normal -4.809502753579593e-14 -1.0557216992402177e-15 -1.0
  outer loop
    vertex 1918.9285402838707 151.50001830870644 549.0652053309558
    vertex 1916.8167688515246 150.44890704814011 549.0652053309559
    vertex 1916.428540283871 150.50001830870653 549.0652053309559
  endloop
endfacet
facet normal -4.809502753579593e-14 -1.0557216992402177e-15 -1.0
  outer loop
    vertex 1918.9285402838707 151.50001830870644 549.0652053309558
    vertex 1916.428540283871 150.50001830870653 549.0652053309559
    vertex 1898.928540283871 151.50001830870644 549.0652053309568
  endloop
endfacet
facet normal -4.809502753579593e-14 -1.0557216992402177e-15 -1.0
  outer loop
    vertex 1921.9285402838707 160.5000183087063 549.0652053309558
    vertex 1918.9285402838707 151.50001830870644 549.0652053309558
    vertex 1918.9285402838707 160.50001830870625 549.0652053309558
  endloop
endfacet
facet normal -4.809502753579593e-14 -1.0557216992402177e-15 -1.0
  outer loop
    vertex 1901.8167688515243 147.55112956927286 549.0652053309567
    vertex 1916.428540283871 147.5000183087065 549.0652053309559
    vertex 1901.4285402838707 147.50001830870644 549.0652053309568
  endloop
endfacet
facet normal -4.809502753579593e-14 -1.0557216992402177e-15 -1.0
  outer loop
    vertex 1916.428540283871 147.5000183087065 549.0652053309559
    vertex 1901.8167688515243 147.55112956927286 549.0652053309567
    vertex 1916.040311716217 147.55112956927292 549.0652053309559
  endloop
endfacet
facet normal -4.809502753579593e-14 -1.0557216992402177e-15 -1.0
  outer loop
    vertex 1916.040311716217 147.55112956927292 549.0652053309559
    vertex 1901.8167688515243 147.55112956927286 549.0652053309567
    vertex 1902.1785402838707 147.7009802030298 549.0652053309567
  endloop
endfacet
facet normal -4.809502753579593e-14 -1.0557216992402177e-15 -1.0
  outer loop
    vertex 1916.040311716217 147.55112956927292 549.0652053309559
    vertex 1902.1785402838707 147.7009802030298 549.0652053309567
    vertex 1915.6785402838707 147.70098020302984 549.065205330956
  endloop
endfacet
facet normal -4.809502753579593e-14 -1.0557216992402177e-15 -1.0
  outer loop
    vertex 1915.6785402838707 147.70098020302984 549.065205330956
    vertex 1902.1785402838707 147.7009802030298 549.0652053309567
    vertex 1902.4892004556505 147.93935813692661 549.0652053309567
  endloop
endfacet
facet normal -4.809502753579593e-14 -1.0557216992402177e-15 -1.0
  outer loop
    vertex 1915.6785402838707 147.70098020302984 549.065205330956
    vertex 1902.4892004556505 147.93935813692661 549.0652053309567
    vertex 1915.3678801120911 147.93935813692667 549.065205330956
  endloop
endfacet
facet normal -4.809502753579593e-14 -1.0557216992402177e-15 -1.0
  outer loop
    vertex 1915.3678801120911 147.93935813692667 549.065205330956
    vertex 1902.4892004556505 147.93935813692661 549.0652053309567
    vertex 1902.7275783895473 148.25001830870647 549.0652053309567
  endloop
endfacet
facet normal -4.809502753579593e-14 -1.0557216992402177e-15 -1.0
  outer loop
    vertex 1915.3678801120911 147.93935813692667 549.065205330956
    vertex 1902.7275783895473 148.25001830870647 549.0652053309567
    vertex 1915.1295021781941 148.2500183087065 549.065205330956
  endloop
endfacet
facet normal -4.809502753579593e-14 -1.0557216992402177e-15 -1.0
  outer loop
    vertex 1915.1295021781941 148.2500183087065 549.065205330956
    vertex 1902.7275783895473 148.25001830870647 549.0652053309567
    vertex 1902.877429023304 148.61178974105266 549.0652053309567
  endloop
endfacet
facet normal -4.809502753579593e-14 -1.0557216992402177e-15 -1.0
  outer loop
    vertex 1915.1295021781941 148.2500183087065 549.065205330956
    vertex 1902.877429023304 148.61178974105266 549.0652053309567
    vertex 1914.9796515444373 148.61178974105272 549.065205330956
  endloop
endfacet
facet normal -4.809502753579593e-14 -1.0557216992402177e-15 -1.0
  outer loop
    vertex 1914.9796515444373 148.61178974105272 549.065205330956
    vertex 1902.877429023304 148.61178974105266 549.0652053309567
    vertex 1902.9285402838707 149.00001830870647 549.0652053309567
  endloop
endfacet
facet normal -4.809502753579593e-14 -1.0557216992402177e-15 -1.0
  outer loop
    vertex 1914.9796515444373 148.61178974105272 549.065205330956
    vertex 1902.9285402838707 149.00001830870647 549.0652053309567
    vertex 1914.928540283871 149.00001830870653 549.065205330956
  endloop
endfacet
facet normal -4.809502753579593e-14 -1.0557216992402177e-15 -1.0
  outer loop
    vertex 1914.928540283871 149.00001830870653 549.065205330956
    vertex 1902.9285402838707 149.00001830870647 549.0652053309567
    vertex 1902.877429023304 149.38824687636028 549.0652053309567
  endloop
endfacet
facet normal -4.809502753579593e-14 -1.0557216992402177e-15 -1.0
  outer loop
    vertex 1914.928540283871 149.00001830870653 549.065205330956
    vertex 1902.877429023304 149.38824687636028 549.0652053309567
    vertex 1914.9796515444373 149.3882468763603 549.065205330956
  endloop
endfacet
facet normal -4.809502753579593e-14 -1.0557216992402177e-15 -1.0
  outer loop
    vertex 1914.9796515444373 149.3882468763603 549.065205330956
    vertex 1902.877429023304 149.38824687636028 549.0652053309567
    vertex 1902.7275783895473 149.75001830870647 549.0652053309567
  endloop
endfacet
facet normal -4.809502753579593e-14 -1.0557216992402177e-15 -1.0
  outer loop
    vertex 1914.9796515444373 149.3882468763603 549.065205330956
    vertex 1902.7275783895473 149.75001830870647 549.0652053309567
    vertex 1915.1295021781941 149.75001830870653 549.065205330956
  endloop
endfacet
facet normal -4.809502753579593e-14 -1.0557216992402177e-15 -1.0
  outer loop
    vertex 1915.1295021781941 149.75001830870653 549.065205330956
    vertex 1902.7275783895473 149.75001830870647 549.0652053309567
    vertex 1902.4892004556505 150.06067848048633 549.0652053309567
  endloop
endfacet
facet normal -4.809502753579593e-14 -1.0557216992402177e-15 -1.0
  outer loop
    vertex 1915.1295021781941 149.75001830870653 549.065205330956
    vertex 1902.4892004556505 150.06067848048633 549.0652053309567
    vertex 1915.3678801120911 150.06067848048636 549.065205330956
  endloop
endfacet
facet normal -4.809502753579593e-14 -1.0557216992402177e-15 -1.0
  outer loop
    vertex 1915.3678801120911 150.06067848048636 549.065205330956
    vertex 1902.4892004556505 150.06067848048633 549.0652053309567
    vertex 1902.1785402838707 150.29905641438313 549.0652053309567
  endloop
endfacet
facet normal -4.809502753579593e-14 -1.0557216992402177e-15 -1.0
  outer loop
    vertex 1915.3678801120911 150.06067848048636 549.065205330956
    vertex 1902.1785402838707 150.29905641438313 549.0652053309567
    vertex 1915.6785402838707 150.2990564143832 549.065205330956
  endloop
endfacet
facet normal -4.809502753579593e-14 -1.0557216992402177e-15 -1.0
  outer loop
    vertex 1915.6785402838707 150.2990564143832 549.065205330956
    vertex 1902.1785402838707 150.29905641438313 549.0652053309567
    vertex 1901.8167688515243 150.4489070481401 549.0652053309567
  endloop
endfacet
facet normal -4.809502753579593e-14 -1.0557216992402177e-15 -1.0
  outer loop
    vertex 1915.6785402838707 150.2990564143832 549.065205330956
    vertex 1901.8167688515243 150.4489070481401 549.0652053309567
    vertex 1916.040311716217 150.44890704814011 549.0652053309559
  endloop
endfacet
facet normal -4.809502753579593e-14 -1.0557216992402177e-15 -1.0
  outer loop
    vertex 1916.040311716217 150.44890704814011 549.0652053309559
    vertex 1901.8167688515243 150.4489070481401 549.0652053309567
    vertex 1901.4285402838707 150.5000183087065 549.0652053309568
  endloop
endfacet
facet normal -4.809502753579593e-14 -1.0557216992402177e-15 -1.0
  outer loop
    vertex 1916.040311716217 150.44890704814011 549.0652053309559
    vertex 1901.4285402838707 150.5000183087065 549.0652053309568
    vertex 1916.428540283871 150.50001830870653 549.0652053309559
  endloop
endfacet
facet normal -8.459899447643805e-15 1.0 1.3758693121440906e-28
  outer loop
    vertex 1921.9285402838707 160.5000183087063 559.0652053309559
    vertex 1918.9285402838707 160.50001830870625 549.0652053309558
    vertex 1918.9285402838707 160.50001830870625 559.065205330956
  endloop
endfacet
facet normal -8.459899447643805e-15 1.0 1.3758693121440906e-28
  outer loop
    vertex 1918.9285402838707 160.50001830870625 549.0652053309558
    vertex 1921.9285402838707 160.5000183087063 559.0652053309559
    vertex 1921.9285402838707 160.5000183087063 549.0652053309558
  endloop
endfacet
facet normal 3.112417730951221e-14 2.893507439404302e-28 1.0
  outer loop
    vertex 1921.9285402838711 146.5000183087065 559.0652053309559
    vertex 1918.9285402838707 160.50001830870625 559.065205330956
    vertex 1918.9285402838711 146.50001830870644 559.065205330956
  endloop
endfacet
facet normal 3.112417730951221e-14 2.893507439404302e-28 1.0
  outer loop
    vertex 1918.9285402838707 160.50001830870625 559.065205330956
    vertex 1921.9285402838711 146.5000183087065 559.0652053309559
    vertex 1921.9285402838707 160.5000183087063 559.0652053309559
  endloop
endfacet
facet normal 1.4601557103413157e-15 -1.0 -1.7704504464892701e-15
  outer loop
    vertex 1921.9285402838707 146.5000183087065 549.0652053309558
    vertex 1898.9285402838714 146.50001830870644 557.065205330957
    vertex 1898.928540283871 146.50001830870644 549.0652053309568
  endloop
endfacet
facet normal 1.4601557103413157e-15 -1.0 -1.7704504464892701e-15
  outer loop
    vertex 1898.9285402838714 146.50001830870644 557.065205330957
    vertex 1921.9285402838707 146.5000183087065 549.0652053309558
    vertex 1918.9285402838711 146.50001830870644 557.065205330956
  endloop
endfacet
facet normal 1.4601557103413157e-15 -1.0 -1.7704504464892701e-15
  outer loop
    vertex 1918.9285402838711 146.50001830870644 557.065205330956
    vertex 1921.9285402838707 146.5000183087065 549.0652053309558
    vertex 1918.9285402838711 146.50001830870644 559.065205330956
  endloop
endfacet
facet normal 1.4601557103413157e-15 -1.0 -1.7704504464892701e-15
  outer loop
    vertex 1918.9285402838711 146.50001830870644 559.065205330956
    vertex 1921.9285402838707 146.5000183087065 549.0652053309558
    vertex 1921.9285402838711 146.5000183087065 559.0652053309559
  endloop
endfacet
facet normal -3.047102877100593e-14 0.13052619222016323 -0.9914448613737958
  outer loop
    vertex 1918.9285402838711 155.50001830870647 555.5652053309559
    vertex 1921.9285402838711 155.1117897410526 555.5140940703893
    vertex 1918.9285402838711 155.11178974105255 555.5140940703894
  endloop
endfacet
facet normal -3.047102877100593e-14 0.13052619222016323 -0.9914448613737958
  outer loop
    vertex 1921.9285402838711 155.1117897410526 555.5140940703893
    vertex 1918.9285402838711 155.50001830870647 555.5652053309559
    vertex 1921.9285402838711 155.50001830870653 555.5652053309558
  endloop
endfacet
facet normal -2.8262551848072182e-14 -0.13052619222023779 -0.991444861373786
  outer loop
    vertex 1918.9285402838707 155.8882468763602 555.5140940703894
    vertex 1921.9285402838711 155.50001830870653 555.5652053309558
    vertex 1918.9285402838711 155.50001830870647 555.5652053309559
  endloop
endfacet
facet normal -2.8262551848072182e-14 -0.13052619222023779 -0.991444861373786
  outer loop
    vertex 1921.9285402838711 155.50001830870653 555.5652053309558
    vertex 1918.9285402838707 155.8882468763602 555.5140940703894
    vertex 1921.9285402838707 155.88824687636023 555.5140940703893
  endloop
endfacet
facet normal -2.412802872276642e-14 -0.38268343236538527 -0.9238795325111643
  outer loop
    vertex 1918.9285402838711 156.25001830870627 555.3642434366324
    vertex 1921.9285402838707 155.88824687636023 555.5140940703893
    vertex 1918.9285402838707 155.8882468763602 555.5140940703894
  endloop
endfacet
facet normal -2.412802872276642e-14 -0.38268343236538527 -0.9238795325111643
  outer loop
    vertex 1921.9285402838707 155.88824687636023 555.5140940703893
    vertex 1918.9285402838711 156.25001830870627 555.3642434366324
    vertex 1921.9285402838711 156.2500183087063 555.3642434366323
  endloop
endfacet
facet normal -1.8349220313474303e-14 -0.6087614290084676 -0.7933533402914295
  outer loop
    vertex 1918.9285402838711 156.5606784804861 555.1258655027357
    vertex 1921.9285402838711 156.2500183087063 555.3642434366323
    vertex 1918.9285402838711 156.25001830870627 555.3642434366324
  endloop
endfacet
facet normal -1.8349220313474303e-14 -0.6087614290084676 -0.7933533402914295
  outer loop
    vertex 1921.9285402838711 156.2500183087063 555.3642434366323
    vertex 1918.9285402838711 156.5606784804861 555.1258655027357
    vertex 1921.9285402838711 156.56067848048616 555.1258655027356
  endloop
endfacet
facet normal -1.1319942863323634e-14 -0.7933533402911123 -0.6087614290088809
  outer loop
    vertex 1918.9285402838711 156.79905641438316 554.8152053309557
    vertex 1921.9285402838711 156.56067848048616 555.1258655027356
    vertex 1918.9285402838711 156.5606784804861 555.1258655027357
  endloop
endfacet
facet normal -1.1319942863323634e-14 -0.7933533402911123 -0.6087614290088809
  outer loop
    vertex 1921.9285402838711 156.56067848048616 555.1258655027356
    vertex 1918.9285402838711 156.79905641438316 554.8152053309557
    vertex 1921.9285402838711 156.7990564143832 554.8152053309556
  endloop
endfacet
facet normal -3.5192300141250647e-15 -0.9238795325112766 -0.3826834323651141
  outer loop
    vertex 1921.9285402838711 156.94890704814003 554.4534338986097
    vertex 1918.9285402838711 156.79905641438316 554.8152053309557
    vertex 1918.9285402838711 156.94890704814 554.4534338986098
  endloop
endfacet
facet normal -3.5192300141250647e-15 -0.9238795325112766 -0.3826834323651141
  outer loop
    vertex 1918.9285402838711 156.79905641438316 554.8152053309557
    vertex 1921.9285402838711 156.94890704814003 554.4534338986097
    vertex 1921.9285402838711 156.7990564143832 554.8152053309556
  endloop
endfacet
facet normal 4.521312544742104e-15 -0.9914448613738652 -0.13052619221963563
  outer loop
    vertex 1921.9285402838711 157.00001830870633 554.0652053309556
    vertex 1918.9285402838711 156.94890704814 554.4534338986098
    vertex 1918.9285402838711 157.00001830870627 554.0652053309556
  endloop
endfacet
facet normal 4.521312544742104e-15 -0.9914448613738652 -0.13052619221963563
  outer loop
    vertex 1918.9285402838711 156.94890704814 554.4534338986098
    vertex 1921.9285402838711 157.00001830870633 554.0652053309556
    vertex 1921.9285402838711 156.94890704814003 554.4534338986097
  endloop
endfacet
facet normal 1.225373512547833e-14 -0.9914448613738268 0.13052619221992784
  outer loop
    vertex 1921.9285402838711 156.94890704814 553.6769767633019
    vertex 1918.9285402838711 157.00001830870627 554.0652053309556
    vertex 1918.9285402838711 156.94890704813994 553.676976763302
  endloop
endfacet
facet normal 1.225373512547833e-14 -0.9914448613738268 0.13052619221992784
  outer loop
    vertex 1918.9285402838711 157.00001830870627 554.0652053309556
    vertex 1921.9285402838711 156.94890704814 553.6769767633019
    vertex 1921.9285402838711 157.00001830870633 554.0652053309556
  endloop
endfacet
facet normal 1.9151085907670476e-14 -0.9238795325115577 0.3826834323644356
  outer loop
    vertex 1921.9285402838707 156.79905641438333 553.3152053309557
    vertex 1918.9285402838711 156.94890704813994 553.676976763302
    vertex 1918.9285402838707 156.7990564143833 553.3152053309558
  endloop
endfacet
facet normal 1.9151085907670476e-14 -0.9238795325115577 0.3826834323644356
  outer loop
    vertex 1918.9285402838711 156.94890704813994 553.676976763302
    vertex 1921.9285402838707 156.79905641438333 553.3152053309557
    vertex 1921.9285402838711 156.94890704814 553.6769767633019
  endloop
endfacet
facet normal 2.474332183396708e-14 -0.7933533402906762 0.6087614290094492
  outer loop
    vertex 1921.9285402838707 156.5606784804861 553.0045451591759
    vertex 1918.9285402838707 156.7990564143833 553.3152053309558
    vertex 1918.9285402838707 156.56067848048605 553.004545159176
  endloop
endfacet
facet normal 2.474332183396708e-14 -0.7933533402906762 0.6087614290094492
  outer loop
    vertex 1918.9285402838707 156.7990564143833 553.3152053309558
    vertex 1921.9285402838707 156.5606784804861 553.0045451591759
    vertex 1921.9285402838707 156.79905641438333 553.3152053309557
  endloop
endfacet
facet normal 2.864934126749737e-14 -0.608761429009036 0.7933533402909932
  outer loop
    vertex 1921.9285402838707 156.2500183087065 552.766167225279
    vertex 1918.9285402838707 156.56067848048605 553.004545159176
    vertex 1918.9285402838707 156.25001830870644 552.7661672252791
  endloop
endfacet
facet normal 2.864934126749737e-14 -0.608761429009036 0.7933533402909932
  outer loop
    vertex 1918.9285402838707 156.56067848048605 553.004545159176
    vertex 1921.9285402838707 156.2500183087065 552.766167225279
    vertex 1921.9285402838707 156.5606784804861 553.0045451591759
  endloop
endfacet
facet normal 3.060295543894822e-14 -0.38268343236510016 0.9238795325112824
  outer loop
    vertex 1921.9285402838711 155.8882468763601 552.616316591522
    vertex 1918.9285402838707 156.25001830870644 552.7661672252791
    vertex 1918.9285402838711 155.88824687636006 552.6163165915221
  endloop
endfacet
facet normal 3.060295543894822e-14 -0.38268343236510016 0.9238795325112824
  outer loop
    vertex 1918.9285402838707 156.25001830870644 552.7661672252791
    vertex 1921.9285402838711 155.8882468763601 552.616316591522
    vertex 1921.9285402838707 156.2500183087065 552.766167225279
  endloop
endfacet
facet normal 3.0471028771004786e-14 -0.13052619221991293 0.9914448613738288
  outer loop
    vertex 1921.9285402838707 155.50001830870644 552.5652053309557
    vertex 1918.9285402838711 155.88824687636006 552.6163165915221
    vertex 1918.9285402838707 155.5000183087064 552.5652053309558
  endloop
endfacet
facet normal 3.0471028771004786e-14 -0.13052619221991293 0.9914448613738288
  outer loop
    vertex 1918.9285402838711 155.88824687636006 552.6163165915221
    vertex 1921.9285402838707 155.50001830870644 552.5652053309557
    vertex 1921.9285402838711 155.8882468763601 552.616316591522
  endloop
endfacet
facet normal 2.8262551848072917e-14 0.13052619222017814 0.9914448613737937
  outer loop
    vertex 1921.9285402838707 155.11178974105255 552.6163165915221
    vertex 1918.9285402838707 155.5000183087064 552.5652053309558
    vertex 1918.9285402838707 155.1117897410525 552.6163165915223
  endloop
endfacet
facet normal 2.8262551848072917e-14 0.13052619222017814 0.9914448613737937
  outer loop
    vertex 1918.9285402838707 155.5000183087064 552.5652053309558
    vertex 1921.9285402838707 155.11178974105255 552.6163165915221
    vertex 1921.9285402838707 155.50001830870644 552.5652053309557
  endloop
endfacet
facet normal 2.4128028722778452e-14 0.3826834323648051 0.9238795325114046
  outer loop
    vertex 1921.9285402838711 154.75001830870616 552.766167225279
    vertex 1918.9285402838707 155.1117897410525 552.6163165915223
    vertex 1918.9285402838711 154.7500183087061 552.7661672252791
  endloop
endfacet
facet normal 2.4128028722778452e-14 0.3826834323648051 0.9238795325114046
  outer loop
    vertex 1918.9285402838707 155.1117897410525 552.6163165915223
    vertex 1921.9285402838711 154.75001830870616 552.766167225279
    vertex 1921.9285402838707 155.11178974105255 552.6163165915221
  endloop
endfacet
facet normal 1.8349220313455525e-14 0.6087614290090697 0.7933533402909673
  outer loop
    vertex 1921.9285402838707 154.43935813692644 553.004545159176
    vertex 1918.9285402838711 154.7500183087061 552.7661672252791
    vertex 1918.9285402838707 154.43935813692642 553.0045451591761
  endloop
endfacet
facet normal 1.8349220313455525e-14 0.6087614290090697 0.7933533402909673
  outer loop
    vertex 1918.9285402838711 154.7500183087061 552.7661672252791
    vertex 1921.9285402838707 154.43935813692644 553.004545159176
    vertex 1921.9285402838711 154.75001830870616 552.766167225279
  endloop
endfacet
facet normal 1.1319942863312732e-14 0.793353340291344 0.608761429008579
  outer loop
    vertex 1921.9285402838707 154.20098020302976 553.3152053309558
    vertex 1918.9285402838707 154.43935813692642 553.0045451591761
    vertex 1918.9285402838707 154.20098020302973 553.3152053309559
  endloop
endfacet
facet normal 1.1319942863312732e-14 0.793353340291344 0.608761429008579
  outer loop
    vertex 1918.9285402838707 154.43935813692642 553.0045451591761
    vertex 1921.9285402838707 154.20098020302976 553.3152053309558
    vertex 1921.9285402838707 154.43935813692644 553.004545159176
  endloop
endfacet
facet normal 3.5192300141180876e-15 0.923879532511364 0.3826834323649035
  outer loop
    vertex 1918.9285402838711 154.0511295692728 553.6769767633023
    vertex 1921.9285402838707 154.20098020302976 553.3152053309558
    vertex 1918.9285402838707 154.20098020302973 553.3152053309559
  endloop
endfacet
facet normal 3.5192300141180876e-15 0.923879532511364 0.3826834323649035
  outer loop
    vertex 1921.9285402838707 154.20098020302976 553.3152053309558
    vertex 1918.9285402838711 154.0511295692728 553.6769767633023
    vertex 1921.9285402838711 154.05112956927283 553.6769767633022
  endloop
endfacet
facet normal -4.521312544718743e-15 0.9914448613737652 0.1305261922203958
  outer loop
    vertex 1921.9285402838711 154.00001830870633 554.0652053309557
    vertex 1918.9285402838711 154.0511295692728 553.6769767633023
    vertex 1918.9285402838711 154.00001830870627 554.0652053309558
  endloop
endfacet
facet normal -4.521312544718743e-15 0.9914448613737652 0.1305261922203958
  outer loop
    vertex 1918.9285402838711 154.0511295692728 553.6769767633023
    vertex 1921.9285402838711 154.00001830870633 554.0652053309557
    vertex 1921.9285402838711 154.05112956927283 553.6769767633022
  endloop
endfacet
facet normal -1.2253735125486314e-14 0.9914448613737898 -0.13052619222020798
  outer loop
    vertex 1921.9285402838711 154.0511295692728 554.4534338986095
    vertex 1918.9285402838711 154.00001830870627 554.0652053309558
    vertex 1918.9285402838711 154.05112956927275 554.4534338986095
  endloop
endfacet
facet normal -1.2253735125486314e-14 0.9914448613737898 -0.13052619222020798
  outer loop
    vertex 1918.9285402838711 154.00001830870627 554.0652053309558
    vertex 1921.9285402838711 154.0511295692728 554.4534338986095
    vertex 1921.9285402838711 154.00001830870633 554.0652053309557
  endloop
endfacet
facet normal -1.915108590770387e-14 0.9238795325110283 -0.38268343236571417
  outer loop
    vertex 1921.9285402838711 154.20098020303004 554.8152053309558
    vertex 1918.9285402838711 154.05112956927275 554.4534338986095
    vertex 1918.9285402838711 154.20098020302999 554.8152053309559
  endloop
endfacet
facet normal -1.915108590770387e-14 0.9238795325110283 -0.38268343236571417
  outer loop
    vertex 1918.9285402838711 154.05112956927275 554.4534338986095
    vertex 1921.9285402838711 154.20098020303004 554.8152053309558
    vertex 1921.9285402838711 154.0511295692728 554.4534338986095
  endloop
endfacet
facet normal -2.474332183394437e-14 0.7933533402914295 -0.6087614290084676
  outer loop
    vertex 1921.9285402838711 154.43935813692673 555.1258655027356
    vertex 1918.9285402838711 154.20098020302999 554.8152053309559
    vertex 1918.9285402838711 154.43935813692667 555.1258655027357
  endloop
endfacet
facet normal -2.474332183394437e-14 0.7933533402914295 -0.6087614290084676
  outer loop
    vertex 1918.9285402838711 154.20098020302999 554.8152053309559
    vertex 1921.9285402838711 154.43935813692673 555.1258655027356
    vertex 1921.9285402838711 154.20098020303004 554.8152053309558
  endloop
endfacet
facet normal -2.8649341267501346e-14 0.6087614290087577 -0.7933533402912069
  outer loop
    vertex 1918.9285402838711 154.75001830870653 555.3642434366326
    vertex 1921.9285402838711 154.43935813692673 555.1258655027356
    vertex 1918.9285402838711 154.43935813692667 555.1258655027357
  endloop
endfacet
facet normal -2.8649341267501346e-14 0.6087614290087577 -0.7933533402912069
  outer loop
    vertex 1921.9285402838711 154.43935813692673 555.1258655027356
    vertex 1918.9285402838711 154.75001830870653 555.3642434366326
    vertex 1921.9285402838711 154.75001830870656 555.3642434366325
  endloop
endfacet
facet normal -3.060295543894848e-14 0.3826834323650327 -0.9238795325113105
  outer loop
    vertex 1918.9285402838711 155.11178974105255 555.5140940703894
    vertex 1921.9285402838711 154.75001830870656 555.3642434366325
    vertex 1918.9285402838711 154.75001830870653 555.3642434366326
  endloop
endfacet
facet normal -3.060295543894848e-14 0.3826834323650327 -0.9238795325113105
  outer loop
    vertex 1921.9285402838711 154.75001830870656 555.3642434366325
    vertex 1918.9285402838711 155.11178974105255 555.5140940703894
    vertex 1921.9285402838711 155.1117897410526 555.5140940703893
  endloop
endfacet
endsolid flsun-cube-linear-rail-xy-gantry
