solid Flsun Cube Linear Rail X-Y Gantry v3
facet normal -2.7704933863621703e-16 -1.0 1.503982124025523e-15
  outer loop
    vertex 1490.9801510000011 146.50001830875195 556.0281457410199
    vertex 1515.9801510000007 146.50001830875195 566.0281457410201
    vertex 1490.9801510000007 146.50001830875198 566.0281457410198
  endloop
endfacet
facet normal -2.7704933863621703e-16 -1.0 1.503982124025523e-15
  outer loop
    vertex 1515.9801510000007 146.50001830875195 566.0281457410201
    vertex 1490.9801510000011 146.50001830875195 556.0281457410199
    vertex 1515.980151000001 146.50001830875198 556.0281457410201
  endloop
endfacet
facet normal -1.0 3.007964248050994e-15 -1.8790524691780774e-14
  outer loop
    vertex 1490.9801510000007 151.50001830875195 556.0281457410199
    vertex 1490.9801510000007 146.50001830875198 566.0281457410198
    vertex 1490.9801510000007 151.50001830875198 566.0281457410199
  endloop
endfacet
facet normal -1.0 3.007964248050994e-15 -1.8790524691780774e-14
  outer loop
    vertex 1490.9801510000007 146.50001830875198 566.0281457410198
    vertex 1490.9801510000007 151.50001830875195 556.0281457410199
    vertex 1490.9801510000011 146.50001830875195 556.0281457410199
  endloop
endfacet
facet normal -1.0 1.8047785488306693e-14 -1.4278578319704162e-14
  outer loop
    vertex 1490.9801510000011 169.50001830875192 556.0281457410198
    vertex 1490.980151000001 159.50001830875195 566.0281457410198
    vertex 1490.980151000001 169.50001830875195 566.0281457410198
  endloop
endfacet
facet normal -1.0 1.8047785488306693e-14 -1.4278578319704162e-14
  outer loop
    vertex 1490.980151000001 159.50001830875195 566.0281457410198
    vertex 1490.9801510000011 169.50001830875192 556.0281457410198
    vertex 1490.9801510000011 159.50001830875198 556.0281457410198
  endloop
endfacet
facet normal -1.804778548830667e-14 -1.0 -1.5039821240259105e-15
  outer loop
    vertex 1502.9801510000007 159.5000183087519 556.0281457410199
    vertex 1490.980151000001 159.50001830875195 566.0281457410198
    vertex 1490.9801510000011 159.50001830875198 556.0281457410198
  endloop
endfacet
facet normal -1.804778548830667e-14 -1.0 -1.5039821240259105e-15
  outer loop
    vertex 1490.980151000001 159.50001830875195 566.0281457410198
    vertex 1502.9801510000007 159.5000183087519 556.0281457410199
    vertex 1502.9801510000007 159.50001830875192 566.02814574102
  endloop
endfacet
facet normal 3.0079642480510506e-15 1.0 -3.0079642480509958e-15
  outer loop
    vertex 1502.9801510000007 151.50001830875195 566.02814574102
    vertex 1490.9801510000007 151.50001830875195 556.0281457410199
    vertex 1490.9801510000007 151.50001830875198 566.0281457410199
  endloop
endfacet
facet normal 3.0079642480510506e-15 1.0 -3.0079642480509958e-15
  outer loop
    vertex 1490.9801510000007 151.50001830875195 556.0281457410199
    vertex 1502.9801510000007 151.50001830875195 566.02814574102
    vertex 1502.980151000001 151.50001830875186 556.02814574102
  endloop
endfacet
facet normal -1.0 -8.271901682140583e-15 -1.8790524691780765e-14
  outer loop
    vertex 1502.9801510000007 159.5000183087519 556.0281457410199
    vertex 1502.9801510000007 151.50001830875195 566.02814574102
    vertex 1502.9801510000007 159.50001830875192 566.02814574102
  endloop
endfacet
facet normal -1.0 -8.271901682140583e-15 -1.8790524691780765e-14
  outer loop
    vertex 1502.9801510000007 151.50001830875195 566.02814574102
    vertex 1502.9801510000007 159.5000183087519 556.0281457410199
    vertex 1502.980151000001 151.50001830875186 556.02814574102
  endloop
endfacet
facet normal 3.0079642480510506e-15 1.0 -3.0079642480509958e-15
  outer loop
    vertex 1505.9801510000004 169.5000183087519 566.02814574102
    vertex 1490.9801510000011 169.50001830875192 556.0281457410198
    vertex 1490.980151000001 169.50001830875195 566.0281457410198
  endloop
endfacet
facet normal 3.0079642480510506e-15 1.0 -3.0079642480509958e-15
  outer loop
    vertex 1490.9801510000011 169.50001830875192 556.0281457410198
    vertex 1505.9801510000004 169.5000183087519 566.02814574102
    vertex 1505.9801510000007 169.50001830875186 556.02814574102
  endloop
endfacet
facet normal 1.3644573556435948e-14 -3.758292292558886e-15 -1.0
  outer loop
    vertex 1490.9801510000007 151.50001830875195 556.0281457410199
    vertex 1515.980151000001 146.50001830875198 556.0281457410201
    vertex 1490.9801510000011 146.50001830875195 556.0281457410199
  endloop
endfacet
facet normal 1.3644573556435948e-14 -3.758292292558886e-15 -1.0
  outer loop
    vertex 1515.980151000001 146.50001830875198 556.0281457410201
    vertex 1490.9801510000007 151.50001830875195 556.0281457410199
    vertex 1502.980151000001 151.50001830875186 556.02814574102
  endloop
endfacet
facet normal 1.3644573556435948e-14 -3.758292292558886e-15 -1.0
  outer loop
    vertex 1477.9801510000002 264.7147279180523 556.0281457410192
    vertex 1480.9801510000004 261.71472791805223 556.0281457410192
    vertex 1477.9801510000002 261.71472791805223 556.0281457410192
  endloop
endfacet
facet normal 1.3644573556435948e-14 -3.758292292558886e-15 -1.0
  outer loop
    vertex 1480.9801510000004 261.71472791805223 556.0281457410192
    vertex 1477.9801510000002 264.7147279180523 556.0281457410192
    vertex 1515.9801510000013 264.71472791805166 556.0281457410198
  endloop
endfacet
facet normal 1.3644573556435948e-14 -3.758292292558886e-15 -1.0
  outer loop
    vertex 1515.980151000001 146.50001830875198 556.0281457410201
    vertex 1505.9801510000007 169.50001830875186 556.02814574102
    vertex 1515.9801510000013 264.71472791805166 556.0281457410198
  endloop
endfacet
facet normal 1.3644573556435948e-14 -3.758292292558886e-15 -1.0
  outer loop
    vertex 1505.9801510000007 169.50001830875186 556.02814574102
    vertex 1515.980151000001 146.50001830875198 556.0281457410201
    vertex 1502.980151000001 151.50001830875186 556.02814574102
  endloop
endfacet
facet normal 1.3644573556435948e-14 -3.758292292558886e-15 -1.0
  outer loop
    vertex 1505.9801510000007 169.50001830875186 556.02814574102
    vertex 1502.980151000001 151.50001830875186 556.02814574102
    vertex 1502.9801510000007 159.5000183087519 556.0281457410199
  endloop
endfacet
facet normal 1.3644573556435948e-14 -3.758292292558886e-15 -1.0
  outer loop
    vertex 1505.9801510000007 169.50001830875186 556.02814574102
    vertex 1502.9801510000007 159.5000183087519 556.0281457410199
    vertex 1490.9801510000011 159.50001830875198 556.0281457410198
  endloop
endfacet
facet normal 1.3644573556435948e-14 -3.758292292558886e-15 -1.0
  outer loop
    vertex 1505.9801510000007 169.50001830875186 556.02814574102
    vertex 1490.9801510000011 159.50001830875198 556.0281457410198
    vertex 1490.9801510000011 169.50001830875192 556.0281457410198
  endloop
endfacet
facet normal 1.3644573556435948e-14 -3.758292292558886e-15 -1.0
  outer loop
    vertex 1515.9801510000013 264.71472791805166 556.0281457410198
    vertex 1505.9801510000007 169.50001830875186 556.02814574102
    vertex 1505.9801510000011 195.25001830875206 556.0281457410199
  endloop
endfacet
facet normal 1.3644573556435948e-14 -3.758292292558886e-15 -1.0
  outer loop
    vertex 1515.9801510000013 264.71472791805166 556.0281457410198
    vertex 1505.9801510000011 195.25001830875206 556.0281457410199
    vertex 1477.9801510000002 250.71472791805223 556.0281457410194
  endloop
endfacet
facet normal 1.3644573556435948e-14 -3.758292292558886e-15 -1.0
  outer loop
    vertex 1515.9801510000013 264.71472791805166 556.0281457410198
    vertex 1477.9801510000002 250.71472791805223 556.0281457410194
    vertex 1482.0154271804104 253.8510246128961 556.0281457410193
  endloop
endfacet
facet normal 1.3644573556435948e-14 -3.758292292558886e-15 -1.0
  outer loop
    vertex 1482.0154271804104 253.8510246128961 556.0281457410193
    vertex 1477.9801510000002 250.71472791805223 556.0281457410194
    vertex 1480.9801510000004 253.71472791805235 556.0281457410193
  endloop
endfacet
facet normal 1.3644573556435948e-14 -3.758292292558886e-15 -1.0
  outer loop
    vertex 1480.9801510000004 253.71472791805235 556.0281457410193
    vertex 1477.9801510000002 250.71472791805223 556.0281457410194
    vertex 1477.9801510000002 253.71472791805235 556.0281457410193
  endloop
endfacet
facet normal 1.3644573556435948e-14 -3.758292292558886e-15 -1.0
  outer loop
    vertex 1515.9801510000013 264.71472791805166 556.0281457410198
    vertex 1482.0154271804104 253.8510246128961 556.0281457410193
    vertex 1482.9801510000002 254.2506263029146 556.0281457410194
  endloop
endfacet
facet normal 1.3644573556435948e-14 -3.758292292558886e-15 -1.0
  outer loop
    vertex 1515.9801510000013 264.71472791805166 556.0281457410198
    vertex 1482.9801510000002 254.2506263029146 556.0281457410194
    vertex 1483.8085781247464 254.88630079330613 556.0281457410194
  endloop
endfacet
facet normal 1.3644573556435948e-14 -3.758292292558886e-15 -1.0
  outer loop
    vertex 1515.9801510000013 264.71472791805166 556.0281457410198
    vertex 1483.8085781247464 254.88630079330613 556.0281457410194
    vertex 1484.444252615138 255.71472791805235 556.0281457410193
  endloop
endfacet
facet normal 1.3644573556435948e-14 -3.758292292558886e-15 -1.0
  outer loop
    vertex 1515.9801510000013 264.71472791805166 556.0281457410198
    vertex 1484.444252615138 255.71472791805235 556.0281457410193
    vertex 1484.8438543051566 256.6794517376423 556.0281457410193
  endloop
endfacet
facet normal 1.3644573556435948e-14 -3.758292292558886e-15 -1.0
  outer loop
    vertex 1515.9801510000013 264.71472791805166 556.0281457410198
    vertex 1484.8438543051566 256.6794517376423 556.0281457410193
    vertex 1484.9801510000002 257.71472791805235 556.0281457410193
  endloop
endfacet
facet normal 1.3644573556435948e-14 -3.758292292558886e-15 -1.0
  outer loop
    vertex 1515.9801510000013 264.71472791805166 556.0281457410198
    vertex 1484.9801510000002 257.71472791805235 556.0281457410193
    vertex 1484.8438543051566 258.75000409846245 556.0281457410193
  endloop
endfacet
facet normal 1.3644573556435948e-14 -3.758292292558886e-15 -1.0
  outer loop
    vertex 1515.9801510000013 264.71472791805166 556.0281457410198
    vertex 1484.8438543051566 258.75000409846245 556.0281457410193
    vertex 1484.444252615138 259.71472791805235 556.0281457410194
  endloop
endfacet
facet normal 1.3644573556435948e-14 -3.758292292558886e-15 -1.0
  outer loop
    vertex 1515.9801510000013 264.71472791805166 556.0281457410198
    vertex 1484.444252615138 259.71472791805235 556.0281457410194
    vertex 1483.8085781247464 260.54315504279856 556.0281457410193
  endloop
endfacet
facet normal 1.3644573556435948e-14 -3.758292292558886e-15 -1.0
  outer loop
    vertex 1515.9801510000013 264.71472791805166 556.0281457410198
    vertex 1483.8085781247464 260.54315504279856 556.0281457410193
    vertex 1482.9801510000002 261.1788295331901 556.0281457410193
  endloop
endfacet
facet normal 1.3644573556435948e-14 -3.758292292558886e-15 -1.0
  outer loop
    vertex 1515.9801510000013 264.71472791805166 556.0281457410198
    vertex 1482.9801510000002 261.1788295331901 556.0281457410193
    vertex 1482.0154271804104 261.5784312232086 556.0281457410193
  endloop
endfacet
facet normal 1.3644573556435948e-14 -3.758292292558886e-15 -1.0
  outer loop
    vertex 1515.9801510000013 264.71472791805166 556.0281457410198
    vertex 1482.0154271804104 261.5784312232086 556.0281457410193
    vertex 1480.9801510000004 261.71472791805223 556.0281457410192
  endloop
endfacet
facet normal -1.0 1.7025661714696753e-14 -1.8790524691780815e-14
  outer loop
    vertex 1505.9801510000011 195.25001830875206 556.0281457410199
    vertex 1505.9801510000004 169.5000183087519 566.02814574102
    vertex 1505.980151000001 195.2500183087521 566.0281457410199
  endloop
endfacet
facet normal -1.0 1.7025661714696753e-14 -1.8790524691780815e-14
  outer loop
    vertex 1505.9801510000004 169.5000183087519 566.02814574102
    vertex 1505.9801510000011 195.25001830875206 556.0281457410199
    vertex 1505.9801510000007 169.50001830875186 556.02814574102
  endloop
endfacet
facet normal -0.13052619222007464 0.9914448613738075 -5.4348863347618004e-15
  outer loop
    vertex 1482.0154271804101 253.851024612896 566.0281457410193
    vertex 1480.9801510000004 253.71472791805235 556.0281457410193
    vertex 1480.9801510000002 253.7147279180524 566.0281457410192
  endloop
endfacet
facet normal -0.13052619222007464 0.9914448613738075 -5.4348863347618004e-15
  outer loop
    vertex 1480.9801510000004 253.71472791805235 556.0281457410193
    vertex 1482.0154271804101 253.851024612896 566.0281457410193
    vertex 1482.0154271804104 253.8510246128961 556.0281457410193
  endloop
endfacet
facet normal -0.38268343236506797 0.923879532511296 -9.971111565959621e-15
  outer loop
    vertex 1482.980151 254.2506263029146 566.0281457410194
    vertex 1482.0154271804104 253.8510246128961 556.0281457410193
    vertex 1482.0154271804101 253.851024612896 566.0281457410193
  endloop
endfacet
facet normal -0.38268343236506797 0.923879532511296 -9.971111565959621e-15
  outer loop
    vertex 1482.0154271804104 253.8510246128961 556.0281457410193
    vertex 1482.980151 254.2506263029146 566.0281457410194
    vertex 1482.9801510000002 254.2506263029146 556.0281457410194
  endloop
endfacet
facet normal -0.6087614290086968 0.7933533402912537 -1.3823621871649796e-14
  outer loop
    vertex 1483.8085781247464 254.88630079330613 566.0281457410194
    vertex 1482.9801510000002 254.2506263029146 556.0281457410194
    vertex 1482.980151 254.2506263029146 566.0281457410194
  endloop
endfacet
facet normal -0.6087614290086968 0.7933533402912537 -1.3823621871649796e-14
  outer loop
    vertex 1482.9801510000002 254.2506263029146 556.0281457410194
    vertex 1483.8085781247464 254.88630079330613 566.0281457410194
    vertex 1483.8085781247464 254.88630079330613 556.0281457410194
  endloop
endfacet
facet normal -0.1305261922200381 -0.9914448613738123 5.0031784344930895e-15
  outer loop
    vertex 1482.0154271804104 261.5784312232086 556.0281457410193
    vertex 1480.9801510000002 261.7147279180524 566.0281457410193
    vertex 1480.9801510000004 261.71472791805223 556.0281457410192
  endloop
endfacet
facet normal -0.1305261922200381 -0.9914448613738123 5.0031784344930895e-15
  outer loop
    vertex 1480.9801510000002 261.7147279180524 566.0281457410193
    vertex 1482.0154271804104 261.5784312232086 556.0281457410193
    vertex 1482.0154271804101 261.5784312232085 566.0281457410192
  endloop
endfacet
facet normal -0.3826834323650734 -0.9238795325112935 -4.413118359359541e-15
  outer loop
    vertex 1482.9801510000002 261.1788295331901 556.0281457410193
    vertex 1482.0154271804101 261.5784312232085 566.0281457410192
    vertex 1482.0154271804104 261.5784312232086 556.0281457410193
  endloop
endfacet
facet normal -0.3826834323650734 -0.9238795325112935 -4.413118359359541e-15
  outer loop
    vertex 1482.0154271804101 261.5784312232085 566.0281457410192
    vertex 1482.9801510000002 261.1788295331901 556.0281457410193
    vertex 1482.980151 261.1788295331901 566.0281457410193
  endloop
endfacet
facet normal -0.6087614290087014 -0.7933533402912502 -9.050864904313954e-15
  outer loop
    vertex 1483.8085781247464 260.54315504279856 556.0281457410193
    vertex 1482.980151 261.1788295331901 566.0281457410193
    vertex 1482.9801510000002 261.1788295331901 556.0281457410193
  endloop
endfacet
facet normal -0.6087614290087014 -0.7933533402912502 -9.050864904313954e-15
  outer loop
    vertex 1482.980151 261.1788295331901 566.0281457410193
    vertex 1483.8085781247464 260.54315504279856 556.0281457410193
    vertex 1483.8085781247464 260.54315504279856 566.0281457410193
  endloop
endfacet
facet normal -0.9238795325112833 -0.3826834323650985 -1.6209304839118224e-14
  outer loop
    vertex 1484.444252615138 259.71472791805235 556.0281457410194
    vertex 1484.8438543051564 258.75000409846245 566.0281457410193
    vertex 1484.4442526151379 259.71472791805223 566.0281457410194
  endloop
endfacet
facet normal -0.9238795325112833 -0.3826834323650985 -1.6209304839118224e-14
  outer loop
    vertex 1484.8438543051564 258.75000409846245 566.0281457410193
    vertex 1484.444252615138 259.71472791805235 556.0281457410194
    vertex 1484.8438543051566 258.75000409846245 556.0281457410193
  endloop
endfacet
facet normal -0.7933533402912537 -0.6087614290086968 -1.3074689640789088e-14
  outer loop
    vertex 1483.8085781247464 260.54315504279856 566.0281457410193
    vertex 1484.444252615138 259.71472791805235 556.0281457410194
    vertex 1484.4442526151379 259.71472791805223 566.0281457410194
  endloop
endfacet
facet normal -0.7933533402912537 -0.6087614290086968 -1.3074689640789088e-14
  outer loop
    vertex 1484.444252615138 259.71472791805235 556.0281457410194
    vertex 1483.8085781247464 260.54315504279856 566.0281457410193
    vertex 1483.8085781247464 260.54315504279856 556.0281457410193
  endloop
endfacet
facet normal -1.0 3.007964248050994e-15 -1.8790524691780774e-14
  outer loop
    vertex 1477.9801510000002 264.7147279180524 566.0281457410191
    vertex 1477.9801510000002 261.71472791805223 556.0281457410192
    vertex 1477.9801510000002 261.7147279180524 566.0281457410192
  endloop
endfacet
facet normal -1.0 3.007964248050994e-15 -1.8790524691780774e-14
  outer loop
    vertex 1477.9801510000002 261.71472791805223 556.0281457410192
    vertex 1477.9801510000002 264.7147279180524 566.0281457410191
    vertex 1477.9801510000002 264.7147279180523 556.0281457410192
  endloop
endfacet
facet normal -3.0079642480512202e-15 -1.0 1.2031856992204265e-14
  outer loop
    vertex 1480.9801510000004 261.71472791805223 556.0281457410192
    vertex 1477.9801510000002 261.7147279180524 566.0281457410192
    vertex 1477.9801510000002 261.71472791805223 556.0281457410192
  endloop
endfacet
facet normal -3.0079642480512202e-15 -1.0 1.2031856992204265e-14
  outer loop
    vertex 1477.9801510000002 261.7147279180524 566.0281457410192
    vertex 1480.9801510000004 261.71472791805223 556.0281457410192
    vertex 1480.9801510000002 261.7147279180524 566.0281457410193
  endloop
endfacet
facet normal -1.0 3.007964248050994e-15 -1.8790524691780774e-14
  outer loop
    vertex 1477.9801510000002 253.7147279180524 566.0281457410192
    vertex 1477.9801510000002 250.71472791805223 556.0281457410194
    vertex 1477.9801510000002 250.71472791805235 566.0281457410193
  endloop
endfacet
facet normal -1.0 3.007964248050994e-15 -1.8790524691780774e-14
  outer loop
    vertex 1477.9801510000002 250.71472791805223 556.0281457410194
    vertex 1477.9801510000002 253.7147279180524 566.0281457410192
    vertex 1477.9801510000002 253.71472791805235 556.0281457410193
  endloop
endfacet
facet normal 3.0079642480510506e-15 1.0 -3.0079642480509958e-15
  outer loop
    vertex 1480.9801510000002 253.7147279180524 566.0281457410192
    vertex 1477.9801510000002 253.71472791805235 556.0281457410193
    vertex 1477.9801510000002 253.7147279180524 566.0281457410192
  endloop
endfacet
facet normal 3.0079642480510506e-15 1.0 -3.0079642480509958e-15
  outer loop
    vertex 1477.9801510000002 253.71472791805235 556.0281457410193
    vertex 1480.9801510000002 253.7147279180524 566.0281457410192
    vertex 1480.9801510000004 253.71472791805235 556.0281457410193
  endloop
endfacet
facet normal -0.7933533402912502 0.6087614290087014 -1.673695486889029e-14
  outer loop
    vertex 1484.4442526151379 255.71472791805226 566.0281457410193
    vertex 1483.8085781247464 254.88630079330613 556.0281457410194
    vertex 1483.8085781247464 254.88630079330613 566.0281457410194
  endloop
endfacet
facet normal -0.7933533402912502 0.6087614290087014 -1.673695486889029e-14
  outer loop
    vertex 1483.8085781247464 254.88630079330613 556.0281457410194
    vertex 1484.4442526151379 255.71472791805226 566.0281457410193
    vertex 1484.444252615138 255.71472791805235 556.0281457410193
  endloop
endfacet
facet normal -0.9238795325112935 0.3826834323650734 -1.8512571728428236e-14
  outer loop
    vertex 1484.8438543051566 256.6794517376423 556.0281457410193
    vertex 1484.4442526151379 255.71472791805226 566.0281457410193
    vertex 1484.8438543051564 256.6794517376422 566.0281457410193
  endloop
endfacet
facet normal -0.9238795325112935 0.3826834323650734 -1.8512571728428236e-14
  outer loop
    vertex 1484.4442526151379 255.71472791805226 566.0281457410193
    vertex 1484.8438543051566 256.6794517376423 556.0281457410193
    vertex 1484.444252615138 255.71472791805235 556.0281457410193
  endloop
endfacet
facet normal -0.9914448613738066 0.13052619222008058 -1.902238726781594e-14
  outer loop
    vertex 1484.9801510000002 257.71472791805235 556.0281457410193
    vertex 1484.8438543051564 256.6794517376422 566.0281457410193
    vertex 1484.9801510000002 257.71472791805235 566.0281457410193
  endloop
endfacet
facet normal -0.9914448613738066 0.13052619222008058 -1.902238726781594e-14
  outer loop
    vertex 1484.8438543051564 256.6794517376422 566.0281457410193
    vertex 1484.9801510000002 257.71472791805235 556.0281457410193
    vertex 1484.8438543051566 256.6794517376423 556.0281457410193
  endloop
endfacet
facet normal -0.9914448613738088 -0.13052619222006337 -1.8237151028551544e-14
  outer loop
    vertex 1484.8438543051566 258.75000409846245 556.0281457410193
    vertex 1484.9801510000002 257.71472791805235 566.0281457410193
    vertex 1484.8438543051564 258.75000409846245 566.0281457410193
  endloop
endfacet
facet normal -0.9914448613738088 -0.13052619222006337 -1.8237151028551544e-14
  outer loop
    vertex 1484.9801510000002 257.71472791805235 566.0281457410193
    vertex 1484.8438543051566 258.75000409846245 556.0281457410193
    vertex 1484.9801510000002 257.71472791805235 556.0281457410193
  endloop
endfacet
facet normal 1.0 -4.987696006148701e-15 9.93219180669589e-15
  outer loop
    vertex 1515.9801510000007 146.50001830875195 566.0281457410201
    vertex 1515.9801510000011 264.71472791805166 566.0281457410198
    vertex 1515.9801510000011 195.25001830875206 566.0281457410201
  endloop
endfacet
facet normal 1.0 -4.987696006148701e-15 9.93219180669589e-15
  outer loop
    vertex 1515.9801510000011 264.71472791805166 566.0281457410198
    vertex 1515.9801510000007 146.50001830875195 566.0281457410201
    vertex 1515.980151000001 146.50001830875198 556.0281457410201
  endloop
endfacet
facet normal 1.0 -4.987696006148701e-15 9.93219180669589e-15
  outer loop
    vertex 1515.9801510000011 264.71472791805166 566.0281457410198
    vertex 1515.980151000001 146.50001830875198 556.0281457410201
    vertex 1515.9801510000013 264.71472791805166 556.0281457410198
  endloop
endfacet
facet normal -1.5439193740575463e-14 3.637413760263511e-15 1.0
  outer loop
    vertex 1515.9801510000007 146.50001830875195 566.0281457410201
    vertex 1490.9801510000007 151.50001830875198 566.0281457410199
    vertex 1490.9801510000007 146.50001830875198 566.0281457410198
  endloop
endfacet
facet normal -1.5439193740575463e-14 3.637413760263511e-15 1.0
  outer loop
    vertex 1490.9801510000007 151.50001830875198 566.0281457410199
    vertex 1515.9801510000007 146.50001830875195 566.0281457410201
    vertex 1502.9801510000007 151.50001830875195 566.02814574102
  endloop
endfacet
facet normal -1.5439193740575463e-14 3.637413760263511e-15 1.0
  outer loop
    vertex 1515.9801510000011 195.25001830875206 566.0281457410201
    vertex 1502.9801510000007 151.50001830875195 566.02814574102
    vertex 1515.9801510000007 146.50001830875195 566.0281457410201
  endloop
endfacet
facet normal -1.5439193740575463e-14 3.637413760263511e-15 1.0
  outer loop
    vertex 1502.9801510000007 151.50001830875195 566.02814574102
    vertex 1515.9801510000011 195.25001830875206 566.0281457410201
    vertex 1502.9801510000007 159.50001830875192 566.02814574102
  endloop
endfacet
facet normal -1.5439193740575463e-14 3.637413760263511e-15 1.0
  outer loop
    vertex 1502.9801510000007 159.50001830875192 566.02814574102
    vertex 1515.9801510000011 195.25001830875206 566.0281457410201
    vertex 1505.9801510000004 169.5000183087519 566.02814574102
  endloop
endfacet
facet normal -1.5439193740575463e-14 3.637413760263511e-15 1.0
  outer loop
    vertex 1502.9801510000007 159.50001830875192 566.02814574102
    vertex 1505.9801510000004 169.5000183087519 566.02814574102
    vertex 1490.980151000001 159.50001830875195 566.0281457410198
  endloop
endfacet
facet normal -1.5439193740575463e-14 3.637413760263511e-15 1.0
  outer loop
    vertex 1505.9801510000004 169.5000183087519 566.02814574102
    vertex 1515.9801510000011 195.25001830875206 566.0281457410201
    vertex 1505.980151000001 195.2500183087521 566.0281457410199
  endloop
endfacet
facet normal -1.5439193740575463e-14 3.637413760263511e-15 1.0
  outer loop
    vertex 1505.980151000001 195.2500183087521 566.0281457410199
    vertex 1515.9801510000011 195.25001830875206 566.0281457410201
    vertex 1515.9801510000011 264.71472791805166 566.0281457410198
  endloop
endfacet
facet normal -1.5439193740575463e-14 3.637413760263511e-15 1.0
  outer loop
    vertex 1505.980151000001 195.2500183087521 566.0281457410199
    vertex 1515.9801510000011 264.71472791805166 566.0281457410198
    vertex 1477.9801510000002 250.71472791805235 566.0281457410193
  endloop
endfacet
facet normal -1.5439193740575463e-14 3.637413760263511e-15 1.0
  outer loop
    vertex 1477.9801510000002 250.71472791805235 566.0281457410193
    vertex 1515.9801510000011 264.71472791805166 566.0281457410198
    vertex 1482.0154271804101 253.851024612896 566.0281457410193
  endloop
endfacet
facet normal -1.5439193740575463e-14 3.637413760263511e-15 1.0
  outer loop
    vertex 1477.9801510000002 250.71472791805235 566.0281457410193
    vertex 1482.0154271804101 253.851024612896 566.0281457410193
    vertex 1480.9801510000002 253.7147279180524 566.0281457410192
  endloop
endfacet
facet normal -1.5439193740575463e-14 3.637413760263511e-15 1.0
  outer loop
    vertex 1482.0154271804101 253.851024612896 566.0281457410193
    vertex 1515.9801510000011 264.71472791805166 566.0281457410198
    vertex 1482.980151 254.2506263029146 566.0281457410194
  endloop
endfacet
facet normal -1.5439193740575463e-14 3.637413760263511e-15 1.0
  outer loop
    vertex 1482.980151 254.2506263029146 566.0281457410194
    vertex 1515.9801510000011 264.71472791805166 566.0281457410198
    vertex 1483.8085781247464 254.88630079330613 566.0281457410194
  endloop
endfacet
facet normal -1.5439193740575463e-14 3.637413760263511e-15 1.0
  outer loop
    vertex 1483.8085781247464 254.88630079330613 566.0281457410194
    vertex 1515.9801510000011 264.71472791805166 566.0281457410198
    vertex 1484.4442526151379 255.71472791805226 566.0281457410193
  endloop
endfacet
facet normal -1.5439193740575463e-14 3.637413760263511e-15 1.0
  outer loop
    vertex 1484.4442526151379 255.71472791805226 566.0281457410193
    vertex 1515.9801510000011 264.71472791805166 566.0281457410198
    vertex 1484.8438543051564 256.6794517376422 566.0281457410193
  endloop
endfacet
facet normal -1.5439193740575463e-14 3.637413760263511e-15 1.0
  outer loop
    vertex 1484.8438543051564 256.6794517376422 566.0281457410193
    vertex 1515.9801510000011 264.71472791805166 566.0281457410198
    vertex 1484.9801510000002 257.71472791805235 566.0281457410193
  endloop
endfacet
facet normal -1.5439193740575463e-14 3.637413760263511e-15 1.0
  outer loop
    vertex 1484.9801510000002 257.71472791805235 566.0281457410193
    vertex 1515.9801510000011 264.71472791805166 566.0281457410198
    vertex 1484.8438543051564 258.75000409846245 566.0281457410193
  endloop
endfacet
facet normal -1.5439193740575463e-14 3.637413760263511e-15 1.0
  outer loop
    vertex 1484.8438543051564 258.75000409846245 566.0281457410193
    vertex 1515.9801510000011 264.71472791805166 566.0281457410198
    vertex 1484.4442526151379 259.71472791805223 566.0281457410194
  endloop
endfacet
facet normal -1.5439193740575463e-14 3.637413760263511e-15 1.0
  outer loop
    vertex 1484.4442526151379 259.71472791805223 566.0281457410194
    vertex 1515.9801510000011 264.71472791805166 566.0281457410198
    vertex 1483.8085781247464 260.54315504279856 566.0281457410193
  endloop
endfacet
facet normal -1.5439193740575463e-14 3.637413760263511e-15 1.0
  outer loop
    vertex 1483.8085781247464 260.54315504279856 566.0281457410193
    vertex 1515.9801510000011 264.71472791805166 566.0281457410198
    vertex 1482.980151 261.1788295331901 566.0281457410193
  endloop
endfacet
facet normal -1.5439193740575463e-14 3.637413760263511e-15 1.0
  outer loop
    vertex 1482.980151 261.1788295331901 566.0281457410193
    vertex 1515.9801510000011 264.71472791805166 566.0281457410198
    vertex 1482.0154271804101 261.5784312232085 566.0281457410192
  endloop
endfacet
facet normal -1.5439193740575463e-14 3.637413760263511e-15 1.0
  outer loop
    vertex 1482.0154271804101 261.5784312232085 566.0281457410192
    vertex 1515.9801510000011 264.71472791805166 566.0281457410198
    vertex 1480.9801510000002 261.7147279180524 566.0281457410193
  endloop
endfacet
facet normal -1.5439193740575463e-14 3.637413760263511e-15 1.0
  outer loop
    vertex 1480.9801510000002 261.7147279180524 566.0281457410193
    vertex 1515.9801510000011 264.71472791805166 566.0281457410198
    vertex 1477.9801510000002 261.7147279180524 566.0281457410192
  endloop
endfacet
facet normal -1.5439193740575463e-14 3.637413760263511e-15 1.0
  outer loop
    vertex 1477.9801510000002 261.7147279180524 566.0281457410192
    vertex 1515.9801510000011 264.71472791805166 566.0281457410198
    vertex 1477.9801510000002 264.7147279180524 566.0281457410191
  endloop
endfacet
facet normal -1.5439193740575463e-14 3.637413760263511e-15 1.0
  outer loop
    vertex 1477.9801510000002 253.7147279180524 566.0281457410192
    vertex 1477.9801510000002 250.71472791805235 566.0281457410193
    vertex 1480.9801510000002 253.7147279180524 566.0281457410192
  endloop
endfacet
facet normal -1.5439193740575463e-14 3.637413760263511e-15 1.0
  outer loop
    vertex 1490.980151000001 169.50001830875195 566.0281457410198
    vertex 1490.980151000001 159.50001830875195 566.0281457410198
    vertex 1505.9801510000004 169.5000183087519 566.02814574102
  endloop
endfacet
facet normal 1.8844786031067278e-14 1.0 -4.66179905905022e-15
  outer loop
    vertex 1515.9801510000011 264.71472791805166 566.0281457410198
    vertex 1477.9801510000002 264.7147279180523 556.0281457410192
    vertex 1477.9801510000002 264.7147279180524 566.0281457410191
  endloop
endfacet
facet normal 1.8844786031067278e-14 1.0 -4.66179905905022e-15
  outer loop
    vertex 1477.9801510000002 264.7147279180523 556.0281457410192
    vertex 1515.9801510000011 264.71472791805166 566.0281457410198
    vertex 1515.9801510000013 264.71472791805166 556.0281457410198
  endloop
endfacet
facet normal -0.8926974658432038 -0.4506564483918125 -1.342580997575595e-14
  outer loop
    vertex 1477.9801510000002 250.71472791805223 556.0281457410194
    vertex 1505.980151000001 195.2500183087521 566.0281457410199
    vertex 1477.9801510000002 250.71472791805235 566.0281457410193
  endloop
endfacet
facet normal -0.8926974658432038 -0.4506564483918125 -1.342580997575595e-14
  outer loop
    vertex 1505.980151000001 195.2500183087521 566.0281457410199
    vertex 1477.9801510000002 250.71472791805223 556.0281457410194
    vertex 1505.9801510000011 195.25001830875206 556.0281457410199
  endloop
endfacet
endsolid Flsun Cube Linear Rail X-Y Gantry v3
