solid flsun-cube-linear-rail-xy-gantry
facet normal -2.7704933863621703e-16 -1.0 1.503982124025523e-15
  outer loop
    vertex 1692.9022240000013 146.50001830875195 556.0281457410199
    vertex 1717.9022240000008 146.50001830875195 566.0281457410201
    vertex 1692.9022240000008 146.50001830875198 566.0281457410198
  endloop
endfacet
facet normal -2.7704933863621703e-16 -1.0 1.503982124025523e-15
  outer loop
    vertex 1717.9022240000008 146.50001830875195 566.0281457410201
    vertex 1692.9022240000013 146.50001830875195 556.0281457410199
    vertex 1717.9022240000008 146.50001830875198 556.0281457410201
  endloop
endfacet
facet normal -1.0 3.007964248050994e-15 -1.8790524691780774e-14
  outer loop
    vertex 1692.9022240000008 151.50001830875195 556.0281457410199
    vertex 1692.9022240000008 146.50001830875198 566.0281457410198
    vertex 1692.9022240000008 151.50001830875198 566.0281457410199
  endloop
endfacet
facet normal -1.0 3.007964248050994e-15 -1.8790524691780774e-14
  outer loop
    vertex 1692.9022240000008 146.50001830875198 566.0281457410198
    vertex 1692.9022240000008 151.50001830875195 556.0281457410199
    vertex 1692.9022240000013 146.50001830875195 556.0281457410199
  endloop
endfacet
facet normal -1.0 1.8047785488306693e-14 -1.4278578319704162e-14
  outer loop
    vertex 1692.9022240000013 169.50001830875192 556.0281457410198
    vertex 1692.9022240000013 159.50001830875195 566.0281457410198
    vertex 1692.9022240000013 169.50001830875195 566.0281457410198
  endloop
endfacet
facet normal -1.0 1.8047785488306693e-14 -1.4278578319704162e-14
  outer loop
    vertex 1692.9022240000013 159.50001830875195 566.0281457410198
    vertex 1692.9022240000013 169.50001830875192 556.0281457410198
    vertex 1692.9022240000013 159.50001830875198 556.0281457410198
  endloop
endfacet
facet normal -1.804778548830667e-14 -1.0 -1.5039821240259105e-15
  outer loop
    vertex 1704.902224000001 159.5000183087519 556.0281457410199
    vertex 1692.9022240000013 159.50001830875195 566.0281457410198
    vertex 1692.9022240000013 159.50001830875198 556.0281457410198
  endloop
endfacet
facet normal -1.804778548830667e-14 -1.0 -1.5039821240259105e-15
  outer loop
    vertex 1692.9022240000013 159.50001830875195 566.0281457410198
    vertex 1704.902224000001 159.5000183087519 556.0281457410199
    vertex 1704.9022240000006 159.50001830875192 566.02814574102
  endloop
endfacet
facet normal 3.0079642480510506e-15 1.0 -3.0079642480509958e-15
  outer loop
    vertex 1704.902224000001 151.50001830875195 566.02814574102
    vertex 1692.9022240000008 151.50001830875195 556.0281457410199
    vertex 1692.9022240000008 151.50001830875198 566.0281457410199
  endloop
endfacet
facet normal 3.0079642480510506e-15 1.0 -3.0079642480509958e-15
  outer loop
    vertex 1692.9022240000008 151.50001830875195 556.0281457410199
    vertex 1704.902224000001 151.50001830875195 566.02814574102
    vertex 1704.902224000001 151.50001830875186 556.02814574102
  endloop
endfacet
facet normal -1.0 -8.271901682140583e-15 -1.8790524691780765e-14
  outer loop
    vertex 1704.902224000001 159.5000183087519 556.0281457410199
    vertex 1704.902224000001 151.50001830875195 566.02814574102
    vertex 1704.9022240000006 159.50001830875192 566.02814574102
  endloop
endfacet
facet normal -1.0 -8.271901682140583e-15 -1.8790524691780765e-14
  outer loop
    vertex 1704.902224000001 151.50001830875195 566.02814574102
    vertex 1704.902224000001 159.5000183087519 556.0281457410199
    vertex 1704.902224000001 151.50001830875186 556.02814574102
  endloop
endfacet
facet normal 3.0079642480510506e-15 1.0 -3.0079642480509958e-15
  outer loop
    vertex 1707.9022240000006 169.5000183087519 566.02814574102
    vertex 1692.9022240000013 169.50001830875192 556.0281457410198
    vertex 1692.9022240000013 169.50001830875195 566.0281457410198
  endloop
endfacet
facet normal 3.0079642480510506e-15 1.0 -3.0079642480509958e-15
  outer loop
    vertex 1692.9022240000013 169.50001830875192 556.0281457410198
    vertex 1707.9022240000006 169.5000183087519 566.02814574102
    vertex 1707.9022240000006 169.50001830875186 556.02814574102
  endloop
endfacet
facet normal 1.3644573556435948e-14 -3.758292292558886e-15 -1.0
  outer loop
    vertex 1692.9022240000008 151.50001830875195 556.0281457410199
    vertex 1717.9022240000008 146.50001830875198 556.0281457410201
    vertex 1692.9022240000013 146.50001830875195 556.0281457410199
  endloop
endfacet
facet normal 1.3644573556435948e-14 -3.758292292558886e-15 -1.0
  outer loop
    vertex 1717.9022240000008 146.50001830875198 556.0281457410201
    vertex 1692.9022240000008 151.50001830875195 556.0281457410199
    vertex 1704.902224000001 151.50001830875186 556.02814574102
  endloop
endfacet
facet normal 1.3644573556435948e-14 -3.758292292558886e-15 -1.0
  outer loop
    vertex 1679.9022240000002 264.7147279180523 556.0281457410192
    vertex 1682.9022240000002 261.71472791805223 556.0281457410192
    vertex 1679.9022240000002 261.71472791805223 556.0281457410192
  endloop
endfacet
facet normal 1.3644573556435948e-14 -3.758292292558886e-15 -1.0
  outer loop
    vertex 1682.9022240000002 261.71472791805223 556.0281457410192
    vertex 1679.9022240000002 264.7147279180523 556.0281457410192
    vertex 1717.9022240000018 264.71472791805166 556.0281457410198
  endloop
endfacet
facet normal 1.3644573556435948e-14 -3.758292292558886e-15 -1.0
  outer loop
    vertex 1717.9022240000008 146.50001830875198 556.0281457410201
    vertex 1707.9022240000006 169.50001830875186 556.02814574102
    vertex 1717.9022240000018 264.71472791805166 556.0281457410198
  endloop
endfacet
facet normal 1.3644573556435948e-14 -3.758292292558886e-15 -1.0
  outer loop
    vertex 1707.9022240000006 169.50001830875186 556.02814574102
    vertex 1717.9022240000008 146.50001830875198 556.0281457410201
    vertex 1704.902224000001 151.50001830875186 556.02814574102
  endloop
endfacet
facet normal 1.3644573556435948e-14 -3.758292292558886e-15 -1.0
  outer loop
    vertex 1707.9022240000006 169.50001830875186 556.02814574102
    vertex 1704.902224000001 151.50001830875186 556.02814574102
    vertex 1704.902224000001 159.5000183087519 556.0281457410199
  endloop
endfacet
facet normal 1.3644573556435948e-14 -3.758292292558886e-15 -1.0
  outer loop
    vertex 1707.9022240000006 169.50001830875186 556.02814574102
    vertex 1704.902224000001 159.5000183087519 556.0281457410199
    vertex 1692.9022240000013 159.50001830875198 556.0281457410198
  endloop
endfacet
facet normal 1.3644573556435948e-14 -3.758292292558886e-15 -1.0
  outer loop
    vertex 1707.9022240000006 169.50001830875186 556.02814574102
    vertex 1692.9022240000013 159.50001830875198 556.0281457410198
    vertex 1692.9022240000013 169.50001830875192 556.0281457410198
  endloop
endfacet
facet normal 1.3644573556435948e-14 -3.758292292558886e-15 -1.0
  outer loop
    vertex 1717.9022240000018 264.71472791805166 556.0281457410198
    vertex 1707.9022240000006 169.50001830875186 556.02814574102
    vertex 1707.902224000001 195.25001830875206 556.0281457410199
  endloop
endfacet
facet normal 1.3644573556435948e-14 -3.758292292558886e-15 -1.0
  outer loop
    vertex 1717.9022240000018 264.71472791805166 556.0281457410198
    vertex 1707.902224000001 195.25001830875206 556.0281457410199
    vertex 1679.9022240000002 250.71472791805223 556.0281457410194
  endloop
endfacet
facet normal 1.3644573556435948e-14 -3.758292292558886e-15 -1.0
  outer loop
    vertex 1717.9022240000018 264.71472791805166 556.0281457410198
    vertex 1679.9022240000002 250.71472791805223 556.0281457410194
    vertex 1683.9375001804103 253.8510246128961 556.0281457410193
  endloop
endfacet
facet normal 1.3644573556435948e-14 -3.758292292558886e-15 -1.0
  outer loop
    vertex 1683.9375001804103 253.8510246128961 556.0281457410193
    vertex 1679.9022240000002 250.71472791805223 556.0281457410194
    vertex 1682.9022240000002 253.71472791805235 556.0281457410193
  endloop
endfacet
facet normal 1.3644573556435948e-14 -3.758292292558886e-15 -1.0
  outer loop
    vertex 1682.9022240000002 253.71472791805235 556.0281457410193
    vertex 1679.9022240000002 250.71472791805223 556.0281457410194
    vertex 1679.9022240000002 253.71472791805235 556.0281457410193
  endloop
endfacet
facet normal 1.3644573556435948e-14 -3.758292292558886e-15 -1.0
  outer loop
    vertex 1717.9022240000018 264.71472791805166 556.0281457410198
    vertex 1683.9375001804103 253.8510246128961 556.0281457410193
    vertex 1684.9022240000002 254.2506263029146 556.0281457410194
  endloop
endfacet
facet normal 1.3644573556435948e-14 -3.758292292558886e-15 -1.0
  outer loop
    vertex 1717.9022240000018 264.71472791805166 556.0281457410198
    vertex 1684.9022240000002 254.2506263029146 556.0281457410194
    vertex 1685.7306511247466 254.88630079330613 556.0281457410194
  endloop
endfacet
facet normal 1.3644573556435948e-14 -3.758292292558886e-15 -1.0
  outer loop
    vertex 1717.9022240000018 264.71472791805166 556.0281457410198
    vertex 1685.7306511247466 254.88630079330613 556.0281457410194
    vertex 1686.366325615138 255.71472791805235 556.0281457410193
  endloop
endfacet
facet normal 1.3644573556435948e-14 -3.758292292558886e-15 -1.0
  outer loop
    vertex 1717.9022240000018 264.71472791805166 556.0281457410198
    vertex 1686.366325615138 255.71472791805235 556.0281457410193
    vertex 1686.7659273051563 256.6794517376423 556.0281457410193
  endloop
endfacet
facet normal 1.3644573556435948e-14 -3.758292292558886e-15 -1.0
  outer loop
    vertex 1717.9022240000018 264.71472791805166 556.0281457410198
    vertex 1686.7659273051563 256.6794517376423 556.0281457410193
    vertex 1686.9022240000004 257.71472791805235 556.0281457410193
  endloop
endfacet
facet normal 1.3644573556435948e-14 -3.758292292558886e-15 -1.0
  outer loop
    vertex 1717.9022240000018 264.71472791805166 556.0281457410198
    vertex 1686.9022240000004 257.71472791805235 556.0281457410193
    vertex 1686.7659273051563 258.75000409846245 556.0281457410193
  endloop
endfacet
facet normal 1.3644573556435948e-14 -3.758292292558886e-15 -1.0
  outer loop
    vertex 1717.9022240000018 264.71472791805166 556.0281457410198
    vertex 1686.7659273051563 258.75000409846245 556.0281457410193
    vertex 1686.366325615138 259.71472791805235 556.0281457410194
  endloop
endfacet
facet normal 1.3644573556435948e-14 -3.758292292558886e-15 -1.0
  outer loop
    vertex 1717.9022240000018 264.71472791805166 556.0281457410198
    vertex 1686.366325615138 259.71472791805235 556.0281457410194
    vertex 1685.7306511247466 260.54315504279856 556.0281457410193
  endloop
endfacet
facet normal 1.3644573556435948e-14 -3.758292292558886e-15 -1.0
  outer loop
    vertex 1717.9022240000018 264.71472791805166 556.0281457410198
    vertex 1685.7306511247466 260.54315504279856 556.0281457410193
    vertex 1684.9022240000002 261.1788295331901 556.0281457410193
  endloop
endfacet
facet normal 1.3644573556435948e-14 -3.758292292558886e-15 -1.0
  outer loop
    vertex 1717.9022240000018 264.71472791805166 556.0281457410198
    vertex 1684.9022240000002 261.1788295331901 556.0281457410193
    vertex 1683.9375001804103 261.5784312232086 556.0281457410193
  endloop
endfacet
facet normal 1.3644573556435948e-14 -3.758292292558886e-15 -1.0
  outer loop
    vertex 1717.9022240000018 264.71472791805166 556.0281457410198
    vertex 1683.9375001804103 261.5784312232086 556.0281457410193
    vertex 1682.9022240000002 261.71472791805223 556.0281457410192
  endloop
endfacet
facet normal -1.0 1.7025661714696753e-14 -1.8790524691780815e-14
  outer loop
    vertex 1707.902224000001 195.25001830875206 556.0281457410199
    vertex 1707.9022240000006 169.5000183087519 566.02814574102
    vertex 1707.902224000001 195.2500183087521 566.0281457410199
  endloop
endfacet
facet normal -1.0 1.7025661714696753e-14 -1.8790524691780815e-14
  outer loop
    vertex 1707.9022240000006 169.5000183087519 566.02814574102
    vertex 1707.902224000001 195.25001830875206 556.0281457410199
    vertex 1707.9022240000006 169.50001830875186 556.02814574102
  endloop
endfacet
facet normal -0.13052619222007464 0.9914448613738075 -5.4348863347618004e-15
  outer loop
    vertex 1683.93750018041 253.851024612896 566.0281457410193
    vertex 1682.9022240000002 253.71472791805235 556.0281457410193
    vertex 1682.9022240000002 253.7147279180524 566.0281457410192
  endloop
endfacet
facet normal -0.13052619222007464 0.9914448613738075 -5.4348863347618004e-15
  outer loop
    vertex 1682.9022240000002 253.71472791805235 556.0281457410193
    vertex 1683.93750018041 253.851024612896 566.0281457410193
    vertex 1683.9375001804103 253.8510246128961 556.0281457410193
  endloop
endfacet
facet normal -0.38268343236506797 0.923879532511296 -9.971111565959623e-15
  outer loop
    vertex 1684.9022240000002 254.2506263029146 566.0281457410194
    vertex 1683.9375001804103 253.8510246128961 556.0281457410193
    vertex 1683.93750018041 253.851024612896 566.0281457410193
  endloop
endfacet
facet normal -0.38268343236506797 0.923879532511296 -9.971111565959623e-15
  outer loop
    vertex 1683.9375001804103 253.8510246128961 556.0281457410193
    vertex 1684.9022240000002 254.2506263029146 566.0281457410194
    vertex 1684.9022240000002 254.2506263029146 556.0281457410194
  endloop
endfacet
facet normal -0.6087614290086968 0.7933533402912537 -1.3823621871649796e-14
  outer loop
    vertex 1685.7306511247461 254.88630079330613 566.0281457410194
    vertex 1684.9022240000002 254.2506263029146 556.0281457410194
    vertex 1684.9022240000002 254.2506263029146 566.0281457410194
  endloop
endfacet
facet normal -0.6087614290086968 0.7933533402912537 -1.3823621871649796e-14
  outer loop
    vertex 1684.9022240000002 254.2506263029146 556.0281457410194
    vertex 1685.7306511247461 254.88630079330613 566.0281457410194
    vertex 1685.7306511247466 254.88630079330613 556.0281457410194
  endloop
endfacet
facet normal -0.1305261922200381 -0.9914448613738123 5.0031784344930895e-15
  outer loop
    vertex 1683.9375001804103 261.5784312232086 556.0281457410193
    vertex 1682.9022240000002 261.7147279180524 566.0281457410193
    vertex 1682.9022240000002 261.71472791805223 556.0281457410192
  endloop
endfacet
facet normal -0.1305261922200381 -0.9914448613738123 5.0031784344930895e-15
  outer loop
    vertex 1682.9022240000002 261.7147279180524 566.0281457410193
    vertex 1683.9375001804103 261.5784312232086 556.0281457410193
    vertex 1683.93750018041 261.5784312232085 566.0281457410192
  endloop
endfacet
facet normal -0.3826834323650734 -0.9238795325112935 -4.41311835935954e-15
  outer loop
    vertex 1684.9022240000002 261.1788295331901 556.0281457410193
    vertex 1683.93750018041 261.5784312232085 566.0281457410192
    vertex 1683.9375001804103 261.5784312232086 556.0281457410193
  endloop
endfacet
facet normal -0.3826834323650734 -0.9238795325112935 -4.41311835935954e-15
  outer loop
    vertex 1683.93750018041 261.5784312232085 566.0281457410192
    vertex 1684.9022240000002 261.1788295331901 556.0281457410193
    vertex 1684.9022240000002 261.1788295331901 566.0281457410193
  endloop
endfacet
facet normal -0.6087614290087014 -0.7933533402912502 -9.050864904313954e-15
  outer loop
    vertex 1685.7306511247466 260.54315504279856 556.0281457410193
    vertex 1684.9022240000002 261.1788295331901 566.0281457410193
    vertex 1684.9022240000002 261.1788295331901 556.0281457410193
  endloop
endfacet
facet normal -0.6087614290087014 -0.7933533402912502 -9.050864904313954e-15
  outer loop
    vertex 1684.9022240000002 261.1788295331901 566.0281457410193
    vertex 1685.7306511247466 260.54315504279856 556.0281457410193
    vertex 1685.7306511247461 260.54315504279856 566.0281457410193
  endloop
endfacet
facet normal -0.9238795325112833 -0.3826834323650985 -1.6209304839118224e-14
  outer loop
    vertex 1686.366325615138 259.71472791805235 556.0281457410194
    vertex 1686.7659273051563 258.75000409846245 566.0281457410193
    vertex 1686.3663256151378 259.71472791805223 566.0281457410194
  endloop
endfacet
facet normal -0.9238795325112833 -0.3826834323650985 -1.6209304839118224e-14
  outer loop
    vertex 1686.7659273051563 258.75000409846245 566.0281457410193
    vertex 1686.366325615138 259.71472791805235 556.0281457410194
    vertex 1686.7659273051563 258.75000409846245 556.0281457410193
  endloop
endfacet
facet normal -0.7933533402912537 -0.6087614290086968 -1.3074689640789088e-14
  outer loop
    vertex 1685.7306511247461 260.54315504279856 566.0281457410193
    vertex 1686.366325615138 259.71472791805235 556.0281457410194
    vertex 1686.3663256151378 259.71472791805223 566.0281457410194
  endloop
endfacet
facet normal -0.7933533402912537 -0.6087614290086968 -1.3074689640789088e-14
  outer loop
    vertex 1686.366325615138 259.71472791805235 556.0281457410194
    vertex 1685.7306511247461 260.54315504279856 566.0281457410193
    vertex 1685.7306511247466 260.54315504279856 556.0281457410193
  endloop
endfacet
facet normal -1.0 3.007964248050994e-15 -1.8790524691780774e-14
  outer loop
    vertex 1679.9022240000002 264.7147279180524 566.0281457410191
    vertex 1679.9022240000002 261.71472791805223 556.0281457410192
    vertex 1679.9022240000002 261.7147279180524 566.0281457410192
  endloop
endfacet
facet normal -1.0 3.007964248050994e-15 -1.8790524691780774e-14
  outer loop
    vertex 1679.9022240000002 261.71472791805223 556.0281457410192
    vertex 1679.9022240000002 264.7147279180524 566.0281457410191
    vertex 1679.9022240000002 264.7147279180523 556.0281457410192
  endloop
endfacet
facet normal -3.0079642480512202e-15 -1.0 1.2031856992204265e-14
  outer loop
    vertex 1682.9022240000002 261.71472791805223 556.0281457410192
    vertex 1679.9022240000002 261.7147279180524 566.0281457410192
    vertex 1679.9022240000002 261.71472791805223 556.0281457410192
  endloop
endfacet
facet normal -3.0079642480512202e-15 -1.0 1.2031856992204265e-14
  outer loop
    vertex 1679.9022240000002 261.7147279180524 566.0281457410192
    vertex 1682.9022240000002 261.71472791805223 556.0281457410192
    vertex 1682.9022240000002 261.7147279180524 566.0281457410193
  endloop
endfacet
facet normal -1.0 3.007964248050994e-15 -1.8790524691780774e-14
  outer loop
    vertex 1679.9022240000002 253.7147279180524 566.0281457410192
    vertex 1679.9022240000002 250.71472791805223 556.0281457410194
    vertex 1679.9022240000002 250.71472791805235 566.0281457410193
  endloop
endfacet
facet normal -1.0 3.007964248050994e-15 -1.8790524691780774e-14
  outer loop
    vertex 1679.9022240000002 250.71472791805223 556.0281457410194
    vertex 1679.9022240000002 253.7147279180524 566.0281457410192
    vertex 1679.9022240000002 253.71472791805235 556.0281457410193
  endloop
endfacet
facet normal 3.0079642480510506e-15 1.0 -3.0079642480509958e-15
  outer loop
    vertex 1682.9022240000002 253.7147279180524 566.0281457410192
    vertex 1679.9022240000002 253.71472791805235 556.0281457410193
    vertex 1679.9022240000002 253.7147279180524 566.0281457410192
  endloop
endfacet
facet normal 3.0079642480510506e-15 1.0 -3.0079642480509958e-15
  outer loop
    vertex 1679.9022240000002 253.71472791805235 556.0281457410193
    vertex 1682.9022240000002 253.7147279180524 566.0281457410192
    vertex 1682.9022240000002 253.71472791805235 556.0281457410193
  endloop
endfacet
facet normal -0.7933533402912502 0.6087614290087014 -1.673695486889029e-14
  outer loop
    vertex 1686.3663256151378 255.71472791805226 566.0281457410193
    vertex 1685.7306511247466 254.88630079330613 556.0281457410194
    vertex 1685.7306511247461 254.88630079330613 566.0281457410194
  endloop
endfacet
facet normal -0.7933533402912502 0.6087614290087014 -1.673695486889029e-14
  outer loop
    vertex 1685.7306511247466 254.88630079330613 556.0281457410194
    vertex 1686.3663256151378 255.71472791805226 566.0281457410193
    vertex 1686.366325615138 255.71472791805235 556.0281457410193
  endloop
endfacet
facet normal -0.9238795325112935 0.3826834323650734 -1.8512571728428233e-14
  outer loop
    vertex 1686.7659273051563 256.6794517376423 556.0281457410193
    vertex 1686.3663256151378 255.71472791805226 566.0281457410193
    vertex 1686.7659273051563 256.6794517376422 566.0281457410193
  endloop
endfacet
facet normal -0.9238795325112935 0.3826834323650734 -1.8512571728428233e-14
  outer loop
    vertex 1686.3663256151378 255.71472791805226 566.0281457410193
    vertex 1686.7659273051563 256.6794517376423 556.0281457410193
    vertex 1686.366325615138 255.71472791805235 556.0281457410193
  endloop
endfacet
facet normal -0.9914448613738066 0.13052619222008058 -1.902238726781594e-14
  outer loop
    vertex 1686.9022240000004 257.71472791805235 556.0281457410193
    vertex 1686.7659273051563 256.6794517376422 566.0281457410193
    vertex 1686.902224 257.71472791805235 566.0281457410193
  endloop
endfacet
facet normal -0.9914448613738066 0.13052619222008058 -1.902238726781594e-14
  outer loop
    vertex 1686.7659273051563 256.6794517376422 566.0281457410193
    vertex 1686.9022240000004 257.71472791805235 556.0281457410193
    vertex 1686.7659273051563 256.6794517376423 556.0281457410193
  endloop
endfacet
facet normal -0.9914448613738088 -0.13052619222006337 -1.8237151028551544e-14
  outer loop
    vertex 1686.7659273051563 258.75000409846245 556.0281457410193
    vertex 1686.902224 257.71472791805235 566.0281457410193
    vertex 1686.7659273051563 258.75000409846245 566.0281457410193
  endloop
endfacet
facet normal -0.9914448613738088 -0.13052619222006337 -1.8237151028551544e-14
  outer loop
    vertex 1686.902224 257.71472791805235 566.0281457410193
    vertex 1686.7659273051563 258.75000409846245 556.0281457410193
    vertex 1686.9022240000004 257.71472791805235 556.0281457410193
  endloop
endfacet
facet normal 1.0 -4.987696006148701e-15 9.93219180669589e-15
  outer loop
    vertex 1717.9022240000008 146.50001830875195 566.0281457410201
    vertex 1717.9022240000013 264.71472791805166 566.0281457410198
    vertex 1717.9022240000013 195.25001830875206 566.0281457410201
  endloop
endfacet
facet normal 1.0 -4.987696006148701e-15 9.93219180669589e-15
  outer loop
    vertex 1717.9022240000013 264.71472791805166 566.0281457410198
    vertex 1717.9022240000008 146.50001830875195 566.0281457410201
    vertex 1717.9022240000008 146.50001830875198 556.0281457410201
  endloop
endfacet
facet normal 1.0 -4.987696006148701e-15 9.93219180669589e-15
  outer loop
    vertex 1717.9022240000013 264.71472791805166 566.0281457410198
    vertex 1717.9022240000008 146.50001830875198 556.0281457410201
    vertex 1717.9022240000018 264.71472791805166 556.0281457410198
  endloop
endfacet
facet normal -1.5439193740575463e-14 3.637413760263511e-15 1.0
  outer loop
    vertex 1717.9022240000008 146.50001830875195 566.0281457410201
    vertex 1692.9022240000008 151.50001830875198 566.0281457410199
    vertex 1692.9022240000008 146.50001830875198 566.0281457410198
  endloop
endfacet
facet normal -1.5439193740575463e-14 3.637413760263511e-15 1.0
  outer loop
    vertex 1692.9022240000008 151.50001830875198 566.0281457410199
    vertex 1717.9022240000008 146.50001830875195 566.0281457410201
    vertex 1704.902224000001 151.50001830875195 566.02814574102
  endloop
endfacet
facet normal -1.5439193740575463e-14 3.637413760263511e-15 1.0
  outer loop
    vertex 1717.9022240000013 195.25001830875206 566.0281457410201
    vertex 1704.902224000001 151.50001830875195 566.02814574102
    vertex 1717.9022240000008 146.50001830875195 566.0281457410201
  endloop
endfacet
facet normal -1.5439193740575463e-14 3.637413760263511e-15 1.0
  outer loop
    vertex 1704.902224000001 151.50001830875195 566.02814574102
    vertex 1717.9022240000013 195.25001830875206 566.0281457410201
    vertex 1704.9022240000006 159.50001830875192 566.02814574102
  endloop
endfacet
facet normal -1.5439193740575463e-14 3.637413760263511e-15 1.0
  outer loop
    vertex 1704.9022240000006 159.50001830875192 566.02814574102
    vertex 1717.9022240000013 195.25001830875206 566.0281457410201
    vertex 1707.9022240000006 169.5000183087519 566.02814574102
  endloop
endfacet
facet normal -1.5439193740575463e-14 3.637413760263511e-15 1.0
  outer loop
    vertex 1704.9022240000006 159.50001830875192 566.02814574102
    vertex 1707.9022240000006 169.5000183087519 566.02814574102
    vertex 1692.9022240000013 159.50001830875195 566.0281457410198
  endloop
endfacet
facet normal -1.5439193740575463e-14 3.637413760263511e-15 1.0
  outer loop
    vertex 1707.9022240000006 169.5000183087519 566.02814574102
    vertex 1717.9022240000013 195.25001830875206 566.0281457410201
    vertex 1707.902224000001 195.2500183087521 566.0281457410199
  endloop
endfacet
facet normal -1.5439193740575463e-14 3.637413760263511e-15 1.0
  outer loop
    vertex 1707.902224000001 195.2500183087521 566.0281457410199
    vertex 1717.9022240000013 195.25001830875206 566.0281457410201
    vertex 1717.9022240000013 264.71472791805166 566.0281457410198
  endloop
endfacet
facet normal -1.5439193740575463e-14 3.637413760263511e-15 1.0
  outer loop
    vertex 1707.902224000001 195.2500183087521 566.0281457410199
    vertex 1717.9022240000013 264.71472791805166 566.0281457410198
    vertex 1679.9022240000002 250.71472791805235 566.0281457410193
  endloop
endfacet
facet normal -1.5439193740575463e-14 3.637413760263511e-15 1.0
  outer loop
    vertex 1679.9022240000002 250.71472791805235 566.0281457410193
    vertex 1717.9022240000013 264.71472791805166 566.0281457410198
    vertex 1683.93750018041 253.851024612896 566.0281457410193
  endloop
endfacet
facet normal -1.5439193740575463e-14 3.637413760263511e-15 1.0
  outer loop
    vertex 1679.9022240000002 250.71472791805235 566.0281457410193
    vertex 1683.93750018041 253.851024612896 566.0281457410193
    vertex 1682.9022240000002 253.7147279180524 566.0281457410192
  endloop
endfacet
facet normal -1.5439193740575463e-14 3.637413760263511e-15 1.0
  outer loop
    vertex 1683.93750018041 253.851024612896 566.0281457410193
    vertex 1717.9022240000013 264.71472791805166 566.0281457410198
    vertex 1684.9022240000002 254.2506263029146 566.0281457410194
  endloop
endfacet
facet normal -1.5439193740575463e-14 3.637413760263511e-15 1.0
  outer loop
    vertex 1684.9022240000002 254.2506263029146 566.0281457410194
    vertex 1717.9022240000013 264.71472791805166 566.0281457410198
    vertex 1685.7306511247461 254.88630079330613 566.0281457410194
  endloop
endfacet
facet normal -1.5439193740575463e-14 3.637413760263511e-15 1.0
  outer loop
    vertex 1685.7306511247461 254.88630079330613 566.0281457410194
    vertex 1717.9022240000013 264.71472791805166 566.0281457410198
    vertex 1686.3663256151378 255.71472791805226 566.0281457410193
  endloop
endfacet
facet normal -1.5439193740575463e-14 3.637413760263511e-15 1.0
  outer loop
    vertex 1686.3663256151378 255.71472791805226 566.0281457410193
    vertex 1717.9022240000013 264.71472791805166 566.0281457410198
    vertex 1686.7659273051563 256.6794517376422 566.0281457410193
  endloop
endfacet
facet normal -1.5439193740575463e-14 3.637413760263511e-15 1.0
  outer loop
    vertex 1686.7659273051563 256.6794517376422 566.0281457410193
    vertex 1717.9022240000013 264.71472791805166 566.0281457410198
    vertex 1686.902224 257.71472791805235 566.0281457410193
  endloop
endfacet
facet normal -1.5439193740575463e-14 3.637413760263511e-15 1.0
  outer loop
    vertex 1686.902224 257.71472791805235 566.0281457410193
    vertex 1717.9022240000013 264.71472791805166 566.0281457410198
    vertex 1686.7659273051563 258.75000409846245 566.0281457410193
  endloop
endfacet
facet normal -1.5439193740575463e-14 3.637413760263511e-15 1.0
  outer loop
    vertex 1686.7659273051563 258.75000409846245 566.0281457410193
    vertex 1717.9022240000013 264.71472791805166 566.0281457410198
    vertex 1686.3663256151378 259.71472791805223 566.0281457410194
  endloop
endfacet
facet normal -1.5439193740575463e-14 3.637413760263511e-15 1.0
  outer loop
    vertex 1686.3663256151378 259.71472791805223 566.0281457410194
    vertex 1717.9022240000013 264.71472791805166 566.0281457410198
    vertex 1685.7306511247461 260.54315504279856 566.0281457410193
  endloop
endfacet
facet normal -1.5439193740575463e-14 3.637413760263511e-15 1.0
  outer loop
    vertex 1685.7306511247461 260.54315504279856 566.0281457410193
    vertex 1717.9022240000013 264.71472791805166 566.0281457410198
    vertex 1684.9022240000002 261.1788295331901 566.0281457410193
  endloop
endfacet
facet normal -1.5439193740575463e-14 3.637413760263511e-15 1.0
  outer loop
    vertex 1684.9022240000002 261.1788295331901 566.0281457410193
    vertex 1717.9022240000013 264.71472791805166 566.0281457410198
    vertex 1683.93750018041 261.5784312232085 566.0281457410192
  endloop
endfacet
facet normal -1.5439193740575463e-14 3.637413760263511e-15 1.0
  outer loop
    vertex 1683.93750018041 261.5784312232085 566.0281457410192
    vertex 1717.9022240000013 264.71472791805166 566.0281457410198
    vertex 1682.9022240000002 261.7147279180524 566.0281457410193
  endloop
endfacet
facet normal -1.5439193740575463e-14 3.637413760263511e-15 1.0
  outer loop
    vertex 1682.9022240000002 261.7147279180524 566.0281457410193
    vertex 1717.9022240000013 264.71472791805166 566.0281457410198
    vertex 1679.9022240000002 261.7147279180524 566.0281457410192
  endloop
endfacet
facet normal -1.5439193740575463e-14 3.637413760263511e-15 1.0
  outer loop
    vertex 1679.9022240000002 261.7147279180524 566.0281457410192
    vertex 1717.9022240000013 264.71472791805166 566.0281457410198
    vertex 1679.9022240000002 264.7147279180524 566.0281457410191
  endloop
endfacet
facet normal -1.5439193740575463e-14 3.637413760263511e-15 1.0
  outer loop
    vertex 1679.9022240000002 253.7147279180524 566.0281457410192
    vertex 1679.9022240000002 250.71472791805235 566.0281457410193
    vertex 1682.9022240000002 253.7147279180524 566.0281457410192
  endloop
endfacet
facet normal -1.5439193740575463e-14 3.637413760263511e-15 1.0
  outer loop
    vertex 1692.9022240000013 169.50001830875195 566.0281457410198
    vertex 1692.9022240000013 159.50001830875195 566.0281457410198
    vertex 1707.9022240000006 169.5000183087519 566.02814574102
  endloop
endfacet
facet normal 1.8844786031067278e-14 1.0 -4.66179905905022e-15
  outer loop
    vertex 1717.9022240000013 264.71472791805166 566.0281457410198
    vertex 1679.9022240000002 264.7147279180523 556.0281457410192
    vertex 1679.9022240000002 264.7147279180524 566.0281457410191
  endloop
endfacet
facet normal 1.8844786031067278e-14 1.0 -4.66179905905022e-15
  outer loop
    vertex 1679.9022240000002 264.7147279180523 556.0281457410192
    vertex 1717.9022240000013 264.71472791805166 566.0281457410198
    vertex 1717.9022240000018 264.71472791805166 556.0281457410198
  endloop
endfacet
facet normal -0.8926974658432038 -0.4506564483918125 -1.3425809975755952e-14
  outer loop
    vertex 1679.9022240000002 250.71472791805223 556.0281457410194
    vertex 1707.902224000001 195.2500183087521 566.0281457410199
    vertex 1679.9022240000002 250.71472791805235 566.0281457410193
  endloop
endfacet
facet normal -0.8926974658432038 -0.4506564483918125 -1.3425809975755952e-14
  outer loop
    vertex 1707.902224000001 195.2500183087521 566.0281457410199
    vertex 1679.9022240000002 250.71472791805223 556.0281457410194
    vertex 1707.902224000001 195.25001830875206 556.0281457410199
  endloop
endfacet
endsolid flsun-cube-linear-rail-xy-gantry
