solid flsun-cube-linear-rail-xy-gantry
facet normal 0.8492517979687785 0.5279880525606588 0.0
  outer loop
    vertex 2202.3809711210815 203.3255555389874 563.6619999999964
    vertex 2203.538659317427 201.4634513162387 568.6619999999964
    vertex 2203.538659317427 201.4634513162387 563.6619999999964
  endloop
endfacet
facet normal 0.8492517979687785 0.5279880525606588 0.0
  outer loop
    vertex 2203.538659317427 201.4634513162387 568.6619999999964
    vertex 2202.3809711210815 203.3255555389874 563.6619999999964
    vertex 2202.3809711210815 203.3255555389874 568.6619999999964
  endloop
endfacet
facet normal 0.6674377547572091 0.7446655917421293 0.0
  outer loop
    vertex 2203.538659317427 201.4634513162387 568.6619999999964
    vertex 2205.171443547305 200.0000000000002 563.6619999999964
    vertex 2203.538659317427 201.4634513162387 563.6619999999964
  endloop
endfacet
facet normal 0.6674377547572091 0.7446655917421293 0.0
  outer loop
    vertex 2205.171443547305 200.0000000000002 563.6619999999964
    vertex 2203.538659317427 201.4634513162387 568.6619999999964
    vertex 2205.171443547305 200.0000000000002 568.6619999999964
  endloop
endfacet
facet normal 0.9786181971514631 0.20568525519351177 0.0
  outer loop
    vertex 2205.171443547305 200.0000000000002 563.6619999999964
    vertex 2205.6224374494304 197.85424171990823 568.6619999999964
    vertex 2205.6224374494304 197.85424171990823 563.6619999999964
  endloop
endfacet
facet normal 0.9786181971514631 0.20568525519351177 0.0
  outer loop
    vertex 2205.6224374494304 197.85424171990823 568.6619999999964
    vertex 2205.171443547305 200.0000000000002 563.6619999999964
    vertex 2205.171443547305 200.0000000000002 568.6619999999964
  endloop
endfacet
facet normal 0.8818769653965853 0.4714796049702576 0.0
  outer loop
    vertex 2205.6224374494304 197.85424171990823 563.6619999999964
    vertex 2206.656222912652 195.92060222083683 568.6619999999964
    vertex 2206.656222912652 195.92060222083683 563.6619999999964
  endloop
endfacet
facet normal 0.8818769653965853 0.4714796049702576 0.0
  outer loop
    vertex 2206.656222912652 195.92060222083683 568.6619999999964
    vertex 2205.6224374494304 197.85424171990823 563.6619999999964
    vertex 2205.6224374494304 197.85424171990823 568.6619999999964
  endloop
endfacet
facet normal 0.9899487988913006 -0.14142621954104384 0.0
  outer loop
    vertex 2206.656222912652 195.92060222083683 563.6619999999964
    vertex 2206.3461259999995 193.7500000000002 568.6619999999964
    vertex 2206.3461259999995 193.7500000000002 563.6619999999964
  endloop
endfacet
facet normal 0.9899487988913006 -0.14142621954104384 0.0
  outer loop
    vertex 2206.3461259999995 193.7500000000002 568.6619999999964
    vertex 2206.656222912652 195.92060222083683 563.6619999999964
    vertex 2206.656222912652 195.92060222083683 568.6619999999964
  endloop
endfacet
facet normal 0.9899487988913006 0.14142621954104384 0.0
  outer loop
    vertex 2206.3461259999995 193.7500000000002 563.6619999999964
    vertex 2206.656222912652 191.57939777916357 568.6619999999964
    vertex 2206.656222912652 191.57939777916357 563.6619999999964
  endloop
endfacet
facet normal 0.9899487988913006 0.14142621954104384 0.0
  outer loop
    vertex 2206.656222912652 191.57939777916357 568.6619999999964
    vertex 2206.3461259999995 193.7500000000002 563.6619999999964
    vertex 2206.3461259999995 193.7500000000002 568.6619999999964
  endloop
endfacet
facet normal 0.8818769653965853 -0.4714796049702576 0.0
  outer loop
    vertex 2206.656222912652 191.57939777916357 563.6619999999964
    vertex 2205.6224374494304 189.64575828009217 568.6619999999964
    vertex 2205.6224374494304 189.64575828009217 563.6619999999964
  endloop
endfacet
facet normal 0.8818769653965853 -0.4714796049702576 0.0
  outer loop
    vertex 2205.6224374494304 189.64575828009217 568.6619999999964
    vertex 2206.656222912652 191.57939777916357 563.6619999999964
    vertex 2206.656222912652 191.57939777916357 568.6619999999964
  endloop
endfacet
facet normal 0.9786181971514631 -0.20568525519351177 0.0
  outer loop
    vertex 2205.6224374494304 189.64575828009217 563.6619999999964
    vertex 2205.171443547305 187.5000000000002 568.6619999999964
    vertex 2205.171443547305 187.5000000000002 563.6619999999964
  endloop
endfacet
facet normal 0.9786181971514631 -0.20568525519351177 0.0
  outer loop
    vertex 2205.171443547305 187.5000000000002 568.6619999999964
    vertex 2205.6224374494304 189.64575828009217 563.6619999999964
    vertex 2205.6224374494304 189.64575828009217 568.6619999999964
  endloop
endfacet
facet normal 0.6674377547572091 -0.7446655917421293 0.0
  outer loop
    vertex 2205.171443547305 187.5000000000002 568.6619999999964
    vertex 2203.538659317427 186.0365486837617 563.6619999999964
    vertex 2205.171443547305 187.5000000000002 563.6619999999964
  endloop
endfacet
facet normal 0.6674377547572091 -0.7446655917421293 0.0
  outer loop
    vertex 2203.538659317427 186.0365486837617 563.6619999999964
    vertex 2205.171443547305 187.5000000000002 568.6619999999964
    vertex 2203.538659317427 186.0365486837617 568.6619999999964
  endloop
endfacet
facet normal 0.8492517979687799 -0.5279880525606565 0.0
  outer loop
    vertex 2203.538659317427 186.0365486837617 563.6619999999964
    vertex 2202.3809711210815 184.17444446101297 568.6619999999964
    vertex 2202.3809711210815 184.17444446101297 563.6619999999964
  endloop
endfacet
facet normal 0.8492517979687799 -0.5279880525606565 0.0
  outer loop
    vertex 2202.3809711210815 184.17444446101297 568.6619999999964
    vertex 2203.538659317427 186.0365486837617 563.6619999999964
    vertex 2203.538659317427 186.0365486837617 568.6619999999964
  endloop
endfacet
facet normal 0.3724957005619129 -0.9280339180562798 0.0
  outer loop
    vertex 2202.3809711210815 184.17444446101297 568.6619999999964
    vertex 2200.3461259999995 183.35769515458696 563.6619999999964
    vertex 2202.3809711210815 184.17444446101297 563.6619999999964
  endloop
endfacet
facet normal 0.3724957005619129 -0.9280339180562798 0.0
  outer loop
    vertex 2200.3461259999995 183.35769515458696 563.6619999999964
    vertex 2202.3809711210815 184.17444446101297 568.6619999999964
    vertex 2200.3461259999995 183.35769515458696 568.6619999999964
  endloop
endfacet
facet normal 0.6174530983293735 -0.7866076985152493 0.0
  outer loop
    vertex 2200.3461259999995 183.35769515458696 568.6619999999964
    vertex 2198.6213777915705 182.00384224017634 563.6619999999964
    vertex 2200.3461259999995 183.35769515458696 563.6619999999964
  endloop
endfacet
facet normal 0.6174530983293735 -0.7866076985152493 0.0
  outer loop
    vertex 2198.6213777915705 182.00384224017634 563.6619999999964
    vertex 2200.3461259999995 183.35769515458696 568.6619999999964
    vertex 2198.6213777915705 182.00384224017634 568.6619999999964
  endloop
endfacet
facet normal 0.03262516742780631 -0.9994676575309017 0.0
  outer loop
    vertex 2198.6213777915705 182.00384224017634 568.6619999999964
    vertex 2196.4299041320023 181.93230696385368 563.6619999999964
    vertex 2198.6213777915705 182.00384224017634 563.6619999999964
  endloop
endfacet
facet normal 0.03262516742780631 -0.9994676575309017 0.0
  outer loop
    vertex 2196.4299041320023 181.93230696385368 563.6619999999964
    vertex 2198.6213777915705 182.00384224017634 568.6619999999964
    vertex 2196.4299041320023 181.93230696385368 568.6619999999964
  endloop
endfacet
facet normal 0.31118044239428605 -0.9503508469356443 0.0
  outer loop
    vertex 2196.4299041320023 181.93230696385368 568.6619999999964
    vertex 2194.3461259999995 181.2500000000002 563.6619999999964
    vertex 2196.4299041320023 181.93230696385368 563.6619999999964
  endloop
endfacet
facet normal 0.31118044239428605 -0.9503508469356443 0.0
  outer loop
    vertex 2194.3461259999995 181.2500000000002 563.6619999999964
    vertex 2196.4299041320023 181.93230696385368 568.6619999999964
    vertex 2194.3461259999995 181.2500000000002 568.6619999999964
  endloop
endfacet
facet normal -0.31118044239428605 -0.9503508469356443 -0.0
  outer loop
    vertex 2194.3461259999995 181.2500000000002 568.6619999999964
    vertex 2192.262347867996 181.93230696385368 563.6619999999964
    vertex 2194.3461259999995 181.2500000000002 563.6619999999964
  endloop
endfacet
facet normal -0.31118044239428605 -0.9503508469356443 -0.0
  outer loop
    vertex 2192.262347867996 181.93230696385368 563.6619999999964
    vertex 2194.3461259999995 181.2500000000002 568.6619999999964
    vertex 2192.262347867996 181.93230696385368 568.6619999999964
  endloop
endfacet
facet normal -0.03262516742780631 -0.9994676575309017 -0.0
  outer loop
    vertex 2192.262347867996 181.93230696385368 568.6619999999964
    vertex 2190.0708742084284 182.00384224017634 563.6619999999964
    vertex 2192.262347867996 181.93230696385368 563.6619999999964
  endloop
endfacet
facet normal -0.03262516742780631 -0.9994676575309017 -0.0
  outer loop
    vertex 2190.0708742084284 182.00384224017634 563.6619999999964
    vertex 2192.262347867996 181.93230696385368 568.6619999999964
    vertex 2190.0708742084284 182.00384224017634 568.6619999999964
  endloop
endfacet
facet normal 0.0 0.0 1.0
  outer loop
    vertex 2192.3211259999994 190.24259711467323 565.6619999999964
    vertex 2192.2461259999995 193.75000000000014 565.6619999999964
    vertex 2190.2961259999993 193.7500000000002 565.6619999999964
  endloop
endfacet
facet normal 0.0 0.0 1.0
  outer loop
    vertex 2192.2461259999995 193.75000000000014 565.6619999999964
    vertex 2192.3211259999994 190.24259711467323 565.6619999999964
    vertex 2192.2780297186737 193.38533882689958 565.6619999999964
  endloop
endfacet
facet normal 0.0 0.0 1.0
  outer loop
    vertex 2192.2780297186737 193.38533882689958 565.6619999999964
    vertex 2192.3211259999994 190.24259711467323 565.6619999999964
    vertex 2192.372771496349 193.03175769901625 565.6619999999964
  endloop
endfacet
facet normal 0.0 0.0 1.0
  outer loop
    vertex 2192.372771496349 193.03175769901625 565.6619999999964
    vertex 2192.3211259999994 190.24259711467323 565.6619999999964
    vertex 2192.5274726520524 192.70000000000013 565.6619999999964
  endloop
endfacet
facet normal 0.0 0.0 1.0
  outer loop
    vertex 2192.5274726520524 192.70000000000013 565.6619999999964
    vertex 2192.3211259999994 190.24259711467323 565.6619999999964
    vertex 2192.7374326694494 192.4001460196584 565.6619999999964
  endloop
endfacet
facet normal 0.0 0.0 1.0
  outer loop
    vertex 2192.7374326694494 192.4001460196584 565.6619999999964
    vertex 2192.3211259999994 190.24259711467323 565.6619999999964
    vertex 2192.9962720196577 192.14130666945027 565.6619999999964
  endloop
endfacet
facet normal 0.0 0.0 1.0
  outer loop
    vertex 2192.9962720196577 192.14130666945027 565.6619999999964
    vertex 2192.3211259999994 190.24259711467323 565.6619999999964
    vertex 2193.2961259999997 191.9313466520528 565.6619999999964
  endloop
endfacet
facet normal 0.0 0.0 1.0
  outer loop
    vertex 2193.2961259999997 191.9313466520528 565.6619999999964
    vertex 2192.3211259999994 190.24259711467323 565.6619999999964
    vertex 2196.3711259999995 190.24259711467323 565.6619999999964
  endloop
endfacet
facet normal 0.0 0.0 1.0
  outer loop
    vertex 2193.2961259999997 191.9313466520528 565.6619999999964
    vertex 2196.3711259999995 190.24259711467323 565.6619999999964
    vertex 2193.627883699016 191.77664549634972 565.6619999999964
  endloop
endfacet
facet normal 0.0 0.0 1.0
  outer loop
    vertex 2193.627883699016 191.77664549634972 565.6619999999964
    vertex 2196.3711259999995 190.24259711467323 565.6619999999964
    vertex 2193.981464826899 191.68190371867448 565.6619999999964
  endloop
endfacet
facet normal 0.0 0.0 1.0
  outer loop
    vertex 2193.981464826899 191.68190371867448 565.6619999999964
    vertex 2196.3711259999995 190.24259711467323 565.6619999999964
    vertex 2194.3461259999995 191.65000000000015 565.6619999999964
  endloop
endfacet
facet normal 0.0 0.0 1.0
  outer loop
    vertex 2194.3461259999995 191.65000000000015 565.6619999999964
    vertex 2196.3711259999995 190.24259711467323 565.6619999999964
    vertex 2194.7107871731 191.6819037186745 565.6619999999964
  endloop
endfacet
facet normal 0.0 0.0 1.0
  outer loop
    vertex 2194.7107871731 191.6819037186745 565.6619999999964
    vertex 2196.3711259999995 190.24259711467323 565.6619999999964
    vertex 2195.0643683009835 191.77664549634974 565.6619999999964
  endloop
endfacet
facet normal 0.0 0.0 1.0
  outer loop
    vertex 2195.0643683009835 191.77664549634974 565.6619999999964
    vertex 2196.3711259999995 190.24259711467323 565.6619999999964
    vertex 2195.3961259999996 191.93134665205284 565.6619999999964
  endloop
endfacet
facet normal 0.0 0.0 1.0
  outer loop
    vertex 2195.3961259999996 191.93134665205284 565.6619999999964
    vertex 2196.3711259999995 190.24259711467323 565.6619999999964
    vertex 2195.6959799803412 192.1413066694503 565.6619999999964
  endloop
endfacet
facet normal 0.0 0.0 1.0
  outer loop
    vertex 2195.6959799803412 192.1413066694503 565.6619999999964
    vertex 2196.3711259999995 190.24259711467323 565.6619999999964
    vertex 2195.9548193305495 192.40014601965845 565.6619999999964
  endloop
endfacet
facet normal 0.0 0.0 1.0
  outer loop
    vertex 2195.9548193305495 192.40014601965845 565.6619999999964
    vertex 2196.3711259999995 190.24259711467323 565.6619999999964
    vertex 2196.164779347947 192.70000000000022 565.6619999999964
  endloop
endfacet
facet normal 0.0 0.0 1.0
  outer loop
    vertex 2196.164779347947 192.70000000000022 565.6619999999964
    vertex 2196.3711259999995 190.24259711467323 565.6619999999964
    vertex 2196.31948050365 193.03175769901628 565.6619999999964
  endloop
endfacet
facet normal 0.0 0.0 1.0
  outer loop
    vertex 2196.31948050365 193.03175769901628 565.6619999999964
    vertex 2196.3711259999995 190.24259711467323 565.6619999999964
    vertex 2196.4142222813252 193.38533882689967 565.6619999999964
  endloop
endfacet
facet normal 0.0 0.0 1.0
  outer loop
    vertex 2196.4142222813252 193.38533882689967 565.6619999999964
    vertex 2196.3711259999995 190.24259711467323 565.6619999999964
    vertex 2198.3961259999996 193.7500000000002 565.6619999999964
  endloop
endfacet
facet normal 0.0 0.0 1.0
  outer loop
    vertex 2196.4142222813252 193.38533882689967 565.6619999999964
    vertex 2198.3961259999996 193.7500000000002 565.6619999999964
    vertex 2196.4461259999994 193.75000000000026 565.6619999999964
  endloop
endfacet
facet normal 0.0 0.0 1.0
  outer loop
    vertex 2192.2461259999995 193.75000000000014 565.6619999999964
    vertex 2192.321126 197.25740288532717 565.6619999999964
    vertex 2190.2961259999993 193.7500000000002 565.6619999999964
  endloop
endfacet
facet normal 0.0 0.0 1.0
  outer loop
    vertex 2192.321126 197.25740288532717 565.6619999999964
    vertex 2192.2461259999995 193.75000000000014 565.6619999999964
    vertex 2192.2780297186737 194.11466117310073 565.6619999999964
  endloop
endfacet
facet normal 0.0 0.0 1.0
  outer loop
    vertex 2192.321126 197.25740288532717 565.6619999999964
    vertex 2192.2780297186737 194.11466117310073 565.6619999999964
    vertex 2192.372771496349 194.4682423009841 565.6619999999964
  endloop
endfacet
facet normal 0.0 0.0 1.0
  outer loop
    vertex 2192.321126 197.25740288532717 565.6619999999964
    vertex 2192.372771496349 194.4682423009841 565.6619999999964
    vertex 2192.5274726520524 194.80000000000018 565.6619999999964
  endloop
endfacet
facet normal 0.0 0.0 1.0
  outer loop
    vertex 2192.321126 197.25740288532717 565.6619999999964
    vertex 2192.5274726520524 194.80000000000018 565.6619999999964
    vertex 2192.7374326694494 195.09985398034195 565.6619999999964
  endloop
endfacet
facet normal 0.0 0.0 1.0
  outer loop
    vertex 2192.321126 197.25740288532717 565.6619999999964
    vertex 2192.7374326694494 195.09985398034195 565.6619999999964
    vertex 2192.9962720196577 195.3586933305501 565.6619999999964
  endloop
endfacet
facet normal 0.0 0.0 1.0
  outer loop
    vertex 2192.321126 197.25740288532717 565.6619999999964
    vertex 2192.9962720196577 195.3586933305501 565.6619999999964
    vertex 2193.2961259999997 195.56865334794756 565.6619999999964
  endloop
endfacet
facet normal 0.0 0.0 1.0
  outer loop
    vertex 2192.321126 197.25740288532717 565.6619999999964
    vertex 2193.2961259999997 195.56865334794756 565.6619999999964
    vertex 2196.3711259999995 197.25740288532717 565.6619999999964
  endloop
endfacet
facet normal 0.0 0.0 1.0
  outer loop
    vertex 2196.3711259999995 197.25740288532717 565.6619999999964
    vertex 2193.2961259999997 195.56865334794756 565.6619999999964
    vertex 2193.6278836990155 195.72335450365065 565.6619999999964
  endloop
endfacet
facet normal 0.0 0.0 1.0
  outer loop
    vertex 2196.3711259999995 197.25740288532717 565.6619999999964
    vertex 2193.6278836990155 195.72335450365065 565.6619999999964
    vertex 2193.981464826899 195.8180962813259 565.6619999999964
  endloop
endfacet
facet normal 0.0 0.0 1.0
  outer loop
    vertex 2196.3711259999995 197.25740288532717 565.6619999999964
    vertex 2193.981464826899 195.8180962813259 565.6619999999964
    vertex 2194.3461259999995 195.85000000000025 565.6619999999964
  endloop
endfacet
facet normal 0.0 0.0 1.0
  outer loop
    vertex 2196.3711259999995 197.25740288532717 565.6619999999964
    vertex 2194.3461259999995 195.85000000000025 565.6619999999964
    vertex 2194.7107871731 195.81809628132592 565.6619999999964
  endloop
endfacet
facet normal 0.0 0.0 1.0
  outer loop
    vertex 2196.3711259999995 197.25740288532717 565.6619999999964
    vertex 2194.7107871731 195.81809628132592 565.6619999999964
    vertex 2195.0643683009835 195.72335450365068 565.6619999999964
  endloop
endfacet
facet normal 0.0 0.0 1.0
  outer loop
    vertex 2196.3711259999995 197.25740288532717 565.6619999999964
    vertex 2195.0643683009835 195.72335450365068 565.6619999999964
    vertex 2195.396125999999 195.5686533479476 565.6619999999964
  endloop
endfacet
facet normal 0.0 0.0 1.0
  outer loop
    vertex 2196.3711259999995 197.25740288532717 565.6619999999964
    vertex 2195.396125999999 195.5686533479476 565.6619999999964
    vertex 2195.6959799803412 195.35869333055012 565.6619999999964
  endloop
endfacet
facet normal 0.0 0.0 1.0
  outer loop
    vertex 2196.3711259999995 197.25740288532717 565.6619999999964
    vertex 2195.6959799803412 195.35869333055012 565.6619999999964
    vertex 2195.9548193305495 195.099853980342 565.6619999999964
  endloop
endfacet
facet normal 0.0 0.0 1.0
  outer loop
    vertex 2196.3711259999995 197.25740288532717 565.6619999999964
    vertex 2195.9548193305495 195.099853980342 565.6619999999964
    vertex 2196.164779347947 194.80000000000027 565.6619999999964
  endloop
endfacet
facet normal 0.0 0.0 1.0
  outer loop
    vertex 2196.3711259999995 197.25740288532717 565.6619999999964
    vertex 2196.164779347947 194.80000000000027 565.6619999999964
    vertex 2196.31948050365 194.46824230098414 565.6619999999964
  endloop
endfacet
facet normal 0.0 0.0 1.0
  outer loop
    vertex 2196.3711259999995 197.25740288532717 565.6619999999964
    vertex 2196.31948050365 194.46824230098414 565.6619999999964
    vertex 2196.4142222813252 194.1146611731008 565.6619999999964
  endloop
endfacet
facet normal 0.0 0.0 1.0
  outer loop
    vertex 2196.3711259999995 197.25740288532717 565.6619999999964
    vertex 2196.4142222813252 194.1146611731008 565.6619999999964
    vertex 2198.3961259999996 193.7500000000002 565.6619999999964
  endloop
endfacet
facet normal 0.0 0.0 1.0
  outer loop
    vertex 2198.3961259999996 193.7500000000002 565.6619999999964
    vertex 2196.4142222813252 194.1146611731008 565.6619999999964
    vertex 2196.4461259999994 193.75000000000026 565.6619999999964
  endloop
endfacet
facet normal 0.0 0.0 -1.0
  outer loop
    vertex 2182.3461259999995 193.7500000000002 563.6619999999964
    vertex 2183.0698145505685 189.64575828009217 563.6619999999964
    vertex 2182.036029087347 191.57939777916357 563.6619999999964
  endloop
endfacet
facet normal 0.0 0.0 -1.0
  outer loop
    vertex 2183.0698145505685 189.64575828009217 563.6619999999964
    vertex 2182.3461259999995 193.7500000000002 563.6619999999964
    vertex 2183.0698145505685 197.85424171990823 563.6619999999964
  endloop
endfacet
facet normal 0.0 0.0 -1.0
  outer loop
    vertex 2183.0698145505685 189.64575828009217 563.6619999999964
    vertex 2183.0698145505685 197.85424171990823 563.6619999999964
    vertex 2183.5208084526944 200.0000000000002 563.6619999999964
  endloop
endfacet
facet normal 0.0 0.0 -1.0
  outer loop
    vertex 2183.0698145505685 189.64575828009217 563.6619999999964
    vertex 2183.5208084526944 200.0000000000002 563.6619999999964
    vertex 2183.5208084526944 187.5000000000002 563.6619999999964
  endloop
endfacet
facet normal 0.0 0.0 -1.0
  outer loop
    vertex 2183.5208084526944 187.5000000000002 563.6619999999964
    vertex 2183.5208084526944 200.0000000000002 563.6619999999964
    vertex 2185.153592682572 201.4634513162387 563.6619999999964
  endloop
endfacet
facet normal 0.0 0.0 -1.0
  outer loop
    vertex 2183.5208084526944 187.5000000000002 563.6619999999964
    vertex 2185.153592682572 201.4634513162387 563.6619999999964
    vertex 2185.153592682572 186.0365486837617 563.6619999999964
  endloop
endfacet
facet normal 0.0 0.0 -1.0
  outer loop
    vertex 2185.153592682572 186.0365486837617 563.6619999999964
    vertex 2185.153592682572 201.4634513162387 563.6619999999964
    vertex 2186.311280878918 203.3255555389874 563.6619999999964
  endloop
endfacet
facet normal 0.0 0.0 -1.0
  outer loop
    vertex 2185.153592682572 186.0365486837617 563.6619999999964
    vertex 2186.311280878918 203.3255555389874 563.6619999999964
    vertex 2186.311280878918 184.17444446101297 563.6619999999964
  endloop
endfacet
facet normal 0.0 0.0 -1.0
  outer loop
    vertex 2186.311280878918 184.17444446101297 563.6619999999964
    vertex 2186.311280878918 203.3255555389874 563.6619999999964
    vertex 2188.346125999999 204.14230484541343 563.6619999999964
  endloop
endfacet
facet normal 0.0 0.0 -1.0
  outer loop
    vertex 2186.311280878918 184.17444446101297 563.6619999999964
    vertex 2188.346125999999 204.14230484541343 563.6619999999964
    vertex 2188.346125999999 183.35769515458696 563.6619999999964
  endloop
endfacet
facet normal 0.0 0.0 -1.0
  outer loop
    vertex 2188.346125999999 183.35769515458696 563.6619999999964
    vertex 2188.346125999999 204.14230484541343 563.6619999999964
    vertex 2190.0708742084284 205.49615775982406 563.6619999999964
  endloop
endfacet
facet normal 0.0 0.0 -1.0
  outer loop
    vertex 2188.346125999999 183.35769515458696 563.6619999999964
    vertex 2190.0708742084284 205.49615775982406 563.6619999999964
    vertex 2190.0708742084284 182.00384224017634 563.6619999999964
  endloop
endfacet
facet normal 0.0 0.0 -1.0
  outer loop
    vertex 2190.0708742084284 182.00384224017634 563.6619999999964
    vertex 2190.0708742084284 205.49615775982406 563.6619999999964
    vertex 2192.262347867996 205.56769303614666 563.6619999999964
  endloop
endfacet
facet normal 0.0 0.0 -1.0
  outer loop
    vertex 2190.0708742084284 182.00384224017634 563.6619999999964
    vertex 2192.262347867996 205.56769303614666 563.6619999999964
    vertex 2192.2461259999995 193.75000000000014 563.6619999999964
  endloop
endfacet
facet normal 0.0 0.0 -1.0
  outer loop
    vertex 2192.2461259999995 193.75000000000014 563.6619999999964
    vertex 2192.262347867996 205.56769303614666 563.6619999999964
    vertex 2192.2780297186737 194.11466117310073 563.6619999999964
  endloop
endfacet
facet normal 0.0 0.0 -1.0
  outer loop
    vertex 2192.2780297186737 194.11466117310073 563.6619999999964
    vertex 2192.262347867996 205.56769303614666 563.6619999999964
    vertex 2194.3461259999995 206.2500000000002 563.6619999999964
  endloop
endfacet
facet normal 0.0 0.0 -1.0
  outer loop
    vertex 2192.2780297186737 194.11466117310073 563.6619999999964
    vertex 2194.3461259999995 206.2500000000002 563.6619999999964
    vertex 2192.372771496349 194.4682423009841 563.6619999999964
  endloop
endfacet
facet normal 0.0 0.0 -1.0
  outer loop
    vertex 2192.372771496349 194.4682423009841 563.6619999999964
    vertex 2194.3461259999995 206.2500000000002 563.6619999999964
    vertex 2192.5274726520524 194.80000000000018 563.6619999999964
  endloop
endfacet
facet normal 0.0 0.0 -1.0
  outer loop
    vertex 2192.5274726520524 194.80000000000018 563.6619999999964
    vertex 2194.3461259999995 206.2500000000002 563.6619999999964
    vertex 2192.7374326694494 195.09985398034195 563.6619999999964
  endloop
endfacet
facet normal 0.0 0.0 -1.0
  outer loop
    vertex 2192.7374326694494 195.09985398034195 563.6619999999964
    vertex 2194.3461259999995 206.2500000000002 563.6619999999964
    vertex 2192.9962720196577 195.3586933305501 563.6619999999964
  endloop
endfacet
facet normal 0.0 0.0 -1.0
  outer loop
    vertex 2192.9962720196577 195.3586933305501 563.6619999999964
    vertex 2194.3461259999995 206.2500000000002 563.6619999999964
    vertex 2193.2961259999997 195.56865334794756 563.6619999999964
  endloop
endfacet
facet normal 0.0 0.0 -1.0
  outer loop
    vertex 2193.2961259999997 195.56865334794756 563.6619999999964
    vertex 2194.3461259999995 206.2500000000002 563.6619999999964
    vertex 2193.6278836990155 195.72335450365065 563.6619999999964
  endloop
endfacet
facet normal 0.0 0.0 -1.0
  outer loop
    vertex 2193.6278836990155 195.72335450365065 563.6619999999964
    vertex 2194.3461259999995 206.2500000000002 563.6619999999964
    vertex 2193.981464826899 195.8180962813259 563.6619999999964
  endloop
endfacet
facet normal 0.0 0.0 -1.0
  outer loop
    vertex 2193.981464826899 195.8180962813259 563.6619999999964
    vertex 2194.3461259999995 206.2500000000002 563.6619999999964
    vertex 2194.3461259999995 195.85000000000025 563.6619999999964
  endloop
endfacet
facet normal 0.0 0.0 -1.0
  outer loop
    vertex 2194.3461259999995 195.85000000000025 563.6619999999964
    vertex 2194.3461259999995 206.2500000000002 563.6619999999964
    vertex 2196.4299041320023 205.56769303614666 563.6619999999964
  endloop
endfacet
facet normal 0.0 0.0 -1.0
  outer loop
    vertex 2194.3461259999995 195.85000000000025 563.6619999999964
    vertex 2196.4299041320023 205.56769303614666 563.6619999999964
    vertex 2194.7107871731 195.81809628132592 563.6619999999964
  endloop
endfacet
facet normal 0.0 0.0 -1.0
  outer loop
    vertex 2194.7107871731 195.81809628132592 563.6619999999964
    vertex 2196.4299041320023 205.56769303614666 563.6619999999964
    vertex 2195.0643683009835 195.72335450365068 563.6619999999964
  endloop
endfacet
facet normal 0.0 0.0 -1.0
  outer loop
    vertex 2195.0643683009835 195.72335450365068 563.6619999999964
    vertex 2196.4299041320023 205.56769303614666 563.6619999999964
    vertex 2195.396125999999 195.5686533479476 563.6619999999964
  endloop
endfacet
facet normal 0.0 0.0 -1.0
  outer loop
    vertex 2195.396125999999 195.5686533479476 563.6619999999964
    vertex 2196.4299041320023 205.56769303614666 563.6619999999964
    vertex 2195.6959799803412 195.35869333055012 563.6619999999964
  endloop
endfacet
facet normal 0.0 0.0 -1.0
  outer loop
    vertex 2195.6959799803412 195.35869333055012 563.6619999999964
    vertex 2196.4299041320023 205.56769303614666 563.6619999999964
    vertex 2195.9548193305495 195.099853980342 563.6619999999964
  endloop
endfacet
facet normal 0.0 0.0 -1.0
  outer loop
    vertex 2195.9548193305495 195.099853980342 563.6619999999964
    vertex 2196.4299041320023 205.56769303614666 563.6619999999964
    vertex 2196.164779347947 194.80000000000027 563.6619999999964
  endloop
endfacet
facet normal 0.0 0.0 -1.0
  outer loop
    vertex 2196.164779347947 194.80000000000027 563.6619999999964
    vertex 2196.4299041320023 205.56769303614666 563.6619999999964
    vertex 2196.31948050365 194.46824230098414 563.6619999999964
  endloop
endfacet
facet normal 0.0 0.0 -1.0
  outer loop
    vertex 2196.31948050365 194.46824230098414 563.6619999999964
    vertex 2196.4299041320023 205.56769303614666 563.6619999999964
    vertex 2196.4142222813252 194.1146611731008 563.6619999999964
  endloop
endfacet
facet normal 0.0 0.0 -1.0
  outer loop
    vertex 2196.4142222813252 194.1146611731008 563.6619999999964
    vertex 2196.4299041320023 205.56769303614666 563.6619999999964
    vertex 2196.4461259999994 193.75000000000026 563.6619999999964
  endloop
endfacet
facet normal 0.0 0.0 -1.0
  outer loop
    vertex 2196.4461259999994 193.75000000000026 563.6619999999964
    vertex 2196.4299041320023 205.56769303614666 563.6619999999964
    vertex 2198.6213777915705 205.49615775982406 563.6619999999964
  endloop
endfacet
facet normal 0.0 0.0 -1.0
  outer loop
    vertex 2183.0698145505685 197.85424171990823 563.6619999999964
    vertex 2182.3461259999995 193.7500000000002 563.6619999999964
    vertex 2182.036029087347 195.92060222083683 563.6619999999964
  endloop
endfacet
facet normal 0.0 0.0 -1.0
  outer loop
    vertex 2192.2461259999995 193.75000000000014 563.6619999999964
    vertex 2192.262347867996 181.93230696385368 563.6619999999964
    vertex 2190.0708742084284 182.00384224017634 563.6619999999964
  endloop
endfacet
facet normal 0.0 0.0 -1.0
  outer loop
    vertex 2192.262347867996 181.93230696385368 563.6619999999964
    vertex 2192.2461259999995 193.75000000000014 563.6619999999964
    vertex 2192.2780297186737 193.38533882689958 563.6619999999964
  endloop
endfacet
facet normal 0.0 0.0 -1.0
  outer loop
    vertex 2192.262347867996 181.93230696385368 563.6619999999964
    vertex 2192.2780297186737 193.38533882689958 563.6619999999964
    vertex 2194.3461259999995 181.2500000000002 563.6619999999964
  endloop
endfacet
facet normal 0.0 0.0 -1.0
  outer loop
    vertex 2194.3461259999995 181.2500000000002 563.6619999999964
    vertex 2192.2780297186737 193.38533882689958 563.6619999999964
    vertex 2192.372771496349 193.03175769901625 563.6619999999964
  endloop
endfacet
facet normal 0.0 0.0 -1.0
  outer loop
    vertex 2194.3461259999995 181.2500000000002 563.6619999999964
    vertex 2192.372771496349 193.03175769901625 563.6619999999964
    vertex 2192.5274726520524 192.70000000000013 563.6619999999964
  endloop
endfacet
facet normal 0.0 0.0 -1.0
  outer loop
    vertex 2194.3461259999995 181.2500000000002 563.6619999999964
    vertex 2192.5274726520524 192.70000000000013 563.6619999999964
    vertex 2192.7374326694494 192.4001460196584 563.6619999999964
  endloop
endfacet
facet normal 0.0 0.0 -1.0
  outer loop
    vertex 2194.3461259999995 181.2500000000002 563.6619999999964
    vertex 2192.7374326694494 192.4001460196584 563.6619999999964
    vertex 2192.9962720196577 192.14130666945027 563.6619999999964
  endloop
endfacet
facet normal 0.0 0.0 -1.0
  outer loop
    vertex 2194.3461259999995 181.2500000000002 563.6619999999964
    vertex 2192.9962720196577 192.14130666945027 563.6619999999964
    vertex 2193.2961259999997 191.9313466520528 563.6619999999964
  endloop
endfacet
facet normal 0.0 0.0 -1.0
  outer loop
    vertex 2194.3461259999995 181.2500000000002 563.6619999999964
    vertex 2193.2961259999997 191.9313466520528 563.6619999999964
    vertex 2193.627883699016 191.77664549634972 563.6619999999964
  endloop
endfacet
facet normal 0.0 0.0 -1.0
  outer loop
    vertex 2194.3461259999995 181.2500000000002 563.6619999999964
    vertex 2193.627883699016 191.77664549634972 563.6619999999964
    vertex 2193.981464826899 191.68190371867448 563.6619999999964
  endloop
endfacet
facet normal 0.0 0.0 -1.0
  outer loop
    vertex 2194.3461259999995 181.2500000000002 563.6619999999964
    vertex 2193.981464826899 191.68190371867448 563.6619999999964
    vertex 2194.3461259999995 191.65000000000015 563.6619999999964
  endloop
endfacet
facet normal 0.0 0.0 -1.0
  outer loop
    vertex 2194.3461259999995 181.2500000000002 563.6619999999964
    vertex 2194.3461259999995 191.65000000000015 563.6619999999964
    vertex 2194.7107871731 191.6819037186745 563.6619999999964
  endloop
endfacet
facet normal 0.0 0.0 -1.0
  outer loop
    vertex 2194.3461259999995 181.2500000000002 563.6619999999964
    vertex 2194.7107871731 191.6819037186745 563.6619999999964
    vertex 2196.4299041320023 181.93230696385368 563.6619999999964
  endloop
endfacet
facet normal 0.0 0.0 -1.0
  outer loop
    vertex 2196.4299041320023 181.93230696385368 563.6619999999964
    vertex 2194.7107871731 191.6819037186745 563.6619999999964
    vertex 2195.0643683009835 191.77664549634974 563.6619999999964
  endloop
endfacet
facet normal 0.0 0.0 -1.0
  outer loop
    vertex 2196.4299041320023 181.93230696385368 563.6619999999964
    vertex 2195.0643683009835 191.77664549634974 563.6619999999964
    vertex 2195.3961259999996 191.93134665205284 563.6619999999964
  endloop
endfacet
facet normal 0.0 0.0 -1.0
  outer loop
    vertex 2196.4299041320023 181.93230696385368 563.6619999999964
    vertex 2195.3961259999996 191.93134665205284 563.6619999999964
    vertex 2195.6959799803412 192.1413066694503 563.6619999999964
  endloop
endfacet
facet normal 0.0 0.0 -1.0
  outer loop
    vertex 2196.4299041320023 181.93230696385368 563.6619999999964
    vertex 2195.6959799803412 192.1413066694503 563.6619999999964
    vertex 2195.9548193305495 192.40014601965845 563.6619999999964
  endloop
endfacet
facet normal 0.0 0.0 -1.0
  outer loop
    vertex 2196.4299041320023 181.93230696385368 563.6619999999964
    vertex 2195.9548193305495 192.40014601965845 563.6619999999964
    vertex 2196.164779347947 192.70000000000022 563.6619999999964
  endloop
endfacet
facet normal 0.0 0.0 -1.0
  outer loop
    vertex 2196.4299041320023 181.93230696385368 563.6619999999964
    vertex 2196.164779347947 192.70000000000022 563.6619999999964
    vertex 2196.31948050365 193.03175769901628 563.6619999999964
  endloop
endfacet
facet normal 0.0 0.0 -1.0
  outer loop
    vertex 2196.4299041320023 181.93230696385368 563.6619999999964
    vertex 2196.31948050365 193.03175769901628 563.6619999999964
    vertex 2196.4142222813252 193.38533882689967 563.6619999999964
  endloop
endfacet
facet normal 0.0 0.0 -1.0
  outer loop
    vertex 2196.4299041320023 181.93230696385368 563.6619999999964
    vertex 2196.4142222813252 193.38533882689967 563.6619999999964
    vertex 2196.4461259999994 193.75000000000026 563.6619999999964
  endloop
endfacet
facet normal 0.0 0.0 -1.0
  outer loop
    vertex 2196.4299041320023 181.93230696385368 563.6619999999964
    vertex 2196.4461259999994 193.75000000000026 563.6619999999964
    vertex 2198.6213777915705 182.00384224017634 563.6619999999964
  endloop
endfacet
facet normal 0.0 0.0 -1.0
  outer loop
    vertex 2198.6213777915705 182.00384224017634 563.6619999999964
    vertex 2196.4461259999994 193.75000000000026 563.6619999999964
    vertex 2198.6213777915705 205.49615775982406 563.6619999999964
  endloop
endfacet
facet normal 0.0 0.0 -1.0
  outer loop
    vertex 2198.6213777915705 182.00384224017634 563.6619999999964
    vertex 2198.6213777915705 205.49615775982406 563.6619999999964
    vertex 2200.3461259999995 204.14230484541343 563.6619999999964
  endloop
endfacet
facet normal 0.0 0.0 -1.0
  outer loop
    vertex 2198.6213777915705 182.00384224017634 563.6619999999964
    vertex 2200.3461259999995 204.14230484541343 563.6619999999964
    vertex 2200.3461259999995 183.35769515458696 563.6619999999964
  endloop
endfacet
facet normal 0.0 0.0 -1.0
  outer loop
    vertex 2200.3461259999995 183.35769515458696 563.6619999999964
    vertex 2200.3461259999995 204.14230484541343 563.6619999999964
    vertex 2202.3809711210815 203.3255555389874 563.6619999999964
  endloop
endfacet
facet normal 0.0 0.0 -1.0
  outer loop
    vertex 2200.3461259999995 183.35769515458696 563.6619999999964
    vertex 2202.3809711210815 203.3255555389874 563.6619999999964
    vertex 2202.3809711210815 184.17444446101297 563.6619999999964
  endloop
endfacet
facet normal 0.0 0.0 -1.0
  outer loop
    vertex 2202.3809711210815 184.17444446101297 563.6619999999964
    vertex 2202.3809711210815 203.3255555389874 563.6619999999964
    vertex 2203.538659317427 201.4634513162387 563.6619999999964
  endloop
endfacet
facet normal 0.0 0.0 -1.0
  outer loop
    vertex 2202.3809711210815 184.17444446101297 563.6619999999964
    vertex 2203.538659317427 201.4634513162387 563.6619999999964
    vertex 2203.538659317427 186.0365486837617 563.6619999999964
  endloop
endfacet
facet normal 0.0 0.0 -1.0
  outer loop
    vertex 2203.538659317427 186.0365486837617 563.6619999999964
    vertex 2203.538659317427 201.4634513162387 563.6619999999964
    vertex 2205.171443547305 200.0000000000002 563.6619999999964
  endloop
endfacet
facet normal 0.0 0.0 -1.0
  outer loop
    vertex 2203.538659317427 186.0365486837617 563.6619999999964
    vertex 2205.171443547305 200.0000000000002 563.6619999999964
    vertex 2205.171443547305 187.5000000000002 563.6619999999964
  endloop
endfacet
facet normal 0.0 0.0 -1.0
  outer loop
    vertex 2205.171443547305 187.5000000000002 563.6619999999964
    vertex 2205.171443547305 200.0000000000002 563.6619999999964
    vertex 2205.6224374494304 197.85424171990823 563.6619999999964
  endloop
endfacet
facet normal 0.0 0.0 -1.0
  outer loop
    vertex 2205.171443547305 187.5000000000002 563.6619999999964
    vertex 2205.6224374494304 197.85424171990823 563.6619999999964
    vertex 2205.6224374494304 189.64575828009217 563.6619999999964
  endloop
endfacet
facet normal 0.0 0.0 -1.0
  outer loop
    vertex 2205.6224374494304 189.64575828009217 563.6619999999964
    vertex 2205.6224374494304 197.85424171990823 563.6619999999964
    vertex 2206.656222912652 195.92060222083683 563.6619999999964
  endloop
endfacet
facet normal 0.0 0.0 -1.0
  outer loop
    vertex 2205.6224374494304 189.64575828009217 563.6619999999964
    vertex 2206.656222912652 195.92060222083683 563.6619999999964
    vertex 2206.3461259999995 193.7500000000002 563.6619999999964
  endloop
endfacet
facet normal 0.0 0.0 -1.0
  outer loop
    vertex 2206.656222912652 191.57939777916357 563.6619999999964
    vertex 2205.6224374494304 189.64575828009217 563.6619999999964
    vertex 2206.3461259999995 193.7500000000002 563.6619999999964
  endloop
endfacet
facet normal 0.9659258262890764 -0.25881904510249054 0.0
  outer loop
    vertex 2192.372771496349 194.4682423009841 563.6619999999964
    vertex 2192.2780297186737 194.11466117310073 565.6619999999964
    vertex 2192.2780297186737 194.11466117310073 563.6619999999964
  endloop
endfacet
facet normal 0.9659258262890764 -0.25881904510249054 0.0
  outer loop
    vertex 2192.2780297186737 194.11466117310073 565.6619999999964
    vertex 2192.372771496349 194.4682423009841 563.6619999999964
    vertex 2192.372771496349 194.4682423009841 565.6619999999964
  endloop
endfacet
facet normal 0.99619469809174 -0.08715574274772331 0.0
  outer loop
    vertex 2192.2780297186737 194.11466117310073 563.6619999999964
    vertex 2192.2461259999995 193.75000000000014 565.6619999999964
    vertex 2192.2461259999995 193.75000000000014 563.6619999999964
  endloop
endfacet
facet normal 0.99619469809174 -0.08715574274772331 0.0
  outer loop
    vertex 2192.2461259999995 193.75000000000014 565.6619999999964
    vertex 2192.2780297186737 194.11466117310073 563.6619999999964
    vertex 2192.2780297186737 194.11466117310073 565.6619999999964
  endloop
endfacet
facet normal 0.99619469809174 0.08715574274772331 0.0
  outer loop
    vertex 2192.2461259999995 193.75000000000014 563.6619999999964
    vertex 2192.2780297186737 193.38533882689958 565.6619999999964
    vertex 2192.2780297186737 193.38533882689958 563.6619999999964
  endloop
endfacet
facet normal 0.99619469809174 0.08715574274772331 0.0
  outer loop
    vertex 2192.2780297186737 193.38533882689958 565.6619999999964
    vertex 2192.2461259999995 193.75000000000014 563.6619999999964
    vertex 2192.2461259999995 193.75000000000014 565.6619999999964
  endloop
endfacet
facet normal 0.9659258262890764 0.25881904510249054 0.0
  outer loop
    vertex 2192.2780297186737 193.38533882689958 563.6619999999964
    vertex 2192.372771496349 193.03175769901625 565.6619999999964
    vertex 2192.372771496349 193.03175769901625 563.6619999999964
  endloop
endfacet
facet normal 0.9659258262890764 0.25881904510249054 0.0
  outer loop
    vertex 2192.372771496349 193.03175769901625 565.6619999999964
    vertex 2192.2780297186737 193.38533882689958 563.6619999999964
    vertex 2192.2780297186737 193.38533882689958 565.6619999999964
  endloop
endfacet
facet normal 0.0 0.0 1.0
  outer loop
    vertex 2182.3461259999995 193.7500000000002 568.6619999999964
    vertex 2183.0698145505685 197.85424171990823 568.6619999999964
    vertex 2182.036029087347 195.92060222083683 568.6619999999964
  endloop
endfacet
facet normal 0.0 0.0 1.0
  outer loop
    vertex 2183.0698145505685 197.85424171990823 568.6619999999964
    vertex 2182.3461259999995 193.7500000000002 568.6619999999964
    vertex 2183.0698145505685 189.64575828009217 568.6619999999964
  endloop
endfacet
facet normal 0.0 0.0 1.0
  outer loop
    vertex 2183.0698145505685 197.85424171990823 568.6619999999964
    vertex 2183.0698145505685 189.64575828009217 568.6619999999964
    vertex 2183.5208084526944 187.5000000000002 568.6619999999964
  endloop
endfacet
facet normal 0.0 0.0 1.0
  outer loop
    vertex 2183.0698145505685 197.85424171990823 568.6619999999964
    vertex 2183.5208084526944 187.5000000000002 568.6619999999964
    vertex 2183.5208084526944 200.0000000000002 568.6619999999964
  endloop
endfacet
facet normal 0.0 0.0 1.0
  outer loop
    vertex 2183.5208084526944 200.0000000000002 568.6619999999964
    vertex 2183.5208084526944 187.5000000000002 568.6619999999964
    vertex 2185.153592682572 186.0365486837617 568.6619999999964
  endloop
endfacet
facet normal 0.0 0.0 1.0
  outer loop
    vertex 2183.5208084526944 200.0000000000002 568.6619999999964
    vertex 2185.153592682572 186.0365486837617 568.6619999999964
    vertex 2185.153592682572 201.4634513162387 568.6619999999964
  endloop
endfacet
facet normal 0.0 0.0 1.0
  outer loop
    vertex 2185.153592682572 201.4634513162387 568.6619999999964
    vertex 2185.153592682572 186.0365486837617 568.6619999999964
    vertex 2186.311280878918 184.17444446101297 568.6619999999964
  endloop
endfacet
facet normal 0.0 0.0 1.0
  outer loop
    vertex 2185.153592682572 201.4634513162387 568.6619999999964
    vertex 2186.311280878918 184.17444446101297 568.6619999999964
    vertex 2186.311280878918 203.3255555389874 568.6619999999964
  endloop
endfacet
facet normal 0.0 0.0 1.0
  outer loop
    vertex 2186.311280878918 203.3255555389874 568.6619999999964
    vertex 2186.311280878918 184.17444446101297 568.6619999999964
    vertex 2188.346125999999 183.35769515458696 568.6619999999964
  endloop
endfacet
facet normal 0.0 0.0 1.0
  outer loop
    vertex 2186.311280878918 203.3255555389874 568.6619999999964
    vertex 2188.346125999999 183.35769515458696 568.6619999999964
    vertex 2188.346125999999 204.14230484541343 568.6619999999964
  endloop
endfacet
facet normal 0.0 0.0 1.0
  outer loop
    vertex 2188.346125999999 204.14230484541343 568.6619999999964
    vertex 2188.346125999999 183.35769515458696 568.6619999999964
    vertex 2190.0708742084284 182.00384224017634 568.6619999999964
  endloop
endfacet
facet normal 0.0 0.0 1.0
  outer loop
    vertex 2188.346125999999 204.14230484541343 568.6619999999964
    vertex 2190.0708742084284 182.00384224017634 568.6619999999964
    vertex 2190.0708742084284 205.49615775982406 568.6619999999964
  endloop
endfacet
facet normal 0.0 0.0 1.0
  outer loop
    vertex 2190.0708742084284 205.49615775982406 568.6619999999964
    vertex 2190.0708742084284 182.00384224017634 568.6619999999964
    vertex 2190.2961259999993 193.7500000000002 568.6619999999964
  endloop
endfacet
facet normal 0.0 0.0 1.0
  outer loop
    vertex 2190.2961259999993 193.7500000000002 568.6619999999964
    vertex 2190.0708742084284 182.00384224017634 568.6619999999964
    vertex 2192.262347867996 181.93230696385368 568.6619999999964
  endloop
endfacet
facet normal 0.0 0.0 1.0
  outer loop
    vertex 2190.2961259999993 193.7500000000002 568.6619999999964
    vertex 2192.262347867996 181.93230696385368 568.6619999999964
    vertex 2192.3211259999994 190.24259711467323 568.6619999999964
  endloop
endfacet
facet normal 0.0 0.0 1.0
  outer loop
    vertex 2192.3211259999994 190.24259711467323 568.6619999999964
    vertex 2192.262347867996 181.93230696385368 568.6619999999964
    vertex 2194.3461259999995 181.2500000000002 568.6619999999964
  endloop
endfacet
facet normal 0.0 0.0 1.0
  outer loop
    vertex 2192.3211259999994 190.24259711467323 568.6619999999964
    vertex 2194.3461259999995 181.2500000000002 568.6619999999964
    vertex 2196.3711259999995 190.24259711467323 568.6619999999964
  endloop
endfacet
facet normal 0.0 0.0 1.0
  outer loop
    vertex 2196.3711259999995 190.24259711467323 568.6619999999964
    vertex 2194.3461259999995 181.2500000000002 568.6619999999964
    vertex 2196.4299041320023 181.93230696385368 568.6619999999964
  endloop
endfacet
facet normal 0.0 0.0 1.0
  outer loop
    vertex 2196.3711259999995 190.24259711467323 568.6619999999964
    vertex 2196.4299041320023 181.93230696385368 568.6619999999964
    vertex 2198.3961259999996 193.7500000000002 568.6619999999964
  endloop
endfacet
facet normal 0.0 0.0 1.0
  outer loop
    vertex 2198.3961259999996 193.7500000000002 568.6619999999964
    vertex 2196.4299041320023 181.93230696385368 568.6619999999964
    vertex 2198.6213777915705 182.00384224017634 568.6619999999964
  endloop
endfacet
facet normal 0.0 0.0 1.0
  outer loop
    vertex 2183.0698145505685 189.64575828009217 568.6619999999964
    vertex 2182.3461259999995 193.7500000000002 568.6619999999964
    vertex 2182.036029087347 191.57939777916357 568.6619999999964
  endloop
endfacet
facet normal 0.0 0.0 1.0
  outer loop
    vertex 2190.2961259999993 193.7500000000002 568.6619999999964
    vertex 2192.262347867996 205.56769303614666 568.6619999999964
    vertex 2190.0708742084284 205.49615775982406 568.6619999999964
  endloop
endfacet
facet normal 0.0 0.0 1.0
  outer loop
    vertex 2192.262347867996 205.56769303614666 568.6619999999964
    vertex 2190.2961259999993 193.7500000000002 568.6619999999964
    vertex 2192.321126 197.25740288532717 568.6619999999964
  endloop
endfacet
facet normal 0.0 0.0 1.0
  outer loop
    vertex 2192.262347867996 205.56769303614666 568.6619999999964
    vertex 2192.321126 197.25740288532717 568.6619999999964
    vertex 2194.3461259999995 206.2500000000002 568.6619999999964
  endloop
endfacet
facet normal 0.0 0.0 1.0
  outer loop
    vertex 2194.3461259999995 206.2500000000002 568.6619999999964
    vertex 2192.321126 197.25740288532717 568.6619999999964
    vertex 2196.3711259999995 197.25740288532717 568.6619999999964
  endloop
endfacet
facet normal 0.0 0.0 1.0
  outer loop
    vertex 2194.3461259999995 206.2500000000002 568.6619999999964
    vertex 2196.3711259999995 197.25740288532717 568.6619999999964
    vertex 2196.4299041320023 205.56769303614666 568.6619999999964
  endloop
endfacet
facet normal 0.0 0.0 1.0
  outer loop
    vertex 2196.4299041320023 205.56769303614666 568.6619999999964
    vertex 2196.3711259999995 197.25740288532717 568.6619999999964
    vertex 2198.3961259999996 193.7500000000002 568.6619999999964
  endloop
endfacet
facet normal 0.0 0.0 1.0
  outer loop
    vertex 2196.4299041320023 205.56769303614666 568.6619999999964
    vertex 2198.3961259999996 193.7500000000002 568.6619999999964
    vertex 2198.6213777915705 205.49615775982406 568.6619999999964
  endloop
endfacet
facet normal 0.0 0.0 1.0
  outer loop
    vertex 2198.6213777915705 205.49615775982406 568.6619999999964
    vertex 2198.3961259999996 193.7500000000002 568.6619999999964
    vertex 2198.6213777915705 182.00384224017634 568.6619999999964
  endloop
endfacet
facet normal 0.0 0.0 1.0
  outer loop
    vertex 2198.6213777915705 205.49615775982406 568.6619999999964
    vertex 2198.6213777915705 182.00384224017634 568.6619999999964
    vertex 2200.3461259999995 183.35769515458696 568.6619999999964
  endloop
endfacet
facet normal 0.0 0.0 1.0
  outer loop
    vertex 2198.6213777915705 205.49615775982406 568.6619999999964
    vertex 2200.3461259999995 183.35769515458696 568.6619999999964
    vertex 2200.3461259999995 204.14230484541343 568.6619999999964
  endloop
endfacet
facet normal 0.0 0.0 1.0
  outer loop
    vertex 2200.3461259999995 204.14230484541343 568.6619999999964
    vertex 2200.3461259999995 183.35769515458696 568.6619999999964
    vertex 2202.3809711210815 184.17444446101297 568.6619999999964
  endloop
endfacet
facet normal 0.0 0.0 1.0
  outer loop
    vertex 2200.3461259999995 204.14230484541343 568.6619999999964
    vertex 2202.3809711210815 184.17444446101297 568.6619999999964
    vertex 2202.3809711210815 203.3255555389874 568.6619999999964
  endloop
endfacet
facet normal 0.0 0.0 1.0
  outer loop
    vertex 2202.3809711210815 203.3255555389874 568.6619999999964
    vertex 2202.3809711210815 184.17444446101297 568.6619999999964
    vertex 2203.538659317427 186.0365486837617 568.6619999999964
  endloop
endfacet
facet normal 0.0 0.0 1.0
  outer loop
    vertex 2202.3809711210815 203.3255555389874 568.6619999999964
    vertex 2203.538659317427 186.0365486837617 568.6619999999964
    vertex 2203.538659317427 201.4634513162387 568.6619999999964
  endloop
endfacet
facet normal 0.0 0.0 1.0
  outer loop
    vertex 2203.538659317427 201.4634513162387 568.6619999999964
    vertex 2203.538659317427 186.0365486837617 568.6619999999964
    vertex 2205.171443547305 187.5000000000002 568.6619999999964
  endloop
endfacet
facet normal 0.0 0.0 1.0
  outer loop
    vertex 2203.538659317427 201.4634513162387 568.6619999999964
    vertex 2205.171443547305 187.5000000000002 568.6619999999964
    vertex 2205.171443547305 200.0000000000002 568.6619999999964
  endloop
endfacet
facet normal 0.0 0.0 1.0
  outer loop
    vertex 2205.171443547305 200.0000000000002 568.6619999999964
    vertex 2205.171443547305 187.5000000000002 568.6619999999964
    vertex 2205.6224374494304 189.64575828009217 568.6619999999964
  endloop
endfacet
facet normal 0.0 0.0 1.0
  outer loop
    vertex 2205.171443547305 200.0000000000002 568.6619999999964
    vertex 2205.6224374494304 189.64575828009217 568.6619999999964
    vertex 2205.6224374494304 197.85424171990823 568.6619999999964
  endloop
endfacet
facet normal 0.0 0.0 1.0
  outer loop
    vertex 2205.6224374494304 197.85424171990823 568.6619999999964
    vertex 2205.6224374494304 189.64575828009217 568.6619999999964
    vertex 2206.656222912652 191.57939777916357 568.6619999999964
  endloop
endfacet
facet normal 0.0 0.0 1.0
  outer loop
    vertex 2205.6224374494304 197.85424171990823 568.6619999999964
    vertex 2206.656222912652 191.57939777916357 568.6619999999964
    vertex 2206.3461259999995 193.7500000000002 568.6619999999964
  endloop
endfacet
facet normal 0.0 0.0 1.0
  outer loop
    vertex 2206.656222912652 195.92060222083683 568.6619999999964
    vertex 2205.6224374494304 197.85424171990823 568.6619999999964
    vertex 2206.3461259999995 193.7500000000002 568.6619999999964
  endloop
endfacet
facet normal 0.3111804423942907 0.9503508469356428 0.0
  outer loop
    vertex 2194.3461259999995 206.2500000000002 568.6619999999964
    vertex 2196.4299041320023 205.56769303614666 563.6619999999964
    vertex 2194.3461259999995 206.2500000000002 563.6619999999964
  endloop
endfacet
facet normal 0.3111804423942907 0.9503508469356428 0.0
  outer loop
    vertex 2196.4299041320023 205.56769303614666 563.6619999999964
    vertex 2194.3461259999995 206.2500000000002 568.6619999999964
    vertex 2196.4299041320023 205.56769303614666 568.6619999999964
  endloop
endfacet
facet normal 0.032625167427801166 0.9994676575309017 0.0
  outer loop
    vertex 2196.4299041320023 205.56769303614666 568.6619999999964
    vertex 2198.6213777915705 205.49615775982406 563.6619999999964
    vertex 2196.4299041320023 205.56769303614666 563.6619999999964
  endloop
endfacet
facet normal 0.032625167427801166 0.9994676575309017 0.0
  outer loop
    vertex 2198.6213777915705 205.49615775982406 563.6619999999964
    vertex 2196.4299041320023 205.56769303614666 568.6619999999964
    vertex 2198.6213777915705 205.49615775982406 568.6619999999964
  endloop
endfacet
facet normal 0.6174530983293702 0.7866076985152516 0.0
  outer loop
    vertex 2198.6213777915705 205.49615775982406 568.6619999999964
    vertex 2200.3461259999995 204.14230484541343 563.6619999999964
    vertex 2198.6213777915705 205.49615775982406 563.6619999999964
  endloop
endfacet
facet normal 0.6174530983293702 0.7866076985152516 0.0
  outer loop
    vertex 2200.3461259999995 204.14230484541343 563.6619999999964
    vertex 2198.6213777915705 205.49615775982406 568.6619999999964
    vertex 2200.3461259999995 204.14230484541343 568.6619999999964
  endloop
endfacet
facet normal 0.3724957005619217 0.9280339180562762 0.0
  outer loop
    vertex 2200.3461259999995 204.14230484541343 568.6619999999964
    vertex 2202.3809711210815 203.3255555389874 563.6619999999964
    vertex 2200.3461259999995 204.14230484541343 563.6619999999964
  endloop
endfacet
facet normal 0.3724957005619217 0.9280339180562762 0.0
  outer loop
    vertex 2202.3809711210815 203.3255555389874 563.6619999999964
    vertex 2200.3461259999995 204.14230484541343 568.6619999999964
    vertex 2202.3809711210815 203.3255555389874 568.6619999999964
  endloop
endfacet
facet normal 0.9063077870366073 0.422618261740791 0.0
  outer loop
    vertex 2192.372771496349 193.03175769901625 563.6619999999964
    vertex 2192.5274726520524 192.70000000000013 565.6619999999964
    vertex 2192.5274726520524 192.70000000000013 563.6619999999964
  endloop
endfacet
facet normal 0.9063077870366073 0.422618261740791 0.0
  outer loop
    vertex 2192.5274726520524 192.70000000000013 565.6619999999964
    vertex 2192.372771496349 193.03175769901625 563.6619999999964
    vertex 2192.372771496349 193.03175769901625 565.6619999999964
  endloop
endfacet
facet normal -0.6174530983293735 -0.7866076985152493 -0.0
  outer loop
    vertex 2190.0708742084284 182.00384224017634 568.6619999999964
    vertex 2188.346125999999 183.35769515458696 563.6619999999964
    vertex 2190.0708742084284 182.00384224017634 563.6619999999964
  endloop
endfacet
facet normal -0.6174530983293735 -0.7866076985152493 -0.0
  outer loop
    vertex 2188.346125999999 183.35769515458696 563.6619999999964
    vertex 2190.0708742084284 182.00384224017634 568.6619999999964
    vertex 2188.346125999999 183.35769515458696 568.6619999999964
  endloop
endfacet
facet normal -0.37249570056191733 -0.9280339180562781 -0.0
  outer loop
    vertex 2188.346125999999 183.35769515458696 568.6619999999964
    vertex 2186.311280878918 184.17444446101297 563.6619999999964
    vertex 2188.346125999999 183.35769515458696 563.6619999999964
  endloop
endfacet
facet normal -0.37249570056191733 -0.9280339180562781 -0.0
  outer loop
    vertex 2186.311280878918 184.17444446101297 563.6619999999964
    vertex 2188.346125999999 183.35769515458696 568.6619999999964
    vertex 2186.311280878918 184.17444446101297 568.6619999999964
  endloop
endfacet
facet normal -0.8492517979687785 -0.5279880525606588 -0.0
  outer loop
    vertex 2185.153592682572 186.0365486837617 568.6619999999964
    vertex 2186.311280878918 184.17444446101297 563.6619999999964
    vertex 2186.311280878918 184.17444446101297 568.6619999999964
  endloop
endfacet
facet normal -0.8492517979687785 -0.5279880525606588 -0.0
  outer loop
    vertex 2186.311280878918 184.17444446101297 563.6619999999964
    vertex 2185.153592682572 186.0365486837617 568.6619999999964
    vertex 2185.153592682572 186.0365486837617 563.6619999999964
  endloop
endfacet
facet normal -0.6674377547572091 -0.7446655917421293 -0.0
  outer loop
    vertex 2185.153592682572 186.0365486837617 568.6619999999964
    vertex 2183.5208084526944 187.5000000000002 563.6619999999964
    vertex 2185.153592682572 186.0365486837617 563.6619999999964
  endloop
endfacet
facet normal -0.6674377547572091 -0.7446655917421293 -0.0
  outer loop
    vertex 2183.5208084526944 187.5000000000002 563.6619999999964
    vertex 2185.153592682572 186.0365486837617 568.6619999999964
    vertex 2183.5208084526944 187.5000000000002 568.6619999999964
  endloop
endfacet
facet normal -0.9786181971514631 -0.20568525519351177 -0.0
  outer loop
    vertex 2183.0698145505685 189.64575828009217 568.6619999999964
    vertex 2183.5208084526944 187.5000000000002 563.6619999999964
    vertex 2183.5208084526944 187.5000000000002 568.6619999999964
  endloop
endfacet
facet normal -0.9786181971514631 -0.20568525519351177 -0.0
  outer loop
    vertex 2183.5208084526944 187.5000000000002 563.6619999999964
    vertex 2183.0698145505685 189.64575828009217 568.6619999999964
    vertex 2183.0698145505685 189.64575828009217 563.6619999999964
  endloop
endfacet
facet normal -0.8818769653965864 -0.47147960497025543 -0.0
  outer loop
    vertex 2182.036029087347 191.57939777916357 568.6619999999964
    vertex 2183.0698145505685 189.64575828009217 563.6619999999964
    vertex 2183.0698145505685 189.64575828009217 568.6619999999964
  endloop
endfacet
facet normal -0.8818769653965864 -0.47147960497025543 -0.0
  outer loop
    vertex 2183.0698145505685 189.64575828009217 563.6619999999964
    vertex 2182.036029087347 191.57939777916357 568.6619999999964
    vertex 2182.036029087347 191.57939777916357 563.6619999999964
  endloop
endfacet
facet normal -0.9899487988913005 0.14142621954104456 0.0
  outer loop
    vertex 2182.3461259999995 193.7500000000002 568.6619999999964
    vertex 2182.036029087347 191.57939777916357 563.6619999999964
    vertex 2182.036029087347 191.57939777916357 568.6619999999964
  endloop
endfacet
facet normal -0.9899487988913005 0.14142621954104456 0.0
  outer loop
    vertex 2182.036029087347 191.57939777916357 563.6619999999964
    vertex 2182.3461259999995 193.7500000000002 568.6619999999964
    vertex 2182.3461259999995 193.7500000000002 563.6619999999964
  endloop
endfacet
facet normal -0.9899487988913006 -0.14142621954104384 -0.0
  outer loop
    vertex 2182.036029087347 195.92060222083683 568.6619999999964
    vertex 2182.3461259999995 193.7500000000002 563.6619999999964
    vertex 2182.3461259999995 193.7500000000002 568.6619999999964
  endloop
endfacet
facet normal -0.9899487988913006 -0.14142621954104384 -0.0
  outer loop
    vertex 2182.3461259999995 193.7500000000002 563.6619999999964
    vertex 2182.036029087347 195.92060222083683 568.6619999999964
    vertex 2182.036029087347 195.92060222083683 563.6619999999964
  endloop
endfacet
facet normal -0.8818769653965864 0.47147960497025543 0.0
  outer loop
    vertex 2183.0698145505685 197.85424171990823 568.6619999999964
    vertex 2182.036029087347 195.92060222083683 563.6619999999964
    vertex 2182.036029087347 195.92060222083683 568.6619999999964
  endloop
endfacet
facet normal -0.8818769653965864 0.47147960497025543 0.0
  outer loop
    vertex 2182.036029087347 195.92060222083683 563.6619999999964
    vertex 2183.0698145505685 197.85424171990823 568.6619999999964
    vertex 2183.0698145505685 197.85424171990823 563.6619999999964
  endloop
endfacet
facet normal -0.9786181971514629 0.20568525519351283 0.0
  outer loop
    vertex 2183.5208084526944 200.0000000000002 568.6619999999964
    vertex 2183.0698145505685 197.85424171990823 563.6619999999964
    vertex 2183.0698145505685 197.85424171990823 568.6619999999964
  endloop
endfacet
facet normal -0.9786181971514629 0.20568525519351283 0.0
  outer loop
    vertex 2183.0698145505685 197.85424171990823 563.6619999999964
    vertex 2183.5208084526944 200.0000000000002 568.6619999999964
    vertex 2183.5208084526944 200.0000000000002 563.6619999999964
  endloop
endfacet
facet normal -0.667437754757212 0.7446655917421269 0.0
  outer loop
    vertex 2183.5208084526944 200.0000000000002 568.6619999999964
    vertex 2185.153592682572 201.4634513162387 563.6619999999964
    vertex 2183.5208084526944 200.0000000000002 563.6619999999964
  endloop
endfacet
facet normal -0.667437754757212 0.7446655917421269 0.0
  outer loop
    vertex 2185.153592682572 201.4634513162387 563.6619999999964
    vertex 2183.5208084526944 200.0000000000002 568.6619999999964
    vertex 2185.153592682572 201.4634513162387 568.6619999999964
  endloop
endfacet
facet normal -0.8492517979687771 0.5279880525606612 0.0
  outer loop
    vertex 2186.311280878918 203.3255555389874 568.6619999999964
    vertex 2185.153592682572 201.4634513162387 563.6619999999964
    vertex 2185.153592682572 201.4634513162387 568.6619999999964
  endloop
endfacet
facet normal -0.8492517979687771 0.5279880525606612 0.0
  outer loop
    vertex 2185.153592682572 201.4634513162387 563.6619999999964
    vertex 2186.311280878918 203.3255555389874 568.6619999999964
    vertex 2186.311280878918 203.3255555389874 563.6619999999964
  endloop
endfacet
facet normal -0.3724957005619217 0.9280339180562762 0.0
  outer loop
    vertex 2186.311280878918 203.3255555389874 568.6619999999964
    vertex 2188.346125999999 204.14230484541343 563.6619999999964
    vertex 2186.311280878918 203.3255555389874 563.6619999999964
  endloop
endfacet
facet normal -0.3724957005619217 0.9280339180562762 0.0
  outer loop
    vertex 2188.346125999999 204.14230484541343 563.6619999999964
    vertex 2186.311280878918 203.3255555389874 568.6619999999964
    vertex 2188.346125999999 204.14230484541343 568.6619999999964
  endloop
endfacet
facet normal -0.6174530983293702 0.7866076985152516 0.0
  outer loop
    vertex 2188.346125999999 204.14230484541343 568.6619999999964
    vertex 2190.0708742084284 205.49615775982406 563.6619999999964
    vertex 2188.346125999999 204.14230484541343 563.6619999999964
  endloop
endfacet
facet normal -0.6174530983293702 0.7866076985152516 0.0
  outer loop
    vertex 2190.0708742084284 205.49615775982406 563.6619999999964
    vertex 2188.346125999999 204.14230484541343 568.6619999999964
    vertex 2190.0708742084284 205.49615775982406 568.6619999999964
  endloop
endfacet
facet normal -0.032625167427801166 0.9994676575309017 0.0
  outer loop
    vertex 2190.0708742084284 205.49615775982406 568.6619999999964
    vertex 2192.262347867996 205.56769303614666 563.6619999999964
    vertex 2190.0708742084284 205.49615775982406 563.6619999999964
  endloop
endfacet
facet normal -0.032625167427801166 0.9994676575309017 0.0
  outer loop
    vertex 2192.262347867996 205.56769303614666 563.6619999999964
    vertex 2190.0708742084284 205.49615775982406 568.6619999999964
    vertex 2192.262347867996 205.56769303614666 568.6619999999964
  endloop
endfacet
facet normal -0.3111804423942907 0.9503508469356428 0.0
  outer loop
    vertex 2192.262347867996 205.56769303614666 568.6619999999964
    vertex 2194.3461259999995 206.2500000000002 563.6619999999964
    vertex 2192.262347867996 205.56769303614666 563.6619999999964
  endloop
endfacet
facet normal -0.3111804423942907 0.9503508469356428 0.0
  outer loop
    vertex 2194.3461259999995 206.2500000000002 563.6619999999964
    vertex 2192.262347867996 205.56769303614666 568.6619999999964
    vertex 2194.3461259999995 206.2500000000002 568.6619999999964
  endloop
endfacet
facet normal -0.8660254037844485 -0.49999999999998296 -5.152321096098294e-18
  outer loop
    vertex 2196.3711259999995 197.25740288532717 568.6619999999964
    vertex 2198.3961259999996 193.7500000000002 565.6619999999964
    vertex 2198.3961259999996 193.7500000000002 568.6619999999964
  endloop
endfacet
facet normal -0.8660254037844485 -0.49999999999998296 -5.152321096098294e-18
  outer loop
    vertex 2198.3961259999996 193.7500000000002 565.6619999999964
    vertex 2196.3711259999995 197.25740288532717 568.6619999999964
    vertex 2196.3711259999995 197.25740288532717 565.6619999999964
  endloop
endfacet
facet normal 0.0 -1.0 0.0
  outer loop
    vertex 2196.3711259999995 197.25740288532717 568.6619999999964
    vertex 2192.321126 197.25740288532717 565.6619999999964
    vertex 2196.3711259999995 197.25740288532717 565.6619999999964
  endloop
endfacet
facet normal 0.0 -1.0 0.0
  outer loop
    vertex 2192.321126 197.25740288532717 565.6619999999964
    vertex 2196.3711259999995 197.25740288532717 568.6619999999964
    vertex 2192.321126 197.25740288532717 568.6619999999964
  endloop
endfacet
facet normal 0.8660254037844292 -0.5000000000000165 -3.1310405649668336e-18
  outer loop
    vertex 2192.321126 197.25740288532717 565.6619999999964
    vertex 2190.2961259999993 193.7500000000002 568.6619999999964
    vertex 2190.2961259999993 193.7500000000002 565.6619999999964
  endloop
endfacet
facet normal 0.8660254037844292 -0.5000000000000165 -3.1310405649668336e-18
  outer loop
    vertex 2190.2961259999993 193.7500000000002 568.6619999999964
    vertex 2192.321126 197.25740288532717 565.6619999999964
    vertex 2192.321126 197.25740288532717 568.6619999999964
  endloop
endfacet
facet normal 0.8660254037844486 0.49999999999998307 -1.0106402655606949e-18
  outer loop
    vertex 2190.2961259999993 193.7500000000002 565.6619999999964
    vertex 2192.3211259999994 190.24259711467323 568.6619999999964
    vertex 2192.3211259999994 190.24259711467323 565.6619999999964
  endloop
endfacet
facet normal 0.8660254037844486 0.49999999999998307 -1.0106402655606949e-18
  outer loop
    vertex 2192.3211259999994 190.24259711467323 568.6619999999964
    vertex 2190.2961259999993 193.7500000000002 565.6619999999964
    vertex 2190.2961259999993 193.7500000000002 568.6619999999964
  endloop
endfacet
facet normal 0.0 1.0 0.0
  outer loop
    vertex 2192.3211259999994 190.24259711467323 568.6619999999964
    vertex 2196.3711259999995 190.24259711467323 565.6619999999964
    vertex 2192.3211259999994 190.24259711467323 565.6619999999964
  endloop
endfacet
facet normal 0.0 1.0 0.0
  outer loop
    vertex 2196.3711259999995 190.24259711467323 565.6619999999964
    vertex 2192.3211259999994 190.24259711467323 568.6619999999964
    vertex 2196.3711259999995 190.24259711467323 568.6619999999964
  endloop
endfacet
facet normal -0.8660254037844292 0.5000000000000165 5.152321096088639e-18
  outer loop
    vertex 2198.3961259999996 193.7500000000002 568.6619999999964
    vertex 2196.3711259999995 190.24259711467323 565.6619999999964
    vertex 2196.3711259999995 190.24259711467323 568.6619999999964
  endloop
endfacet
facet normal -0.8660254037844292 0.5000000000000165 5.152321096088639e-18
  outer loop
    vertex 2196.3711259999995 190.24259711467323 565.6619999999964
    vertex 2198.3961259999996 193.7500000000002 568.6619999999964
    vertex 2198.3961259999996 193.7500000000002 565.6619999999964
  endloop
endfacet
facet normal 0.8191520442890871 0.5735764363509099 0.0
  outer loop
    vertex 2192.5274726520524 192.70000000000013 563.6619999999964
    vertex 2192.7374326694494 192.4001460196584 565.6619999999964
    vertex 2192.7374326694494 192.4001460196584 563.6619999999964
  endloop
endfacet
facet normal 0.8191520442890871 0.5735764363509099 0.0
  outer loop
    vertex 2192.7374326694494 192.4001460196584 565.6619999999964
    vertex 2192.5274726520524 192.70000000000013 563.6619999999964
    vertex 2192.5274726520524 192.70000000000013 565.6619999999964
  endloop
endfacet
facet normal 0.7071067811865629 0.7071067811865321 0.0
  outer loop
    vertex 2192.7374326694494 192.4001460196584 563.6619999999964
    vertex 2192.9962720196577 192.14130666945027 565.6619999999964
    vertex 2192.9962720196577 192.14130666945027 563.6619999999964
  endloop
endfacet
facet normal 0.7071067811865629 0.7071067811865321 0.0
  outer loop
    vertex 2192.9962720196577 192.14130666945027 565.6619999999964
    vertex 2192.7374326694494 192.4001460196584 563.6619999999964
    vertex 2192.7374326694494 192.4001460196584 565.6619999999964
  endloop
endfacet
facet normal 0.5735764363508665 0.8191520442891177 0.0
  outer loop
    vertex 2192.9962720196577 192.14130666945027 565.6619999999964
    vertex 2193.2961259999997 191.9313466520528 563.6619999999964
    vertex 2192.9962720196577 192.14130666945027 563.6619999999964
  endloop
endfacet
facet normal 0.5735764363508665 0.8191520442891177 0.0
  outer loop
    vertex 2193.2961259999997 191.9313466520528 563.6619999999964
    vertex 2192.9962720196577 192.14130666945027 565.6619999999964
    vertex 2193.2961259999997 191.9313466520528 565.6619999999964
  endloop
endfacet
facet normal 0.4226182617407133 0.9063077870366435 0.0
  outer loop
    vertex 2193.2961259999997 191.9313466520528 565.6619999999964
    vertex 2193.627883699016 191.77664549634972 563.6619999999964
    vertex 2193.2961259999997 191.9313466520528 563.6619999999964
  endloop
endfacet
facet normal 0.4226182617407133 0.9063077870366435 0.0
  outer loop
    vertex 2193.627883699016 191.77664549634972 563.6619999999964
    vertex 2193.2961259999997 191.9313466520528 565.6619999999964
    vertex 2193.627883699016 191.77664549634972 565.6619999999964
  endloop
endfacet
facet normal 0.25881904510253473 0.9659258262890646 0.0
  outer loop
    vertex 2193.627883699016 191.77664549634972 565.6619999999964
    vertex 2193.981464826899 191.68190371867448 563.6619999999964
    vertex 2193.627883699016 191.77664549634972 563.6619999999964
  endloop
endfacet
facet normal 0.25881904510253473 0.9659258262890646 0.0
  outer loop
    vertex 2193.981464826899 191.68190371867448 563.6619999999964
    vertex 2193.627883699016 191.77664549634972 565.6619999999964
    vertex 2193.981464826899 191.68190371867448 565.6619999999964
  endloop
endfacet
facet normal 0.08715574274764225 0.9961946980917469 0.0
  outer loop
    vertex 2193.981464826899 191.68190371867448 565.6619999999964
    vertex 2194.3461259999995 191.65000000000015 563.6619999999964
    vertex 2193.981464826899 191.68190371867448 563.6619999999964
  endloop
endfacet
facet normal 0.08715574274764225 0.9961946980917469 0.0
  outer loop
    vertex 2194.3461259999995 191.65000000000015 563.6619999999964
    vertex 2193.981464826899 191.68190371867448 565.6619999999964
    vertex 2194.3461259999995 191.65000000000015 565.6619999999964
  endloop
endfacet
facet normal -0.08715574274767283 0.9961946980917442 0.0
  outer loop
    vertex 2194.3461259999995 191.65000000000015 565.6619999999964
    vertex 2194.7107871731 191.6819037186745 563.6619999999964
    vertex 2194.3461259999995 191.65000000000015 563.6619999999964
  endloop
endfacet
facet normal -0.08715574274767283 0.9961946980917442 0.0
  outer loop
    vertex 2194.7107871731 191.6819037186745 563.6619999999964
    vertex 2194.3461259999995 191.65000000000015 565.6619999999964
    vertex 2194.7107871731 191.6819037186745 565.6619999999964
  endloop
endfacet
facet normal -0.2588190451024402 0.9659258262890899 0.0
  outer loop
    vertex 2194.7107871731 191.6819037186745 565.6619999999964
    vertex 2195.0643683009835 191.77664549634974 563.6619999999964
    vertex 2194.7107871731 191.6819037186745 563.6619999999964
  endloop
endfacet
facet normal -0.2588190451024402 0.9659258262890899 0.0
  outer loop
    vertex 2195.0643683009835 191.77664549634974 563.6619999999964
    vertex 2194.7107871731 191.6819037186745 565.6619999999964
    vertex 2195.0643683009835 191.77664549634974 565.6619999999964
  endloop
endfacet
facet normal -0.42261826174073863 0.9063077870366316 0.0
  outer loop
    vertex 2195.0643683009835 191.77664549634974 565.6619999999964
    vertex 2195.3961259999996 191.93134665205284 563.6619999999964
    vertex 2195.0643683009835 191.77664549634974 563.6619999999964
  endloop
endfacet
facet normal -0.42261826174073863 0.9063077870366316 0.0
  outer loop
    vertex 2195.3961259999996 191.93134665205284 563.6619999999964
    vertex 2195.0643683009835 191.77664549634974 565.6619999999964
    vertex 2195.3961259999996 191.93134665205284 565.6619999999964
  endloop
endfacet
facet normal -0.5735764363511188 0.8191520442889408 0.0
  outer loop
    vertex 2195.3961259999996 191.93134665205284 565.6619999999964
    vertex 2195.6959799803412 192.1413066694503 563.6619999999964
    vertex 2195.3961259999996 191.93134665205284 563.6619999999964
  endloop
endfacet
facet normal -0.5735764363511188 0.8191520442889408 0.0
  outer loop
    vertex 2195.6959799803412 192.1413066694503 563.6619999999964
    vertex 2195.3961259999996 191.93134665205284 565.6619999999964
    vertex 2195.6959799803412 192.1413066694503 565.6619999999964
  endloop
endfacet
facet normal -0.7071067811865629 0.7071067811865321 0.0
  outer loop
    vertex 2195.9548193305495 192.40014601965845 565.6619999999964
    vertex 2195.6959799803412 192.1413066694503 563.6619999999964
    vertex 2195.6959799803412 192.1413066694503 565.6619999999964
  endloop
endfacet
facet normal -0.7071067811865629 0.7071067811865321 0.0
  outer loop
    vertex 2195.6959799803412 192.1413066694503 563.6619999999964
    vertex 2195.9548193305495 192.40014601965845 565.6619999999964
    vertex 2195.9548193305495 192.40014601965845 563.6619999999964
  endloop
endfacet
facet normal -0.8191520442891075 0.5735764363508811 0.0
  outer loop
    vertex 2196.164779347947 192.70000000000022 565.6619999999964
    vertex 2195.9548193305495 192.40014601965845 563.6619999999964
    vertex 2195.9548193305495 192.40014601965845 565.6619999999964
  endloop
endfacet
facet normal -0.8191520442891075 0.5735764363508811 0.0
  outer loop
    vertex 2195.9548193305495 192.40014601965845 563.6619999999964
    vertex 2196.164779347947 192.70000000000022 565.6619999999964
    vertex 2196.164779347947 192.70000000000022 563.6619999999964
  endloop
endfacet
facet normal -0.9063077870366073 0.422618261740791 0.0
  outer loop
    vertex 2196.31948050365 193.03175769901628 565.6619999999964
    vertex 2196.164779347947 192.70000000000022 563.6619999999964
    vertex 2196.164779347947 192.70000000000022 565.6619999999964
  endloop
endfacet
facet normal -0.9063077870366073 0.422618261740791 0.0
  outer loop
    vertex 2196.164779347947 192.70000000000022 563.6619999999964
    vertex 2196.31948050365 193.03175769901628 565.6619999999964
    vertex 2196.31948050365 193.03175769901628 563.6619999999964
  endloop
endfacet
facet normal -0.9659258262890764 0.25881904510249054 0.0
  outer loop
    vertex 2196.4142222813252 193.38533882689967 565.6619999999964
    vertex 2196.31948050365 193.03175769901628 563.6619999999964
    vertex 2196.31948050365 193.03175769901628 565.6619999999964
  endloop
endfacet
facet normal -0.9659258262890764 0.25881904510249054 0.0
  outer loop
    vertex 2196.31948050365 193.03175769901628 563.6619999999964
    vertex 2196.4142222813252 193.38533882689967 565.6619999999964
    vertex 2196.4142222813252 193.38533882689967 563.6619999999964
  endloop
endfacet
facet normal -0.99619469809174 0.08715574274772331 0.0
  outer loop
    vertex 2196.4461259999994 193.75000000000026 565.6619999999964
    vertex 2196.4142222813252 193.38533882689967 563.6619999999964
    vertex 2196.4142222813252 193.38533882689967 565.6619999999964
  endloop
endfacet
facet normal -0.99619469809174 0.08715574274772331 0.0
  outer loop
    vertex 2196.4142222813252 193.38533882689967 563.6619999999964
    vertex 2196.4461259999994 193.75000000000026 565.6619999999964
    vertex 2196.4461259999994 193.75000000000026 563.6619999999964
  endloop
endfacet
facet normal -0.99619469809174 -0.08715574274772331 -0.0
  outer loop
    vertex 2196.4142222813252 194.1146611731008 565.6619999999964
    vertex 2196.4461259999994 193.75000000000026 563.6619999999964
    vertex 2196.4461259999994 193.75000000000026 565.6619999999964
  endloop
endfacet
facet normal -0.99619469809174 -0.08715574274772331 -0.0
  outer loop
    vertex 2196.4461259999994 193.75000000000026 563.6619999999964
    vertex 2196.4142222813252 194.1146611731008 565.6619999999964
    vertex 2196.4142222813252 194.1146611731008 563.6619999999964
  endloop
endfacet
facet normal -0.9659258262890764 -0.25881904510249054 -0.0
  outer loop
    vertex 2196.31948050365 194.46824230098414 565.6619999999964
    vertex 2196.4142222813252 194.1146611731008 563.6619999999964
    vertex 2196.4142222813252 194.1146611731008 565.6619999999964
  endloop
endfacet
facet normal -0.9659258262890764 -0.25881904510249054 -0.0
  outer loop
    vertex 2196.4142222813252 194.1146611731008 563.6619999999964
    vertex 2196.31948050365 194.46824230098414 565.6619999999964
    vertex 2196.31948050365 194.46824230098414 563.6619999999964
  endloop
endfacet
facet normal -0.9063077870366073 -0.422618261740791 -0.0
  outer loop
    vertex 2196.164779347947 194.80000000000027 565.6619999999964
    vertex 2196.31948050365 194.46824230098414 563.6619999999964
    vertex 2196.31948050365 194.46824230098414 565.6619999999964
  endloop
endfacet
facet normal -0.9063077870366073 -0.422618261740791 -0.0
  outer loop
    vertex 2196.31948050365 194.46824230098414 563.6619999999964
    vertex 2196.164779347947 194.80000000000027 565.6619999999964
    vertex 2196.164779347947 194.80000000000027 563.6619999999964
  endloop
endfacet
facet normal -0.8191520442890871 -0.5735764363509099 -0.0
  outer loop
    vertex 2195.9548193305495 195.099853980342 565.6619999999964
    vertex 2196.164779347947 194.80000000000027 563.6619999999964
    vertex 2196.164779347947 194.80000000000027 565.6619999999964
  endloop
endfacet
facet normal -0.8191520442890871 -0.5735764363509099 -0.0
  outer loop
    vertex 2196.164779347947 194.80000000000027 563.6619999999964
    vertex 2195.9548193305495 195.099853980342 565.6619999999964
    vertex 2195.9548193305495 195.099853980342 563.6619999999964
  endloop
endfacet
facet normal -0.7071067811865629 -0.7071067811865321 -0.0
  outer loop
    vertex 2195.6959799803412 195.35869333055012 565.6619999999964
    vertex 2195.9548193305495 195.099853980342 563.6619999999964
    vertex 2195.9548193305495 195.099853980342 565.6619999999964
  endloop
endfacet
facet normal -0.7071067811865629 -0.7071067811865321 -0.0
  outer loop
    vertex 2195.9548193305495 195.099853980342 563.6619999999964
    vertex 2195.6959799803412 195.35869333055012 565.6619999999964
    vertex 2195.6959799803412 195.35869333055012 563.6619999999964
  endloop
endfacet
facet normal -0.5735764363508665 -0.8191520442891177 -0.0
  outer loop
    vertex 2195.6959799803412 195.35869333055012 565.6619999999964
    vertex 2195.396125999999 195.5686533479476 563.6619999999964
    vertex 2195.6959799803412 195.35869333055012 563.6619999999964
  endloop
endfacet
facet normal -0.5735764363508665 -0.8191520442891177 -0.0
  outer loop
    vertex 2195.396125999999 195.5686533479476 563.6619999999964
    vertex 2195.6959799803412 195.35869333055012 565.6619999999964
    vertex 2195.396125999999 195.5686533479476 565.6619999999964
  endloop
endfacet
facet normal -0.4226182617407133 -0.9063077870366435 -0.0
  outer loop
    vertex 2195.396125999999 195.5686533479476 565.6619999999964
    vertex 2195.0643683009835 195.72335450365068 563.6619999999964
    vertex 2195.396125999999 195.5686533479476 563.6619999999964
  endloop
endfacet
facet normal -0.4226182617407133 -0.9063077870366435 -0.0
  outer loop
    vertex 2195.0643683009835 195.72335450365068 563.6619999999964
    vertex 2195.396125999999 195.5686533479476 565.6619999999964
    vertex 2195.0643683009835 195.72335450365068 565.6619999999964
  endloop
endfacet
facet normal -0.25881904510253473 -0.9659258262890646 -0.0
  outer loop
    vertex 2195.0643683009835 195.72335450365068 565.6619999999964
    vertex 2194.7107871731 195.81809628132592 563.6619999999964
    vertex 2195.0643683009835 195.72335450365068 563.6619999999964
  endloop
endfacet
facet normal -0.25881904510253473 -0.9659258262890646 -0.0
  outer loop
    vertex 2194.7107871731 195.81809628132592 563.6619999999964
    vertex 2195.0643683009835 195.72335450365068 565.6619999999964
    vertex 2194.7107871731 195.81809628132592 565.6619999999964
  endloop
endfacet
facet normal -0.08715574274764225 -0.9961946980917469 -0.0
  outer loop
    vertex 2194.7107871731 195.81809628132592 565.6619999999964
    vertex 2194.3461259999995 195.85000000000025 563.6619999999964
    vertex 2194.7107871731 195.81809628132592 563.6619999999964
  endloop
endfacet
facet normal -0.08715574274764225 -0.9961946980917469 -0.0
  outer loop
    vertex 2194.3461259999995 195.85000000000025 563.6619999999964
    vertex 2194.7107871731 195.81809628132592 565.6619999999964
    vertex 2194.3461259999995 195.85000000000025 565.6619999999964
  endloop
endfacet
facet normal 0.08715574274767283 -0.9961946980917442 0.0
  outer loop
    vertex 2194.3461259999995 195.85000000000025 565.6619999999964
    vertex 2193.981464826899 195.8180962813259 563.6619999999964
    vertex 2194.3461259999995 195.85000000000025 563.6619999999964
  endloop
endfacet
facet normal 0.08715574274767283 -0.9961946980917442 0.0
  outer loop
    vertex 2193.981464826899 195.8180962813259 563.6619999999964
    vertex 2194.3461259999995 195.85000000000025 565.6619999999964
    vertex 2193.981464826899 195.8180962813259 565.6619999999964
  endloop
endfacet
facet normal 0.2588190451024402 -0.9659258262890899 0.0
  outer loop
    vertex 2193.981464826899 195.8180962813259 565.6619999999964
    vertex 2193.6278836990155 195.72335450365065 563.6619999999964
    vertex 2193.981464826899 195.8180962813259 563.6619999999964
  endloop
endfacet
facet normal 0.2588190451024402 -0.9659258262890899 0.0
  outer loop
    vertex 2193.6278836990155 195.72335450365065 563.6619999999964
    vertex 2193.981464826899 195.8180962813259 565.6619999999964
    vertex 2193.6278836990155 195.72335450365065 565.6619999999964
  endloop
endfacet
facet normal 0.42261826174073863 -0.9063077870366316 0.0
  outer loop
    vertex 2193.6278836990155 195.72335450365065 565.6619999999964
    vertex 2193.2961259999997 195.56865334794756 563.6619999999964
    vertex 2193.6278836990155 195.72335450365065 563.6619999999964
  endloop
endfacet
facet normal 0.42261826174073863 -0.9063077870366316 0.0
  outer loop
    vertex 2193.2961259999997 195.56865334794756 563.6619999999964
    vertex 2193.6278836990155 195.72335450365065 565.6619999999964
    vertex 2193.2961259999997 195.56865334794756 565.6619999999964
  endloop
endfacet
facet normal 0.5735764363511188 -0.8191520442889408 0.0
  outer loop
    vertex 2193.2961259999997 195.56865334794756 565.6619999999964
    vertex 2192.9962720196577 195.3586933305501 563.6619999999964
    vertex 2193.2961259999997 195.56865334794756 563.6619999999964
  endloop
endfacet
facet normal 0.5735764363511188 -0.8191520442889408 0.0
  outer loop
    vertex 2192.9962720196577 195.3586933305501 563.6619999999964
    vertex 2193.2961259999997 195.56865334794756 565.6619999999964
    vertex 2192.9962720196577 195.3586933305501 565.6619999999964
  endloop
endfacet
facet normal 0.7071067811865629 -0.7071067811865321 0.0
  outer loop
    vertex 2192.9962720196577 195.3586933305501 563.6619999999964
    vertex 2192.7374326694494 195.09985398034195 565.6619999999964
    vertex 2192.7374326694494 195.09985398034195 563.6619999999964
  endloop
endfacet
facet normal 0.7071067811865629 -0.7071067811865321 0.0
  outer loop
    vertex 2192.7374326694494 195.09985398034195 565.6619999999964
    vertex 2192.9962720196577 195.3586933305501 563.6619999999964
    vertex 2192.9962720196577 195.3586933305501 565.6619999999964
  endloop
endfacet
facet normal 0.8191520442891075 -0.5735764363508811 0.0
  outer loop
    vertex 2192.7374326694494 195.09985398034195 563.6619999999964
    vertex 2192.5274726520524 194.80000000000018 565.6619999999964
    vertex 2192.5274726520524 194.80000000000018 563.6619999999964
  endloop
endfacet
facet normal 0.8191520442891075 -0.5735764363508811 0.0
  outer loop
    vertex 2192.5274726520524 194.80000000000018 565.6619999999964
    vertex 2192.7374326694494 195.09985398034195 563.6619999999964
    vertex 2192.7374326694494 195.09985398034195 565.6619999999964
  endloop
endfacet
facet normal 0.9063077870366073 -0.422618261740791 0.0
  outer loop
    vertex 2192.5274726520524 194.80000000000018 563.6619999999964
    vertex 2192.372771496349 194.4682423009841 565.6619999999964
    vertex 2192.372771496349 194.4682423009841 563.6619999999964
  endloop
endfacet
facet normal 0.9063077870366073 -0.422618261740791 0.0
  outer loop
    vertex 2192.372771496349 194.4682423009841 565.6619999999964
    vertex 2192.5274726520524 194.80000000000018 563.6619999999964
    vertex 2192.5274726520524 194.80000000000018 565.6619999999964
  endloop
endfacet
endsolid flsun-cube-linear-rail-xy-gantry
