solid flsun-cube-linear-rail-xy-gantry
facet normal -0.0 -1.0 0.0
  outer loop
    vertex 1502.399856791687 148.50001830875274 556.0281457410139
    vertex 1508.399856791687 148.50001830875274 559.028145741014
    vertex 1502.399856791687 148.50001830875274 559.028145741014
  endloop
endfacet
facet normal -0.0 -1.0 0.0
  outer loop
    vertex 1508.399856791687 148.50001830875274 559.028145741014
    vertex 1502.399856791687 148.50001830875274 556.0281457410139
    vertex 1508.399856791687 148.50001830875274 558.2781457410139
  endloop
endfacet
facet normal -0.0 -1.0 0.0
  outer loop
    vertex 1508.399856791687 148.50001830875274 558.2781457410139
    vertex 1502.399856791687 148.50001830875274 556.0281457410139
    vertex 1516.3986541861786 148.50001830875274 558.2781457410139
  endloop
endfacet
facet normal -0.0 -1.0 0.0
  outer loop
    vertex 1516.3986541861786 148.50001830875274 558.2781457410139
    vertex 1522.399856791687 148.50001830875274 559.028145741014
    vertex 1516.3986541861786 148.50001830875274 559.028145741014
  endloop
endfacet
facet normal -0.0 -1.0 0.0
  outer loop
    vertex 1522.399856791687 148.50001830875274 559.028145741014
    vertex 1516.3986541861786 148.50001830875274 558.2781457410139
    vertex 1522.399856791687 148.50001830875274 556.0281457410139
  endloop
endfacet
facet normal -0.0 -1.0 0.0
  outer loop
    vertex 1522.399856791687 148.50001830875274 556.0281457410139
    vertex 1516.3986541861786 148.50001830875274 558.2781457410139
    vertex 1502.399856791687 148.50001830875274 556.0281457410139
  endloop
endfacet
facet normal -5.412337245047638e-16 0.0 -1.0
  outer loop
    vertex 1522.399856791687 148.50001830875274 556.0281457410139
    vertex 1521.0419306963784 153.06002593207847 556.0281457410139
    vertex 1522.399856791687 158.50001830875277 556.0281457410139
  endloop
endfacet
facet normal -5.412337245047638e-16 0.0 -1.0
  outer loop
    vertex 1521.0419306963784 153.06002593207847 556.0281457410139
    vertex 1522.399856791687 148.50001830875274 556.0281457410139
    vertex 1520.8720999781206 152.65001830875275 556.0281457410139
  endloop
endfacet
facet normal -5.412337245047638e-16 0.0 -1.0
  outer loop
    vertex 1520.8720999781206 152.65001830875275 556.0281457410139
    vertex 1522.399856791687 148.50001830875274 556.0281457410139
    vertex 1520.601938319704 152.29793678073565 556.0281457410139
  endloop
endfacet
facet normal -5.412337245047638e-16 0.0 -1.0
  outer loop
    vertex 1520.601938319704 152.29793678073565 556.0281457410139
    vertex 1522.399856791687 148.50001830875274 556.0281457410139
    vertex 1520.2498567916869 152.02777512231924 556.0281457410139
  endloop
endfacet
facet normal -5.412337245047638e-16 0.0 -1.0
  outer loop
    vertex 1520.2498567916869 152.02777512231924 556.0281457410139
    vertex 1522.399856791687 148.50001830875274 556.0281457410139
    vertex 1519.8398491683613 151.85794440406133 556.0281457410139
  endloop
endfacet
facet normal -5.412337245047638e-16 0.0 -1.0
  outer loop
    vertex 1519.8398491683613 151.85794440406133 556.0281457410139
    vertex 1522.399856791687 148.50001830875274 556.0281457410139
    vertex 1502.399856791687 148.50001830875274 556.0281457410139
  endloop
endfacet
facet normal -5.412337245047638e-16 0.0 -1.0
  outer loop
    vertex 1522.399856791687 158.50001830875277 556.0281457410139
    vertex 1521.0419306963784 153.06002593207847 556.0281457410139
    vertex 1521.0998567916868 153.50001830875277 556.0281457410139
  endloop
endfacet
facet normal -5.412337245047638e-16 0.0 -1.0
  outer loop
    vertex 1519.8398491683613 151.85794440406133 556.0281457410139
    vertex 1502.399856791687 148.50001830875274 556.0281457410139
    vertex 1519.399856791687 151.80001830875275 556.0281457410139
  endloop
endfacet
facet normal -5.412337245047638e-16 0.0 -1.0
  outer loop
    vertex 1519.399856791687 151.80001830875275 556.0281457410139
    vertex 1502.399856791687 148.50001830875274 556.0281457410139
    vertex 1518.9598644150126 151.85794440406133 556.0281457410139
  endloop
endfacet
facet normal -5.412337245047638e-16 0.0 -1.0
  outer loop
    vertex 1518.9598644150126 151.85794440406133 556.0281457410139
    vertex 1502.399856791687 148.50001830875274 556.0281457410139
    vertex 1518.5498567916868 152.02777512231924 556.0281457410139
  endloop
endfacet
facet normal -5.412337245047638e-16 0.0 -1.0
  outer loop
    vertex 1518.5498567916868 152.02777512231924 556.0281457410139
    vertex 1502.399856791687 148.50001830875274 556.0281457410139
    vertex 1518.1977752636699 152.29793678073565 556.0281457410139
  endloop
endfacet
facet normal -5.412337245047638e-16 0.0 -1.0
  outer loop
    vertex 1518.1977752636699 152.29793678073565 556.0281457410139
    vertex 1502.399856791687 148.50001830875274 556.0281457410139
    vertex 1517.9276136052533 152.65001830875278 556.0281457410139
  endloop
endfacet
facet normal -5.412337245047638e-16 0.0 -1.0
  outer loop
    vertex 1517.9276136052533 152.65001830875278 556.0281457410139
    vertex 1502.399856791687 148.50001830875274 556.0281457410139
    vertex 1517.7577828869955 153.06002593207847 556.0281457410139
  endloop
endfacet
facet normal -5.412337245047638e-16 0.0 -1.0
  outer loop
    vertex 1517.7577828869955 153.06002593207847 556.0281457410139
    vertex 1502.399856791687 148.50001830875274 556.0281457410139
    vertex 1517.699856791687 153.50001830875277 556.0281457410139
  endloop
endfacet
facet normal -5.412337245047638e-16 0.0 -1.0
  outer loop
    vertex 1517.699856791687 153.50001830875277 556.0281457410139
    vertex 1502.399856791687 148.50001830875274 556.0281457410139
    vertex 1506.601938319704 152.29793678073565 556.0281457410139
  endloop
endfacet
facet normal -5.412337245047638e-16 0.0 -1.0
  outer loop
    vertex 1517.699856791687 153.50001830875277 556.0281457410139
    vertex 1506.601938319704 152.29793678073565 556.0281457410139
    vertex 1506.8720999781206 152.65001830875275 556.0281457410139
  endloop
endfacet
facet normal -5.412337245047638e-16 0.0 -1.0
  outer loop
    vertex 1517.699856791687 153.50001830875277 556.0281457410139
    vertex 1506.8720999781206 152.65001830875275 556.0281457410139
    vertex 1507.0419306963784 153.06002593207847 556.0281457410139
  endloop
endfacet
facet normal -5.412337245047638e-16 0.0 -1.0
  outer loop
    vertex 1517.699856791687 153.50001830875277 556.0281457410139
    vertex 1507.0419306963784 153.06002593207847 556.0281457410139
    vertex 1507.099856791687 153.50001830875277 556.0281457410139
  endloop
endfacet
facet normal -5.412337245047638e-16 0.0 -1.0
  outer loop
    vertex 1506.601938319704 152.29793678073565 556.0281457410139
    vertex 1502.399856791687 148.50001830875274 556.0281457410139
    vertex 1506.249856791687 152.02777512231924 556.0281457410139
  endloop
endfacet
facet normal -5.412337245047638e-16 0.0 -1.0
  outer loop
    vertex 1506.249856791687 152.02777512231924 556.0281457410139
    vertex 1502.399856791687 148.50001830875274 556.0281457410139
    vertex 1505.8398491683613 151.85794440406133 556.0281457410139
  endloop
endfacet
facet normal -5.412337245047638e-16 0.0 -1.0
  outer loop
    vertex 1505.8398491683613 151.85794440406133 556.0281457410139
    vertex 1502.399856791687 148.50001830875274 556.0281457410139
    vertex 1505.399856791687 151.80001830875275 556.0281457410139
  endloop
endfacet
facet normal -5.412337245047638e-16 0.0 -1.0
  outer loop
    vertex 1505.399856791687 151.80001830875275 556.0281457410139
    vertex 1502.399856791687 148.50001830875274 556.0281457410139
    vertex 1504.9598644150126 151.85794440406133 556.0281457410139
  endloop
endfacet
facet normal -5.412337245047638e-16 0.0 -1.0
  outer loop
    vertex 1504.9598644150126 151.85794440406133 556.0281457410139
    vertex 1502.399856791687 148.50001830875274 556.0281457410139
    vertex 1504.549856791687 152.02777512231924 556.0281457410139
  endloop
endfacet
facet normal -5.412337245047638e-16 0.0 -1.0
  outer loop
    vertex 1504.549856791687 152.02777512231924 556.0281457410139
    vertex 1502.399856791687 148.50001830875274 556.0281457410139
    vertex 1504.1977752636697 152.29793678073565 556.0281457410139
  endloop
endfacet
facet normal -5.412337245047638e-16 0.0 -1.0
  outer loop
    vertex 1504.1977752636697 152.29793678073565 556.0281457410139
    vertex 1502.399856791687 148.50001830875274 556.0281457410139
    vertex 1503.9276136052533 152.65001830875278 556.0281457410139
  endloop
endfacet
facet normal -5.412337245047638e-16 0.0 -1.0
  outer loop
    vertex 1503.9276136052533 152.65001830875278 556.0281457410139
    vertex 1502.399856791687 148.50001830875274 556.0281457410139
    vertex 1503.7577828869955 153.06002593207847 556.0281457410139
  endloop
endfacet
facet normal -5.412337245047638e-16 0.0 -1.0
  outer loop
    vertex 1503.7577828869955 153.06002593207847 556.0281457410139
    vertex 1502.399856791687 148.50001830875274 556.0281457410139
    vertex 1503.6998567916871 153.50001830875277 556.0281457410139
  endloop
endfacet
facet normal -5.412337245047638e-16 0.0 -1.0
  outer loop
    vertex 1522.399856791687 158.50001830875277 556.0281457410139
    vertex 1519.8398491683613 155.14209221344422 556.0281457410139
    vertex 1502.399856791687 158.50001830875277 556.0281457410139
  endloop
endfacet
facet normal -5.412337245047638e-16 0.0 -1.0
  outer loop
    vertex 1519.8398491683613 155.14209221344422 556.0281457410139
    vertex 1522.399856791687 158.50001830875277 556.0281457410139
    vertex 1520.2498567916869 154.97226149518633 556.0281457410139
  endloop
endfacet
facet normal -5.412337245047638e-16 0.0 -1.0
  outer loop
    vertex 1520.2498567916869 154.97226149518633 556.0281457410139
    vertex 1522.399856791687 158.50001830875277 556.0281457410139
    vertex 1520.601938319704 154.70209983676992 556.0281457410139
  endloop
endfacet
facet normal -5.412337245047638e-16 0.0 -1.0
  outer loop
    vertex 1520.601938319704 154.70209983676992 556.0281457410139
    vertex 1522.399856791687 158.50001830875277 556.0281457410139
    vertex 1520.8720999781206 154.35001830875277 556.0281457410139
  endloop
endfacet
facet normal -5.412337245047638e-16 0.0 -1.0
  outer loop
    vertex 1520.8720999781206 154.35001830875277 556.0281457410139
    vertex 1522.399856791687 158.50001830875277 556.0281457410139
    vertex 1521.0419306963784 153.9400106854271 556.0281457410139
  endloop
endfacet
facet normal -5.412337245047638e-16 0.0 -1.0
  outer loop
    vertex 1521.0419306963784 153.9400106854271 556.0281457410139
    vertex 1522.399856791687 158.50001830875277 556.0281457410139
    vertex 1521.0998567916868 153.50001830875277 556.0281457410139
  endloop
endfacet
facet normal -5.412337245047638e-16 0.0 -1.0
  outer loop
    vertex 1502.399856791687 158.50001830875277 556.0281457410139
    vertex 1519.8398491683613 155.14209221344422 556.0281457410139
    vertex 1519.399856791687 155.2000183087528 556.0281457410139
  endloop
endfacet
facet normal -5.412337245047638e-16 0.0 -1.0
  outer loop
    vertex 1502.399856791687 158.50001830875277 556.0281457410139
    vertex 1519.399856791687 155.2000183087528 556.0281457410139
    vertex 1518.9598644150126 155.14209221344422 556.0281457410139
  endloop
endfacet
facet normal -5.412337245047638e-16 0.0 -1.0
  outer loop
    vertex 1502.399856791687 158.50001830875277 556.0281457410139
    vertex 1518.9598644150126 155.14209221344422 556.0281457410139
    vertex 1518.5498567916868 154.97226149518633 556.0281457410139
  endloop
endfacet
facet normal -5.412337245047638e-16 0.0 -1.0
  outer loop
    vertex 1502.399856791687 158.50001830875277 556.0281457410139
    vertex 1518.5498567916868 154.97226149518633 556.0281457410139
    vertex 1518.1977752636699 154.70209983676992 556.0281457410139
  endloop
endfacet
facet normal -5.412337245047638e-16 0.0 -1.0
  outer loop
    vertex 1502.399856791687 158.50001830875277 556.0281457410139
    vertex 1518.1977752636699 154.70209983676992 556.0281457410139
    vertex 1517.9276136052533 154.35001830875282 556.0281457410139
  endloop
endfacet
facet normal -5.412337245047638e-16 0.0 -1.0
  outer loop
    vertex 1502.399856791687 158.50001830875277 556.0281457410139
    vertex 1517.9276136052533 154.35001830875282 556.0281457410139
    vertex 1517.7577828869955 153.9400106854271 556.0281457410139
  endloop
endfacet
facet normal -5.412337245047638e-16 0.0 -1.0
  outer loop
    vertex 1502.399856791687 158.50001830875277 556.0281457410139
    vertex 1517.7577828869955 153.9400106854271 556.0281457410139
    vertex 1517.699856791687 153.50001830875277 556.0281457410139
  endloop
endfacet
facet normal -5.412337245047638e-16 0.0 -1.0
  outer loop
    vertex 1502.399856791687 158.50001830875277 556.0281457410139
    vertex 1517.699856791687 153.50001830875277 556.0281457410139
    vertex 1506.601938319704 154.70209983676992 556.0281457410139
  endloop
endfacet
facet normal -5.412337245047638e-16 0.0 -1.0
  outer loop
    vertex 1506.601938319704 154.70209983676992 556.0281457410139
    vertex 1517.699856791687 153.50001830875277 556.0281457410139
    vertex 1506.8720999781206 154.35001830875277 556.0281457410139
  endloop
endfacet
facet normal -5.412337245047638e-16 0.0 -1.0
  outer loop
    vertex 1506.8720999781206 154.35001830875277 556.0281457410139
    vertex 1517.699856791687 153.50001830875277 556.0281457410139
    vertex 1507.0419306963784 153.9400106854271 556.0281457410139
  endloop
endfacet
facet normal -5.412337245047638e-16 0.0 -1.0
  outer loop
    vertex 1507.0419306963784 153.9400106854271 556.0281457410139
    vertex 1517.699856791687 153.50001830875277 556.0281457410139
    vertex 1507.099856791687 153.50001830875277 556.0281457410139
  endloop
endfacet
facet normal -5.412337245047638e-16 0.0 -1.0
  outer loop
    vertex 1502.399856791687 158.50001830875277 556.0281457410139
    vertex 1506.601938319704 154.70209983676992 556.0281457410139
    vertex 1506.249856791687 154.97226149518633 556.0281457410139
  endloop
endfacet
facet normal -5.412337245047638e-16 0.0 -1.0
  outer loop
    vertex 1502.399856791687 158.50001830875277 556.0281457410139
    vertex 1506.249856791687 154.97226149518633 556.0281457410139
    vertex 1505.8398491683613 155.14209221344422 556.0281457410139
  endloop
endfacet
facet normal -5.412337245047638e-16 0.0 -1.0
  outer loop
    vertex 1502.399856791687 158.50001830875277 556.0281457410139
    vertex 1505.8398491683613 155.14209221344422 556.0281457410139
    vertex 1505.399856791687 155.2000183087528 556.0281457410139
  endloop
endfacet
facet normal -5.412337245047638e-16 0.0 -1.0
  outer loop
    vertex 1502.399856791687 158.50001830875277 556.0281457410139
    vertex 1505.399856791687 155.2000183087528 556.0281457410139
    vertex 1504.9598644150126 155.14209221344422 556.0281457410139
  endloop
endfacet
facet normal -5.412337245047638e-16 0.0 -1.0
  outer loop
    vertex 1502.399856791687 158.50001830875277 556.0281457410139
    vertex 1504.9598644150126 155.14209221344422 556.0281457410139
    vertex 1504.549856791687 154.97226149518633 556.0281457410139
  endloop
endfacet
facet normal -5.412337245047638e-16 0.0 -1.0
  outer loop
    vertex 1502.399856791687 158.50001830875277 556.0281457410139
    vertex 1504.549856791687 154.97226149518633 556.0281457410139
    vertex 1504.1977752636697 154.70209983676992 556.0281457410139
  endloop
endfacet
facet normal -5.412337245047638e-16 0.0 -1.0
  outer loop
    vertex 1502.399856791687 158.50001830875277 556.0281457410139
    vertex 1504.1977752636697 154.70209983676992 556.0281457410139
    vertex 1503.9276136052533 154.35001830875282 556.0281457410139
  endloop
endfacet
facet normal -5.412337245047638e-16 0.0 -1.0
  outer loop
    vertex 1502.399856791687 158.50001830875277 556.0281457410139
    vertex 1503.9276136052533 154.35001830875282 556.0281457410139
    vertex 1503.7577828869955 153.9400106854271 556.0281457410139
  endloop
endfacet
facet normal -5.412337245047638e-16 0.0 -1.0
  outer loop
    vertex 1502.399856791687 158.50001830875277 556.0281457410139
    vertex 1503.7577828869955 153.9400106854271 556.0281457410139
    vertex 1503.6998567916871 153.50001830875277 556.0281457410139
  endloop
endfacet
facet normal -5.412337245047638e-16 0.0 -1.0
  outer loop
    vertex 1502.399856791687 158.50001830875277 556.0281457410139
    vertex 1503.6998567916871 153.50001830875277 556.0281457410139
    vertex 1502.399856791687 148.50001830875274 556.0281457410139
  endloop
endfacet
facet normal 0.0 1.0 0.0
  outer loop
    vertex 1522.399856791687 158.50001830875277 556.0281457410139
    vertex 1516.3986541861786 158.50001830875277 559.028145741014
    vertex 1522.399856791687 158.50001830875277 559.028145741014
  endloop
endfacet
facet normal 0.0 1.0 0.0
  outer loop
    vertex 1516.3986541861786 158.50001830875277 559.028145741014
    vertex 1522.399856791687 158.50001830875277 556.0281457410139
    vertex 1516.3986541861786 158.50001830875277 558.2781457410139
  endloop
endfacet
facet normal 0.0 1.0 0.0
  outer loop
    vertex 1516.3986541861786 158.50001830875277 558.2781457410139
    vertex 1522.399856791687 158.50001830875277 556.0281457410139
    vertex 1508.399856791687 158.50001830875277 558.2781457410139
  endloop
endfacet
facet normal 0.0 1.0 0.0
  outer loop
    vertex 1508.399856791687 158.50001830875277 558.2781457410139
    vertex 1502.399856791687 158.50001830875277 559.028145741014
    vertex 1508.399856791687 158.50001830875277 559.028145741014
  endloop
endfacet
facet normal 0.0 1.0 0.0
  outer loop
    vertex 1502.399856791687 158.50001830875277 559.028145741014
    vertex 1508.399856791687 158.50001830875277 558.2781457410139
    vertex 1502.399856791687 158.50001830875277 556.0281457410139
  endloop
endfacet
facet normal 0.0 1.0 0.0
  outer loop
    vertex 1502.399856791687 158.50001830875277 556.0281457410139
    vertex 1508.399856791687 158.50001830875277 558.2781457410139
    vertex 1522.399856791687 158.50001830875277 556.0281457410139
  endloop
endfacet
facet normal -1.0 0.0 5.412337245047638e-16
  outer loop
    vertex 1502.399856791687 158.50001830875277 559.028145741014
    vertex 1502.399856791687 148.50001830875274 556.0281457410139
    vertex 1502.399856791687 148.50001830875274 559.028145741014
  endloop
endfacet
facet normal -1.0 0.0 5.412337245047638e-16
  outer loop
    vertex 1502.399856791687 148.50001830875274 556.0281457410139
    vertex 1502.399856791687 158.50001830875277 559.028145741014
    vertex 1502.399856791687 158.50001830875277 556.0281457410139
  endloop
endfacet
facet normal 5.412337245047638e-16 0.0 1.0
  outer loop
    vertex 1508.399856791687 158.50001830875277 559.028145741014
    vertex 1507.0419306963784 153.9400106854271 559.0281457410139
    vertex 1508.399856791687 148.50001830875274 559.028145741014
  endloop
endfacet
facet normal 5.412337245047638e-16 0.0 1.0
  outer loop
    vertex 1507.0419306963784 153.9400106854271 559.0281457410139
    vertex 1508.399856791687 158.50001830875277 559.028145741014
    vertex 1506.8720999781206 154.35001830875277 559.0281457410139
  endloop
endfacet
facet normal 5.412337245047638e-16 0.0 1.0
  outer loop
    vertex 1506.8720999781206 154.35001830875277 559.0281457410139
    vertex 1508.399856791687 158.50001830875277 559.028145741014
    vertex 1506.601938319704 154.70209983676992 559.0281457410139
  endloop
endfacet
facet normal 5.412337245047638e-16 0.0 1.0
  outer loop
    vertex 1506.601938319704 154.70209983676992 559.0281457410139
    vertex 1508.399856791687 158.50001830875277 559.028145741014
    vertex 1502.399856791687 158.50001830875277 559.028145741014
  endloop
endfacet
facet normal 5.412337245047638e-16 0.0 1.0
  outer loop
    vertex 1508.399856791687 148.50001830875274 559.028145741014
    vertex 1507.0419306963784 153.9400106854271 559.0281457410139
    vertex 1507.099856791687 153.50001830875277 559.0281457410139
  endloop
endfacet
facet normal 5.412337245047638e-16 0.0 1.0
  outer loop
    vertex 1506.601938319704 154.70209983676992 559.0281457410139
    vertex 1502.399856791687 158.50001830875277 559.028145741014
    vertex 1506.249856791687 154.97226149518633 559.0281457410139
  endloop
endfacet
facet normal 5.412337245047638e-16 0.0 1.0
  outer loop
    vertex 1506.249856791687 154.97226149518633 559.0281457410139
    vertex 1502.399856791687 158.50001830875277 559.028145741014
    vertex 1505.8398491683613 155.14209221344422 559.0281457410139
  endloop
endfacet
facet normal 5.412337245047638e-16 0.0 1.0
  outer loop
    vertex 1505.8398491683613 155.14209221344422 559.0281457410139
    vertex 1502.399856791687 158.50001830875277 559.028145741014
    vertex 1505.399856791687 155.2000183087528 559.0281457410139
  endloop
endfacet
facet normal 5.412337245047638e-16 0.0 1.0
  outer loop
    vertex 1505.399856791687 155.2000183087528 559.0281457410139
    vertex 1502.399856791687 158.50001830875277 559.028145741014
    vertex 1504.9598644150126 155.14209221344422 559.0281457410139
  endloop
endfacet
facet normal 5.412337245047638e-16 0.0 1.0
  outer loop
    vertex 1504.9598644150126 155.14209221344422 559.0281457410139
    vertex 1502.399856791687 158.50001830875277 559.028145741014
    vertex 1504.549856791687 154.97226149518633 559.0281457410139
  endloop
endfacet
facet normal 5.412337245047638e-16 0.0 1.0
  outer loop
    vertex 1504.549856791687 154.97226149518633 559.0281457410139
    vertex 1502.399856791687 158.50001830875277 559.028145741014
    vertex 1504.1977752636697 154.70209983676992 559.0281457410139
  endloop
endfacet
facet normal 5.412337245047638e-16 0.0 1.0
  outer loop
    vertex 1504.1977752636697 154.70209983676992 559.0281457410139
    vertex 1502.399856791687 158.50001830875277 559.028145741014
    vertex 1503.9276136052533 154.35001830875282 559.0281457410139
  endloop
endfacet
facet normal 5.412337245047638e-16 0.0 1.0
  outer loop
    vertex 1503.9276136052533 154.35001830875282 559.0281457410139
    vertex 1502.399856791687 158.50001830875277 559.028145741014
    vertex 1503.7577828869955 153.9400106854271 559.0281457410139
  endloop
endfacet
facet normal 5.412337245047638e-16 0.0 1.0
  outer loop
    vertex 1503.7577828869955 153.9400106854271 559.0281457410139
    vertex 1502.399856791687 158.50001830875277 559.028145741014
    vertex 1503.6998567916871 153.50001830875277 559.0281457410139
  endloop
endfacet
facet normal 5.412337245047638e-16 0.0 1.0
  outer loop
    vertex 1508.399856791687 148.50001830875274 559.028145741014
    vertex 1506.601938319704 152.29793678073565 559.0281457410139
    vertex 1502.399856791687 148.50001830875274 559.028145741014
  endloop
endfacet
facet normal 5.412337245047638e-16 0.0 1.0
  outer loop
    vertex 1506.601938319704 152.29793678073565 559.0281457410139
    vertex 1508.399856791687 148.50001830875274 559.028145741014
    vertex 1506.8720999781206 152.65001830875275 559.0281457410139
  endloop
endfacet
facet normal 5.412337245047638e-16 0.0 1.0
  outer loop
    vertex 1506.8720999781206 152.65001830875275 559.0281457410139
    vertex 1508.399856791687 148.50001830875274 559.028145741014
    vertex 1507.0419306963784 153.06002593207847 559.0281457410139
  endloop
endfacet
facet normal 5.412337245047638e-16 0.0 1.0
  outer loop
    vertex 1507.0419306963784 153.06002593207847 559.0281457410139
    vertex 1508.399856791687 148.50001830875274 559.028145741014
    vertex 1507.099856791687 153.50001830875277 559.0281457410139
  endloop
endfacet
facet normal 5.412337245047638e-16 0.0 1.0
  outer loop
    vertex 1502.399856791687 148.50001830875274 559.028145741014
    vertex 1506.601938319704 152.29793678073565 559.0281457410139
    vertex 1506.249856791687 152.02777512231924 559.0281457410139
  endloop
endfacet
facet normal 5.412337245047638e-16 0.0 1.0
  outer loop
    vertex 1502.399856791687 148.50001830875274 559.028145741014
    vertex 1506.249856791687 152.02777512231924 559.0281457410139
    vertex 1505.8398491683613 151.85794440406133 559.0281457410139
  endloop
endfacet
facet normal 5.412337245047638e-16 0.0 1.0
  outer loop
    vertex 1502.399856791687 148.50001830875274 559.028145741014
    vertex 1505.8398491683613 151.85794440406133 559.0281457410139
    vertex 1505.399856791687 151.80001830875275 559.0281457410139
  endloop
endfacet
facet normal 5.412337245047638e-16 0.0 1.0
  outer loop
    vertex 1502.399856791687 148.50001830875274 559.028145741014
    vertex 1505.399856791687 151.80001830875275 559.0281457410139
    vertex 1504.9598644150126 151.85794440406133 559.0281457410139
  endloop
endfacet
facet normal 5.412337245047638e-16 0.0 1.0
  outer loop
    vertex 1502.399856791687 148.50001830875274 559.028145741014
    vertex 1504.9598644150126 151.85794440406133 559.0281457410139
    vertex 1504.549856791687 152.02777512231924 559.0281457410139
  endloop
endfacet
facet normal 5.412337245047638e-16 0.0 1.0
  outer loop
    vertex 1502.399856791687 148.50001830875274 559.028145741014
    vertex 1504.549856791687 152.02777512231924 559.0281457410139
    vertex 1504.1977752636697 152.29793678073565 559.0281457410139
  endloop
endfacet
facet normal 5.412337245047638e-16 0.0 1.0
  outer loop
    vertex 1502.399856791687 148.50001830875274 559.028145741014
    vertex 1504.1977752636697 152.29793678073565 559.0281457410139
    vertex 1503.9276136052533 152.65001830875278 559.0281457410139
  endloop
endfacet
facet normal 5.412337245047638e-16 0.0 1.0
  outer loop
    vertex 1502.399856791687 148.50001830875274 559.028145741014
    vertex 1503.9276136052533 152.65001830875278 559.0281457410139
    vertex 1503.7577828869955 153.06002593207847 559.0281457410139
  endloop
endfacet
facet normal 5.412337245047638e-16 0.0 1.0
  outer loop
    vertex 1502.399856791687 148.50001830875274 559.028145741014
    vertex 1503.7577828869955 153.06002593207847 559.0281457410139
    vertex 1503.6998567916871 153.50001830875277 559.0281457410139
  endloop
endfacet
facet normal 5.412337245047638e-16 0.0 1.0
  outer loop
    vertex 1502.399856791687 148.50001830875274 559.028145741014
    vertex 1503.6998567916871 153.50001830875277 559.0281457410139
    vertex 1502.399856791687 158.50001830875277 559.028145741014
  endloop
endfacet
facet normal 1.0 0.0 -5.412337245047638e-16
  outer loop
    vertex 1522.399856791687 158.50001830875277 556.0281457410139
    vertex 1522.399856791687 148.50001830875274 559.028145741014
    vertex 1522.399856791687 148.50001830875274 556.0281457410139
  endloop
endfacet
facet normal 1.0 0.0 -5.412337245047638e-16
  outer loop
    vertex 1522.399856791687 148.50001830875274 559.028145741014
    vertex 1522.399856791687 158.50001830875277 556.0281457410139
    vertex 1522.399856791687 158.50001830875277 559.028145741014
  endloop
endfacet
facet normal 5.412337245047638e-16 0.0 1.0
  outer loop
    vertex 1522.399856791687 158.50001830875277 559.028145741014
    vertex 1521.0419306963784 153.9400106854271 559.0281457410139
    vertex 1522.399856791687 148.50001830875274 559.028145741014
  endloop
endfacet
facet normal 5.412337245047638e-16 0.0 1.0
  outer loop
    vertex 1521.0419306963784 153.9400106854271 559.0281457410139
    vertex 1522.399856791687 158.50001830875277 559.028145741014
    vertex 1520.8720999781206 154.35001830875277 559.0281457410139
  endloop
endfacet
facet normal 5.412337245047638e-16 0.0 1.0
  outer loop
    vertex 1520.8720999781206 154.35001830875277 559.0281457410139
    vertex 1522.399856791687 158.50001830875277 559.028145741014
    vertex 1520.601938319704 154.70209983676992 559.0281457410139
  endloop
endfacet
facet normal 5.412337245047638e-16 0.0 1.0
  outer loop
    vertex 1520.601938319704 154.70209983676992 559.0281457410139
    vertex 1522.399856791687 158.50001830875277 559.028145741014
    vertex 1516.3986541861786 158.50001830875277 559.028145741014
  endloop
endfacet
facet normal 5.412337245047638e-16 0.0 1.0
  outer loop
    vertex 1522.399856791687 148.50001830875274 559.028145741014
    vertex 1521.0419306963784 153.9400106854271 559.0281457410139
    vertex 1521.0998567916868 153.50001830875277 559.0281457410139
  endloop
endfacet
facet normal 5.412337245047638e-16 0.0 1.0
  outer loop
    vertex 1520.601938319704 154.70209983676992 559.0281457410139
    vertex 1516.3986541861786 158.50001830875277 559.028145741014
    vertex 1520.2498567916869 154.97226149518633 559.0281457410139
  endloop
endfacet
facet normal 5.412337245047638e-16 0.0 1.0
  outer loop
    vertex 1520.2498567916869 154.97226149518633 559.0281457410139
    vertex 1516.3986541861786 158.50001830875277 559.028145741014
    vertex 1519.8398491683613 155.14209221344422 559.0281457410139
  endloop
endfacet
facet normal 5.412337245047638e-16 0.0 1.0
  outer loop
    vertex 1519.8398491683613 155.14209221344422 559.0281457410139
    vertex 1516.3986541861786 158.50001830875277 559.028145741014
    vertex 1519.399856791687 155.2000183087528 559.0281457410139
  endloop
endfacet
facet normal 5.412337245047638e-16 0.0 1.0
  outer loop
    vertex 1519.399856791687 155.2000183087528 559.0281457410139
    vertex 1516.3986541861786 158.50001830875277 559.028145741014
    vertex 1518.9598644150126 155.14209221344422 559.0281457410139
  endloop
endfacet
facet normal 5.412337245047638e-16 0.0 1.0
  outer loop
    vertex 1518.9598644150126 155.14209221344422 559.0281457410139
    vertex 1516.3986541861786 158.50001830875277 559.028145741014
    vertex 1518.5498567916868 154.97226149518633 559.0281457410139
  endloop
endfacet
facet normal 5.412337245047638e-16 0.0 1.0
  outer loop
    vertex 1518.5498567916868 154.97226149518633 559.0281457410139
    vertex 1516.3986541861786 158.50001830875277 559.028145741014
    vertex 1518.1977752636699 154.70209983676992 559.0281457410139
  endloop
endfacet
facet normal 5.412337245047638e-16 0.0 1.0
  outer loop
    vertex 1518.1977752636699 154.70209983676992 559.0281457410139
    vertex 1516.3986541861786 158.50001830875277 559.028145741014
    vertex 1517.9276136052533 154.35001830875282 559.0281457410139
  endloop
endfacet
facet normal 5.412337245047638e-16 0.0 1.0
  outer loop
    vertex 1517.9276136052533 154.35001830875282 559.0281457410139
    vertex 1516.3986541861786 158.50001830875277 559.028145741014
    vertex 1517.7577828869955 153.9400106854271 559.0281457410139
  endloop
endfacet
facet normal 5.412337245047638e-16 0.0 1.0
  outer loop
    vertex 1517.7577828869955 153.9400106854271 559.0281457410139
    vertex 1516.3986541861786 158.50001830875277 559.028145741014
    vertex 1517.699856791687 153.50001830875277 559.0281457410139
  endloop
endfacet
facet normal 5.412337245047638e-16 0.0 1.0
  outer loop
    vertex 1522.399856791687 148.50001830875274 559.028145741014
    vertex 1520.601938319704 152.29793678073565 559.0281457410139
    vertex 1516.3986541861786 148.50001830875274 559.028145741014
  endloop
endfacet
facet normal 5.412337245047638e-16 0.0 1.0
  outer loop
    vertex 1520.601938319704 152.29793678073565 559.0281457410139
    vertex 1522.399856791687 148.50001830875274 559.028145741014
    vertex 1520.8720999781206 152.65001830875275 559.0281457410139
  endloop
endfacet
facet normal 5.412337245047638e-16 0.0 1.0
  outer loop
    vertex 1520.8720999781206 152.65001830875275 559.0281457410139
    vertex 1522.399856791687 148.50001830875274 559.028145741014
    vertex 1521.0419306963784 153.06002593207847 559.0281457410139
  endloop
endfacet
facet normal 5.412337245047638e-16 0.0 1.0
  outer loop
    vertex 1521.0419306963784 153.06002593207847 559.0281457410139
    vertex 1522.399856791687 148.50001830875274 559.028145741014
    vertex 1521.0998567916868 153.50001830875277 559.0281457410139
  endloop
endfacet
facet normal 5.412337245047638e-16 0.0 1.0
  outer loop
    vertex 1516.3986541861786 148.50001830875274 559.028145741014
    vertex 1520.601938319704 152.29793678073565 559.0281457410139
    vertex 1520.2498567916869 152.02777512231924 559.0281457410139
  endloop
endfacet
facet normal 5.412337245047638e-16 0.0 1.0
  outer loop
    vertex 1516.3986541861786 148.50001830875274 559.028145741014
    vertex 1520.2498567916869 152.02777512231924 559.0281457410139
    vertex 1519.8398491683613 151.85794440406133 559.0281457410139
  endloop
endfacet
facet normal 5.412337245047638e-16 0.0 1.0
  outer loop
    vertex 1516.3986541861786 148.50001830875274 559.028145741014
    vertex 1519.8398491683613 151.85794440406133 559.0281457410139
    vertex 1519.399856791687 151.80001830875275 559.0281457410139
  endloop
endfacet
facet normal 5.412337245047638e-16 0.0 1.0
  outer loop
    vertex 1516.3986541861786 148.50001830875274 559.028145741014
    vertex 1519.399856791687 151.80001830875275 559.0281457410139
    vertex 1518.9598644150126 151.85794440406133 559.0281457410139
  endloop
endfacet
facet normal 5.412337245047638e-16 0.0 1.0
  outer loop
    vertex 1516.3986541861786 148.50001830875274 559.028145741014
    vertex 1518.9598644150126 151.85794440406133 559.0281457410139
    vertex 1518.5498567916868 152.02777512231924 559.0281457410139
  endloop
endfacet
facet normal 5.412337245047638e-16 0.0 1.0
  outer loop
    vertex 1516.3986541861786 148.50001830875274 559.028145741014
    vertex 1518.5498567916868 152.02777512231924 559.0281457410139
    vertex 1518.1977752636699 152.29793678073565 559.0281457410139
  endloop
endfacet
facet normal 5.412337245047638e-16 0.0 1.0
  outer loop
    vertex 1516.3986541861786 148.50001830875274 559.028145741014
    vertex 1518.1977752636699 152.29793678073565 559.0281457410139
    vertex 1517.9276136052533 152.65001830875278 559.0281457410139
  endloop
endfacet
facet normal 5.412337245047638e-16 0.0 1.0
  outer loop
    vertex 1516.3986541861786 148.50001830875274 559.028145741014
    vertex 1517.9276136052533 152.65001830875278 559.0281457410139
    vertex 1517.7577828869955 153.06002593207847 559.0281457410139
  endloop
endfacet
facet normal 5.412337245047638e-16 0.0 1.0
  outer loop
    vertex 1516.3986541861786 148.50001830875274 559.028145741014
    vertex 1517.7577828869955 153.06002593207847 559.0281457410139
    vertex 1517.699856791687 153.50001830875277 559.0281457410139
  endloop
endfacet
facet normal 5.412337245047638e-16 0.0 1.0
  outer loop
    vertex 1516.3986541861786 148.50001830875274 559.028145741014
    vertex 1517.699856791687 153.50001830875277 559.0281457410139
    vertex 1516.3986541861786 158.50001830875277 559.028145741014
  endloop
endfacet
facet normal 5.412337245047638e-16 0.0 1.0
  outer loop
    vertex 1508.399856791687 158.50001830875277 558.2781457410139
    vertex 1516.3986541861786 148.50001830875274 558.2781457410139
    vertex 1516.3986541861786 158.50001830875277 558.2781457410139
  endloop
endfacet
facet normal 5.412337245047638e-16 0.0 1.0
  outer loop
    vertex 1516.3986541861786 148.50001830875274 558.2781457410139
    vertex 1508.399856791687 158.50001830875277 558.2781457410139
    vertex 1508.399856791687 148.50001830875274 558.2781457410139
  endloop
endfacet
facet normal -1.0 0.0 5.412337245047638e-16
  outer loop
    vertex 1516.3986541861786 158.50001830875277 559.028145741014
    vertex 1516.3986541861786 148.50001830875274 558.2781457410139
    vertex 1516.3986541861786 148.50001830875274 559.028145741014
  endloop
endfacet
facet normal -1.0 0.0 5.412337245047638e-16
  outer loop
    vertex 1516.3986541861786 148.50001830875274 558.2781457410139
    vertex 1516.3986541861786 158.50001830875277 559.028145741014
    vertex 1516.3986541861786 158.50001830875277 558.2781457410139
  endloop
endfacet
facet normal 1.0 -0.0 -5.412337245047638e-16
  outer loop
    vertex 1508.399856791687 158.50001830875277 558.2781457410139
    vertex 1508.399856791687 148.50001830875274 559.028145741014
    vertex 1508.399856791687 148.50001830875274 558.2781457410139
  endloop
endfacet
facet normal 1.0 -0.0 -5.412337245047638e-16
  outer loop
    vertex 1508.399856791687 148.50001830875274 559.028145741014
    vertex 1508.399856791687 158.50001830875277 558.2781457410139
    vertex 1508.399856791687 158.50001830875277 559.028145741014
  endloop
endfacet
facet normal 0.13052619222002637 -0.9914448613738139 -7.06451771606696e-17
  outer loop
    vertex 1518.9598644150126 155.14209221344422 556.0281457410139
    vertex 1519.399856791687 155.2000183087528 559.0281457410139
    vertex 1518.9598644150126 155.14209221344422 559.0281457410139
  endloop
endfacet
facet normal 0.13052619222002637 -0.9914448613738139 -7.06451771606696e-17
  outer loop
    vertex 1519.399856791687 155.2000183087528 559.0281457410139
    vertex 1518.9598644150126 155.14209221344422 556.0281457410139
    vertex 1519.399856791687 155.2000183087528 556.0281457410139
  endloop
endfacet
facet normal -0.13052619222002637 -0.9914448613738139 7.06451771606696e-17
  outer loop
    vertex 1519.399856791687 155.2000183087528 556.0281457410139
    vertex 1519.8398491683613 155.14209221344422 559.0281457410139
    vertex 1519.399856791687 155.2000183087528 559.0281457410139
  endloop
endfacet
facet normal -0.13052619222002637 -0.9914448613738139 7.06451771606696e-17
  outer loop
    vertex 1519.8398491683613 155.14209221344422 559.0281457410139
    vertex 1519.399856791687 155.2000183087528 556.0281457410139
    vertex 1519.8398491683613 155.14209221344422 556.0281457410139
  endloop
endfacet
facet normal -0.3826834323651525 -0.9238795325112609 2.0712117940525837e-16
  outer loop
    vertex 1519.8398491683613 155.14209221344422 556.0281457410139
    vertex 1520.2498567916869 154.97226149518633 559.0281457410139
    vertex 1519.8398491683613 155.14209221344422 559.0281457410139
  endloop
endfacet
facet normal -0.3826834323651525 -0.9238795325112609 2.0712117940525837e-16
  outer loop
    vertex 1520.2498567916869 154.97226149518633 559.0281457410139
    vertex 1519.8398491683613 155.14209221344422 556.0281457410139
    vertex 1520.2498567916869 154.97226149518633 556.0281457410139
  endloop
endfacet
facet normal -0.6087614290087003 -0.7933533402912507 3.2948221555722125e-16
  outer loop
    vertex 1520.2498567916869 154.97226149518633 556.0281457410139
    vertex 1520.601938319704 154.70209983676992 559.0281457410139
    vertex 1520.2498567916869 154.97226149518633 559.0281457410139
  endloop
endfacet
facet normal -0.6087614290087003 -0.7933533402912507 3.2948221555722125e-16
  outer loop
    vertex 1520.601938319704 154.70209983676992 559.0281457410139
    vertex 1520.2498567916869 154.97226149518633 556.0281457410139
    vertex 1520.601938319704 154.70209983676992 556.0281457410139
  endloop
endfacet
facet normal -0.7933533402912465 -0.6087614290087059 4.2938958321412663e-16
  outer loop
    vertex 1520.601938319704 154.70209983676992 559.0281457410139
    vertex 1520.8720999781206 154.35001830875277 556.0281457410139
    vertex 1520.8720999781206 154.35001830875277 559.0281457410139
  endloop
endfacet
facet normal -0.7933533402912465 -0.6087614290087059 4.2938958321412663e-16
  outer loop
    vertex 1520.8720999781206 154.35001830875277 556.0281457410139
    vertex 1520.601938319704 154.70209983676992 559.0281457410139
    vertex 1520.601938319704 154.70209983676992 556.0281457410139
  endloop
endfacet
facet normal -0.9238795325112749 -0.38268343236511887 5.000347603747973e-16
  outer loop
    vertex 1520.8720999781206 154.35001830875277 559.0281457410139
    vertex 1521.0419306963784 153.9400106854271 556.0281457410139
    vertex 1521.0419306963784 153.9400106854271 559.0281457410139
  endloop
endfacet
facet normal -0.9238795325112749 -0.38268343236511887 5.000347603747973e-16
  outer loop
    vertex 1521.0419306963784 153.9400106854271 556.0281457410139
    vertex 1520.8720999781206 154.35001830875277 559.0281457410139
    vertex 1520.8720999781206 154.35001830875277 556.0281457410139
  endloop
endfacet
facet normal -0.9914448613738113 -0.1305261922200464 5.366033949624571e-16
  outer loop
    vertex 1521.0419306963784 153.9400106854271 559.0281457410139
    vertex 1521.0998567916868 153.50001830875277 556.0281457410139
    vertex 1521.0998567916868 153.50001830875277 559.0281457410139
  endloop
endfacet
facet normal -0.9914448613738113 -0.1305261922200464 5.366033949624571e-16
  outer loop
    vertex 1521.0998567916868 153.50001830875277 556.0281457410139
    vertex 1521.0419306963784 153.9400106854271 559.0281457410139
    vertex 1521.0419306963784 153.9400106854271 556.0281457410139
  endloop
endfacet
facet normal -0.9914448613738113 0.1305261922200464 5.366033949624571e-16
  outer loop
    vertex 1521.0998567916868 153.50001830875277 559.0281457410139
    vertex 1521.0419306963784 153.06002593207847 556.0281457410139
    vertex 1521.0419306963784 153.06002593207847 559.0281457410139
  endloop
endfacet
facet normal -0.9914448613738113 0.1305261922200464 5.366033949624571e-16
  outer loop
    vertex 1521.0419306963784 153.06002593207847 556.0281457410139
    vertex 1521.0998567916868 153.50001830875277 559.0281457410139
    vertex 1521.0998567916868 153.50001830875277 556.0281457410139
  endloop
endfacet
facet normal -0.9238795325112896 0.3826834323650829 5.000347603748053e-16
  outer loop
    vertex 1521.0419306963784 153.06002593207847 559.0281457410139
    vertex 1520.8720999781206 152.65001830875275 556.0281457410139
    vertex 1520.8720999781206 152.65001830875275 559.0281457410139
  endloop
endfacet
facet normal -0.9238795325112896 0.3826834323650829 5.000347603748053e-16
  outer loop
    vertex 1520.8720999781206 152.65001830875275 556.0281457410139
    vertex 1521.0419306963784 153.06002593207847 559.0281457410139
    vertex 1521.0419306963784 153.06002593207847 556.0281457410139
  endloop
endfacet
facet normal -0.793353340291209 0.6087614290087551 4.293895832141063e-16
  outer loop
    vertex 1520.8720999781206 152.65001830875275 559.0281457410139
    vertex 1520.601938319704 152.29793678073565 556.0281457410139
    vertex 1520.601938319704 152.29793678073565 559.0281457410139
  endloop
endfacet
facet normal -0.793353340291209 0.6087614290087551 4.293895832141063e-16
  outer loop
    vertex 1520.601938319704 152.29793678073565 556.0281457410139
    vertex 1520.8720999781206 152.65001830875275 559.0281457410139
    vertex 1520.8720999781206 152.65001830875275 556.0281457410139
  endloop
endfacet
facet normal -0.6087614290087003 0.7933533402912507 3.2948221555722125e-16
  outer loop
    vertex 1520.601938319704 152.29793678073565 556.0281457410139
    vertex 1520.2498567916869 152.02777512231924 559.0281457410139
    vertex 1520.601938319704 152.29793678073565 559.0281457410139
  endloop
endfacet
facet normal -0.6087614290087003 0.7933533402912507 3.2948221555722125e-16
  outer loop
    vertex 1520.2498567916869 152.02777512231924 559.0281457410139
    vertex 1520.601938319704 152.29793678073565 556.0281457410139
    vertex 1520.2498567916869 152.02777512231924 556.0281457410139
  endloop
endfacet
facet normal -0.3826834323651525 0.9238795325112609 2.0712117940525837e-16
  outer loop
    vertex 1520.2498567916869 152.02777512231924 556.0281457410139
    vertex 1519.8398491683613 151.85794440406133 559.0281457410139
    vertex 1520.2498567916869 152.02777512231924 559.0281457410139
  endloop
endfacet
facet normal -0.3826834323651525 0.9238795325112609 2.0712117940525837e-16
  outer loop
    vertex 1519.8398491683613 151.85794440406133 559.0281457410139
    vertex 1520.2498567916869 152.02777512231924 556.0281457410139
    vertex 1519.8398491683613 151.85794440406133 556.0281457410139
  endloop
endfacet
facet normal -0.13052619222002637 0.9914448613738139 7.06451771606696e-17
  outer loop
    vertex 1519.8398491683613 151.85794440406133 556.0281457410139
    vertex 1519.399856791687 151.80001830875275 559.0281457410139
    vertex 1519.8398491683613 151.85794440406133 559.0281457410139
  endloop
endfacet
facet normal -0.13052619222002637 0.9914448613738139 7.06451771606696e-17
  outer loop
    vertex 1519.399856791687 151.80001830875275 559.0281457410139
    vertex 1519.8398491683613 151.85794440406133 556.0281457410139
    vertex 1519.399856791687 151.80001830875275 556.0281457410139
  endloop
endfacet
facet normal 0.13052619222002637 0.9914448613738139 -7.06451771606696e-17
  outer loop
    vertex 1519.399856791687 151.80001830875275 556.0281457410139
    vertex 1518.9598644150126 151.85794440406133 559.0281457410139
    vertex 1519.399856791687 151.80001830875275 559.0281457410139
  endloop
endfacet
facet normal 0.13052619222002637 0.9914448613738139 -7.06451771606696e-17
  outer loop
    vertex 1518.9598644150126 151.85794440406133 559.0281457410139
    vertex 1519.399856791687 151.80001830875275 556.0281457410139
    vertex 1518.9598644150126 151.85794440406133 556.0281457410139
  endloop
endfacet
facet normal 0.3826834323651525 0.9238795325112609 -2.0712117940525837e-16
  outer loop
    vertex 1518.9598644150126 151.85794440406133 556.0281457410139
    vertex 1518.5498567916868 152.02777512231924 559.0281457410139
    vertex 1518.9598644150126 151.85794440406133 559.0281457410139
  endloop
endfacet
facet normal 0.3826834323651525 0.9238795325112609 -2.0712117940525837e-16
  outer loop
    vertex 1518.5498567916868 152.02777512231924 559.0281457410139
    vertex 1518.9598644150126 151.85794440406133 556.0281457410139
    vertex 1518.5498567916868 152.02777512231924 556.0281457410139
  endloop
endfacet
facet normal 0.6087614290087003 0.7933533402912507 -3.2948221555722125e-16
  outer loop
    vertex 1518.5498567916868 152.02777512231924 556.0281457410139
    vertex 1518.1977752636699 152.29793678073565 559.0281457410139
    vertex 1518.5498567916868 152.02777512231924 559.0281457410139
  endloop
endfacet
facet normal 0.6087614290087003 0.7933533402912507 -3.2948221555722125e-16
  outer loop
    vertex 1518.1977752636699 152.29793678073565 559.0281457410139
    vertex 1518.5498567916868 152.02777512231924 556.0281457410139
    vertex 1518.1977752636699 152.29793678073565 556.0281457410139
  endloop
endfacet
facet normal 0.7933533402912465 0.6087614290087059 -4.2938958321412663e-16
  outer loop
    vertex 1517.9276136052533 152.65001830875278 556.0281457410139
    vertex 1518.1977752636699 152.29793678073565 559.0281457410139
    vertex 1518.1977752636699 152.29793678073565 556.0281457410139
  endloop
endfacet
facet normal 0.7933533402912465 0.6087614290087059 -4.2938958321412663e-16
  outer loop
    vertex 1518.1977752636699 152.29793678073565 559.0281457410139
    vertex 1517.9276136052533 152.65001830875278 556.0281457410139
    vertex 1517.9276136052533 152.65001830875278 559.0281457410139
  endloop
endfacet
facet normal 0.9238795325112749 0.38268343236511887 -5.000347603747973e-16
  outer loop
    vertex 1517.7577828869955 153.06002593207847 556.0281457410139
    vertex 1517.9276136052533 152.65001830875278 559.0281457410139
    vertex 1517.9276136052533 152.65001830875278 556.0281457410139
  endloop
endfacet
facet normal 0.9238795325112749 0.38268343236511887 -5.000347603747973e-16
  outer loop
    vertex 1517.9276136052533 152.65001830875278 559.0281457410139
    vertex 1517.7577828869955 153.06002593207847 556.0281457410139
    vertex 1517.7577828869955 153.06002593207847 559.0281457410139
  endloop
endfacet
facet normal 0.9914448613738113 0.1305261922200464 -5.366033949624571e-16
  outer loop
    vertex 1517.699856791687 153.50001830875277 556.0281457410139
    vertex 1517.7577828869955 153.06002593207847 559.0281457410139
    vertex 1517.7577828869955 153.06002593207847 556.0281457410139
  endloop
endfacet
facet normal 0.9914448613738113 0.1305261922200464 -5.366033949624571e-16
  outer loop
    vertex 1517.7577828869955 153.06002593207847 559.0281457410139
    vertex 1517.699856791687 153.50001830875277 556.0281457410139
    vertex 1517.699856791687 153.50001830875277 559.0281457410139
  endloop
endfacet
facet normal 0.9914448613738113 -0.1305261922200464 -5.366033949624571e-16
  outer loop
    vertex 1517.7577828869955 153.9400106854271 556.0281457410139
    vertex 1517.699856791687 153.50001830875277 559.0281457410139
    vertex 1517.699856791687 153.50001830875277 556.0281457410139
  endloop
endfacet
facet normal 0.9914448613738113 -0.1305261922200464 -5.366033949624571e-16
  outer loop
    vertex 1517.699856791687 153.50001830875277 559.0281457410139
    vertex 1517.7577828869955 153.9400106854271 556.0281457410139
    vertex 1517.7577828869955 153.9400106854271 559.0281457410139
  endloop
endfacet
facet normal 0.9238795325112896 -0.3826834323650829 -5.000347603748053e-16
  outer loop
    vertex 1517.9276136052533 154.35001830875282 556.0281457410139
    vertex 1517.7577828869955 153.9400106854271 559.0281457410139
    vertex 1517.7577828869955 153.9400106854271 556.0281457410139
  endloop
endfacet
facet normal 0.9238795325112896 -0.3826834323650829 -5.000347603748053e-16
  outer loop
    vertex 1517.7577828869955 153.9400106854271 559.0281457410139
    vertex 1517.9276136052533 154.35001830875282 556.0281457410139
    vertex 1517.9276136052533 154.35001830875282 559.0281457410139
  endloop
endfacet
facet normal 0.793353340291209 -0.6087614290087551 -4.293895832141063e-16
  outer loop
    vertex 1518.1977752636699 154.70209983676992 556.0281457410139
    vertex 1517.9276136052533 154.35001830875282 559.0281457410139
    vertex 1517.9276136052533 154.35001830875282 556.0281457410139
  endloop
endfacet
facet normal 0.793353340291209 -0.6087614290087551 -4.293895832141063e-16
  outer loop
    vertex 1517.9276136052533 154.35001830875282 559.0281457410139
    vertex 1518.1977752636699 154.70209983676992 556.0281457410139
    vertex 1518.1977752636699 154.70209983676992 559.0281457410139
  endloop
endfacet
facet normal 0.6087614290087003 -0.7933533402912507 -3.2948221555722125e-16
  outer loop
    vertex 1518.1977752636699 154.70209983676992 556.0281457410139
    vertex 1518.5498567916868 154.97226149518633 559.0281457410139
    vertex 1518.1977752636699 154.70209983676992 559.0281457410139
  endloop
endfacet
facet normal 0.6087614290087003 -0.7933533402912507 -3.2948221555722125e-16
  outer loop
    vertex 1518.5498567916868 154.97226149518633 559.0281457410139
    vertex 1518.1977752636699 154.70209983676992 556.0281457410139
    vertex 1518.5498567916868 154.97226149518633 556.0281457410139
  endloop
endfacet
facet normal 0.3826834323651525 -0.9238795325112609 -2.0712117940525837e-16
  outer loop
    vertex 1518.5498567916868 154.97226149518633 556.0281457410139
    vertex 1518.9598644150126 155.14209221344422 559.0281457410139
    vertex 1518.5498567916868 154.97226149518633 559.0281457410139
  endloop
endfacet
facet normal 0.3826834323651525 -0.9238795325112609 -2.0712117940525837e-16
  outer loop
    vertex 1518.9598644150126 155.14209221344422 559.0281457410139
    vertex 1518.5498567916868 154.97226149518633 556.0281457410139
    vertex 1518.9598644150126 155.14209221344422 556.0281457410139
  endloop
endfacet
facet normal 0.793353340291209 -0.6087614290087551 -4.293895832141063e-16
  outer loop
    vertex 1504.1977752636697 154.70209983676992 556.0281457410139
    vertex 1503.9276136052533 154.35001830875282 559.0281457410139
    vertex 1503.9276136052533 154.35001830875282 556.0281457410139
  endloop
endfacet
facet normal 0.793353340291209 -0.6087614290087551 -4.293895832141063e-16
  outer loop
    vertex 1503.9276136052533 154.35001830875282 559.0281457410139
    vertex 1504.1977752636697 154.70209983676992 556.0281457410139
    vertex 1504.1977752636697 154.70209983676992 559.0281457410139
  endloop
endfacet
facet normal 0.6087614290087003 -0.7933533402912507 -3.2948221555722125e-16
  outer loop
    vertex 1504.1977752636697 154.70209983676992 556.0281457410139
    vertex 1504.549856791687 154.97226149518633 559.0281457410139
    vertex 1504.1977752636697 154.70209983676992 559.0281457410139
  endloop
endfacet
facet normal 0.6087614290087003 -0.7933533402912507 -3.2948221555722125e-16
  outer loop
    vertex 1504.549856791687 154.97226149518633 559.0281457410139
    vertex 1504.1977752636697 154.70209983676992 556.0281457410139
    vertex 1504.549856791687 154.97226149518633 556.0281457410139
  endloop
endfacet
facet normal 0.3826834323651525 -0.9238795325112609 -2.0712117940525837e-16
  outer loop
    vertex 1504.549856791687 154.97226149518633 556.0281457410139
    vertex 1504.9598644150126 155.14209221344422 559.0281457410139
    vertex 1504.549856791687 154.97226149518633 559.0281457410139
  endloop
endfacet
facet normal 0.3826834323651525 -0.9238795325112609 -2.0712117940525837e-16
  outer loop
    vertex 1504.9598644150126 155.14209221344422 559.0281457410139
    vertex 1504.549856791687 154.97226149518633 556.0281457410139
    vertex 1504.9598644150126 155.14209221344422 556.0281457410139
  endloop
endfacet
facet normal 0.13052619222002637 -0.9914448613738139 -7.06451771606696e-17
  outer loop
    vertex 1504.9598644150126 155.14209221344422 556.0281457410139
    vertex 1505.399856791687 155.2000183087528 559.0281457410139
    vertex 1504.9598644150126 155.14209221344422 559.0281457410139
  endloop
endfacet
facet normal 0.13052619222002637 -0.9914448613738139 -7.06451771606696e-17
  outer loop
    vertex 1505.399856791687 155.2000183087528 559.0281457410139
    vertex 1504.9598644150126 155.14209221344422 556.0281457410139
    vertex 1505.399856791687 155.2000183087528 556.0281457410139
  endloop
endfacet
facet normal -0.13052619222002637 -0.9914448613738139 7.06451771606696e-17
  outer loop
    vertex 1505.399856791687 155.2000183087528 556.0281457410139
    vertex 1505.8398491683613 155.14209221344422 559.0281457410139
    vertex 1505.399856791687 155.2000183087528 559.0281457410139
  endloop
endfacet
facet normal -0.13052619222002637 -0.9914448613738139 7.06451771606696e-17
  outer loop
    vertex 1505.8398491683613 155.14209221344422 559.0281457410139
    vertex 1505.399856791687 155.2000183087528 556.0281457410139
    vertex 1505.8398491683613 155.14209221344422 556.0281457410139
  endloop
endfacet
facet normal -0.3826834323651525 -0.9238795325112609 2.0712117940525837e-16
  outer loop
    vertex 1505.8398491683613 155.14209221344422 556.0281457410139
    vertex 1506.249856791687 154.97226149518633 559.0281457410139
    vertex 1505.8398491683613 155.14209221344422 559.0281457410139
  endloop
endfacet
facet normal -0.3826834323651525 -0.9238795325112609 2.0712117940525837e-16
  outer loop
    vertex 1506.249856791687 154.97226149518633 559.0281457410139
    vertex 1505.8398491683613 155.14209221344422 556.0281457410139
    vertex 1506.249856791687 154.97226149518633 556.0281457410139
  endloop
endfacet
facet normal -0.6087614290087003 -0.7933533402912507 3.2948221555722125e-16
  outer loop
    vertex 1506.249856791687 154.97226149518633 556.0281457410139
    vertex 1506.601938319704 154.70209983676992 559.0281457410139
    vertex 1506.249856791687 154.97226149518633 559.0281457410139
  endloop
endfacet
facet normal -0.6087614290087003 -0.7933533402912507 3.2948221555722125e-16
  outer loop
    vertex 1506.601938319704 154.70209983676992 559.0281457410139
    vertex 1506.249856791687 154.97226149518633 556.0281457410139
    vertex 1506.601938319704 154.70209983676992 556.0281457410139
  endloop
endfacet
facet normal -0.7933533402912465 -0.6087614290087059 4.2938958321412663e-16
  outer loop
    vertex 1506.601938319704 154.70209983676992 559.0281457410139
    vertex 1506.8720999781206 154.35001830875277 556.0281457410139
    vertex 1506.8720999781206 154.35001830875277 559.0281457410139
  endloop
endfacet
facet normal -0.7933533402912465 -0.6087614290087059 4.2938958321412663e-16
  outer loop
    vertex 1506.8720999781206 154.35001830875277 556.0281457410139
    vertex 1506.601938319704 154.70209983676992 559.0281457410139
    vertex 1506.601938319704 154.70209983676992 556.0281457410139
  endloop
endfacet
facet normal -0.9238795325112749 -0.38268343236511887 5.000347603747973e-16
  outer loop
    vertex 1506.8720999781206 154.35001830875277 559.0281457410139
    vertex 1507.0419306963784 153.9400106854271 556.0281457410139
    vertex 1507.0419306963784 153.9400106854271 559.0281457410139
  endloop
endfacet
facet normal -0.9238795325112749 -0.38268343236511887 5.000347603747973e-16
  outer loop
    vertex 1507.0419306963784 153.9400106854271 556.0281457410139
    vertex 1506.8720999781206 154.35001830875277 559.0281457410139
    vertex 1506.8720999781206 154.35001830875277 556.0281457410139
  endloop
endfacet
facet normal -0.9914448613738113 -0.1305261922200464 5.366033949624571e-16
  outer loop
    vertex 1507.0419306963784 153.9400106854271 559.0281457410139
    vertex 1507.099856791687 153.50001830875277 556.0281457410139
    vertex 1507.099856791687 153.50001830875277 559.0281457410139
  endloop
endfacet
facet normal -0.9914448613738113 -0.1305261922200464 5.366033949624571e-16
  outer loop
    vertex 1507.099856791687 153.50001830875277 556.0281457410139
    vertex 1507.0419306963784 153.9400106854271 559.0281457410139
    vertex 1507.0419306963784 153.9400106854271 556.0281457410139
  endloop
endfacet
facet normal -0.9914448613738113 0.1305261922200464 5.366033949624571e-16
  outer loop
    vertex 1507.099856791687 153.50001830875277 559.0281457410139
    vertex 1507.0419306963784 153.06002593207847 556.0281457410139
    vertex 1507.0419306963784 153.06002593207847 559.0281457410139
  endloop
endfacet
facet normal -0.9914448613738113 0.1305261922200464 5.366033949624571e-16
  outer loop
    vertex 1507.0419306963784 153.06002593207847 556.0281457410139
    vertex 1507.099856791687 153.50001830875277 559.0281457410139
    vertex 1507.099856791687 153.50001830875277 556.0281457410139
  endloop
endfacet
facet normal -0.9238795325112896 0.3826834323650829 5.000347603748053e-16
  outer loop
    vertex 1507.0419306963784 153.06002593207847 559.0281457410139
    vertex 1506.8720999781206 152.65001830875275 556.0281457410139
    vertex 1506.8720999781206 152.65001830875275 559.0281457410139
  endloop
endfacet
facet normal -0.9238795325112896 0.3826834323650829 5.000347603748053e-16
  outer loop
    vertex 1506.8720999781206 152.65001830875275 556.0281457410139
    vertex 1507.0419306963784 153.06002593207847 559.0281457410139
    vertex 1507.0419306963784 153.06002593207847 556.0281457410139
  endloop
endfacet
facet normal -0.793353340291209 0.6087614290087551 4.293895832141063e-16
  outer loop
    vertex 1506.8720999781206 152.65001830875275 559.0281457410139
    vertex 1506.601938319704 152.29793678073565 556.0281457410139
    vertex 1506.601938319704 152.29793678073565 559.0281457410139
  endloop
endfacet
facet normal -0.793353340291209 0.6087614290087551 4.293895832141063e-16
  outer loop
    vertex 1506.601938319704 152.29793678073565 556.0281457410139
    vertex 1506.8720999781206 152.65001830875275 559.0281457410139
    vertex 1506.8720999781206 152.65001830875275 556.0281457410139
  endloop
endfacet
facet normal -0.6087614290087003 0.7933533402912507 3.2948221555722125e-16
  outer loop
    vertex 1506.601938319704 152.29793678073565 556.0281457410139
    vertex 1506.249856791687 152.02777512231924 559.0281457410139
    vertex 1506.601938319704 152.29793678073565 559.0281457410139
  endloop
endfacet
facet normal -0.6087614290087003 0.7933533402912507 3.2948221555722125e-16
  outer loop
    vertex 1506.249856791687 152.02777512231924 559.0281457410139
    vertex 1506.601938319704 152.29793678073565 556.0281457410139
    vertex 1506.249856791687 152.02777512231924 556.0281457410139
  endloop
endfacet
facet normal -0.3826834323651525 0.9238795325112609 2.0712117940525837e-16
  outer loop
    vertex 1506.249856791687 152.02777512231924 556.0281457410139
    vertex 1505.8398491683613 151.85794440406133 559.0281457410139
    vertex 1506.249856791687 152.02777512231924 559.0281457410139
  endloop
endfacet
facet normal -0.3826834323651525 0.9238795325112609 2.0712117940525837e-16
  outer loop
    vertex 1505.8398491683613 151.85794440406133 559.0281457410139
    vertex 1506.249856791687 152.02777512231924 556.0281457410139
    vertex 1505.8398491683613 151.85794440406133 556.0281457410139
  endloop
endfacet
facet normal -0.13052619222002637 0.9914448613738139 7.06451771606696e-17
  outer loop
    vertex 1505.8398491683613 151.85794440406133 556.0281457410139
    vertex 1505.399856791687 151.80001830875275 559.0281457410139
    vertex 1505.8398491683613 151.85794440406133 559.0281457410139
  endloop
endfacet
facet normal -0.13052619222002637 0.9914448613738139 7.06451771606696e-17
  outer loop
    vertex 1505.399856791687 151.80001830875275 559.0281457410139
    vertex 1505.8398491683613 151.85794440406133 556.0281457410139
    vertex 1505.399856791687 151.80001830875275 556.0281457410139
  endloop
endfacet
facet normal 0.13052619222002637 0.9914448613738139 -7.06451771606696e-17
  outer loop
    vertex 1505.399856791687 151.80001830875275 556.0281457410139
    vertex 1504.9598644150126 151.85794440406133 559.0281457410139
    vertex 1505.399856791687 151.80001830875275 559.0281457410139
  endloop
endfacet
facet normal 0.13052619222002637 0.9914448613738139 -7.06451771606696e-17
  outer loop
    vertex 1504.9598644150126 151.85794440406133 559.0281457410139
    vertex 1505.399856791687 151.80001830875275 556.0281457410139
    vertex 1504.9598644150126 151.85794440406133 556.0281457410139
  endloop
endfacet
facet normal 0.3826834323651525 0.9238795325112609 -2.0712117940525837e-16
  outer loop
    vertex 1504.9598644150126 151.85794440406133 556.0281457410139
    vertex 1504.549856791687 152.02777512231924 559.0281457410139
    vertex 1504.9598644150126 151.85794440406133 559.0281457410139
  endloop
endfacet
facet normal 0.3826834323651525 0.9238795325112609 -2.0712117940525837e-16
  outer loop
    vertex 1504.549856791687 152.02777512231924 559.0281457410139
    vertex 1504.9598644150126 151.85794440406133 556.0281457410139
    vertex 1504.549856791687 152.02777512231924 556.0281457410139
  endloop
endfacet
facet normal 0.6087614290087003 0.7933533402912507 -3.2948221555722125e-16
  outer loop
    vertex 1504.549856791687 152.02777512231924 556.0281457410139
    vertex 1504.1977752636697 152.29793678073565 559.0281457410139
    vertex 1504.549856791687 152.02777512231924 559.0281457410139
  endloop
endfacet
facet normal 0.6087614290087003 0.7933533402912507 -3.2948221555722125e-16
  outer loop
    vertex 1504.1977752636697 152.29793678073565 559.0281457410139
    vertex 1504.549856791687 152.02777512231924 556.0281457410139
    vertex 1504.1977752636697 152.29793678073565 556.0281457410139
  endloop
endfacet
facet normal 0.7933533402912465 0.6087614290087059 -4.2938958321412663e-16
  outer loop
    vertex 1503.9276136052533 152.65001830875278 556.0281457410139
    vertex 1504.1977752636697 152.29793678073565 559.0281457410139
    vertex 1504.1977752636697 152.29793678073565 556.0281457410139
  endloop
endfacet
facet normal 0.7933533402912465 0.6087614290087059 -4.2938958321412663e-16
  outer loop
    vertex 1504.1977752636697 152.29793678073565 559.0281457410139
    vertex 1503.9276136052533 152.65001830875278 556.0281457410139
    vertex 1503.9276136052533 152.65001830875278 559.0281457410139
  endloop
endfacet
facet normal 0.9238795325112749 0.38268343236511887 -5.000347603747973e-16
  outer loop
    vertex 1503.7577828869955 153.06002593207847 556.0281457410139
    vertex 1503.9276136052533 152.65001830875278 559.0281457410139
    vertex 1503.9276136052533 152.65001830875278 556.0281457410139
  endloop
endfacet
facet normal 0.9238795325112749 0.38268343236511887 -5.000347603747973e-16
  outer loop
    vertex 1503.9276136052533 152.65001830875278 559.0281457410139
    vertex 1503.7577828869955 153.06002593207847 556.0281457410139
    vertex 1503.7577828869955 153.06002593207847 559.0281457410139
  endloop
endfacet
facet normal 0.9914448613738113 0.1305261922200464 -5.366033949624571e-16
  outer loop
    vertex 1503.6998567916871 153.50001830875277 556.0281457410139
    vertex 1503.7577828869955 153.06002593207847 559.0281457410139
    vertex 1503.7577828869955 153.06002593207847 556.0281457410139
  endloop
endfacet
facet normal 0.9914448613738113 0.1305261922200464 -5.366033949624571e-16
  outer loop
    vertex 1503.7577828869955 153.06002593207847 559.0281457410139
    vertex 1503.6998567916871 153.50001830875277 556.0281457410139
    vertex 1503.6998567916871 153.50001830875277 559.0281457410139
  endloop
endfacet
facet normal 0.9914448613738113 -0.1305261922200464 -5.366033949624571e-16
  outer loop
    vertex 1503.7577828869955 153.9400106854271 556.0281457410139
    vertex 1503.6998567916871 153.50001830875277 559.0281457410139
    vertex 1503.6998567916871 153.50001830875277 556.0281457410139
  endloop
endfacet
facet normal 0.9914448613738113 -0.1305261922200464 -5.366033949624571e-16
  outer loop
    vertex 1503.6998567916871 153.50001830875277 559.0281457410139
    vertex 1503.7577828869955 153.9400106854271 556.0281457410139
    vertex 1503.7577828869955 153.9400106854271 559.0281457410139
  endloop
endfacet
facet normal 0.9238795325112896 -0.3826834323650829 -5.000347603748053e-16
  outer loop
    vertex 1503.9276136052533 154.35001830875282 556.0281457410139
    vertex 1503.7577828869955 153.9400106854271 559.0281457410139
    vertex 1503.7577828869955 153.9400106854271 556.0281457410139
  endloop
endfacet
facet normal 0.9238795325112896 -0.3826834323650829 -5.000347603748053e-16
  outer loop
    vertex 1503.7577828869955 153.9400106854271 559.0281457410139
    vertex 1503.9276136052533 154.35001830875282 556.0281457410139
    vertex 1503.9276136052533 154.35001830875282 559.0281457410139
  endloop
endfacet
endsolid flsun-cube-linear-rail-xy-gantry
