solid Flsun Cube Linear Rail X-Y Gantry v3
facet normal -0.0 -1.0 0.0
  outer loop
    vertex 1300.477783791687 148.50001830875274 556.0281457410139
    vertex 1306.4777837916872 148.50001830875274 559.028145741014
    vertex 1300.477783791687 148.50001830875274 559.028145741014
  endloop
endfacet
facet normal -0.0 -1.0 0.0
  outer loop
    vertex 1306.4777837916872 148.50001830875274 559.028145741014
    vertex 1300.477783791687 148.50001830875274 556.0281457410139
    vertex 1306.4777837916872 148.50001830875274 558.2781457410139
  endloop
endfacet
facet normal -0.0 -1.0 0.0
  outer loop
    vertex 1306.4777837916872 148.50001830875274 558.2781457410139
    vertex 1300.477783791687 148.50001830875274 556.0281457410139
    vertex 1314.476581186179 148.50001830875274 558.2781457410139
  endloop
endfacet
facet normal -0.0 -1.0 0.0
  outer loop
    vertex 1314.476581186179 148.50001830875274 558.2781457410139
    vertex 1320.477783791687 148.50001830875274 559.028145741014
    vertex 1314.476581186179 148.50001830875274 559.028145741014
  endloop
endfacet
facet normal -0.0 -1.0 0.0
  outer loop
    vertex 1320.477783791687 148.50001830875274 559.028145741014
    vertex 1314.476581186179 148.50001830875274 558.2781457410139
    vertex 1320.477783791687 148.50001830875274 556.0281457410139
  endloop
endfacet
facet normal -0.0 -1.0 0.0
  outer loop
    vertex 1320.477783791687 148.50001830875274 556.0281457410139
    vertex 1314.476581186179 148.50001830875274 558.2781457410139
    vertex 1300.477783791687 148.50001830875274 556.0281457410139
  endloop
endfacet
facet normal -5.412337245047638e-16 0.0 -1.0
  outer loop
    vertex 1320.477783791687 148.50001830875274 556.0281457410139
    vertex 1319.1198576963784 153.06002593207847 556.0281457410139
    vertex 1320.477783791687 158.50001830875277 556.0281457410139
  endloop
endfacet
facet normal -5.412337245047638e-16 0.0 -1.0
  outer loop
    vertex 1319.1198576963784 153.06002593207847 556.0281457410139
    vertex 1320.477783791687 148.50001830875274 556.0281457410139
    vertex 1318.9500269781206 152.65001830875275 556.0281457410139
  endloop
endfacet
facet normal -5.412337245047638e-16 0.0 -1.0
  outer loop
    vertex 1318.9500269781206 152.65001830875275 556.0281457410139
    vertex 1320.477783791687 148.50001830875274 556.0281457410139
    vertex 1318.6798653197043 152.29793678073565 556.0281457410139
  endloop
endfacet
facet normal -5.412337245047638e-16 0.0 -1.0
  outer loop
    vertex 1318.6798653197043 152.29793678073565 556.0281457410139
    vertex 1320.477783791687 148.50001830875274 556.0281457410139
    vertex 1318.327783791687 152.02777512231924 556.0281457410139
  endloop
endfacet
facet normal -5.412337245047638e-16 0.0 -1.0
  outer loop
    vertex 1318.327783791687 152.02777512231924 556.0281457410139
    vertex 1320.477783791687 148.50001830875274 556.0281457410139
    vertex 1317.9177761683613 151.85794440406133 556.0281457410139
  endloop
endfacet
facet normal -5.412337245047638e-16 0.0 -1.0
  outer loop
    vertex 1317.9177761683613 151.85794440406133 556.0281457410139
    vertex 1320.477783791687 148.50001830875274 556.0281457410139
    vertex 1300.477783791687 148.50001830875274 556.0281457410139
  endloop
endfacet
facet normal -5.412337245047638e-16 0.0 -1.0
  outer loop
    vertex 1320.477783791687 158.50001830875277 556.0281457410139
    vertex 1319.1198576963784 153.06002593207847 556.0281457410139
    vertex 1319.177783791687 153.50001830875277 556.0281457410139
  endloop
endfacet
facet normal -5.412337245047638e-16 0.0 -1.0
  outer loop
    vertex 1317.9177761683613 151.85794440406133 556.0281457410139
    vertex 1300.477783791687 148.50001830875274 556.0281457410139
    vertex 1317.477783791687 151.80001830875275 556.0281457410139
  endloop
endfacet
facet normal -5.412337245047638e-16 0.0 -1.0
  outer loop
    vertex 1317.477783791687 151.80001830875275 556.0281457410139
    vertex 1300.477783791687 148.50001830875274 556.0281457410139
    vertex 1317.0377914150129 151.85794440406133 556.0281457410139
  endloop
endfacet
facet normal -5.412337245047638e-16 0.0 -1.0
  outer loop
    vertex 1317.0377914150129 151.85794440406133 556.0281457410139
    vertex 1300.477783791687 148.50001830875274 556.0281457410139
    vertex 1316.627783791687 152.02777512231924 556.0281457410139
  endloop
endfacet
facet normal -5.412337245047638e-16 0.0 -1.0
  outer loop
    vertex 1316.627783791687 152.02777512231924 556.0281457410139
    vertex 1300.477783791687 148.50001830875274 556.0281457410139
    vertex 1316.27570226367 152.29793678073565 556.0281457410139
  endloop
endfacet
facet normal -5.412337245047638e-16 0.0 -1.0
  outer loop
    vertex 1316.27570226367 152.29793678073565 556.0281457410139
    vertex 1300.477783791687 148.50001830875274 556.0281457410139
    vertex 1316.0055406052536 152.65001830875278 556.0281457410139
  endloop
endfacet
facet normal -5.412337245047638e-16 0.0 -1.0
  outer loop
    vertex 1316.0055406052536 152.65001830875278 556.0281457410139
    vertex 1300.477783791687 148.50001830875274 556.0281457410139
    vertex 1315.8357098869956 153.06002593207847 556.0281457410139
  endloop
endfacet
facet normal -5.412337245047638e-16 0.0 -1.0
  outer loop
    vertex 1315.8357098869956 153.06002593207847 556.0281457410139
    vertex 1300.477783791687 148.50001830875274 556.0281457410139
    vertex 1315.777783791687 153.50001830875277 556.0281457410139
  endloop
endfacet
facet normal -5.412337245047638e-16 0.0 -1.0
  outer loop
    vertex 1315.777783791687 153.50001830875277 556.0281457410139
    vertex 1300.477783791687 148.50001830875274 556.0281457410139
    vertex 1304.679865319704 152.29793678073565 556.0281457410139
  endloop
endfacet
facet normal -5.412337245047638e-16 0.0 -1.0
  outer loop
    vertex 1315.777783791687 153.50001830875277 556.0281457410139
    vertex 1304.679865319704 152.29793678073565 556.0281457410139
    vertex 1304.9500269781206 152.65001830875275 556.0281457410139
  endloop
endfacet
facet normal -5.412337245047638e-16 0.0 -1.0
  outer loop
    vertex 1315.777783791687 153.50001830875277 556.0281457410139
    vertex 1304.9500269781206 152.65001830875275 556.0281457410139
    vertex 1305.1198576963786 153.06002593207847 556.0281457410139
  endloop
endfacet
facet normal -5.412337245047638e-16 0.0 -1.0
  outer loop
    vertex 1315.777783791687 153.50001830875277 556.0281457410139
    vertex 1305.1198576963786 153.06002593207847 556.0281457410139
    vertex 1305.177783791687 153.50001830875277 556.0281457410139
  endloop
endfacet
facet normal -5.412337245047638e-16 0.0 -1.0
  outer loop
    vertex 1304.679865319704 152.29793678073565 556.0281457410139
    vertex 1300.477783791687 148.50001830875274 556.0281457410139
    vertex 1304.3277837916871 152.02777512231924 556.0281457410139
  endloop
endfacet
facet normal -5.412337245047638e-16 0.0 -1.0
  outer loop
    vertex 1304.3277837916871 152.02777512231924 556.0281457410139
    vertex 1300.477783791687 148.50001830875274 556.0281457410139
    vertex 1303.9177761683613 151.85794440406133 556.0281457410139
  endloop
endfacet
facet normal -5.412337245047638e-16 0.0 -1.0
  outer loop
    vertex 1303.9177761683613 151.85794440406133 556.0281457410139
    vertex 1300.477783791687 148.50001830875274 556.0281457410139
    vertex 1303.4777837916872 151.80001830875275 556.0281457410139
  endloop
endfacet
facet normal -5.412337245047638e-16 0.0 -1.0
  outer loop
    vertex 1303.4777837916872 151.80001830875275 556.0281457410139
    vertex 1300.477783791687 148.50001830875274 556.0281457410139
    vertex 1303.0377914150126 151.85794440406133 556.0281457410139
  endloop
endfacet
facet normal -5.412337245047638e-16 0.0 -1.0
  outer loop
    vertex 1303.0377914150126 151.85794440406133 556.0281457410139
    vertex 1300.477783791687 148.50001830875274 556.0281457410139
    vertex 1302.627783791687 152.02777512231924 556.0281457410139
  endloop
endfacet
facet normal -5.412337245047638e-16 0.0 -1.0
  outer loop
    vertex 1302.627783791687 152.02777512231924 556.0281457410139
    vertex 1300.477783791687 148.50001830875274 556.0281457410139
    vertex 1302.27570226367 152.29793678073565 556.0281457410139
  endloop
endfacet
facet normal -5.412337245047638e-16 0.0 -1.0
  outer loop
    vertex 1302.27570226367 152.29793678073565 556.0281457410139
    vertex 1300.477783791687 148.50001830875274 556.0281457410139
    vertex 1302.0055406052534 152.65001830875278 556.0281457410139
  endloop
endfacet
facet normal -5.412337245047638e-16 0.0 -1.0
  outer loop
    vertex 1302.0055406052534 152.65001830875278 556.0281457410139
    vertex 1300.477783791687 148.50001830875274 556.0281457410139
    vertex 1301.8357098869956 153.06002593207847 556.0281457410139
  endloop
endfacet
facet normal -5.412337245047638e-16 0.0 -1.0
  outer loop
    vertex 1301.8357098869956 153.06002593207847 556.0281457410139
    vertex 1300.477783791687 148.50001830875274 556.0281457410139
    vertex 1301.7777837916872 153.50001830875277 556.0281457410139
  endloop
endfacet
facet normal -5.412337245047638e-16 0.0 -1.0
  outer loop
    vertex 1320.477783791687 158.50001830875277 556.0281457410139
    vertex 1317.9177761683613 155.14209221344422 556.0281457410139
    vertex 1300.477783791687 158.50001830875277 556.0281457410139
  endloop
endfacet
facet normal -5.412337245047638e-16 0.0 -1.0
  outer loop
    vertex 1317.9177761683613 155.14209221344422 556.0281457410139
    vertex 1320.477783791687 158.50001830875277 556.0281457410139
    vertex 1318.327783791687 154.97226149518633 556.0281457410139
  endloop
endfacet
facet normal -5.412337245047638e-16 0.0 -1.0
  outer loop
    vertex 1318.327783791687 154.97226149518633 556.0281457410139
    vertex 1320.477783791687 158.50001830875277 556.0281457410139
    vertex 1318.6798653197043 154.70209983676992 556.0281457410139
  endloop
endfacet
facet normal -5.412337245047638e-16 0.0 -1.0
  outer loop
    vertex 1318.6798653197043 154.70209983676992 556.0281457410139
    vertex 1320.477783791687 158.50001830875277 556.0281457410139
    vertex 1318.9500269781206 154.35001830875277 556.0281457410139
  endloop
endfacet
facet normal -5.412337245047638e-16 0.0 -1.0
  outer loop
    vertex 1318.9500269781206 154.35001830875277 556.0281457410139
    vertex 1320.477783791687 158.50001830875277 556.0281457410139
    vertex 1319.1198576963784 153.9400106854271 556.0281457410139
  endloop
endfacet
facet normal -5.412337245047638e-16 0.0 -1.0
  outer loop
    vertex 1319.1198576963784 153.9400106854271 556.0281457410139
    vertex 1320.477783791687 158.50001830875277 556.0281457410139
    vertex 1319.177783791687 153.50001830875277 556.0281457410139
  endloop
endfacet
facet normal -5.412337245047638e-16 0.0 -1.0
  outer loop
    vertex 1300.477783791687 158.50001830875277 556.0281457410139
    vertex 1317.9177761683613 155.14209221344422 556.0281457410139
    vertex 1317.477783791687 155.2000183087528 556.0281457410139
  endloop
endfacet
facet normal -5.412337245047638e-16 0.0 -1.0
  outer loop
    vertex 1300.477783791687 158.50001830875277 556.0281457410139
    vertex 1317.477783791687 155.2000183087528 556.0281457410139
    vertex 1317.0377914150129 155.14209221344422 556.0281457410139
  endloop
endfacet
facet normal -5.412337245047638e-16 0.0 -1.0
  outer loop
    vertex 1300.477783791687 158.50001830875277 556.0281457410139
    vertex 1317.0377914150129 155.14209221344422 556.0281457410139
    vertex 1316.627783791687 154.97226149518633 556.0281457410139
  endloop
endfacet
facet normal -5.412337245047638e-16 0.0 -1.0
  outer loop
    vertex 1300.477783791687 158.50001830875277 556.0281457410139
    vertex 1316.627783791687 154.97226149518633 556.0281457410139
    vertex 1316.27570226367 154.70209983676992 556.0281457410139
  endloop
endfacet
facet normal -5.412337245047638e-16 0.0 -1.0
  outer loop
    vertex 1300.477783791687 158.50001830875277 556.0281457410139
    vertex 1316.27570226367 154.70209983676992 556.0281457410139
    vertex 1316.0055406052536 154.35001830875282 556.0281457410139
  endloop
endfacet
facet normal -5.412337245047638e-16 0.0 -1.0
  outer loop
    vertex 1300.477783791687 158.50001830875277 556.0281457410139
    vertex 1316.0055406052536 154.35001830875282 556.0281457410139
    vertex 1315.8357098869956 153.9400106854271 556.0281457410139
  endloop
endfacet
facet normal -5.412337245047638e-16 0.0 -1.0
  outer loop
    vertex 1300.477783791687 158.50001830875277 556.0281457410139
    vertex 1315.8357098869956 153.9400106854271 556.0281457410139
    vertex 1315.777783791687 153.50001830875277 556.0281457410139
  endloop
endfacet
facet normal -5.412337245047638e-16 0.0 -1.0
  outer loop
    vertex 1300.477783791687 158.50001830875277 556.0281457410139
    vertex 1315.777783791687 153.50001830875277 556.0281457410139
    vertex 1304.679865319704 154.70209983676992 556.0281457410139
  endloop
endfacet
facet normal -5.412337245047638e-16 0.0 -1.0
  outer loop
    vertex 1304.679865319704 154.70209983676992 556.0281457410139
    vertex 1315.777783791687 153.50001830875277 556.0281457410139
    vertex 1304.9500269781206 154.35001830875277 556.0281457410139
  endloop
endfacet
facet normal -5.412337245047638e-16 0.0 -1.0
  outer loop
    vertex 1304.9500269781206 154.35001830875277 556.0281457410139
    vertex 1315.777783791687 153.50001830875277 556.0281457410139
    vertex 1305.1198576963786 153.9400106854271 556.0281457410139
  endloop
endfacet
facet normal -5.412337245047638e-16 0.0 -1.0
  outer loop
    vertex 1305.1198576963786 153.9400106854271 556.0281457410139
    vertex 1315.777783791687 153.50001830875277 556.0281457410139
    vertex 1305.177783791687 153.50001830875277 556.0281457410139
  endloop
endfacet
facet normal -5.412337245047638e-16 0.0 -1.0
  outer loop
    vertex 1300.477783791687 158.50001830875277 556.0281457410139
    vertex 1304.679865319704 154.70209983676992 556.0281457410139
    vertex 1304.3277837916871 154.97226149518633 556.0281457410139
  endloop
endfacet
facet normal -5.412337245047638e-16 0.0 -1.0
  outer loop
    vertex 1300.477783791687 158.50001830875277 556.0281457410139
    vertex 1304.3277837916871 154.97226149518633 556.0281457410139
    vertex 1303.9177761683613 155.14209221344422 556.0281457410139
  endloop
endfacet
facet normal -5.412337245047638e-16 0.0 -1.0
  outer loop
    vertex 1300.477783791687 158.50001830875277 556.0281457410139
    vertex 1303.9177761683613 155.14209221344422 556.0281457410139
    vertex 1303.4777837916872 155.2000183087528 556.0281457410139
  endloop
endfacet
facet normal -5.412337245047638e-16 0.0 -1.0
  outer loop
    vertex 1300.477783791687 158.50001830875277 556.0281457410139
    vertex 1303.4777837916872 155.2000183087528 556.0281457410139
    vertex 1303.0377914150126 155.14209221344422 556.0281457410139
  endloop
endfacet
facet normal -5.412337245047638e-16 0.0 -1.0
  outer loop
    vertex 1300.477783791687 158.50001830875277 556.0281457410139
    vertex 1303.0377914150126 155.14209221344422 556.0281457410139
    vertex 1302.627783791687 154.97226149518633 556.0281457410139
  endloop
endfacet
facet normal -5.412337245047638e-16 0.0 -1.0
  outer loop
    vertex 1300.477783791687 158.50001830875277 556.0281457410139
    vertex 1302.627783791687 154.97226149518633 556.0281457410139
    vertex 1302.27570226367 154.70209983676992 556.0281457410139
  endloop
endfacet
facet normal -5.412337245047638e-16 0.0 -1.0
  outer loop
    vertex 1300.477783791687 158.50001830875277 556.0281457410139
    vertex 1302.27570226367 154.70209983676992 556.0281457410139
    vertex 1302.0055406052534 154.35001830875282 556.0281457410139
  endloop
endfacet
facet normal -5.412337245047638e-16 0.0 -1.0
  outer loop
    vertex 1300.477783791687 158.50001830875277 556.0281457410139
    vertex 1302.0055406052534 154.35001830875282 556.0281457410139
    vertex 1301.8357098869956 153.9400106854271 556.0281457410139
  endloop
endfacet
facet normal -5.412337245047638e-16 0.0 -1.0
  outer loop
    vertex 1300.477783791687 158.50001830875277 556.0281457410139
    vertex 1301.8357098869956 153.9400106854271 556.0281457410139
    vertex 1301.7777837916872 153.50001830875277 556.0281457410139
  endloop
endfacet
facet normal -5.412337245047638e-16 0.0 -1.0
  outer loop
    vertex 1300.477783791687 158.50001830875277 556.0281457410139
    vertex 1301.7777837916872 153.50001830875277 556.0281457410139
    vertex 1300.477783791687 148.50001830875274 556.0281457410139
  endloop
endfacet
facet normal 0.0 1.0 0.0
  outer loop
    vertex 1320.477783791687 158.50001830875277 556.0281457410139
    vertex 1314.476581186179 158.50001830875277 559.028145741014
    vertex 1320.477783791687 158.50001830875277 559.028145741014
  endloop
endfacet
facet normal 0.0 1.0 0.0
  outer loop
    vertex 1314.476581186179 158.50001830875277 559.028145741014
    vertex 1320.477783791687 158.50001830875277 556.0281457410139
    vertex 1314.476581186179 158.50001830875277 558.2781457410139
  endloop
endfacet
facet normal 0.0 1.0 0.0
  outer loop
    vertex 1314.476581186179 158.50001830875277 558.2781457410139
    vertex 1320.477783791687 158.50001830875277 556.0281457410139
    vertex 1306.4777837916872 158.50001830875277 558.2781457410139
  endloop
endfacet
facet normal 0.0 1.0 0.0
  outer loop
    vertex 1306.4777837916872 158.50001830875277 558.2781457410139
    vertex 1300.477783791687 158.50001830875277 559.028145741014
    vertex 1306.4777837916872 158.50001830875277 559.028145741014
  endloop
endfacet
facet normal 0.0 1.0 0.0
  outer loop
    vertex 1300.477783791687 158.50001830875277 559.028145741014
    vertex 1306.4777837916872 158.50001830875277 558.2781457410139
    vertex 1300.477783791687 158.50001830875277 556.0281457410139
  endloop
endfacet
facet normal 0.0 1.0 0.0
  outer loop
    vertex 1300.477783791687 158.50001830875277 556.0281457410139
    vertex 1306.4777837916872 158.50001830875277 558.2781457410139
    vertex 1320.477783791687 158.50001830875277 556.0281457410139
  endloop
endfacet
facet normal -1.0 0.0 5.412337245047638e-16
  outer loop
    vertex 1300.477783791687 158.50001830875277 559.028145741014
    vertex 1300.477783791687 148.50001830875274 556.0281457410139
    vertex 1300.477783791687 148.50001830875274 559.028145741014
  endloop
endfacet
facet normal -1.0 0.0 5.412337245047638e-16
  outer loop
    vertex 1300.477783791687 148.50001830875274 556.0281457410139
    vertex 1300.477783791687 158.50001830875277 559.028145741014
    vertex 1300.477783791687 158.50001830875277 556.0281457410139
  endloop
endfacet
facet normal 5.412337245047638e-16 0.0 1.0
  outer loop
    vertex 1306.4777837916872 158.50001830875277 559.028145741014
    vertex 1305.1198576963786 153.9400106854271 559.0281457410139
    vertex 1306.4777837916872 148.50001830875274 559.028145741014
  endloop
endfacet
facet normal 5.412337245047638e-16 0.0 1.0
  outer loop
    vertex 1305.1198576963786 153.9400106854271 559.0281457410139
    vertex 1306.4777837916872 158.50001830875277 559.028145741014
    vertex 1304.9500269781206 154.35001830875277 559.0281457410139
  endloop
endfacet
facet normal 5.412337245047638e-16 0.0 1.0
  outer loop
    vertex 1304.9500269781206 154.35001830875277 559.0281457410139
    vertex 1306.4777837916872 158.50001830875277 559.028145741014
    vertex 1304.679865319704 154.70209983676992 559.0281457410139
  endloop
endfacet
facet normal 5.412337245047638e-16 0.0 1.0
  outer loop
    vertex 1304.679865319704 154.70209983676992 559.0281457410139
    vertex 1306.4777837916872 158.50001830875277 559.028145741014
    vertex 1300.477783791687 158.50001830875277 559.028145741014
  endloop
endfacet
facet normal 5.412337245047638e-16 0.0 1.0
  outer loop
    vertex 1306.4777837916872 148.50001830875274 559.028145741014
    vertex 1305.1198576963786 153.9400106854271 559.0281457410139
    vertex 1305.177783791687 153.50001830875277 559.0281457410139
  endloop
endfacet
facet normal 5.412337245047638e-16 0.0 1.0
  outer loop
    vertex 1304.679865319704 154.70209983676992 559.0281457410139
    vertex 1300.477783791687 158.50001830875277 559.028145741014
    vertex 1304.3277837916871 154.97226149518633 559.0281457410139
  endloop
endfacet
facet normal 5.412337245047638e-16 0.0 1.0
  outer loop
    vertex 1304.3277837916871 154.97226149518633 559.0281457410139
    vertex 1300.477783791687 158.50001830875277 559.028145741014
    vertex 1303.9177761683613 155.14209221344422 559.0281457410139
  endloop
endfacet
facet normal 5.412337245047638e-16 0.0 1.0
  outer loop
    vertex 1303.9177761683613 155.14209221344422 559.0281457410139
    vertex 1300.477783791687 158.50001830875277 559.028145741014
    vertex 1303.4777837916872 155.2000183087528 559.0281457410139
  endloop
endfacet
facet normal 5.412337245047638e-16 0.0 1.0
  outer loop
    vertex 1303.4777837916872 155.2000183087528 559.0281457410139
    vertex 1300.477783791687 158.50001830875277 559.028145741014
    vertex 1303.0377914150126 155.14209221344422 559.0281457410139
  endloop
endfacet
facet normal 5.412337245047638e-16 0.0 1.0
  outer loop
    vertex 1303.0377914150126 155.14209221344422 559.0281457410139
    vertex 1300.477783791687 158.50001830875277 559.028145741014
    vertex 1302.627783791687 154.97226149518633 559.0281457410139
  endloop
endfacet
facet normal 5.412337245047638e-16 0.0 1.0
  outer loop
    vertex 1302.627783791687 154.97226149518633 559.0281457410139
    vertex 1300.477783791687 158.50001830875277 559.028145741014
    vertex 1302.27570226367 154.70209983676992 559.0281457410139
  endloop
endfacet
facet normal 5.412337245047638e-16 0.0 1.0
  outer loop
    vertex 1302.27570226367 154.70209983676992 559.0281457410139
    vertex 1300.477783791687 158.50001830875277 559.028145741014
    vertex 1302.0055406052534 154.35001830875282 559.0281457410139
  endloop
endfacet
facet normal 5.412337245047638e-16 0.0 1.0
  outer loop
    vertex 1302.0055406052534 154.35001830875282 559.0281457410139
    vertex 1300.477783791687 158.50001830875277 559.028145741014
    vertex 1301.8357098869956 153.9400106854271 559.0281457410139
  endloop
endfacet
facet normal 5.412337245047638e-16 0.0 1.0
  outer loop
    vertex 1301.8357098869956 153.9400106854271 559.0281457410139
    vertex 1300.477783791687 158.50001830875277 559.028145741014
    vertex 1301.7777837916872 153.50001830875277 559.0281457410139
  endloop
endfacet
facet normal 5.412337245047638e-16 0.0 1.0
  outer loop
    vertex 1306.4777837916872 148.50001830875274 559.028145741014
    vertex 1304.679865319704 152.29793678073565 559.0281457410139
    vertex 1300.477783791687 148.50001830875274 559.028145741014
  endloop
endfacet
facet normal 5.412337245047638e-16 0.0 1.0
  outer loop
    vertex 1304.679865319704 152.29793678073565 559.0281457410139
    vertex 1306.4777837916872 148.50001830875274 559.028145741014
    vertex 1304.9500269781206 152.65001830875275 559.0281457410139
  endloop
endfacet
facet normal 5.412337245047638e-16 0.0 1.0
  outer loop
    vertex 1304.9500269781206 152.65001830875275 559.0281457410139
    vertex 1306.4777837916872 148.50001830875274 559.028145741014
    vertex 1305.1198576963786 153.06002593207847 559.0281457410139
  endloop
endfacet
facet normal 5.412337245047638e-16 0.0 1.0
  outer loop
    vertex 1305.1198576963786 153.06002593207847 559.0281457410139
    vertex 1306.4777837916872 148.50001830875274 559.028145741014
    vertex 1305.177783791687 153.50001830875277 559.0281457410139
  endloop
endfacet
facet normal 5.412337245047638e-16 0.0 1.0
  outer loop
    vertex 1300.477783791687 148.50001830875274 559.028145741014
    vertex 1304.679865319704 152.29793678073565 559.0281457410139
    vertex 1304.3277837916871 152.02777512231924 559.0281457410139
  endloop
endfacet
facet normal 5.412337245047638e-16 0.0 1.0
  outer loop
    vertex 1300.477783791687 148.50001830875274 559.028145741014
    vertex 1304.3277837916871 152.02777512231924 559.0281457410139
    vertex 1303.9177761683613 151.85794440406133 559.0281457410139
  endloop
endfacet
facet normal 5.412337245047638e-16 0.0 1.0
  outer loop
    vertex 1300.477783791687 148.50001830875274 559.028145741014
    vertex 1303.9177761683613 151.85794440406133 559.0281457410139
    vertex 1303.4777837916872 151.80001830875275 559.0281457410139
  endloop
endfacet
facet normal 5.412337245047638e-16 0.0 1.0
  outer loop
    vertex 1300.477783791687 148.50001830875274 559.028145741014
    vertex 1303.4777837916872 151.80001830875275 559.0281457410139
    vertex 1303.0377914150126 151.85794440406133 559.0281457410139
  endloop
endfacet
facet normal 5.412337245047638e-16 0.0 1.0
  outer loop
    vertex 1300.477783791687 148.50001830875274 559.028145741014
    vertex 1303.0377914150126 151.85794440406133 559.0281457410139
    vertex 1302.627783791687 152.02777512231924 559.0281457410139
  endloop
endfacet
facet normal 5.412337245047638e-16 0.0 1.0
  outer loop
    vertex 1300.477783791687 148.50001830875274 559.028145741014
    vertex 1302.627783791687 152.02777512231924 559.0281457410139
    vertex 1302.27570226367 152.29793678073565 559.0281457410139
  endloop
endfacet
facet normal 5.412337245047638e-16 0.0 1.0
  outer loop
    vertex 1300.477783791687 148.50001830875274 559.028145741014
    vertex 1302.27570226367 152.29793678073565 559.0281457410139
    vertex 1302.0055406052534 152.65001830875278 559.0281457410139
  endloop
endfacet
facet normal 5.412337245047638e-16 0.0 1.0
  outer loop
    vertex 1300.477783791687 148.50001830875274 559.028145741014
    vertex 1302.0055406052534 152.65001830875278 559.0281457410139
    vertex 1301.8357098869956 153.06002593207847 559.0281457410139
  endloop
endfacet
facet normal 5.412337245047638e-16 0.0 1.0
  outer loop
    vertex 1300.477783791687 148.50001830875274 559.028145741014
    vertex 1301.8357098869956 153.06002593207847 559.0281457410139
    vertex 1301.7777837916872 153.50001830875277 559.0281457410139
  endloop
endfacet
facet normal 5.412337245047638e-16 0.0 1.0
  outer loop
    vertex 1300.477783791687 148.50001830875274 559.028145741014
    vertex 1301.7777837916872 153.50001830875277 559.0281457410139
    vertex 1300.477783791687 158.50001830875277 559.028145741014
  endloop
endfacet
facet normal 1.0 0.0 -5.412337245047638e-16
  outer loop
    vertex 1320.477783791687 158.50001830875277 556.0281457410139
    vertex 1320.477783791687 148.50001830875274 559.028145741014
    vertex 1320.477783791687 148.50001830875274 556.0281457410139
  endloop
endfacet
facet normal 1.0 0.0 -5.412337245047638e-16
  outer loop
    vertex 1320.477783791687 148.50001830875274 559.028145741014
    vertex 1320.477783791687 158.50001830875277 556.0281457410139
    vertex 1320.477783791687 158.50001830875277 559.028145741014
  endloop
endfacet
facet normal 5.412337245047638e-16 0.0 1.0
  outer loop
    vertex 1320.477783791687 158.50001830875277 559.028145741014
    vertex 1319.1198576963784 153.9400106854271 559.0281457410139
    vertex 1320.477783791687 148.50001830875274 559.028145741014
  endloop
endfacet
facet normal 5.412337245047638e-16 0.0 1.0
  outer loop
    vertex 1319.1198576963784 153.9400106854271 559.0281457410139
    vertex 1320.477783791687 158.50001830875277 559.028145741014
    vertex 1318.9500269781206 154.35001830875277 559.0281457410139
  endloop
endfacet
facet normal 5.412337245047638e-16 0.0 1.0
  outer loop
    vertex 1318.9500269781206 154.35001830875277 559.0281457410139
    vertex 1320.477783791687 158.50001830875277 559.028145741014
    vertex 1318.6798653197043 154.70209983676992 559.0281457410139
  endloop
endfacet
facet normal 5.412337245047638e-16 0.0 1.0
  outer loop
    vertex 1318.6798653197043 154.70209983676992 559.0281457410139
    vertex 1320.477783791687 158.50001830875277 559.028145741014
    vertex 1314.476581186179 158.50001830875277 559.028145741014
  endloop
endfacet
facet normal 5.412337245047638e-16 0.0 1.0
  outer loop
    vertex 1320.477783791687 148.50001830875274 559.028145741014
    vertex 1319.1198576963784 153.9400106854271 559.0281457410139
    vertex 1319.177783791687 153.50001830875277 559.0281457410139
  endloop
endfacet
facet normal 5.412337245047638e-16 0.0 1.0
  outer loop
    vertex 1318.6798653197043 154.70209983676992 559.0281457410139
    vertex 1314.476581186179 158.50001830875277 559.028145741014
    vertex 1318.327783791687 154.97226149518633 559.0281457410139
  endloop
endfacet
facet normal 5.412337245047638e-16 0.0 1.0
  outer loop
    vertex 1318.327783791687 154.97226149518633 559.0281457410139
    vertex 1314.476581186179 158.50001830875277 559.028145741014
    vertex 1317.9177761683613 155.14209221344422 559.0281457410139
  endloop
endfacet
facet normal 5.412337245047638e-16 0.0 1.0
  outer loop
    vertex 1317.9177761683613 155.14209221344422 559.0281457410139
    vertex 1314.476581186179 158.50001830875277 559.028145741014
    vertex 1317.477783791687 155.2000183087528 559.0281457410139
  endloop
endfacet
facet normal 5.412337245047638e-16 0.0 1.0
  outer loop
    vertex 1317.477783791687 155.2000183087528 559.0281457410139
    vertex 1314.476581186179 158.50001830875277 559.028145741014
    vertex 1317.0377914150129 155.14209221344422 559.0281457410139
  endloop
endfacet
facet normal 5.412337245047638e-16 0.0 1.0
  outer loop
    vertex 1317.0377914150129 155.14209221344422 559.0281457410139
    vertex 1314.476581186179 158.50001830875277 559.028145741014
    vertex 1316.627783791687 154.97226149518633 559.0281457410139
  endloop
endfacet
facet normal 5.412337245047638e-16 0.0 1.0
  outer loop
    vertex 1316.627783791687 154.97226149518633 559.0281457410139
    vertex 1314.476581186179 158.50001830875277 559.028145741014
    vertex 1316.27570226367 154.70209983676992 559.0281457410139
  endloop
endfacet
facet normal 5.412337245047638e-16 0.0 1.0
  outer loop
    vertex 1316.27570226367 154.70209983676992 559.0281457410139
    vertex 1314.476581186179 158.50001830875277 559.028145741014
    vertex 1316.0055406052536 154.35001830875282 559.0281457410139
  endloop
endfacet
facet normal 5.412337245047638e-16 0.0 1.0
  outer loop
    vertex 1316.0055406052536 154.35001830875282 559.0281457410139
    vertex 1314.476581186179 158.50001830875277 559.028145741014
    vertex 1315.8357098869956 153.9400106854271 559.0281457410139
  endloop
endfacet
facet normal 5.412337245047638e-16 0.0 1.0
  outer loop
    vertex 1315.8357098869956 153.9400106854271 559.0281457410139
    vertex 1314.476581186179 158.50001830875277 559.028145741014
    vertex 1315.777783791687 153.50001830875277 559.0281457410139
  endloop
endfacet
facet normal 5.412337245047638e-16 0.0 1.0
  outer loop
    vertex 1320.477783791687 148.50001830875274 559.028145741014
    vertex 1318.6798653197043 152.29793678073565 559.0281457410139
    vertex 1314.476581186179 148.50001830875274 559.028145741014
  endloop
endfacet
facet normal 5.412337245047638e-16 0.0 1.0
  outer loop
    vertex 1318.6798653197043 152.29793678073565 559.0281457410139
    vertex 1320.477783791687 148.50001830875274 559.028145741014
    vertex 1318.9500269781206 152.65001830875275 559.0281457410139
  endloop
endfacet
facet normal 5.412337245047638e-16 0.0 1.0
  outer loop
    vertex 1318.9500269781206 152.65001830875275 559.0281457410139
    vertex 1320.477783791687 148.50001830875274 559.028145741014
    vertex 1319.1198576963784 153.06002593207847 559.0281457410139
  endloop
endfacet
facet normal 5.412337245047638e-16 0.0 1.0
  outer loop
    vertex 1319.1198576963784 153.06002593207847 559.0281457410139
    vertex 1320.477783791687 148.50001830875274 559.028145741014
    vertex 1319.177783791687 153.50001830875277 559.0281457410139
  endloop
endfacet
facet normal 5.412337245047638e-16 0.0 1.0
  outer loop
    vertex 1314.476581186179 148.50001830875274 559.028145741014
    vertex 1318.6798653197043 152.29793678073565 559.0281457410139
    vertex 1318.327783791687 152.02777512231924 559.0281457410139
  endloop
endfacet
facet normal 5.412337245047638e-16 0.0 1.0
  outer loop
    vertex 1314.476581186179 148.50001830875274 559.028145741014
    vertex 1318.327783791687 152.02777512231924 559.0281457410139
    vertex 1317.9177761683613 151.85794440406133 559.0281457410139
  endloop
endfacet
facet normal 5.412337245047638e-16 0.0 1.0
  outer loop
    vertex 1314.476581186179 148.50001830875274 559.028145741014
    vertex 1317.9177761683613 151.85794440406133 559.0281457410139
    vertex 1317.477783791687 151.80001830875275 559.0281457410139
  endloop
endfacet
facet normal 5.412337245047638e-16 0.0 1.0
  outer loop
    vertex 1314.476581186179 148.50001830875274 559.028145741014
    vertex 1317.477783791687 151.80001830875275 559.0281457410139
    vertex 1317.0377914150129 151.85794440406133 559.0281457410139
  endloop
endfacet
facet normal 5.412337245047638e-16 0.0 1.0
  outer loop
    vertex 1314.476581186179 148.50001830875274 559.028145741014
    vertex 1317.0377914150129 151.85794440406133 559.0281457410139
    vertex 1316.627783791687 152.02777512231924 559.0281457410139
  endloop
endfacet
facet normal 5.412337245047638e-16 0.0 1.0
  outer loop
    vertex 1314.476581186179 148.50001830875274 559.028145741014
    vertex 1316.627783791687 152.02777512231924 559.0281457410139
    vertex 1316.27570226367 152.29793678073565 559.0281457410139
  endloop
endfacet
facet normal 5.412337245047638e-16 0.0 1.0
  outer loop
    vertex 1314.476581186179 148.50001830875274 559.028145741014
    vertex 1316.27570226367 152.29793678073565 559.0281457410139
    vertex 1316.0055406052536 152.65001830875278 559.0281457410139
  endloop
endfacet
facet normal 5.412337245047638e-16 0.0 1.0
  outer loop
    vertex 1314.476581186179 148.50001830875274 559.028145741014
    vertex 1316.0055406052536 152.65001830875278 559.0281457410139
    vertex 1315.8357098869956 153.06002593207847 559.0281457410139
  endloop
endfacet
facet normal 5.412337245047638e-16 0.0 1.0
  outer loop
    vertex 1314.476581186179 148.50001830875274 559.028145741014
    vertex 1315.8357098869956 153.06002593207847 559.0281457410139
    vertex 1315.777783791687 153.50001830875277 559.0281457410139
  endloop
endfacet
facet normal 5.412337245047638e-16 0.0 1.0
  outer loop
    vertex 1314.476581186179 148.50001830875274 559.028145741014
    vertex 1315.777783791687 153.50001830875277 559.0281457410139
    vertex 1314.476581186179 158.50001830875277 559.028145741014
  endloop
endfacet
facet normal 5.412337245047638e-16 0.0 1.0
  outer loop
    vertex 1306.4777837916872 158.50001830875277 558.2781457410139
    vertex 1314.476581186179 148.50001830875274 558.2781457410139
    vertex 1314.476581186179 158.50001830875277 558.2781457410139
  endloop
endfacet
facet normal 5.412337245047638e-16 0.0 1.0
  outer loop
    vertex 1314.476581186179 148.50001830875274 558.2781457410139
    vertex 1306.4777837916872 158.50001830875277 558.2781457410139
    vertex 1306.4777837916872 148.50001830875274 558.2781457410139
  endloop
endfacet
facet normal -1.0 0.0 5.412337245047638e-16
  outer loop
    vertex 1314.476581186179 158.50001830875277 559.028145741014
    vertex 1314.476581186179 148.50001830875274 558.2781457410139
    vertex 1314.476581186179 148.50001830875274 559.028145741014
  endloop
endfacet
facet normal -1.0 0.0 5.412337245047638e-16
  outer loop
    vertex 1314.476581186179 148.50001830875274 558.2781457410139
    vertex 1314.476581186179 158.50001830875277 559.028145741014
    vertex 1314.476581186179 158.50001830875277 558.2781457410139
  endloop
endfacet
facet normal 1.0 -0.0 -5.412337245047638e-16
  outer loop
    vertex 1306.4777837916872 158.50001830875277 558.2781457410139
    vertex 1306.4777837916872 148.50001830875274 559.028145741014
    vertex 1306.4777837916872 148.50001830875274 558.2781457410139
  endloop
endfacet
facet normal 1.0 -0.0 -5.412337245047638e-16
  outer loop
    vertex 1306.4777837916872 148.50001830875274 559.028145741014
    vertex 1306.4777837916872 158.50001830875277 558.2781457410139
    vertex 1306.4777837916872 158.50001830875277 559.028145741014
  endloop
endfacet
facet normal 0.13052619222002634 -0.9914448613738137 -7.064517716066959e-17
  outer loop
    vertex 1317.0377914150129 155.14209221344422 556.0281457410139
    vertex 1317.477783791687 155.2000183087528 559.0281457410139
    vertex 1317.0377914150129 155.14209221344422 559.0281457410139
  endloop
endfacet
facet normal 0.13052619222002634 -0.9914448613738137 -7.064517716066959e-17
  outer loop
    vertex 1317.477783791687 155.2000183087528 559.0281457410139
    vertex 1317.0377914150129 155.14209221344422 556.0281457410139
    vertex 1317.477783791687 155.2000183087528 556.0281457410139
  endloop
endfacet
facet normal -0.13052619222002634 -0.9914448613738137 7.064517716066959e-17
  outer loop
    vertex 1317.477783791687 155.2000183087528 556.0281457410139
    vertex 1317.9177761683613 155.14209221344422 559.0281457410139
    vertex 1317.477783791687 155.2000183087528 559.0281457410139
  endloop
endfacet
facet normal -0.13052619222002634 -0.9914448613738137 7.064517716066959e-17
  outer loop
    vertex 1317.9177761683613 155.14209221344422 559.0281457410139
    vertex 1317.477783791687 155.2000183087528 556.0281457410139
    vertex 1317.9177761683613 155.14209221344422 556.0281457410139
  endloop
endfacet
facet normal -0.3826834323651525 -0.9238795325112609 2.0712117940525837e-16
  outer loop
    vertex 1317.9177761683613 155.14209221344422 556.0281457410139
    vertex 1318.327783791687 154.97226149518633 559.0281457410139
    vertex 1317.9177761683613 155.14209221344422 559.0281457410139
  endloop
endfacet
facet normal -0.3826834323651525 -0.9238795325112609 2.0712117940525837e-16
  outer loop
    vertex 1318.327783791687 154.97226149518633 559.0281457410139
    vertex 1317.9177761683613 155.14209221344422 556.0281457410139
    vertex 1318.327783791687 154.97226149518633 556.0281457410139
  endloop
endfacet
facet normal -0.6087614290087003 -0.7933533402912507 3.2948221555722125e-16
  outer loop
    vertex 1318.327783791687 154.97226149518633 556.0281457410139
    vertex 1318.6798653197043 154.70209983676992 559.0281457410139
    vertex 1318.327783791687 154.97226149518633 559.0281457410139
  endloop
endfacet
facet normal -0.6087614290087003 -0.7933533402912507 3.2948221555722125e-16
  outer loop
    vertex 1318.6798653197043 154.70209983676992 559.0281457410139
    vertex 1318.327783791687 154.97226149518633 556.0281457410139
    vertex 1318.6798653197043 154.70209983676992 556.0281457410139
  endloop
endfacet
facet normal -0.7933533402912465 -0.6087614290087059 4.2938958321412663e-16
  outer loop
    vertex 1318.6798653197043 154.70209983676992 559.0281457410139
    vertex 1318.9500269781206 154.35001830875277 556.0281457410139
    vertex 1318.9500269781206 154.35001830875277 559.0281457410139
  endloop
endfacet
facet normal -0.7933533402912465 -0.6087614290087059 4.2938958321412663e-16
  outer loop
    vertex 1318.9500269781206 154.35001830875277 556.0281457410139
    vertex 1318.6798653197043 154.70209983676992 559.0281457410139
    vertex 1318.6798653197043 154.70209983676992 556.0281457410139
  endloop
endfacet
facet normal -0.9238795325112749 -0.38268343236511887 5.000347603747973e-16
  outer loop
    vertex 1318.9500269781206 154.35001830875277 559.0281457410139
    vertex 1319.1198576963784 153.9400106854271 556.0281457410139
    vertex 1319.1198576963784 153.9400106854271 559.0281457410139
  endloop
endfacet
facet normal -0.9238795325112749 -0.38268343236511887 5.000347603747973e-16
  outer loop
    vertex 1319.1198576963784 153.9400106854271 556.0281457410139
    vertex 1318.9500269781206 154.35001830875277 559.0281457410139
    vertex 1318.9500269781206 154.35001830875277 556.0281457410139
  endloop
endfacet
facet normal -0.991444861373811 -0.13052619222004638 5.36603394962457e-16
  outer loop
    vertex 1319.1198576963784 153.9400106854271 559.0281457410139
    vertex 1319.177783791687 153.50001830875277 556.0281457410139
    vertex 1319.177783791687 153.50001830875277 559.0281457410139
  endloop
endfacet
facet normal -0.991444861373811 -0.13052619222004638 5.36603394962457e-16
  outer loop
    vertex 1319.177783791687 153.50001830875277 556.0281457410139
    vertex 1319.1198576963784 153.9400106854271 559.0281457410139
    vertex 1319.1198576963784 153.9400106854271 556.0281457410139
  endloop
endfacet
facet normal -0.991444861373811 0.13052619222004638 5.36603394962457e-16
  outer loop
    vertex 1319.177783791687 153.50001830875277 559.0281457410139
    vertex 1319.1198576963784 153.06002593207847 556.0281457410139
    vertex 1319.1198576963784 153.06002593207847 559.0281457410139
  endloop
endfacet
facet normal -0.991444861373811 0.13052619222004638 5.36603394962457e-16
  outer loop
    vertex 1319.1198576963784 153.06002593207847 556.0281457410139
    vertex 1319.177783791687 153.50001830875277 559.0281457410139
    vertex 1319.177783791687 153.50001830875277 556.0281457410139
  endloop
endfacet
facet normal -0.9238795325112896 0.3826834323650829 5.000347603748053e-16
  outer loop
    vertex 1319.1198576963784 153.06002593207847 559.0281457410139
    vertex 1318.9500269781206 152.65001830875275 556.0281457410139
    vertex 1318.9500269781206 152.65001830875275 559.0281457410139
  endloop
endfacet
facet normal -0.9238795325112896 0.3826834323650829 5.000347603748053e-16
  outer loop
    vertex 1318.9500269781206 152.65001830875275 556.0281457410139
    vertex 1319.1198576963784 153.06002593207847 559.0281457410139
    vertex 1319.1198576963784 153.06002593207847 556.0281457410139
  endloop
endfacet
facet normal -0.7933533402912087 0.608761429008755 4.293895832141062e-16
  outer loop
    vertex 1318.9500269781206 152.65001830875275 559.0281457410139
    vertex 1318.6798653197043 152.29793678073565 556.0281457410139
    vertex 1318.6798653197043 152.29793678073565 559.0281457410139
  endloop
endfacet
facet normal -0.7933533402912087 0.608761429008755 4.293895832141062e-16
  outer loop
    vertex 1318.6798653197043 152.29793678073565 556.0281457410139
    vertex 1318.9500269781206 152.65001830875275 559.0281457410139
    vertex 1318.9500269781206 152.65001830875275 556.0281457410139
  endloop
endfacet
facet normal -0.6087614290087003 0.7933533402912507 3.2948221555722125e-16
  outer loop
    vertex 1318.6798653197043 152.29793678073565 556.0281457410139
    vertex 1318.327783791687 152.02777512231924 559.0281457410139
    vertex 1318.6798653197043 152.29793678073565 559.0281457410139
  endloop
endfacet
facet normal -0.6087614290087003 0.7933533402912507 3.2948221555722125e-16
  outer loop
    vertex 1318.327783791687 152.02777512231924 559.0281457410139
    vertex 1318.6798653197043 152.29793678073565 556.0281457410139
    vertex 1318.327783791687 152.02777512231924 556.0281457410139
  endloop
endfacet
facet normal -0.3826834323651525 0.9238795325112609 2.0712117940525837e-16
  outer loop
    vertex 1318.327783791687 152.02777512231924 556.0281457410139
    vertex 1317.9177761683613 151.85794440406133 559.0281457410139
    vertex 1318.327783791687 152.02777512231924 559.0281457410139
  endloop
endfacet
facet normal -0.3826834323651525 0.9238795325112609 2.0712117940525837e-16
  outer loop
    vertex 1317.9177761683613 151.85794440406133 559.0281457410139
    vertex 1318.327783791687 152.02777512231924 556.0281457410139
    vertex 1317.9177761683613 151.85794440406133 556.0281457410139
  endloop
endfacet
facet normal -0.13052619222002634 0.9914448613738137 7.064517716066959e-17
  outer loop
    vertex 1317.9177761683613 151.85794440406133 556.0281457410139
    vertex 1317.477783791687 151.80001830875275 559.0281457410139
    vertex 1317.9177761683613 151.85794440406133 559.0281457410139
  endloop
endfacet
facet normal -0.13052619222002634 0.9914448613738137 7.064517716066959e-17
  outer loop
    vertex 1317.477783791687 151.80001830875275 559.0281457410139
    vertex 1317.9177761683613 151.85794440406133 556.0281457410139
    vertex 1317.477783791687 151.80001830875275 556.0281457410139
  endloop
endfacet
facet normal 0.13052619222002634 0.9914448613738137 -7.064517716066959e-17
  outer loop
    vertex 1317.477783791687 151.80001830875275 556.0281457410139
    vertex 1317.0377914150129 151.85794440406133 559.0281457410139
    vertex 1317.477783791687 151.80001830875275 559.0281457410139
  endloop
endfacet
facet normal 0.13052619222002634 0.9914448613738137 -7.064517716066959e-17
  outer loop
    vertex 1317.0377914150129 151.85794440406133 559.0281457410139
    vertex 1317.477783791687 151.80001830875275 556.0281457410139
    vertex 1317.0377914150129 151.85794440406133 556.0281457410139
  endloop
endfacet
facet normal 0.3826834323651525 0.9238795325112609 -2.0712117940525837e-16
  outer loop
    vertex 1317.0377914150129 151.85794440406133 556.0281457410139
    vertex 1316.627783791687 152.02777512231924 559.0281457410139
    vertex 1317.0377914150129 151.85794440406133 559.0281457410139
  endloop
endfacet
facet normal 0.3826834323651525 0.9238795325112609 -2.0712117940525837e-16
  outer loop
    vertex 1316.627783791687 152.02777512231924 559.0281457410139
    vertex 1317.0377914150129 151.85794440406133 556.0281457410139
    vertex 1316.627783791687 152.02777512231924 556.0281457410139
  endloop
endfacet
facet normal 0.6087614290087003 0.7933533402912507 -3.2948221555722125e-16
  outer loop
    vertex 1316.627783791687 152.02777512231924 556.0281457410139
    vertex 1316.27570226367 152.29793678073565 559.0281457410139
    vertex 1316.627783791687 152.02777512231924 559.0281457410139
  endloop
endfacet
facet normal 0.6087614290087003 0.7933533402912507 -3.2948221555722125e-16
  outer loop
    vertex 1316.27570226367 152.29793678073565 559.0281457410139
    vertex 1316.627783791687 152.02777512231924 556.0281457410139
    vertex 1316.27570226367 152.29793678073565 556.0281457410139
  endloop
endfacet
facet normal 0.7933533402912465 0.6087614290087059 -4.2938958321412663e-16
  outer loop
    vertex 1316.0055406052536 152.65001830875278 556.0281457410139
    vertex 1316.27570226367 152.29793678073565 559.0281457410139
    vertex 1316.27570226367 152.29793678073565 556.0281457410139
  endloop
endfacet
facet normal 0.7933533402912465 0.6087614290087059 -4.2938958321412663e-16
  outer loop
    vertex 1316.27570226367 152.29793678073565 559.0281457410139
    vertex 1316.0055406052536 152.65001830875278 556.0281457410139
    vertex 1316.0055406052536 152.65001830875278 559.0281457410139
  endloop
endfacet
facet normal 0.9238795325112749 0.38268343236511887 -5.000347603747973e-16
  outer loop
    vertex 1315.8357098869956 153.06002593207847 556.0281457410139
    vertex 1316.0055406052536 152.65001830875278 559.0281457410139
    vertex 1316.0055406052536 152.65001830875278 556.0281457410139
  endloop
endfacet
facet normal 0.9238795325112749 0.38268343236511887 -5.000347603747973e-16
  outer loop
    vertex 1316.0055406052536 152.65001830875278 559.0281457410139
    vertex 1315.8357098869956 153.06002593207847 556.0281457410139
    vertex 1315.8357098869956 153.06002593207847 559.0281457410139
  endloop
endfacet
facet normal 0.991444861373811 0.13052619222004638 -5.36603394962457e-16
  outer loop
    vertex 1315.777783791687 153.50001830875277 556.0281457410139
    vertex 1315.8357098869956 153.06002593207847 559.0281457410139
    vertex 1315.8357098869956 153.06002593207847 556.0281457410139
  endloop
endfacet
facet normal 0.991444861373811 0.13052619222004638 -5.36603394962457e-16
  outer loop
    vertex 1315.8357098869956 153.06002593207847 559.0281457410139
    vertex 1315.777783791687 153.50001830875277 556.0281457410139
    vertex 1315.777783791687 153.50001830875277 559.0281457410139
  endloop
endfacet
facet normal 0.991444861373811 -0.13052619222004638 -5.36603394962457e-16
  outer loop
    vertex 1315.8357098869956 153.9400106854271 556.0281457410139
    vertex 1315.777783791687 153.50001830875277 559.0281457410139
    vertex 1315.777783791687 153.50001830875277 556.0281457410139
  endloop
endfacet
facet normal 0.991444861373811 -0.13052619222004638 -5.36603394962457e-16
  outer loop
    vertex 1315.777783791687 153.50001830875277 559.0281457410139
    vertex 1315.8357098869956 153.9400106854271 556.0281457410139
    vertex 1315.8357098869956 153.9400106854271 559.0281457410139
  endloop
endfacet
facet normal 0.9238795325112896 -0.3826834323650829 -5.000347603748053e-16
  outer loop
    vertex 1316.0055406052536 154.35001830875282 556.0281457410139
    vertex 1315.8357098869956 153.9400106854271 559.0281457410139
    vertex 1315.8357098869956 153.9400106854271 556.0281457410139
  endloop
endfacet
facet normal 0.9238795325112896 -0.3826834323650829 -5.000347603748053e-16
  outer loop
    vertex 1315.8357098869956 153.9400106854271 559.0281457410139
    vertex 1316.0055406052536 154.35001830875282 556.0281457410139
    vertex 1316.0055406052536 154.35001830875282 559.0281457410139
  endloop
endfacet
facet normal 0.7933533402912087 -0.608761429008755 -4.293895832141062e-16
  outer loop
    vertex 1316.27570226367 154.70209983676992 556.0281457410139
    vertex 1316.0055406052536 154.35001830875282 559.0281457410139
    vertex 1316.0055406052536 154.35001830875282 556.0281457410139
  endloop
endfacet
facet normal 0.7933533402912087 -0.608761429008755 -4.293895832141062e-16
  outer loop
    vertex 1316.0055406052536 154.35001830875282 559.0281457410139
    vertex 1316.27570226367 154.70209983676992 556.0281457410139
    vertex 1316.27570226367 154.70209983676992 559.0281457410139
  endloop
endfacet
facet normal 0.6087614290087003 -0.7933533402912507 -3.2948221555722125e-16
  outer loop
    vertex 1316.27570226367 154.70209983676992 556.0281457410139
    vertex 1316.627783791687 154.97226149518633 559.0281457410139
    vertex 1316.27570226367 154.70209983676992 559.0281457410139
  endloop
endfacet
facet normal 0.6087614290087003 -0.7933533402912507 -3.2948221555722125e-16
  outer loop
    vertex 1316.627783791687 154.97226149518633 559.0281457410139
    vertex 1316.27570226367 154.70209983676992 556.0281457410139
    vertex 1316.627783791687 154.97226149518633 556.0281457410139
  endloop
endfacet
facet normal 0.3826834323651525 -0.9238795325112609 -2.0712117940525837e-16
  outer loop
    vertex 1316.627783791687 154.97226149518633 556.0281457410139
    vertex 1317.0377914150129 155.14209221344422 559.0281457410139
    vertex 1316.627783791687 154.97226149518633 559.0281457410139
  endloop
endfacet
facet normal 0.3826834323651525 -0.9238795325112609 -2.0712117940525837e-16
  outer loop
    vertex 1317.0377914150129 155.14209221344422 559.0281457410139
    vertex 1316.627783791687 154.97226149518633 556.0281457410139
    vertex 1317.0377914150129 155.14209221344422 556.0281457410139
  endloop
endfacet
facet normal 0.7933533402912087 -0.608761429008755 -4.293895832141062e-16
  outer loop
    vertex 1302.27570226367 154.70209983676992 556.0281457410139
    vertex 1302.0055406052534 154.35001830875282 559.0281457410139
    vertex 1302.0055406052534 154.35001830875282 556.0281457410139
  endloop
endfacet
facet normal 0.7933533402912087 -0.608761429008755 -4.293895832141062e-16
  outer loop
    vertex 1302.0055406052534 154.35001830875282 559.0281457410139
    vertex 1302.27570226367 154.70209983676992 556.0281457410139
    vertex 1302.27570226367 154.70209983676992 559.0281457410139
  endloop
endfacet
facet normal 0.6087614290087003 -0.7933533402912507 -3.2948221555722125e-16
  outer loop
    vertex 1302.27570226367 154.70209983676992 556.0281457410139
    vertex 1302.627783791687 154.97226149518633 559.0281457410139
    vertex 1302.27570226367 154.70209983676992 559.0281457410139
  endloop
endfacet
facet normal 0.6087614290087003 -0.7933533402912507 -3.2948221555722125e-16
  outer loop
    vertex 1302.627783791687 154.97226149518633 559.0281457410139
    vertex 1302.27570226367 154.70209983676992 556.0281457410139
    vertex 1302.627783791687 154.97226149518633 556.0281457410139
  endloop
endfacet
facet normal 0.3826834323651525 -0.9238795325112609 -2.0712117940525837e-16
  outer loop
    vertex 1302.627783791687 154.97226149518633 556.0281457410139
    vertex 1303.0377914150126 155.14209221344422 559.0281457410139
    vertex 1302.627783791687 154.97226149518633 559.0281457410139
  endloop
endfacet
facet normal 0.3826834323651525 -0.9238795325112609 -2.0712117940525837e-16
  outer loop
    vertex 1303.0377914150126 155.14209221344422 559.0281457410139
    vertex 1302.627783791687 154.97226149518633 556.0281457410139
    vertex 1303.0377914150126 155.14209221344422 556.0281457410139
  endloop
endfacet
facet normal 0.13052619222002634 -0.9914448613738137 -7.064517716066959e-17
  outer loop
    vertex 1303.0377914150126 155.14209221344422 556.0281457410139
    vertex 1303.4777837916872 155.2000183087528 559.0281457410139
    vertex 1303.0377914150126 155.14209221344422 559.0281457410139
  endloop
endfacet
facet normal 0.13052619222002634 -0.9914448613738137 -7.064517716066959e-17
  outer loop
    vertex 1303.4777837916872 155.2000183087528 559.0281457410139
    vertex 1303.0377914150126 155.14209221344422 556.0281457410139
    vertex 1303.4777837916872 155.2000183087528 556.0281457410139
  endloop
endfacet
facet normal -0.13052619222002634 -0.9914448613738137 7.064517716066959e-17
  outer loop
    vertex 1303.4777837916872 155.2000183087528 556.0281457410139
    vertex 1303.9177761683613 155.14209221344422 559.0281457410139
    vertex 1303.4777837916872 155.2000183087528 559.0281457410139
  endloop
endfacet
facet normal -0.13052619222002634 -0.9914448613738137 7.064517716066959e-17
  outer loop
    vertex 1303.9177761683613 155.14209221344422 559.0281457410139
    vertex 1303.4777837916872 155.2000183087528 556.0281457410139
    vertex 1303.9177761683613 155.14209221344422 556.0281457410139
  endloop
endfacet
facet normal -0.3826834323651525 -0.9238795325112609 2.0712117940525837e-16
  outer loop
    vertex 1303.9177761683613 155.14209221344422 556.0281457410139
    vertex 1304.3277837916871 154.97226149518633 559.0281457410139
    vertex 1303.9177761683613 155.14209221344422 559.0281457410139
  endloop
endfacet
facet normal -0.3826834323651525 -0.9238795325112609 2.0712117940525837e-16
  outer loop
    vertex 1304.3277837916871 154.97226149518633 559.0281457410139
    vertex 1303.9177761683613 155.14209221344422 556.0281457410139
    vertex 1304.3277837916871 154.97226149518633 556.0281457410139
  endloop
endfacet
facet normal -0.6087614290087003 -0.7933533402912507 3.2948221555722125e-16
  outer loop
    vertex 1304.3277837916871 154.97226149518633 556.0281457410139
    vertex 1304.679865319704 154.70209983676992 559.0281457410139
    vertex 1304.3277837916871 154.97226149518633 559.0281457410139
  endloop
endfacet
facet normal -0.6087614290087003 -0.7933533402912507 3.2948221555722125e-16
  outer loop
    vertex 1304.679865319704 154.70209983676992 559.0281457410139
    vertex 1304.3277837916871 154.97226149518633 556.0281457410139
    vertex 1304.679865319704 154.70209983676992 556.0281457410139
  endloop
endfacet
facet normal -0.7933533402912465 -0.6087614290087059 4.2938958321412663e-16
  outer loop
    vertex 1304.679865319704 154.70209983676992 559.0281457410139
    vertex 1304.9500269781206 154.35001830875277 556.0281457410139
    vertex 1304.9500269781206 154.35001830875277 559.0281457410139
  endloop
endfacet
facet normal -0.7933533402912465 -0.6087614290087059 4.2938958321412663e-16
  outer loop
    vertex 1304.9500269781206 154.35001830875277 556.0281457410139
    vertex 1304.679865319704 154.70209983676992 559.0281457410139
    vertex 1304.679865319704 154.70209983676992 556.0281457410139
  endloop
endfacet
facet normal -0.9238795325112749 -0.38268343236511887 5.000347603747973e-16
  outer loop
    vertex 1304.9500269781206 154.35001830875277 559.0281457410139
    vertex 1305.1198576963786 153.9400106854271 556.0281457410139
    vertex 1305.1198576963786 153.9400106854271 559.0281457410139
  endloop
endfacet
facet normal -0.9238795325112749 -0.38268343236511887 5.000347603747973e-16
  outer loop
    vertex 1305.1198576963786 153.9400106854271 556.0281457410139
    vertex 1304.9500269781206 154.35001830875277 559.0281457410139
    vertex 1304.9500269781206 154.35001830875277 556.0281457410139
  endloop
endfacet
facet normal -0.991444861373811 -0.13052619222004638 5.36603394962457e-16
  outer loop
    vertex 1305.1198576963786 153.9400106854271 559.0281457410139
    vertex 1305.177783791687 153.50001830875277 556.0281457410139
    vertex 1305.177783791687 153.50001830875277 559.0281457410139
  endloop
endfacet
facet normal -0.991444861373811 -0.13052619222004638 5.36603394962457e-16
  outer loop
    vertex 1305.177783791687 153.50001830875277 556.0281457410139
    vertex 1305.1198576963786 153.9400106854271 559.0281457410139
    vertex 1305.1198576963786 153.9400106854271 556.0281457410139
  endloop
endfacet
facet normal -0.991444861373811 0.13052619222004638 5.36603394962457e-16
  outer loop
    vertex 1305.177783791687 153.50001830875277 559.0281457410139
    vertex 1305.1198576963786 153.06002593207847 556.0281457410139
    vertex 1305.1198576963786 153.06002593207847 559.0281457410139
  endloop
endfacet
facet normal -0.991444861373811 0.13052619222004638 5.36603394962457e-16
  outer loop
    vertex 1305.1198576963786 153.06002593207847 556.0281457410139
    vertex 1305.177783791687 153.50001830875277 559.0281457410139
    vertex 1305.177783791687 153.50001830875277 556.0281457410139
  endloop
endfacet
facet normal -0.9238795325112896 0.3826834323650829 5.000347603748053e-16
  outer loop
    vertex 1305.1198576963786 153.06002593207847 559.0281457410139
    vertex 1304.9500269781206 152.65001830875275 556.0281457410139
    vertex 1304.9500269781206 152.65001830875275 559.0281457410139
  endloop
endfacet
facet normal -0.9238795325112896 0.3826834323650829 5.000347603748053e-16
  outer loop
    vertex 1304.9500269781206 152.65001830875275 556.0281457410139
    vertex 1305.1198576963786 153.06002593207847 559.0281457410139
    vertex 1305.1198576963786 153.06002593207847 556.0281457410139
  endloop
endfacet
facet normal -0.7933533402912087 0.608761429008755 4.293895832141062e-16
  outer loop
    vertex 1304.9500269781206 152.65001830875275 559.0281457410139
    vertex 1304.679865319704 152.29793678073565 556.0281457410139
    vertex 1304.679865319704 152.29793678073565 559.0281457410139
  endloop
endfacet
facet normal -0.7933533402912087 0.608761429008755 4.293895832141062e-16
  outer loop
    vertex 1304.679865319704 152.29793678073565 556.0281457410139
    vertex 1304.9500269781206 152.65001830875275 559.0281457410139
    vertex 1304.9500269781206 152.65001830875275 556.0281457410139
  endloop
endfacet
facet normal -0.6087614290087003 0.7933533402912507 3.2948221555722125e-16
  outer loop
    vertex 1304.679865319704 152.29793678073565 556.0281457410139
    vertex 1304.3277837916871 152.02777512231924 559.0281457410139
    vertex 1304.679865319704 152.29793678073565 559.0281457410139
  endloop
endfacet
facet normal -0.6087614290087003 0.7933533402912507 3.2948221555722125e-16
  outer loop
    vertex 1304.3277837916871 152.02777512231924 559.0281457410139
    vertex 1304.679865319704 152.29793678073565 556.0281457410139
    vertex 1304.3277837916871 152.02777512231924 556.0281457410139
  endloop
endfacet
facet normal -0.3826834323651525 0.9238795325112609 2.0712117940525837e-16
  outer loop
    vertex 1304.3277837916871 152.02777512231924 556.0281457410139
    vertex 1303.9177761683613 151.85794440406133 559.0281457410139
    vertex 1304.3277837916871 152.02777512231924 559.0281457410139
  endloop
endfacet
facet normal -0.3826834323651525 0.9238795325112609 2.0712117940525837e-16
  outer loop
    vertex 1303.9177761683613 151.85794440406133 559.0281457410139
    vertex 1304.3277837916871 152.02777512231924 556.0281457410139
    vertex 1303.9177761683613 151.85794440406133 556.0281457410139
  endloop
endfacet
facet normal -0.13052619222002634 0.9914448613738137 7.064517716066959e-17
  outer loop
    vertex 1303.9177761683613 151.85794440406133 556.0281457410139
    vertex 1303.4777837916872 151.80001830875275 559.0281457410139
    vertex 1303.9177761683613 151.85794440406133 559.0281457410139
  endloop
endfacet
facet normal -0.13052619222002634 0.9914448613738137 7.064517716066959e-17
  outer loop
    vertex 1303.4777837916872 151.80001830875275 559.0281457410139
    vertex 1303.9177761683613 151.85794440406133 556.0281457410139
    vertex 1303.4777837916872 151.80001830875275 556.0281457410139
  endloop
endfacet
facet normal 0.13052619222002634 0.9914448613738137 -7.064517716066959e-17
  outer loop
    vertex 1303.4777837916872 151.80001830875275 556.0281457410139
    vertex 1303.0377914150126 151.85794440406133 559.0281457410139
    vertex 1303.4777837916872 151.80001830875275 559.0281457410139
  endloop
endfacet
facet normal 0.13052619222002634 0.9914448613738137 -7.064517716066959e-17
  outer loop
    vertex 1303.0377914150126 151.85794440406133 559.0281457410139
    vertex 1303.4777837916872 151.80001830875275 556.0281457410139
    vertex 1303.0377914150126 151.85794440406133 556.0281457410139
  endloop
endfacet
facet normal 0.3826834323651525 0.9238795325112609 -2.0712117940525837e-16
  outer loop
    vertex 1303.0377914150126 151.85794440406133 556.0281457410139
    vertex 1302.627783791687 152.02777512231924 559.0281457410139
    vertex 1303.0377914150126 151.85794440406133 559.0281457410139
  endloop
endfacet
facet normal 0.3826834323651525 0.9238795325112609 -2.0712117940525837e-16
  outer loop
    vertex 1302.627783791687 152.02777512231924 559.0281457410139
    vertex 1303.0377914150126 151.85794440406133 556.0281457410139
    vertex 1302.627783791687 152.02777512231924 556.0281457410139
  endloop
endfacet
facet normal 0.6087614290087003 0.7933533402912507 -3.2948221555722125e-16
  outer loop
    vertex 1302.627783791687 152.02777512231924 556.0281457410139
    vertex 1302.27570226367 152.29793678073565 559.0281457410139
    vertex 1302.627783791687 152.02777512231924 559.0281457410139
  endloop
endfacet
facet normal 0.6087614290087003 0.7933533402912507 -3.2948221555722125e-16
  outer loop
    vertex 1302.27570226367 152.29793678073565 559.0281457410139
    vertex 1302.627783791687 152.02777512231924 556.0281457410139
    vertex 1302.27570226367 152.29793678073565 556.0281457410139
  endloop
endfacet
facet normal 0.7933533402912465 0.6087614290087059 -4.2938958321412663e-16
  outer loop
    vertex 1302.0055406052534 152.65001830875278 556.0281457410139
    vertex 1302.27570226367 152.29793678073565 559.0281457410139
    vertex 1302.27570226367 152.29793678073565 556.0281457410139
  endloop
endfacet
facet normal 0.7933533402912465 0.6087614290087059 -4.2938958321412663e-16
  outer loop
    vertex 1302.27570226367 152.29793678073565 559.0281457410139
    vertex 1302.0055406052534 152.65001830875278 556.0281457410139
    vertex 1302.0055406052534 152.65001830875278 559.0281457410139
  endloop
endfacet
facet normal 0.9238795325112749 0.38268343236511887 -5.000347603747973e-16
  outer loop
    vertex 1301.8357098869956 153.06002593207847 556.0281457410139
    vertex 1302.0055406052534 152.65001830875278 559.0281457410139
    vertex 1302.0055406052534 152.65001830875278 556.0281457410139
  endloop
endfacet
facet normal 0.9238795325112749 0.38268343236511887 -5.000347603747973e-16
  outer loop
    vertex 1302.0055406052534 152.65001830875278 559.0281457410139
    vertex 1301.8357098869956 153.06002593207847 556.0281457410139
    vertex 1301.8357098869956 153.06002593207847 559.0281457410139
  endloop
endfacet
facet normal 0.991444861373811 0.13052619222004638 -5.36603394962457e-16
  outer loop
    vertex 1301.7777837916872 153.50001830875277 556.0281457410139
    vertex 1301.8357098869956 153.06002593207847 559.0281457410139
    vertex 1301.8357098869956 153.06002593207847 556.0281457410139
  endloop
endfacet
facet normal 0.991444861373811 0.13052619222004638 -5.36603394962457e-16
  outer loop
    vertex 1301.8357098869956 153.06002593207847 559.0281457410139
    vertex 1301.7777837916872 153.50001830875277 556.0281457410139
    vertex 1301.7777837916872 153.50001830875277 559.0281457410139
  endloop
endfacet
facet normal 0.991444861373811 -0.13052619222004638 -5.36603394962457e-16
  outer loop
    vertex 1301.8357098869956 153.9400106854271 556.0281457410139
    vertex 1301.7777837916872 153.50001830875277 559.0281457410139
    vertex 1301.7777837916872 153.50001830875277 556.0281457410139
  endloop
endfacet
facet normal 0.991444861373811 -0.13052619222004638 -5.36603394962457e-16
  outer loop
    vertex 1301.7777837916872 153.50001830875277 559.0281457410139
    vertex 1301.8357098869956 153.9400106854271 556.0281457410139
    vertex 1301.8357098869956 153.9400106854271 559.0281457410139
  endloop
endfacet
facet normal 0.9238795325112896 -0.3826834323650829 -5.000347603748053e-16
  outer loop
    vertex 1302.0055406052534 154.35001830875282 556.0281457410139
    vertex 1301.8357098869956 153.9400106854271 559.0281457410139
    vertex 1301.8357098869956 153.9400106854271 556.0281457410139
  endloop
endfacet
facet normal 0.9238795325112896 -0.3826834323650829 -5.000347603748053e-16
  outer loop
    vertex 1301.8357098869956 153.9400106854271 559.0281457410139
    vertex 1302.0055406052534 154.35001830875282 556.0281457410139
    vertex 1302.0055406052534 154.35001830875282 559.0281457410139
  endloop
endfacet
endsolid Flsun Cube Linear Rail X-Y Gantry v3
